<?xml version="1.0" standalone="no"?>
<!DOCTYPE svg PUBLIC "-//W3C//DTD SVG 1.1//EN" "http://www.w3.org/Graphics/SVG/1.1/DTD/svg11.dtd" >
<svg xmlns="http://www.w3.org/2000/svg">
<metadata>
Generated by SVGconv.
Copyright   : Copyright (c) 2012 by Vyacheslav Kirilenko, Gayane Bagdasaryan. All rights reserved.
Designer    : Vyacheslav Kirilenko, Gayane Bagdasaryan
Foundry     : Vyacheslav Kirilenko, Gayane Bagdasaryan
Foundry URL : http://www.brownfox.org
</metadata>
<defs>
<font id="Geometria" horiz-adv-x="699" >
<font-face units-per-em="1000" ascent="949" descent="309" />
<missing-glyph horiz-adv-x="711" />
<glyph unicode="&#13;" horiz-adv-x="264" />
<glyph unicode="&#32;" horiz-adv-x="264" />
<glyph unicode="&#33;" horiz-adv-x="285" d="M97 700h93l-13 -485h-67zM91 46q0 22 15 37q15 15 37 15q22 0 37 -15q15 -15 15 -37q0 -22 -15 -37q-15 -15 -37 -15q-22 0 -37 15t-15 37z" />
<glyph unicode="&#34;" horiz-adv-x="359" d="M55 700h64v-253h-64zM240 700h64v-253l-64 0z" />
<glyph unicode="&#35;" horiz-adv-x="728" d="M180 189h-145l10 61h144l32 199h-145l10 61h144l31 190h61l-30 -190h195l30 190h61l-30 -190h145l-10 -61h-144l-32 -199h145l-10 -61h-145l-30 -189h-61l30 189h-195l-30 -189h-61zM446 250l31 199h-195l-31 -199z" />
<glyph unicode="&#36;" horiz-adv-x="627" d="M269 -112v102q-70 5 -128 25q-58 20 -93 47l0 83q18 -16 45 -31.5q27 -15.5 60 -28q33 -12.5 71 -20.5q38 -8 78 -8q40 0 74.5 9q34.5 9 60 26q25.5 17 40 41.5q14.5 24.5 14.5 55.5q0 34 -15.5 57q-15.5 23 -42.5 38.5q-27 15.5 -63 27q-36 11.5 -76 23.5q-48 13 -90.5 27.5q-42.5 14.5 -74 36q-31.5 21.5 -49.5 53q-18 31.5 -18 79.5q0 35 13.5 66q13.5 31 39.5 54.5q26 23.5 65 39q39 15.5 89 19.5l0 103h74v-103q53 -5 98 -19.5q45 -14.5 81 -36.5l0 -76q-43 27 -98.5 46q-55.5 19 -117.5 19q-45 0 -77 -9.5q-32 -9.5 -52.5 -25.5q-20.5 -16 -30 -36.5q-9.5 -20.5 -9.5 -42.5q0 -32 16.5 -52.5q16.5 -20.5 44 -34.5q27.5 -14 63 -24q35.5 -10 73.5 -21q42 -13 84 -28q42 -15 75 -38.5q33 -23.5 53.5 -57q20.5 -33.5 20.5 -83.5q0 -45 -18 -80.5q-18 -35.5 -48.5 -60.5q-30.5 -25 -71 -40q-40.5 -15 -86.5 -19l0 -103z" />
<glyph unicode="&#37;" horiz-adv-x="826" d="M587 700h63l-410 -700h-63zM215 712q37 0 68 -13q31 -13 53.5 -36q22.5 -23 35 -53.5q12.5 -30.5 12.5 -65.5q0 -35 -12.5 -66q-12.5 -31 -35 -54q-22.5 -23 -53.5 -36q-31 -13 -68 -13q-36 0 -67 13q-31 13 -53 36q-22 23 -34.5 54q-12.5 31 -12.5 66q0 35 12.5 65.5q12.5 30.5 34.5 53.5q22 23 53 36q31 13 67 13zt0 0zM215 430q48 0 78.5 32.5q30.5 32.5 30.5 81.5q0 24 -8 44.5q-8 20.5 -22.5 35.5q-14.5 15 -34.5 24q-20 9 -44 9q-24 0 -44 -9q-20 -9 -34 -24q-14 -15 -22 -35.5q-8 -20.5 -8 -44.5q0 -49 30 -81.5q30 -32.5 78 -32.5zt0 0zM610 325q37 0 67.5 -13q30.5 -13 53 -36q22.5 -23 35 -54q12.5 -31 12.5 -66q0 -35 -12.5 -65.5q-12.5 -30.5 -35 -53.5q-22.5 -23 -53 -36q-30.5 -13 -67.5 -13q-36 0 -67 13q-31 13 -53 36q-22 23 -34.5 53.5q-12.5 30.5 -12.5 65.5q0 35 12.5 66q12.5 31 34.5 54q22 23 53 36q31 13 67 13zt0 0zM610 43q48 0 78 32.5q30 32.5 30 80.5q0 48 -30 81q-30 33 -78 33q-48 0 -78 -33q-30 -33 -30 -81q0 -48 30 -80.5t78 -32.5z" />
<glyph unicode="&#38;" horiz-adv-x="713" d="M499 584q-33 26 -73.5 44.5q-40.5 18.5 -91.5 18.5q-60 0 -94.5 -30q-34.5 -30 -34.5 -81q0 -22 6.5 -40q6.5 -18 16.5 -33.5q10 -15.5 22.5 -29q12.5 -13.5 25.5 -26.5l239 -233q54 83 60 201l72 0q-4 -71 -24.5 -135q-20.5 -64 -57.5 -115l128 -125h-96l-76 74q-43 -40 -98.5 -63q-55.5 -23 -123.5 -23q-50 0 -96 14q-46 14 -80.5 41.5q-34.5 27.5 -55 69q-20.5 41.5 -20.5 96.5q0 42 13 75q13 33 33 58q20 25 43 41.5q23 16.5 43 25.5q-20 23 -34 53q-14 30 -14 74q0 38 14.5 70.5q14.5 32.5 40.5 56q26 23.5 61 36.5q35 13 77 13q56 0 99.5 -15q43.5 -15 75.5 -38zM303 53q51 0 93.5 18q42.5 18 75.5 50l-246 240q-19 -6 -37.5 -19q-18.5 -13 -33.5 -32q-15 -19 -24.5 -44.5q-9.5 -25.5 -9.5 -56.5q0 -36 13.5 -65q13.5 -29 38 -49.5q24.5 -20.5 58 -31t72.5 -10.5z" />
<glyph unicode="&#39;" horiz-adv-x="174" d="M55 700h64v-253l-64 0z" />
<glyph unicode="&#40;" horiz-adv-x="362" d="M243 -212q-30 39 -57.5 86.5q-27.5 47.5 -47.5 104.5q-20 57 -32 123q-12 66 -12 142q0 76 12 142q12 66 32 123q20 57 47.5 104.5q27.5 47.5 57.5 86.5l77 0q-31 -40 -59 -87.5q-28 -47.5 -49.5 -104q-21.5 -56.5 -34.5 -122.5q-13 -66 -13 -142q0 -77 13 -142.5q13 -65.5 34.5 -122q21.5 -56.5 49.5 -104q28 -47.5 59 -87.5l-77 0z" />
<glyph unicode="&#41;" horiz-adv-x="362" d="M42 -212q31 40 59 87.5q28 47.5 49.5 104q21.5 56.5 34.5 122q13 65.5 13 142.5q0 76 -13 142q-13 66 -34.5 122.5q-21.5 56.5 -49.5 104q-28 47.5 -59 87.5l77 0q30 -39 57.5 -86.5q27.5 -47.5 47.5 -104.5q20 -57 32 -123q12 -66 12 -142q0 -76 -12 -142q-12 -66 -32 -123q-20 -57 -47.5 -104.5q-27.5 -47.5 -57.5 -86.5z" />
<glyph unicode="&#42;" horiz-adv-x="426" d="M189 478l-117 -71l-28 47l120 67l-120 66l28 48l117 -72l-3 137h55l-3 -137l117 72l28 -48l-121 -66l121 -67l-28 -47l-117 71l3 -137l-55 0z" />
<glyph unicode="&#43;" horiz-adv-x="619" d="M277 292h-207v67h207v206h65v-206h207v-67h-207v-205l-65 0z" />
<glyph unicode="&#44;" horiz-adv-x="236" d="M95 103h84l-106 -255l-58 0z" />
<glyph unicode="&#45;" horiz-adv-x="481" d="M100 305h281v-67l-281 0z" />
<glyph unicode="&#46;" horiz-adv-x="236" d="M66 46q0 22 15 37q15 15 37 15q22 0 37 -15q15 -15 15 -37q0 -22 -15 -37q-15 -15 -37 -15q-22 0 -37 15t-15 37z" />
<glyph unicode="&#47;" horiz-adv-x="511" d="M426 792h75l-421 -932l-75 0z" />
<glyph unicode="&#48;" horiz-adv-x="708" d="M354 -12q-65 0 -118 28.5q-53 28.5 -90.5 77.5q-37.5 49 -58 115q-20.5 66 -20.5 141q0 75 20.5 141q20.5 66 58 115q37.5 49 90.5 77.5q53 28.5 118 28.5q65 0 118 -28.5q53 -28.5 90.5 -77.5q37.5 -49 57.5 -115q20 -66 20 -141q0 -75 -20 -141q-20 -66 -57.5 -115q-37.5 -49 -90.5 -77.5q-53 -28.5 -118 -28.5zt0 0zM354 57q47 0 86.5 22.5q39.5 22.5 67.5 62q28 39.5 43.5 93q15.5 53.5 15.5 115.5q0 62 -15.5 115.5q-15.5 53.5 -43.5 93q-28 39.5 -67.5 62q-39.5 22.5 -86.5 22.5q-47 0 -86.5 -22.5q-39.5 -22.5 -67.5 -62q-28 -39.5 -43.5 -93q-15.5 -53.5 -15.5 -115.5q0 -62 15.5 -115.5q15.5 -53.5 43.5 -93q28 -39.5 67.5 -62t86.5 -22.5z" />
<glyph unicode="&#49;" horiz-adv-x="373" d="M191 620l-157 -90v71l165 99h65v-700l-73 0z" />
<glyph unicode="&#50;" horiz-adv-x="575" d="M44 55l236 225q35 33 61.5 60.5q26.5 27.5 44 53.5q17.5 26 26.5 52.5q9 26.5 9 57.5q0 62 -43.5 100.5q-43.5 38.5 -115.5 38.5q-34 0 -62.5 -7.5q-28.5 -7.5 -53 -20q-24.5 -12.5 -46 -30q-21.5 -17.5 -40.5 -36.5l0 83q35 32 86.5 56q51.5 24 122.5 24q48 0 89 -14q41 -14 71.5 -40.5q30.5 -26.5 48 -63q17.5 -36.5 17.5 -81.5q0 -38 -9.5 -69.5q-9.5 -31.5 -28.5 -62.5q-19 -31 -48 -63q-29 -32 -69 -70l-188 -181h369v-67l-477 0z" />
<glyph unicode="&#51;" horiz-adv-x="571" d="M245 -12q-65 0 -116 14q-51 14 -88 37l0 77q35 -25 86 -42q51 -17 114 -17q38 0 73.5 11q35.5 11 63 32q27.5 21 44 51.5q16.5 30.5 16.5 70.5q0 72 -51 115.5q-51 43.5 -139 43.5q-23 0 -42 -2.5q-19 -2.5 -36 -7.5l0 51l216 211h-316v67h416v-55l-209 -205q43 -1 85 -16q42 -15 75.5 -43.5q33.5 -28.5 54 -68.5q20.5 -40 20.5 -90q0 -53 -21 -96.5q-21 -43.5 -57 -74q-36 -30.5 -85 -47t-104 -16.5z" />
<glyph unicode="&#52;" horiz-adv-x="633" d="M412 193h-376v59l377 448h71v-440h116v-67h-116v-193h-72zM412 260v342l-290 -342z" />
<glyph unicode="&#53;" horiz-adv-x="597" d="M255 -12q-61 0 -108.5 12.5q-47.5 12.5 -84.5 33.5l0 74q33 -20 81.5 -35.5q48.5 -15.5 109.5 -15.5q44 0 81.5 12q37.5 12 65 33.5q27.5 21.5 43 52q15.5 30.5 15.5 66.5q0 34 -14 63.5q-14 29.5 -39.5 51q-25.5 21.5 -62.5 33.5q-37 12 -83 12q-87 0 -168 -29l46 348h346v-67h-290l-28 -202q23 6 49.5 9.5q26.5 3.5 61.5 3.5q55 0 101.5 -16.5q46.5 -16.5 81 -45.5q34.5 -29 54 -70.5q19.5 -41.5 19.5 -90.5q0 -53 -21.5 -95.5q-21.5 -42.5 -58.5 -73.5q-37 -31 -88 -47.5t-109 -16.5z" />
<glyph unicode="&#54;" horiz-adv-x="641" d="M336 -12q-61 0 -110 22q-49 22 -83.5 64q-34.5 42 -53 103q-18.5 61 -18.5 139q0 82 20.5 154.5q20.5 72.5 59.5 126q39 53.5 95.5 84.5q56.5 31 128.5 31q40 0 78 -10.5q38 -10.5 70 -32.5l0 -71q-66 45 -142 45q-63 0 -107.5 -26q-44.5 -26 -73 -68.5q-28.5 -42.5 -42.5 -96q-14 -53.5 -15 -108.5q26 45 78.5 74.5q52.5 29.5 126.5 29.5q46 0 87 -16q41 -16 72 -45.5q31 -29.5 49 -70.5q18 -41 18 -91q0 -52 -18.5 -95.5q-18.5 -43.5 -50.5 -75q-32 -31.5 -75.5 -49q-43.5 -17.5 -93.5 -17.5zt0 0zM332 57q36 0 66.5 12.5q30.5 12.5 53.5 35q23 22.5 36 53q13 30.5 13 67.5q0 37 -13.5 66q-13.5 29 -36.5 49.5q-23 20.5 -54 31.5q-31 11 -67 11q-32 0 -61 -10.5q-29 -10.5 -53.5 -29q-24.5 -18.5 -43 -43.5q-18.5 -25 -27.5 -53q9 -88 55.5 -139t131.5 -51z" />
<glyph unicode="&#55;" horiz-adv-x="553" d="M422 633h-377v67h462v-55l-327 -645l-78 0z" />
<glyph unicode="&#56;" horiz-adv-x="645" d="M438 369q67 -17 108.5 -63q41.5 -46 41.5 -115q0 -47 -21 -84.5q-21 -37.5 -57 -64q-36 -26.5 -84.5 -40.5q-48.5 -14 -103.5 -14q-55 0 -103.5 14q-48.5 14 -84.5 40.5q-36 26.5 -57 64q-21 37.5 -21 84.5q0 69 42 115q42 46 109 63q-51 21 -83.5 61.5q-32.5 40.5 -32.5 98.5q0 41 17.5 74.5q17.5 33.5 48.5 57.5q31 24 73.5 37.5q42.5 13.5 91.5 13.5q49 0 91.5 -13.5q42.5 -13.5 74 -37.5q31.5 -24 49 -57.5q17.5 -33.5 17.5 -74.5q0 -58 -32.5 -98.5q-32.5 -40.5 -83.5 -61.5zt0 0zM161 523q0 -28 12.5 -51q12.5 -23 34 -39q21.5 -16 51 -25q29.5 -9 63.5 -9q34 0 63.5 9q29.5 9 51.5 25q22 16 34.5 39q12.5 23 12.5 51q0 28 -12.5 51.5q-12.5 23.5 -34.5 40q-22 16.5 -51.5 25.5q-29.5 9 -63.5 9q-34 0 -63.5 -9q-29.5 -9 -51 -25.5q-21.5 -16.5 -34 -40q-12.5 -23.5 -12.5 -51.5zt0 0zM322 51q41 0 76 11q35 11 61 30.5q26 19.5 41 45.5q15 26 15 57q0 32 -15 58q-15 26 -41 44.5q-26 18.5 -61 28.5q-35 10 -76 10q-41 0 -76 -10q-35 -10 -60.5 -28.5q-25.5 -18.5 -40.5 -44.5q-15 -26 -15 -58q0 -31 15 -57q15 -26 40.5 -45.5q25.5 -19.5 60.5 -30.5t76 -11z" />
<glyph unicode="&#57;" horiz-adv-x="641" d="M309 712q61 0 110 -22q49 -22 83.5 -64q34.5 -42 53 -103q18.5 -61 18.5 -139q0 -83 -20.5 -155q-20.5 -72 -59.5 -125.5q-39 -53.5 -95.5 -84.5q-56.5 -31 -128.5 -31q-40 0 -78 10.5q-38 10.5 -70 32.5l0 71q66 -45 142 -45q63 0 107.5 26q44.5 26 73 68.5q28.5 42.5 42.5 96q14 53.5 15 108.5q-26 -45 -78.5 -74.5q-52.5 -29.5 -126.5 -29.5q-46 0 -87 16q-41 16 -72 45q-31 29 -49 70.5q-18 41.5 -18 91.5q0 52 18.5 95.5q18.5 43.5 50.5 75q32 31.5 75.5 49q43.5 17.5 93.5 17.5zt0 0zM313 643q-36 0 -66.5 -12.5q-30.5 -12.5 -53.5 -35q-23 -22.5 -36 -53q-13 -30.5 -13 -67.5q0 -37 13.5 -66q13.5 -29 36.5 -49.5q23 -20.5 54 -31.5q31 -11 67 -11q31 0 60.5 10.5q29.5 10.5 54 29q24.5 18.5 43 43q18.5 24.5 27.5 53.5q-9 88 -55.5 139t-131.5 51z" />
<glyph unicode="&#58;" horiz-adv-x="236" d="M66 418q0 22 15 37q15 15 37 15q22 0 37 -15q15 -15 15 -37q0 -22 -15 -37q-15 -15 -37 -15q-22 0 -37 15q-15 15 -15 37zt0 0zM66 46q0 22 15 37q15 15 37 15q22 0 37 -15q15 -15 15 -37q0 -22 -15 -37q-15 -15 -37 -15q-22 0 -37 15t-15 37z" />
<glyph unicode="&#59;" horiz-adv-x="242" d="M95 103h84l-106 -255h-58zM81 418q0 22 15 37q15 15 37 15q22 0 37 -15q15 -15 15 -37q0 -22 -15 -37q-15 -15 -37 -15q-22 0 -37 15t-15 37z" />
<glyph unicode="&#60;" horiz-adv-x="619" d="M70 289v68l479 205v-72l-401 -167l401 -166l0 -72z" />
<glyph unicode="&#61;" horiz-adv-x="619" d="M70 472h479v-66h-479zM70 244h479v-66l-479 0z" />
<glyph unicode="&#62;" horiz-adv-x="619" d="M70 157l401 166l-401 167v72l479 -205v-68l-479 -204z" />
<glyph unicode="&#63;" horiz-adv-x="476" d="M175 360q31 6 63.5 19.5q32.5 13.5 58 33.5q25.5 20 42 45.5q16.5 25.5 16.5 57.5q0 29 -11.5 52.5q-11.5 23.5 -32 40q-20.5 16.5 -48 25.5q-27.5 9 -60.5 9q-53 0 -96 -18q-43 -18 -76 -41l0 68q33 25 81 40.5q48 15.5 102 15.5q43 0 82 -13q39 -13 68.5 -37.5q29.5 -24.5 47 -59.5q17.5 -35 17.5 -79q0 -39 -16 -70.5q-16 -31.5 -41.5 -56q-25.5 -24.5 -59 -42q-33.5 -17.5 -67.5 -28.5l0 -107h-70zM160 46q0 22 15 37q15 15 37 15q22 0 37 -15q15 -15 15 -37q0 -22 -15 -37q-15 -15 -37 -15q-22 0 -37 15t-15 37z" />
<glyph unicode="&#64;" horiz-adv-x="962" d="M482 -162q-89 0 -168 33q-79 33 -137.5 91.5q-58.5 58.5 -92.5 138.5q-34 80 -34 174q0 93 34 173q34 80 92.5 138.5q58.5 58.5 137.5 92q79 33.5 168 33.5q92 0 171 -32q79 -32 136.5 -87.5q57.5 -55.5 90.5 -130.5q33 -75 33 -161q0 -51 -12 -94.5q-12 -43.5 -34 -75q-22 -31.5 -54 -49.5q-32 -18 -71 -18q-53 0 -82.5 24q-29.5 24 -41.5 54q-9 -13 -24 -27q-15 -14 -35.5 -26q-20.5 -12 -45.5 -19.5q-25 -7.5 -55 -7.5q-45 0 -81.5 17q-36.5 17 -62.5 46q-26 29 -40.5 67.5q-14.5 38.5 -14.5 81.5q0 43 14.5 81.5q14.5 38.5 40.5 67.5q26 29 62.5 46q36.5 17 80.5 17q28 0 52 -7q24 -7 42.5 -17.5q18.5 -10.5 33 -23q14.5 -12.5 23.5 -24.5l0 57h70v-271q0 -54 22 -79q22 -25 57 -25q27 0 50 14.5q23 14.5 40.5 41.5q17.5 27 27 65q9.5 38 9.5 85q0 76 -28 145.5q-28 69.5 -80.5 122q-52.5 52.5 -127 84q-74.5 31.5 -166.5 31.5q-88 0 -162 -32.5q-74 -32.5 -127.5 -88q-53.5 -55.5 -83.5 -130.5q-30 -75 -30 -159q0 -85 30 -160q30 -75 83.5 -130.5q53.5 -55.5 127.5 -87.5q74 -32 162 -32q62 0 112.5 14q50.5 14 95.5 38l0 -30q-45 -23 -97 -36q-52 -13 -111 -13zt0 0zM476 125q42 0 77.5 23q35.5 23 54.5 56l0 140q-19 33 -54.5 56q-35.5 23 -77.5 23q-31 0 -57.5 -11.5q-26.5 -11.5 -46 -31.5q-19.5 -20 -30.5 -47.5q-11 -27.5 -11 -58.5q0 -31 11 -58q11 -27 30.5 -47.5q19.5 -20.5 46 -32t57.5 -11.5z" />
<glyph unicode="&#65;" horiz-adv-x="753" d="M342 704h69l313 -704h-78l-87 193h-367l-85 -193h-77zM535 258l-159 353l-159 -353z" />
<glyph unicode="&#66;" horiz-adv-x="726" d="M99 700h303q94 0 147.5 -45q53.5 -45 53.5 -125q0 -57 -25 -94.5q-25 -37.5 -67 -53.5q69 -11 110.5 -60q41.5 -49 41.5 -127q0 -44 -15.5 -79.5q-15.5 -35.5 -45 -61.5q-29.5 -26 -72.5 -40q-43 -14 -97 -14h-334zM420 67q78 0 121 35.5q43 35.5 43 101.5q0 65 -43 100q-43 35 -121 35h-247v-272zM390 404q67 0 103.5 29q36.5 29 36.5 84q0 57 -36.5 86.5q-36.5 29.5 -103.5 29.5h-217l0 -229z" />
<glyph unicode="&#67;" horiz-adv-x="690" d="M429 -12q-76 0 -141.5 26.5q-65.5 26.5 -114 74.5q-48.5 48 -76 114.5q-27.5 66.5 -27.5 146.5q0 79 27.5 145.5q27.5 66.5 75.5 114.5q48 48 113.5 75q65.5 27 142.5 27q56 0 104.5 -12.5q48.5 -12.5 91.5 -39.5l0 -76q-43 28 -90 43.5q-47 15.5 -105 15.5q-60 0 -112 -22q-52 -22 -90.5 -61q-38.5 -39 -60.5 -93q-22 -54 -22 -117q0 -64 22 -117.5q22 -53.5 61 -92.5q39 -39 91.5 -61q52.5 -22 112.5 -22q121 0 208 70l0 -77q-42 -31 -95.5 -46.5t-115.5 -15.5z" />
<glyph unicode="&#68;" horiz-adv-x="778" d="M99 700h229q84 0 154 -25.5q70 -25.5 120 -71.5q50 -46 77.5 -110.5q27.5 -64.5 27.5 -142.5q0 -78 -27.5 -142.5q-27.5 -64.5 -77.5 -110.5q-50 -46 -120 -71.5q-70 -25.5 -154 -25.5h-229zM319 67q73 0 131 20q58 20 98.5 57q40.5 37 62 89.5q21.5 52.5 21.5 116.5q0 64 -21.5 116.5q-21.5 52.5 -62 89.5q-40.5 37 -98.5 57q-58 20 -131 20h-146l0 -566z" />
<glyph unicode="&#69;" horiz-adv-x="640" d="M99 700h480v-67h-406v-224h333v-67h-333v-275h421v-67l-495 0z" />
<glyph unicode="&#70;" horiz-adv-x="622" d="M99 700h477v-67h-403v-233h327v-67h-327v-333l-74 0z" />
<glyph unicode="&#71;" horiz-adv-x="780" d="M427 -12q-75 0 -140.5 26.5q-65.5 26.5 -113.5 74.5q-48 48 -75.5 114.5q-27.5 66.5 -27.5 146.5q0 79 27.5 145.5q27.5 66.5 75.5 114.5q48 48 113.5 75q65.5 27 142.5 27q65 0 121 -17q56 -17 101 -50l0 -75q-49 37 -105 55q-56 18 -113 18q-61 0 -113.5 -22q-52.5 -22 -91.5 -61q-39 -39 -61 -93q-22 -54 -22 -118q0 -65 22.5 -119q22.5 -54 60.5 -92.5q38 -38.5 89.5 -59.5q51.5 -21 109.5 -21q58 0 110 18q52 18 89 55l0 272h73v-301q-42 -48 -112 -80.5t-160 -32.5z" />
<glyph unicode="&#72;" horiz-adv-x="761" d="M99 700h74v-291h416v291h74v-700h-74v342h-416v-342l-74 0z" />
<glyph unicode="&#73;" horiz-adv-x="281" d="M104 700h74v-700l-74 0z" />
<glyph unicode="&#74;" horiz-adv-x="507" d="M196 -12q-43 0 -85 10.5q-42 10.5 -75 34.5l0 77q28 -25 67 -39q39 -14 80 -14q81 0 121 40.5q40 40.5 40 128.5v474h74v-487q0 -59 -16 -101.5q-16 -42.5 -45.5 -70q-29.5 -27.5 -70.5 -40.5t-90 -13z" />
<glyph unicode="&#75;" horiz-adv-x="661" d="M173 396l324 304h98l-344 -320l397 -380h-104l-371 356v-356h-74v700l74 0z" />
<glyph unicode="&#76;" horiz-adv-x="597" d="M99 700h74v-633h391v-67l-465 0z" />
<glyph unicode="&#77;" horiz-adv-x="848" d="M99 700h73l253 -339l253 339h72v-700h-73v588l-229 -306h-45l-231 306v-588l-73 0z" />
<glyph unicode="&#78;" horiz-adv-x="775" d="M99 700h64l442 -572v572h72v-700h-63l-443 574v-574l-72 0z" />
<glyph unicode="&#79;" horiz-adv-x="845" d="M422 712q75 0 139.5 -27.5q64.5 -27.5 112 -76q47.5 -48.5 74 -115q26.5 -66.5 26.5 -143.5q0 -77 -26.5 -143.5q-26.5 -66.5 -74 -115q-47.5 -48.5 -112 -76q-64.5 -27.5 -139.5 -27.5q-75 0 -139.5 27.5q-64.5 27.5 -112 76q-47.5 48.5 -74 115q-26.5 66.5 -26.5 143.5q0 77 26.5 143.5q26.5 66.5 74 115q47.5 48.5 112 76q64.5 27.5 139.5 27.5zt0 0zM422 57q58 0 108.5 22q50.5 22 88 61.5q37.5 39.5 59 93q21.5 53.5 21.5 116.5q0 63 -21.5 116.5q-21.5 53.5 -59 93q-37.5 39.5 -88 61.5q-50.5 22 -108.5 22q-58 0 -108.5 -22q-50.5 -22 -88 -61.5q-37.5 -39.5 -59 -93q-21.5 -53.5 -21.5 -116.5q0 -63 21.5 -116.5q21.5 -53.5 59 -93q37.5 -39.5 88 -61.5t108.5 -22z" />
<glyph unicode="&#80;" horiz-adv-x="665" d="M99 700h294q54 0 95.5 -14.5q41.5 -14.5 70 -40q28.5 -25.5 43.5 -61q15 -35.5 15 -78.5q0 -44 -15 -80q-15 -36 -43.5 -62q-28.5 -26 -70 -40.5q-41.5 -14.5 -95.5 -14.5h-220v-309h-74zM388 376q74 0 115 33q41 33 41 95q0 63 -41 96q-41 33 -115 33h-215l0 -257z" />
<glyph unicode="&#81;" horiz-adv-x="845" d="M422 712q75 0 139.5 -27.5q64.5 -27.5 112 -76q47.5 -48.5 74 -115q26.5 -66.5 26.5 -143.5q0 -62 -17 -116.5q-17 -54.5 -48.5 -99.5q-31.5 -45 -75 -77.5q-43.5 -32.5 -96.5 -50.5q29 -29 63 -46.5q34 -17.5 67 -17.5q26 0 46 6q20 6 37 17l0 -72q-20 -10 -41 -15q-21 -5 -51 -5q-30 0 -57 9.5q-27 9.5 -52 26q-25 16.5 -48.5 37q-23.5 20.5 -46.5 43.5q-8 -1 -16 -1q-8 0 -16 0q-75 0 -139.5 27.5q-64.5 27.5 -112 76q-47.5 48.5 -74 115q-26.5 66.5 -26.5 143.5q0 77 26.5 143.5q26.5 66.5 74 115q47.5 48.5 112 76q64.5 27.5 139.5 27.5zt0 0zM422 57q58 0 108.5 22q50.5 22 88 61.5q37.5 39.5 59 93q21.5 53.5 21.5 116.5q0 63 -21.5 116.5q-21.5 53.5 -59 93q-37.5 39.5 -88 61.5q-50.5 22 -108.5 22q-58 0 -108.5 -22q-50.5 -22 -88 -61.5q-37.5 -39.5 -59 -93q-21.5 -53.5 -21.5 -116.5q0 -63 21.5 -116.5q21.5 -53.5 59 -93q37.5 -39.5 88 -61.5t108.5 -22z" />
<glyph unicode="&#82;" horiz-adv-x="736" d="M99 700h313q52 0 93.5 -14q41.5 -14 69.5 -39q28 -25 43 -60q15 -35 15 -77q0 -73 -42.5 -123.5q-42.5 -50.5 -122.5 -64.5l226 -322h-87l-220 315h-214v-315h-74zM408 382q72 0 111.5 32q39.5 32 39.5 93q0 60 -39.5 93q-39.5 33 -111.5 33h-235l0 -251z" />
<glyph unicode="&#83;" horiz-adv-x="628" d="M307 -12q-82 0 -150 22q-68 22 -109 52l0 83q18 -16 45 -31.5q27 -15.5 60 -28q33 -12.5 71 -20.5q38 -8 78 -8q40 0 74.5 9q34.5 9 60 26q25.5 17 40 41.5q14.5 24.5 14.5 55.5q0 34 -15.5 57q-15.5 23 -42.5 38.5q-27 15.5 -63 27q-36 11.5 -76 23.5q-48 13 -90.5 27.5q-42.5 14.5 -74 36q-31.5 21.5 -49.5 53q-18 31.5 -18 79.5q0 38 16 71q16 33 46.5 57.5q30.5 24.5 75.5 38.5q45 14 104 14q65 0 120.5 -16q55.5 -16 97.5 -42l0 -76q-43 27 -98.5 46q-55.5 19 -117.5 19q-45 0 -77 -9.5q-32 -9.5 -52.5 -25.5q-20.5 -16 -30 -36.5q-9.5 -20.5 -9.5 -42.5q0 -32 16.5 -52.5q16.5 -20.5 44 -34.5q27.5 -14 63 -24q35.5 -10 73.5 -21q42 -13 84 -28q42 -15 75 -38.5q33 -23.5 53.5 -57q20.5 -33.5 20.5 -83.5q0 -49 -21 -87q-21 -38 -57 -63.5q-36 -25.5 -83 -38.5t-99 -13z" />
<glyph unicode="&#84;" horiz-adv-x="630" d="M277 633h-241v67h559v-67h-244v-633l-74 0z" />
<glyph unicode="&#85;" horiz-adv-x="748" d="M374 -12q-62 0 -114.5 20q-52.5 20 -90.5 59q-38 39 -59.5 97q-21.5 58 -21.5 134v402h74v-403q0 -116 58 -178q58 -62 154 -62q96 0 154 62q58 62 58 178v403h74v-402q0 -76 -21.5 -134q-21.5 -58 -60 -97q-38.5 -39 -91 -59t-113.5 -20z" />
<glyph unicode="&#86;" horiz-adv-x="754" d="M34 700h81l262 -602l262 602h81l-309 -704l-69 0z" />
<glyph unicode="&#87;" horiz-adv-x="1053" d="M39 700h82l195 -583l181 586h60l182 -586l194 583h80l-241 -704h-65l-180 578l-181 -578l-65 0z" />
<glyph unicode="&#88;" horiz-adv-x="708" d="M310 380l-235 320h87l193 -260l194 260h85l-235 -319l281 -381h-88l-238 321l-238 -321l-87 0z" />
<glyph unicode="&#89;" horiz-adv-x="664" d="M295 321l-272 379h86l224 -310l224 310h84l-272 -378v-322l-74 0z" />
<glyph unicode="&#90;" horiz-adv-x="642" d="M49 53l429 580h-405v67h504v-52l-425 -581h441v-67l-544 0z" />
<glyph unicode="&#91;" horiz-adv-x="388" d="M95 706h253v-61h-183v-790h183v-61l-253 0z" />
<glyph unicode="&#92;" horiz-adv-x="510" d="M10 792h75l421 -932l-75 0z" />
<glyph unicode="&#93;" horiz-adv-x="389" d="M293 -206h-253v61h183v790h-183v61l253 0z" />
<glyph unicode="&#94;" horiz-adv-x="517" d="M224 717h69l170 -371h-69l-135 303l-135 -303l-70 0z" />
<glyph unicode="&#95;" horiz-adv-x="620" d="M8 -73h604v-56l-604 0z" />
<glyph unicode="&#96;" horiz-adv-x="524" d="M165 710h91l96 -134l-69 0z" />
<glyph unicode="&#97;" horiz-adv-x="594" d="M248 53q28 0 53 7q25 7 47 18.5q22 11.5 39 26q17 14.5 29 29.5l0 67q-26 17 -66.5 32.5q-40.5 15.5 -90.5 15.5q-66 0 -104.5 -26q-38.5 -26 -38.5 -71q0 -26 11 -45q11 -19 29.5 -31q18.5 -12 42 -17.5q23.5 -5.5 49.5 -5.5zt0 0zM228 -12q-36 0 -69.5 10.5q-33.5 10.5 -59 30.5q-25.5 20 -40.5 50q-15 30 -15 69q0 38 15.5 68q15.5 30 42.5 50.5q27 20.5 63 31q36 10.5 77 10.5q61 0 103.5 -15q42.5 -15 70.5 -32l0 48q0 34 -12 57q-12 23 -33 37q-21 14 -50.5 20.5q-29.5 6.5 -63.5 6.5q-48 0 -90.5 -16q-42.5 -16 -67.5 -33l0 70q24 15 67.5 29.5q43.5 14.5 105.5 14.5q46 0 85.5 -10.5q39.5 -10.5 68.5 -32.5q29 -22 45.5 -56q16.5 -34 16.5 -80v-199q0 -29 12.5 -44.5q12.5 -15.5 33.5 -15.5q16 0 28 6l0 -56q-8 -6 -22 -8.5q-14 -2.5 -26 -2.5q-32 0 -58.5 17.5q-26.5 17.5 -32.5 59.5q-29 -34 -77.5 -59.5t-117.5 -25.5z" />
<glyph unicode="&#98;" horiz-adv-x="636" d="M157 700v-294q28 37 75 63q47 26 112 26q55 0 99.5 -20.5q44.5 -20.5 76.5 -55q32 -34.5 49.5 -81q17.5 -46.5 17.5 -97.5q0 -51 -17.5 -97q-17.5 -46 -49.5 -80.5q-32 -34.5 -76.5 -55q-44.5 -20.5 -99.5 -20.5q-65 0 -112 26q-47 26 -75 63l0 -77h-72v700zM157 162q10 -23 27.5 -43q17.5 -20 40 -34.5q22.5 -14.5 48.5 -23q26 -8.5 54 -8.5q40 0 74.5 14.5q34.5 14.5 59 40q24.5 25.5 38.5 59.5q14 34 14 74q0 40 -14 74.5q-14 34.5 -38.5 60q-24.5 25.5 -59 40q-34.5 14.5 -74.5 14.5q-57 0 -103 -31q-46 -31 -67 -78z" />
<glyph unicode="&#99;" horiz-adv-x="524" d="M307 -12q-55 0 -102 19.5q-47 19.5 -81.5 53.5q-34.5 34 -54 80.5q-19.5 46.5 -19.5 100.5q0 54 19.5 100.5q19.5 46.5 54 80q34.5 33.5 82 53q47.5 19.5 102.5 19.5q44 0 79.5 -9q35.5 -9 66.5 -26l0 -67q-66 37 -136 37q-41 0 -76.5 -14q-35.5 -14 -61.5 -39q-26 -25 -41 -60q-15 -35 -15 -76q0 -41 15 -75.5q15 -34.5 41 -59.5q26 -25 61.5 -39q35.5 -14 76.5 -14q43 0 78.5 11q35.5 11 66.5 31l0 -66q-68 -41 -156 -41z" />
<glyph unicode="&#100;" horiz-adv-x="637" d="M552 700v-700h-72v77q-28 -37 -75 -63q-47 -26 -112 -26q-55 0 -99.5 20.5q-44.5 20.5 -76.5 55q-32 34.5 -49.5 80.5q-17.5 46 -17.5 97q0 51 17.5 97.5q17.5 46.5 49.5 81q32 34.5 76.5 55q44.5 20.5 99.5 20.5q65 0 112 -26q47 -26 75 -63l0 294zM480 321q-21 47 -67 78q-46 31 -103 31q-41 0 -75 -14.5q-34 -14.5 -58.5 -40q-24.5 -25.5 -38.5 -60q-14 -34.5 -14 -74.5q0 -40 14 -74q14 -34 38.5 -59.5q24.5 -25.5 58.5 -40q34 -14.5 75 -14.5q28 0 54 8.5q26 8.5 48.5 23q22.5 14.5 39.5 34.5q17 20 28 43z" />
<glyph unicode="&#101;" horiz-adv-x="571" d="M316 -12q-56 0 -104.5 18.5q-48.5 18.5 -84.5 52q-36 33.5 -56.5 80q-20.5 46.5 -20.5 102.5q0 54 17.5 100q17.5 46 50 80.5q32.5 34.5 77.5 54q45 19.5 100 19.5q61 0 104 -24q43 -24 70 -60.5q27 -36.5 39.5 -81q12.5 -44.5 12.5 -85.5v-20h-397q3 -39 19 -70.5q16 -31.5 43 -54q27 -22.5 63.5 -34.5q36.5 -12 80.5 -12q46 0 85 12.5q39 12.5 70 32.5l0 -64q-26 -20 -71 -33q-45 -13 -98 -13zt0 0zM448 283q-1 23 -10 49q-9 26 -27.5 47.5q-18.5 21.5 -47.5 36q-29 14.5 -71 14.5q-39 0 -69 -12.5q-30 -12.5 -51 -33.5q-21 -21 -33 -47.5q-12 -26.5 -14 -53.5z" />
<glyph unicode="&#102;" horiz-adv-x="391" d="M123 0v420h-96v63h96v81q0 65 34.5 104.5q34.5 39.5 103.5 39.5q29 0 54 -4q25 -4 48 -15l0 -66q-17 8 -37.5 14q-20.5 6 -46.5 6q-42 0 -63 -24q-21 -24 -21 -69v-67h168v-63h-168l0 -420z" />
<glyph unicode="&#103;" horiz-adv-x="636" d="M480 82q-27 -36 -74 -61q-47 -25 -113 -25q-54 0 -99 20q-45 20 -77 53.5q-32 33.5 -49.5 79q-17.5 45.5 -17.5 96.5q0 51 17.5 96.5q17.5 45.5 49.5 79.5q32 34 77 54q45 20 99 20q66 0 113 -24.5q47 -24.5 74 -61.5l0 74h72v-452q0 -60 -21 -104q-21 -44 -57 -73.5q-36 -29.5 -83.5 -43.5q-47.5 -14 -100.5 -14q-52 0 -103 12.5q-51 12.5 -84 31.5l0 70q38 -23 85 -36q47 -13 95 -13q40 0 76 9.5q36 9.5 63 30q27 20.5 42.5 53q15.5 32.5 15.5 77.5zM480 324q-20 47 -66.5 76.5q-46.5 29.5 -103.5 29.5q-40 0 -74 -14q-34 -14 -59 -39q-25 -25 -39 -59q-14 -34 -14 -73q0 -39 14 -73q14 -34 39 -58.5q25 -24.5 59 -38.5q34 -14 74 -14q57 0 103.5 29.5q46.5 29.5 66.5 76.5z" />
<glyph unicode="&#104;" horiz-adv-x="610" d="M85 0v700h72v-291q14 16 33 31.5q19 15.5 43.5 27.5q24.5 12 53.5 19.5q29 7.5 63 7.5q92 0 138 -53.5q46 -53.5 46 -147.5v-294h-72v278q0 48 -13.5 77q-13.5 29 -33.5 45q-20 16 -44 21.5q-24 5.5 -46 5.5q-26 0 -51 -9q-25 -9 -47.5 -23q-22.5 -14 -40.5 -32q-18 -18 -29 -37l0 -326z" />
<glyph unicode="&#105;" horiz-adv-x="266" d="M96 483h72v-483h-72zM82 649q0 21 14.5 36q14.5 15 35.5 15q21 0 36 -15q15 -15 15 -36q0 -21 -15 -35.5q-15 -14.5 -36 -14.5q-21 0 -35.5 14.5t-14.5 35.5z" />
<glyph unicode="&#106;" horiz-adv-x="266" d="M26 -204q-20 0 -44.5 4.5q-24.5 4.5 -40.5 13.5l0 66q14 -8 32 -13.5q18 -5.5 38 -5.5q85 0 85 97v525h72v-536q0 -41 -11.5 -70q-11.5 -29 -31 -47q-19.5 -18 -45 -26q-25.5 -8 -54.5 -8zt0 0zM82 649q0 21 14.5 36q14.5 15 35.5 15q21 0 36 -15q15 -15 15 -36q0 -21 -15 -35.5q-15 -14.5 -36 -14.5q-21 0 -35.5 14.5t-14.5 35.5z" />
<glyph unicode="&#107;" horiz-adv-x="541" d="M157 284l230 199h98l-255 -218l291 -265h-103l-261 238v-238h-72v700l72 0z" />
<glyph unicode="&#108;" horiz-adv-x="292" d="M196 -12q-20 0 -40 5.5q-20 5.5 -35.5 19q-15.5 13.5 -25.5 36.5q-10 23 -10 58v593h72v-576q0 -37 16.5 -54q16.5 -17 46.5 -17q24 0 47 13l0 -64q-15 -8 -33.5 -11t-37.5 -3z" />
<glyph unicode="&#109;" horiz-adv-x="919" d="M85 483h72v-72q24 34 67.5 59q43.5 25 106.5 25q60 0 100 -25.5q40 -25.5 55 -69.5q25 38 72 66.5q47 28.5 114 28.5q80 0 125.5 -49q45.5 -49 45.5 -145v-301h-72v285q0 47 -12.5 75q-12.5 28 -30.5 43q-18 15 -39 19.5q-21 4.5 -38 4.5q-24 0 -47 -9q-23 -9 -43.5 -23.5q-20.5 -14.5 -36.5 -33q-16 -18.5 -26 -38.5q1 -15 1.5 -26.5q0.5 -11.5 0.5 -27.5v-269h-72v285q0 47 -12.5 75q-12.5 28 -30.5 43q-18 15 -39 19.5q-21 4.5 -38 4.5q-23 0 -45 -8q-22 -8 -42 -22q-20 -14 -36.5 -32q-16.5 -18 -27.5 -38l0 -327l-72 0z" />
<glyph unicode="&#110;" horiz-adv-x="610" d="M85 0v483h72v-74q14 16 33 31.5q19 15.5 43.5 27.5q24.5 12 53.5 19.5q29 7.5 63 7.5q92 0 138 -53.5q46 -53.5 46 -147.5v-294h-72v278q0 48 -13.5 77q-13.5 29 -33.5 45q-20 16 -44 21.5q-24 5.5 -46 5.5q-26 0 -51 -9q-25 -9 -47.5 -23q-22.5 -14 -40.5 -32q-18 -18 -29 -37l0 -326z" />
<glyph unicode="&#111;" horiz-adv-x="621" d="M311 495q59 0 107 -20.5q48 -20.5 82.5 -55.5q34.5 -35 53 -81q18.5 -46 18.5 -97q0 -51 -18.5 -97q-18.5 -46 -53 -80.5q-34.5 -34.5 -82.5 -55q-48 -20.5 -107 -20.5q-59 0 -107 20.5q-48 20.5 -82.5 55q-34.5 34.5 -53 80.5q-18.5 46 -18.5 97q0 51 18.5 97q18.5 46 53 81q34.5 35 82.5 55.5q48 20.5 107 20.5zt0 0zM311 53q40 0 74.5 14.5q34.5 14.5 59.5 40q25 25.5 39 59.5q14 34 14 74q0 40 -14 74.5q-14 34.5 -39 60q-25 25.5 -59.5 40q-34.5 14.5 -74.5 14.5q-41 0 -75 -14.5q-34 -14.5 -59 -40q-25 -25.5 -39 -60q-14 -34.5 -14 -74.5q0 -40 14 -74q14 -34 39 -59.5q25 -25.5 59 -40t75 -14.5z" />
<glyph unicode="&#112;" horiz-adv-x="636" d="M85 -200v683h72v-77q28 37 75 63q47 26 112 26q55 0 99.5 -20.5q44.5 -20.5 76.5 -55q32 -34.5 49.5 -80.5q17.5 -46 17.5 -97q0 -51 -17.5 -97.5q-17.5 -46.5 -49.5 -81q-32 -34.5 -76.5 -55q-44.5 -20.5 -99.5 -20.5q-65 0 -112 26q-47 26 -75 63l0 -277zM157 162q21 -47 67 -78q46 -31 103 -31q40 0 74.5 14.5q34.5 14.5 59 40q24.5 25.5 38.5 60q14 34.5 14 74.5q0 40 -14 74q-14 34 -38.5 59.5q-24.5 25.5 -59 40q-34.5 14.5 -74.5 14.5q-28 0 -54 -8.5q-26 -8.5 -48.5 -23q-22.5 -14.5 -40 -34.5q-17.5 -20 -27.5 -43z" />
<glyph unicode="&#113;" horiz-adv-x="637" d="M480 -200v277q-28 -37 -75 -63q-47 -26 -112 -26q-55 0 -99.5 20.5q-44.5 20.5 -76.5 55q-32 34.5 -49.5 81q-17.5 46.5 -17.5 97.5q0 51 17.5 97q17.5 46 49.5 80.5q32 34.5 76.5 55q44.5 20.5 99.5 20.5q65 0 112 -26q47 -26 75 -63l0 77h72v-683zM480 321q-11 23 -28 43q-17 20 -39.5 34.5q-22.5 14.5 -48.5 23q-26 8.5 -54 8.5q-41 0 -75 -14.5q-34 -14.5 -58.5 -40q-24.5 -25.5 -38.5 -59.5q-14 -34 -14 -74q0 -40 14 -74.5q14 -34.5 38.5 -60q24.5 -25.5 58.5 -40q34 -14.5 75 -14.5q57 0 103 31q46 31 67 78z" />
<glyph unicode="&#114;" horiz-adv-x="369" d="M85 483h72v-92q28 48 81 76q53 28 111 28l0 -73q-33 0 -60 -9q-52 -13 -85 -45q-33 -32 -47 -63l0 -305l-72 0z" />
<glyph unicode="&#115;" horiz-adv-x="509" d="M249 -12q-64 0 -118 15.5q-54 15.5 -82 34.5l0 74q13 -9 32.5 -19q19.5 -10 45 -19q25.5 -9 56 -15q30.5 -6 64.5 -6q62 0 97.5 20.5q35.5 20.5 35.5 56.5q0 21 -12 34.5q-12 13.5 -33 22q-21 8.5 -48.5 14.5q-27.5 6 -57.5 14q-38 10 -69.5 21.5q-31.5 11.5 -53.5 28q-22 16.5 -34 40q-12 23.5 -12 56.5q0 61 50 97.5q50 36.5 144 36.5q48 0 96 -11.5q48 -11.5 80 -31.5l0 -71q-33 20 -78.5 34.5q-45.5 14.5 -94.5 14.5q-65 0 -94.5 -20.5q-29.5 -20.5 -29.5 -50.5q0 -21 12.5 -35q12.5 -14 33.5 -23q21 -9 47 -15q26 -6 53 -12q35 -8 66.5 -19q31.5 -11 55.5 -27.5q24 -16.5 38.5 -40.5q14.5 -24 14.5 -58q0 -33 -15.5 -59.5q-15.5 -26.5 -43 -44.5q-27.5 -18 -65 -27.5t-81.5 -9.5z" />
<glyph unicode="&#116;" horiz-adv-x="430" d="M277 -12q-36 0 -62 11.5q-26 11.5 -42.5 31.5q-16.5 20 -24 47q-7.5 27 -7.5 59v283h-114v63h114v149h72v-149h169v-63h-169v-261q0 -57 19.5 -80q19.5 -23 64.5 -23q26 0 46 6q20 6 33 14l0 -66q-14 -10 -42.5 -16t-56.5 -6z" />
<glyph unicode="&#117;" horiz-adv-x="611" d="M526 483v-483h-72v74q-14 -16 -33 -31.5q-19 -15.5 -43.5 -27.5q-24.5 -12 -53.5 -19.5q-29 -7.5 -63 -7.5q-92 0 -138 53.5q-46 53.5 -46 147.5v294h72v-278q0 -48 13 -77q13 -29 33.5 -45q20.5 -16 44.5 -21.5q24 -5.5 46 -5.5q25 0 50.5 8.5q25.5 8.5 48 23q22.5 14.5 40.5 32.5q18 18 29 37l0 326z" />
<glyph unicode="&#118;" horiz-adv-x="567" d="M28 483h81l176 -389l175 389h78l-222 -486l-66 0z" />
<glyph unicode="&#119;" horiz-adv-x="819" d="M38 483h74l135 -376l132 378h61l133 -378l134 376h73l-173 -486h-63l-136 379l-134 -379l-63 0z" />
<glyph unicode="&#120;" horiz-adv-x="554" d="M236 255l-179 228h85l138 -172l138 172h84l-180 -226l203 -257h-85l-161 202l-163 -202l-83 0z" />
<glyph unicode="&#121;" horiz-adv-x="555" d="M112 -204q-23 0 -43.5 3q-20.5 3 -33.5 11l0 67q15 -8 30.5 -12q15.5 -4 35.5 -4q48 0 79.5 40.5q31.5 40.5 63.5 116.5l-215 465h80l171 -380l166 380h78l-239 -537q-31 -71 -72 -110.5t-101 -39.5z" />
<glyph unicode="&#122;" horiz-adv-x="504" d="M38 48l308 372h-287v63h390v-50l-307 -370h323v-63l-427 0z" />
<glyph unicode="&#123;" horiz-adv-x="363" d="M270 -206q-65 0 -101.5 36.5q-36.5 36.5 -36.5 102.5v152q0 24 -2 47.5q-2 23.5 -9.5 42q-7.5 18.5 -23 31q-15.5 12.5 -42.5 15.5l0 58q27 3 42.5 15q15.5 12 23 30q7.5 18 9.5 41q2 23 2 47v155q0 66 36.5 102.5q36.5 36.5 101.5 36.5h57v-61h-41q-43 0 -63.5 -23q-20.5 -23 -20.5 -63v-165q0 -52 -13 -90q-13 -38 -56 -54q22 -8 35.5 -22q13.5 -14 21 -32.5q7.5 -18.5 10 -41.5q2.5 -23 2.5 -48v-165q0 -41 20.5 -63.5q20.5 -22.5 63.5 -22.5h41v-61l-57 0z" />
<glyph unicode="&#124;" horiz-adv-x="306" d="M122 760h62v-871l-62 0z" />
<glyph unicode="&#125;" horiz-adv-x="363" d="M36 -206v61h41q43 0 63.5 22.5q20.5 22.5 20.5 63.5v165q0 25 2.5 48q2.5 23 10 41.5q7.5 18.5 21 32.5q13.5 14 35.5 22q-22 8 -35.5 22q-13.5 14 -21 32.5q-7.5 18.5 -10 41q-2.5 22.5 -2.5 48.5v165q0 40 -20.5 63q-20.5 23 -63.5 23h-41v61h57q65 0 101.5 -36.5q36.5 -36.5 36.5 -102.5v-155q0 -24 2 -47q2 -23 9.5 -41q7.5 -18 23 -30q15.5 -12 42.5 -15l0 -58q-27 -3 -42.5 -15.5q-15.5 -12.5 -23 -31q-7.5 -18.5 -9.5 -42q-2 -23.5 -2 -47.5v-152q0 -66 -36.5 -102.5q-36.5 -36.5 -101.5 -36.5z" />
<glyph unicode="&#126;" horiz-adv-x="585" d="M409 200q-32 0 -60.5 8q-28.5 8 -56 17q-27.5 9 -56.5 17q-29 8 -60 8q-67 0 -106 -44l0 70q13 17 42 27.5q29 10.5 64 10.5q32 0 60.5 -8q28.5 -8 56.5 -17q28 -9 56 -17q28 -8 60 -8q68 0 106 43l0 -69q-13 -18 -42.5 -28t-63.5 -10z" />
<glyph unicode="&#161;" horiz-adv-x="284" d="M188 -200h-93l13 469h67zM90 437q0 22 15 37q15 15 37 15q22 0 37 -15q15 -15 15 -37q0 -22 -15 -37q-15 -15 -37 -15q-22 0 -37 15t-15 37z" />
<glyph unicode="&#162;" horiz-adv-x="524" d="M275 600h63v-106q66 -6 116 -34l0 -67q-66 37 -136 37q-41 0 -76.5 -14q-35.5 -14 -61.5 -39q-26 -25 -41 -60q-15 -35 -15 -76q0 -41 15 -75.5q15 -34.5 41 -59.5q26 -25 61.5 -39q35.5 -14 76.5 -14q43 0 78.5 11q35.5 11 66.5 31l0 -66q-28 -17 -59 -27q-31 -10 -66 -13l0 -106h-63v107q-49 5 -90 26.5q-41 21.5 -71 54.5q-30 33 -47 77q-17 44 -17 94q0 50 16.5 93.5q16.5 43.5 46.5 76.5q30 33 71.5 54q41.5 21 90.5 27z" />
<glyph unicode="&#163;" horiz-adv-x="580" d="M60 67h20q17 0 27 7q10 7 15.5 19q5.5 12 7.5 27.5q2 15.5 2 32.5v142h-72v67h72v124q0 109 60.5 167.5q60.5 58.5 168.5 58.5q46 0 87 -10q41 -10 76 -33l0 -73q-31 22 -70.5 34.5q-39.5 12.5 -82.5 12.5q-80 0 -122.5 -42.5q-42.5 -42.5 -42.5 -124.5v-114h274v-67h-274v-173q0 -22 -8 -36q-8 -14 -16 -19l348 0v-67l-470 0z" />
<glyph unicode="&#164;" horiz-adv-x="563" d="M485 351q0 -70 -40 -124l65 -65l-41 -39l-66 64q-24 -20 -55.5 -31q-31.5 -11 -67.5 -11q-35 0 -66 11q-31 11 -57 31l-65 -64l-40 39l64 65q-40 54 -40 124q0 34 10 65.5q10 31.5 30 57.5l-64 65l40 40l65 -64q26 20 57 31q31 11 66 11q36 0 67.5 -11q31.5 -11 55.5 -31l66 64l41 -40l-66 -65q20 -26 30.5 -57.5q10.5 -31.5 10.5 -65.5zt0 0zM280 206q30 0 56.5 11.5q26.5 11.5 46 31q19.5 19.5 30.5 46q11 26.5 11 56.5q0 30 -11 56.5q-11 26.5 -30.5 46q-19.5 19.5 -46 31q-26.5 11.5 -56.5 11.5q-30 0 -56 -11.5q-26 -11.5 -45.5 -31q-19.5 -19.5 -30.5 -46q-11 -26.5 -11 -56.5q0 -30 11 -56.5q11 -26.5 30.5 -46q19.5 -19.5 45.5 -31t56 -11.5z" />
<glyph unicode="&#165;" horiz-adv-x="629" d="M277 141h-209v63h209v93h-209v63h184l-229 340h86l207 -312l207 312h83l-229 -340h184v-63h-210v-93h210v-63h-210v-141l-74 0z" />
<glyph unicode="&#166;" horiz-adv-x="306" d="M122 242h62v-353h-62zM122 760h62v-353l-62 0z" />
<glyph unicode="&#167;" horiz-adv-x="645" d="M469 114q38 -21 59 -48.5q21 -27.5 21 -69.5q0 -33 -15 -61q-15 -28 -44 -48.5q-29 -20.5 -71.5 -32q-42.5 -11.5 -97.5 -11.5q-69 0 -124 17q-55 17 -93 37l0 77q44 -24 101 -43q57 -19 120 -19q71 0 110 24.5q39 24.5 39 63.5q0 24 -15 40q-15 16 -41.5 28.5q-26.5 12.5 -61.5 23q-35 10.5 -74 23.5q-47 15 -87 32q-40 17 -69.5 38.5q-29.5 21.5 -46 49.5q-16.5 28 -16.5 65q0 52 31.5 87.5q31.5 35.5 82.5 53.5q-38 21 -59 48.5q-21 27.5 -21 69.5q0 33 15 61q15 28 44 48.5q29 20.5 71.5 32q42.5 11.5 97.5 11.5q69 0 124 -17q55 -17 93 -37l0 -77q-44 24 -101 43q-57 19 -120 19q-71 0 -110.5 -24.5q-39.5 -24.5 -39.5 -63.5q0 -24 15.5 -40q15.5 -16 41.5 -28.5q26 -12.5 61.5 -23q35.5 -10.5 74.5 -23.5q46 -15 86.5 -32q40.5 -17 69.5 -38.5q29 -21.5 46 -49.5q17 -28 17 -65q0 -52 -31.5 -87.5q-31.5 -35.5 -82.5 -53.5zt0 0zM405 145q47 10 78 36.5q31 26.5 31 66.5q0 28 -16.5 48q-16.5 20 -43.5 36q-27 16 -61 28q-34 12 -69 23l-83 27q-47 -10 -78 -36.5q-31 -26.5 -31 -66.5q0 -28 16.5 -48q16.5 -20 43.5 -36q27 -16 61 -28q34 -12 69 -23z" />
<glyph unicode="&#168;" horiz-adv-x="524" d="M118 646q0 20 13.5 33.5q13.5 13.5 33.5 13.5q20 0 33.5 -13.5q13.5 -13.5 13.5 -33.5q0 -20 -13.5 -33.5q-13.5 -13.5 -33.5 -13.5q-20 0 -33.5 13.5q-13.5 13.5 -13.5 33.5zt0 0zM318 646q0 20 13.5 33.5q13.5 13.5 33.5 13.5q20 0 33.5 -13.5q13.5 -13.5 13.5 -33.5q0 -20 -13.5 -33.5q-13.5 -13.5 -33.5 -13.5q-20 0 -33.5 13.5t-13.5 33.5z" />
<glyph unicode="&#169;" horiz-adv-x="865" d="M431 15q70 0 131 26.5q61 26.5 106 72q45 45.5 71 106.5q26 61 26 130q0 69 -25.5 130q-25.5 61 -70.5 106.5q-45 45.5 -106 72q-61 26.5 -131 26.5q-70 0 -130.5 -26.5q-60.5 -26.5 -105.5 -72q-45 -45.5 -71 -107q-26 -61.5 -26 -130.5q0 -69 25.5 -130q25.5 -61 70.5 -106q45 -45 105.5 -71.5q60.5 -26.5 130.5 -26.5zt0 0zM431 -12q-75 0 -141 28.5q-66 28.5 -115 77.5q-49 49 -77 115.5q-28 66.5 -28 141.5q0 74 28.5 140q28.5 66 77.5 115q49 49 115 77.5q66 28.5 141 28.5q76 0 142 -28.5q66 -28.5 115 -77.5q49 -49 77 -115.5q28 -66.5 28 -141.5q0 -74 -28.5 -140q-28.5 -66 -77.5 -115q-49 -49 -115 -77.5q-66 -28.5 -142 -28.5zt0 0zM455 155q-42 0 -78 15q-36 15 -62.5 41.5q-26.5 26.5 -41.5 62q-15 35.5 -15 76.5q0 41 15 76.5q15 35.5 41.5 61.5q26.5 26 62.5 41q36 15 78 15q58 0 101 -25l0 -57q-21 14 -46 21.5q-25 7.5 -55 7.5q-29 0 -54 -10.5q-25 -10.5 -43.5 -29.5q-18.5 -19 -29 -44.5q-10.5 -25.5 -10.5 -56.5q0 -31 10.5 -57q10.5 -26 29.5 -44.5q19 -18.5 44 -29q25 -10.5 55 -10.5q62 0 109 36l0 -58q-46 -32 -111 -32z" />
<glyph unicode="&#170;" horiz-adv-x="516" d="M347 480q-20 13 -51 24.5q-31 11.5 -69 11.5q-51 0 -79.5 -19.5q-28.5 -19.5 -28.5 -53.5q0 -20 8.5 -34q8.5 -14 22 -23q13.5 -9 31.5 -13.5q18 -4.5 38 -4.5q42 0 76 19q34 19 52 42zM438 371q13 0 21 4l0 -44q-7 -5 -17.5 -6.5q-10.5 -1.5 -19.5 -1.5q-25 0 -45 14q-20 14 -25 45q-23 -26 -59 -45.5q-36 -19.5 -89 -19.5q-28 0 -53.5 8q-25.5 8 -45 23.5q-19.5 15.5 -31 38.5q-11.5 23 -11.5 53q0 29 12 52q12 23 32.5 38.5q20.5 15.5 48 23.5q27.5 8 59.5 8q46 0 78.5 -11.5q32.5 -11.5 53.5 -23.5l0 36q0 51 -34 71q-34 20 -88 20q-36 0 -68.5 -12q-32.5 -12 -52.5 -25l0 54q19 11 52 22.5q33 11.5 81 11.5q35 0 65.5 -8q30.5 -8 53 -25q22.5 -17 35 -42.5q12.5 -25.5 12.5 -60.5v-153q0 -21 9 -33t26 -12z" />
<glyph unicode="&#171;" horiz-adv-x="550" d="M47 223v37l151 183h75l-164 -202l164 -201h-75zM276 223v37l151 183h77l-164 -202l164 -201l-77 0z" />
<glyph unicode="&#172;" horiz-adv-x="568" d="M432 323h-362v66h428v-237l-66 0z" />
<glyph unicode="&#173;" horiz-adv-x="481" d="M100 305h281v-67l-281 0z" />
<glyph unicode="&#174;" horiz-adv-x="865" d="M294 543h171q60 0 92 -29.5q32 -29.5 32 -76.5q0 -38 -21.5 -65.5q-21.5 -27.5 -61.5 -36.5l119 -167h-65l-115 162h-94v-162h-57zM463 377q32 0 50 15q18 15 18 43q0 29 -18 44q-18 15 -50 15h-112v-117zM431 15q70 0 131 26.5q61 26.5 106 72q45 45.5 71 106.5q26 61 26 130q0 69 -25.5 130q-25.5 61 -70.5 106.5q-45 45.5 -106 72q-61 26.5 -131 26.5q-70 0 -130.5 -26.5q-60.5 -26.5 -105.5 -72q-45 -45.5 -71 -107q-26 -61.5 -26 -130.5q0 -69 25.5 -130q25.5 -61 70.5 -106q45 -45 105.5 -71.5q60.5 -26.5 130.5 -26.5zt0 0zM431 -12q-75 0 -141 28.5q-66 28.5 -115 77.5q-49 49 -77 115.5q-28 66.5 -28 141.5q0 74 28.5 140q28.5 66 77.5 115q49 49 115 77.5q66 28.5 141 28.5q76 0 142 -28.5q66 -28.5 115 -77.5q49 -49 77 -115.5q28 -66.5 28 -141.5q0 -74 -28.5 -140q-28.5 -66 -77.5 -115q-49 -49 -115 -77.5t-142 -28.5z" />
<glyph unicode="&#175;" horiz-adv-x="518" d="M132 673h252v-55l-252 0z" />
<glyph unicode="&#176;" horiz-adv-x="428" d="M214 661q-21 0 -39 -8q-18 -8 -31.5 -21.5q-13.5 -13.5 -21 -32q-7.5 -18.5 -7.5 -39.5q0 -42 28.5 -71q28.5 -29 70.5 -29q42 0 70.5 29q28.5 29 28.5 71q0 21 -7.5 39.5q-7.5 18.5 -21 32q-13.5 13.5 -31.5 21.5q-18 8 -39 8zt0 0zM214 712q31 0 59 -12q28 -12 49 -33q21 -21 33 -48.5q12 -27.5 12 -58.5q0 -31 -12 -58.5q-12 -27.5 -33 -48q-21 -20.5 -49 -32.5q-28 -12 -59 -12q-31 0 -59 12q-28 12 -49 32.5q-21 20.5 -33 48q-12 27.5 -12 58.5q0 31 12 58.5q12 27.5 33 48.5q21 21 49 33t59 12z" />
<glyph unicode="&#177;" horiz-adv-x="619" d="M277 363h-207v66h207v172h65v-172h207v-66h-207v-169h-65zM70 119h479v-65l-479 0z" />
<glyph unicode="&#178;" horiz-adv-x="359" d="M44 368l121 110q36 33 53.5 57.5q17.5 24.5 17.5 51.5q0 27 -20 43.5q-20 16.5 -53 16.5q-32 0 -59 -12q-27 -12 -50 -31l0 63q20 16 49.5 27q29.5 11 64.5 11q26 0 50 -8q24 -8 42 -22q18 -14 29 -35q11 -21 11 -46q0 -40 -20.5 -73q-20.5 -33 -63.5 -71l-78 -75h174v-53l-268 0z" />
<glyph unicode="&#179;" horiz-adv-x="327" d="M142 317q-38 0 -66.5 7.5q-28.5 7.5 -49.5 21.5l0 58q22 -13 49.5 -22.5q27.5 -9.5 61.5 -9.5q36 0 64 19.5q28 19.5 28 54.5q0 31 -22.5 50q-22.5 19 -64.5 19q-13 0 -26.5 -2q-13.5 -2 -23.5 -6l0 41l105 99h-157v53h238v-47l-101 -96q19 -2 40 -8.5q21 -6.5 37.5 -20q16.5 -13.5 27.5 -34.5q11 -21 11 -50q0 -29 -12 -52.5q-12 -23.5 -32.5 -40q-20.5 -16.5 -48 -25.5t-58.5 -9z" />
<glyph unicode="&#180;" horiz-adv-x="496" d="M275 710h92l-118 -134l-70 0z" />
<glyph unicode="&#181;" horiz-adv-x="619" d="M534 483v-483h-72v74q-14 -16 -33 -31.5q-19 -15.5 -43.5 -27.5q-24.5 -12 -53.5 -19.5q-29 -7.5 -63 -7.5q-35 0 -62.5 8q-27.5 8 -49.5 22l0 -218h-72v683h72v-278q0 -48 13 -77q13 -29 33.5 -45q20.5 -16 44.5 -21.5q24 -5.5 46 -5.5q25 0 50.5 8.5q25.5 8.5 48 23q22.5 14.5 40.5 32.5q18 18 29 37l0 326z" />
<glyph unicode="&#182;" horiz-adv-x="525" d="M353 316h-84q-53 0 -94 14q-41 14 -69.5 39.5q-28.5 25.5 -43 61q-14.5 35.5 -14.5 77.5q0 43 14.5 78q14.5 35 43 60.5q28.5 25.5 69.5 39.5q41 14 94 14h158v-700l-74 0z" />
<glyph unicode="&#183;" horiz-adv-x="236" d="M66 381q0 22 15 37q15 15 37 15q22 0 37 -15q15 -15 15 -37q0 -22 -15 -37q-15 -15 -37 -15q-22 0 -37 15t-15 37z" />
<glyph unicode="&#184;" horiz-adv-x="482" d="M235 6h61l-71 -138l-87 0z" />
<glyph unicode="&#185;" horiz-adv-x="244" d="M127 634l-104 -58v63l106 61h61v-378l-63 0z" />
<glyph unicode="&#186;" horiz-adv-x="466" d="M233 371q30 0 55 11q25 11 43.5 29.5q18.5 18.5 29 44q10.5 25.5 10.5 55.5q0 30 -10.5 55.5q-10.5 25.5 -29 44q-18.5 18.5 -43.5 29.5q-25 11 -55 11q-30 0 -55 -11q-25 -11 -43 -29.5q-18 -18.5 -28.5 -44q-10.5 -25.5 -10.5 -55.5q0 -30 10.5 -55.5q10.5 -25.5 28.5 -44q18 -18.5 43 -29.5q25 -11 55 -11zt0 0zM233 317q-45 0 -81.5 15.5q-36.5 15.5 -63 41.5q-26.5 26 -41 61.5q-14.5 35.5 -14.5 75.5q0 40 14.5 75q14.5 35 41 61.5q26.5 26.5 63 42q36.5 15.5 81.5 15.5q45 0 82 -15.5q37 -15.5 63 -42q26 -26.5 40.5 -61.5q14.5 -35 14.5 -75q0 -40 -14.5 -75.5q-14.5 -35.5 -40.5 -61.5q-26 -26 -63 -41.5t-82 -15.5z" />
<glyph unicode="&#187;" horiz-adv-x="549" d="M502 260v-37l-151 -183h-75l164 202l-164 201h75zM273 260v-37l-151 -183h-77l164 202l-164 201l77 0z" />
<glyph unicode="&#188;" horiz-adv-x="745" d="M525 700h68l-412 -700h-69zM127 634l-104 -58v63l106 61h61v-378h-63zM603 98h-197v45l196 235h62v-229h59v-51h-59v-98h-61zM603 149v154l-130 -154z" />
<glyph unicode="&#189;" horiz-adv-x="802" d="M525 700h68l-412 -700h-69zM127 634l-104 -58v63l106 61h61v-378h-63zM487 46l121 110q36 33 53.5 57.5q17.5 24.5 17.5 51.5q0 27 -20 43.5q-20 16.5 -53 16.5q-32 0 -59 -12q-27 -12 -50 -31l0 63q20 16 49.5 27q29.5 11 64.5 11q26 0 50 -8q24 -8 42 -22q18 -14 29 -35q11 -21 11 -46q0 -40 -20.5 -73q-20.5 -33 -63.5 -71l-78 -75h174v-53l-268 0z" />
<glyph unicode="&#190;" horiz-adv-x="794" d="M575 700h68l-412 -700h-69zM652 98h-197v45l196 235h62v-229h59v-51h-59v-98h-61zM652 149v154l-130 -154zM142 317q-38 0 -66.5 7.5q-28.5 7.5 -49.5 21.5l0 58q22 -13 49.5 -22.5q27.5 -9.5 61.5 -9.5q36 0 64 19.5q28 19.5 28 54.5q0 31 -22.5 50q-22.5 19 -64.5 19q-13 0 -26.5 -2q-13.5 -2 -23.5 -6l0 41l105 99h-157v53h238v-47l-101 -96q19 -2 40 -8.5q21 -6.5 37.5 -20q16.5 -13.5 27.5 -34.5q11 -21 11 -50q0 -29 -12 -52.5q-12 -23.5 -32.5 -40q-20.5 -16.5 -48 -25.5t-58.5 -9z" />
<glyph unicode="&#191;" horiz-adv-x="476" d="M301 137q-32 -6 -64 -19q-32 -13 -57.5 -32q-25.5 -19 -42 -44.5q-16.5 -25.5 -16.5 -56.5q0 -29 11.5 -52q11.5 -23 32 -38.5q20.5 -15.5 48 -24q27.5 -8.5 60.5 -8.5q53 0 96 17.5q43 17.5 76 40.5l0 -68q-33 -25 -81 -40.5q-48 -15.5 -102 -15.5q-43 0 -82 13q-39 13 -68.5 37q-29.5 24 -47 58.5q-17.5 34.5 -17.5 78.5q0 39 16 70q16 31 41.5 54.5q25.5 23.5 58.5 40.5q33 17 68 28l0 93h70zM264 489q23 0 37.5 -15q14.5 -15 14.5 -37q0 -22 -14.5 -37q-14.5 -15 -37.5 -15q-21 0 -36 15q-15 15 -15 37q0 22 15 37t36 15z" />
<glyph unicode="&#192;" horiz-adv-x="753" d="M342 704h69l313 -704h-78l-87 193h-367l-85 -193h-77zM535 258l-159 353l-159 -353zM224 896h92l96 -133l-70 0z" />
<glyph unicode="&#193;" horiz-adv-x="753" d="M342 704h69l313 -704h-78l-87 193h-367l-85 -193h-77zM535 258l-159 353l-159 -353zM440 896h92l-118 -133l-69 0z" />
<glyph unicode="&#194;" horiz-adv-x="753" d="M342 704h69l313 -704h-78l-87 193h-367l-85 -193h-77zM535 258l-159 353l-159 -353zM340 896h72l111 -133h-71l-76 92l-76 -92l-71 0z" />
<glyph unicode="&#195;" horiz-adv-x="753" d="M342 704h69l313 -704h-78l-87 193h-367l-85 -193h-77zM535 258l-159 353l-159 -353zM447 772q-20 0 -38.5 9q-18.5 9 -36 19.5q-17.5 10.5 -33 19.5q-15.5 9 -30.5 9q-21 0 -30 -16.5q-9 -16.5 -11 -36.5l-49 0q1 23 7.5 43q6.5 20 17.5 35q11 15 27 23.5q16 8.5 35 8.5q20 0 38.5 -9q18.5 -9 36 -19.5q17.5 -10.5 33.5 -19q16 -8.5 30 -8.5q22 0 29.5 16q7.5 16 11.5 36l49 0q-1 -47 -24 -78.5t-63 -31.5z" />
<glyph unicode="&#196;" horiz-adv-x="753" d="M342 704h69l313 -704h-78l-87 193h-367l-85 -193h-77zM535 258l-159 353l-159 -353zM230 828q0 20 13.5 33.5q13.5 13.5 33.5 13.5q20 0 33.5 -13.5q13.5 -13.5 13.5 -33.5q0 -20 -13.5 -33.5q-13.5 -13.5 -33.5 -13.5q-20 0 -33.5 13.5q-13.5 13.5 -13.5 33.5zt0 0zM430 828q0 20 13.5 33.5q13.5 13.5 33.5 13.5q20 0 33.5 -13.5q13.5 -13.5 13.5 -33.5q0 -20 -13.5 -33.5q-13.5 -13.5 -33.5 -13.5q-20 0 -33.5 13.5t-13.5 33.5z" />
<glyph unicode="&#197;" horiz-adv-x="753" d="M342 704h69l313 -704h-78l-87 193h-367l-85 -193h-77zM535 258l-159 353l-159 -353zM377 926q19 0 36.5 -7.5q17.5 -7.5 30.5 -20.5q13 -13 20.5 -30.5q7.5 -17.5 7.5 -37.5q0 -20 -7.5 -37.5q-7.5 -17.5 -20.5 -30.5q-13 -13 -30.5 -20.5q-17.5 -7.5 -36.5 -7.5q-41 0 -69 28q-28 28 -28 68q0 40 28 68q28 28 69 28zt0 0zM377 774q23 0 39 16.5q16 16.5 16 39.5q0 24 -16 40q-16 16 -39 16q-24 0 -40.5 -16q-16.5 -16 -16.5 -40q0 -23 16.5 -39.5t40.5 -16.5z" />
<glyph unicode="&#198;" horiz-adv-x="1029" d="M493 193h-285l-118 -193h-82l429 700h532v-67h-402v-224h329v-67h-329v-275h416v-67h-490zM247 258h246v375l-15 0z" />
<glyph unicode="&#199;" horiz-adv-x="690" d="M399 -11q-71 5 -131 34q-60 29 -104 76q-44 47 -69 111q-25 64 -25 140q0 79 27.5 145.5q27.5 66.5 75.5 114.5q48 48 113.5 75q65.5 27 142.5 27q56 0 104.5 -12.5q48.5 -12.5 91.5 -39.5l0 -76q-43 28 -90 43.5q-47 15.5 -105 15.5q-60 0 -112 -22q-52 -22 -90 -61q-38 -39 -60 -93q-22 -54 -22 -117q0 -64 22 -117.5q22 -53.5 60.5 -92.5q38.5 -39 91 -61q52.5 -22 112.5 -22q121 0 208 70l0 -77q-36 -26 -81 -41q-45 -15 -96 -19l-62 -122l-87 0z" />
<glyph unicode="&#200;" horiz-adv-x="640" d="M99 700h480v-67h-406v-224h333v-67h-333v-275h421v-67h-495zM198 896h92l96 -133l-70 0z" />
<glyph unicode="&#201;" horiz-adv-x="640" d="M99 700h480v-67h-406v-224h333v-67h-333v-275h421v-67h-495zM374 896h92l-118 -133l-69 0z" />
<glyph unicode="&#202;" horiz-adv-x="640" d="M99 700h480v-67h-406v-224h333v-67h-333v-275h421v-67h-495zM309 896h72l111 -133h-71l-76 92l-76 -92l-71 0z" />
<glyph unicode="&#203;" horiz-adv-x="640" d="M99 700h480v-67h-406v-224h333v-67h-333v-275h421v-67h-495zM194 828q0 20 13.5 33.5q13.5 13.5 33.5 13.5q20 0 33.5 -13.5q13.5 -13.5 13.5 -33.5q0 -20 -13.5 -33.5q-13.5 -13.5 -33.5 -13.5q-20 0 -33.5 13.5q-13.5 13.5 -13.5 33.5zt0 0zM394 828q0 20 13.5 33.5q13.5 13.5 33.5 13.5q20 0 33.5 -13.5q13.5 -13.5 13.5 -33.5q0 -20 -13.5 -33.5q-13.5 -13.5 -33.5 -13.5q-20 0 -33.5 13.5t-13.5 33.5z" />
<glyph unicode="&#204;" horiz-adv-x="281" d="M104 700h74v-700h-74zM-13 896h92l96 -133l-70 0z" />
<glyph unicode="&#205;" horiz-adv-x="281" d="M104 700h74v-700h-74zM201 896h92l-118 -133l-69 0z" />
<glyph unicode="&#206;" horiz-adv-x="281" d="M104 700h74v-700h-74zM105 896h72l111 -133h-71l-76 92l-76 -92l-71 0z" />
<glyph unicode="&#207;" horiz-adv-x="280" d="M102 700h74v-700h-74zM-7 828q0 20 13.5 33.5q13.5 13.5 33.5 13.5q20 0 33.5 -13.5q13.5 -13.5 13.5 -33.5q0 -20 -13.5 -33.5q-13.5 -13.5 -33.5 -13.5q-20 0 -33.5 13.5q-13.5 13.5 -13.5 33.5zt0 0zM193 828q0 20 13.5 33.5q13.5 13.5 33.5 13.5q20 0 33.5 -13.5q13.5 -13.5 13.5 -33.5q0 -20 -13.5 -33.5q-13.5 -13.5 -33.5 -13.5q-20 0 -33.5 13.5t-13.5 33.5z" />
<glyph unicode="&#208;" horiz-adv-x="828" d="M149 324h-111v67h111v309h229q84 0 154 -25.5q70 -25.5 120 -71.5q50 -46 77.5 -110.5q27.5 -64.5 27.5 -142.5q0 -78 -27.5 -142.5q-27.5 -64.5 -77.5 -110.5q-50 -46 -120 -71.5q-70 -25.5 -154 -25.5h-229zM369 67q73 0 131 20q58 20 98.5 57q40.5 37 62 89.5q21.5 52.5 21.5 116.5q0 64 -21.5 116.5q-21.5 52.5 -62 89.5q-40.5 37 -98.5 57q-58 20 -131 20h-146v-242h162v-67h-162l0 -257z" />
<glyph unicode="&#209;" horiz-adv-x="775" d="M99 700h64l442 -572v572h72v-700h-63l-443 574v-574h-72zM458 772q-20 0 -38.5 9q-18.5 9 -36 19.5q-17.5 10.5 -33 19.5q-15.5 9 -30.5 9q-21 0 -30 -16.5q-9 -16.5 -11 -36.5l-49 0q1 23 7.5 43q6.5 20 17.5 35q11 15 27 23.5q16 8.5 35 8.5q20 0 38.5 -9q18.5 -9 36 -19.5q17.5 -10.5 33.5 -19q16 -8.5 30 -8.5q22 0 29.5 16q7.5 16 11.5 36l49 0q-1 -47 -24 -78.5t-63 -31.5z" />
<glyph unicode="&#210;" horiz-adv-x="845" d="M422 712q75 0 139.5 -27.5q64.5 -27.5 112 -76q47.5 -48.5 74 -115q26.5 -66.5 26.5 -143.5q0 -77 -26.5 -143.5q-26.5 -66.5 -74 -115q-47.5 -48.5 -112 -76q-64.5 -27.5 -139.5 -27.5q-75 0 -139.5 27.5q-64.5 27.5 -112 76q-47.5 48.5 -74 115q-26.5 66.5 -26.5 143.5q0 77 26.5 143.5q26.5 66.5 74 115q47.5 48.5 112 76q64.5 27.5 139.5 27.5zt0 0zM422 57q58 0 108.5 22q50.5 22 88 61.5q37.5 39.5 59 93q21.5 53.5 21.5 116.5q0 63 -21.5 116.5q-21.5 53.5 -59 93q-37.5 39.5 -88 61.5q-50.5 22 -108.5 22q-58 0 -108.5 -22q-50.5 -22 -88 -61.5q-37.5 -39.5 -59 -93q-21.5 -53.5 -21.5 -116.5q0 -63 21.5 -116.5q21.5 -53.5 59 -93q37.5 -39.5 88 -61.5q50.5 -22 108.5 -22zt0 0zM269 896h92l96 -133l-70 0z" />
<glyph unicode="&#211;" horiz-adv-x="845" d="M422 712q75 0 139.5 -27.5q64.5 -27.5 112 -76q47.5 -48.5 74 -115q26.5 -66.5 26.5 -143.5q0 -77 -26.5 -143.5q-26.5 -66.5 -74 -115q-47.5 -48.5 -112 -76q-64.5 -27.5 -139.5 -27.5q-75 0 -139.5 27.5q-64.5 27.5 -112 76q-47.5 48.5 -74 115q-26.5 66.5 -26.5 143.5q0 77 26.5 143.5q26.5 66.5 74 115q47.5 48.5 112 76q64.5 27.5 139.5 27.5zt0 0zM422 57q58 0 108.5 22q50.5 22 88 61.5q37.5 39.5 59 93q21.5 53.5 21.5 116.5q0 63 -21.5 116.5q-21.5 53.5 -59 93q-37.5 39.5 -88 61.5q-50.5 22 -108.5 22q-58 0 -108.5 -22q-50.5 -22 -88 -61.5q-37.5 -39.5 -59 -93q-21.5 -53.5 -21.5 -116.5q0 -63 21.5 -116.5q21.5 -53.5 59 -93q37.5 -39.5 88 -61.5q50.5 -22 108.5 -22zt0 0zM466 896h92l-118 -133l-69 0z" />
<glyph unicode="&#212;" horiz-adv-x="845" d="M422 712q75 0 139.5 -27.5q64.5 -27.5 112 -76q47.5 -48.5 74 -115q26.5 -66.5 26.5 -143.5q0 -77 -26.5 -143.5q-26.5 -66.5 -74 -115q-47.5 -48.5 -112 -76q-64.5 -27.5 -139.5 -27.5q-75 0 -139.5 27.5q-64.5 27.5 -112 76q-47.5 48.5 -74 115q-26.5 66.5 -26.5 143.5q0 77 26.5 143.5q26.5 66.5 74 115q47.5 48.5 112 76q64.5 27.5 139.5 27.5zt0 0zM422 57q58 0 108.5 22q50.5 22 88 61.5q37.5 39.5 59 93q21.5 53.5 21.5 116.5q0 63 -21.5 116.5q-21.5 53.5 -59 93q-37.5 39.5 -88 61.5q-50.5 22 -108.5 22q-58 0 -108.5 -22q-50.5 -22 -88 -61.5q-37.5 -39.5 -59 -93q-21.5 -53.5 -21.5 -116.5q0 -63 21.5 -116.5q21.5 -53.5 59 -93q37.5 -39.5 88 -61.5q50.5 -22 108.5 -22zt0 0zM386 896h72l111 -133h-71l-76 92l-76 -92l-71 0z" />
<glyph unicode="&#213;" horiz-adv-x="845" d="M422 712q75 0 139.5 -27.5q64.5 -27.5 112 -76q47.5 -48.5 74 -115q26.5 -66.5 26.5 -143.5q0 -77 -26.5 -143.5q-26.5 -66.5 -74 -115q-47.5 -48.5 -112 -76q-64.5 -27.5 -139.5 -27.5q-75 0 -139.5 27.5q-64.5 27.5 -112 76q-47.5 48.5 -74 115q-26.5 66.5 -26.5 143.5q0 77 26.5 143.5q26.5 66.5 74 115q47.5 48.5 112 76q64.5 27.5 139.5 27.5zt0 0zM422 57q58 0 108.5 22q50.5 22 88 61.5q37.5 39.5 59 93q21.5 53.5 21.5 116.5q0 63 -21.5 116.5q-21.5 53.5 -59 93q-37.5 39.5 -88 61.5q-50.5 22 -108.5 22q-58 0 -108.5 -22q-50.5 -22 -88 -61.5q-37.5 -39.5 -59 -93q-21.5 -53.5 -21.5 -116.5q0 -63 21.5 -116.5q21.5 -53.5 59 -93q37.5 -39.5 88 -61.5q50.5 -22 108.5 -22zt0 0zM493 772q-20 0 -38.5 9q-18.5 9 -36 19.5q-17.5 10.5 -33 19.5q-15.5 9 -30.5 9q-21 0 -30 -16.5q-9 -16.5 -11 -36.5l-49 0q1 23 7.5 43q6.5 20 17.5 35q11 15 27 23.5q16 8.5 35 8.5q20 0 38.5 -9q18.5 -9 36 -19.5q17.5 -10.5 33.5 -19q16 -8.5 30 -8.5q22 0 29.5 16q7.5 16 11.5 36l49 0q-1 -47 -24 -78.5t-63 -31.5z" />
<glyph unicode="&#214;" horiz-adv-x="845" d="M422 712q75 0 139.5 -27.5q64.5 -27.5 112 -76q47.5 -48.5 74 -115q26.5 -66.5 26.5 -143.5q0 -77 -26.5 -143.5q-26.5 -66.5 -74 -115q-47.5 -48.5 -112 -76q-64.5 -27.5 -139.5 -27.5q-75 0 -139.5 27.5q-64.5 27.5 -112 76q-47.5 48.5 -74 115q-26.5 66.5 -26.5 143.5q0 77 26.5 143.5q26.5 66.5 74 115q47.5 48.5 112 76q64.5 27.5 139.5 27.5zt0 0zM422 57q58 0 108.5 22q50.5 22 88 61.5q37.5 39.5 59 93q21.5 53.5 21.5 116.5q0 63 -21.5 116.5q-21.5 53.5 -59 93q-37.5 39.5 -88 61.5q-50.5 22 -108.5 22q-58 0 -108.5 -22q-50.5 -22 -88 -61.5q-37.5 -39.5 -59 -93q-21.5 -53.5 -21.5 -116.5q0 -63 21.5 -116.5q21.5 -53.5 59 -93q37.5 -39.5 88 -61.5q50.5 -22 108.5 -22zt0 0zM276 828q0 20 13.5 33.5q13.5 13.5 33.5 13.5q20 0 33.5 -13.5q13.5 -13.5 13.5 -33.5q0 -20 -13.5 -33.5q-13.5 -13.5 -33.5 -13.5q-20 0 -33.5 13.5q-13.5 13.5 -13.5 33.5zt0 0zM476 828q0 20 13.5 33.5q13.5 13.5 33.5 13.5q20 0 33.5 -13.5q13.5 -13.5 13.5 -33.5q0 -20 -13.5 -33.5q-13.5 -13.5 -33.5 -13.5q-20 0 -33.5 13.5t-13.5 33.5z" />
<glyph unicode="&#215;" horiz-adv-x="544" d="M70 168l157 157l-157 156l46 46l156 -156l157 156l45 -46l-156 -156l156 -156l-45 -47l-156 156l-157 -156z" />
<glyph unicode="&#216;" horiz-adv-x="845" d="M422 712q60 0 112.5 -17.5q52.5 -17.5 95.5 -49.5l46 55h73l-76 -92q48 -49 74.5 -114.5q26.5 -65.5 26.5 -143.5q0 -77 -26.5 -143.5q-26.5 -66.5 -74 -115q-47.5 -48.5 -112 -76q-64.5 -27.5 -139.5 -27.5q-60 0 -112.5 17q-52.5 17 -96.5 49l-45 -54h-73l76 91q-48 49 -74.5 115q-26.5 66 -26.5 144q0 77 26.5 143.5q26.5 66.5 74 115q47.5 48.5 112 76q64.5 27.5 139.5 27.5zt0 0zM145 350q0 -60 19 -111.5q19 -51.5 54 -90.5l366 441q-34 26 -75 40q-41 14 -87 14q-58 0 -108.5 -22q-50.5 -22 -88 -61.5q-37.5 -39.5 -59 -93q-21.5 -53.5 -21.5 -116.5zt0 0zM422 57q58 0 108.5 22q50.5 22 88 61.5q37.5 39.5 59 93q21.5 53.5 21.5 116.5q0 60 -19.5 111.5q-19.5 51.5 -53.5 89.5l-366 -441q34 -25 75 -39t87 -14z" />
<glyph unicode="&#217;" horiz-adv-x="748" d="M374 -12q-62 0 -114.5 20q-52.5 20 -90.5 59q-38 39 -59.5 97q-21.5 58 -21.5 134v402h74v-403q0 -116 58 -178q58 -62 154 -62q96 0 154 62q58 62 58 178v403h74v-402q0 -76 -21.5 -134q-21.5 -58 -60 -97q-38.5 -39 -91 -59q-52.5 -20 -113.5 -20zt0 0zM231 896h92l96 -133l-70 0z" />
<glyph unicode="&#218;" horiz-adv-x="748" d="M374 -12q-62 0 -114.5 20q-52.5 20 -90.5 59q-38 39 -59.5 97q-21.5 58 -21.5 134v402h74v-403q0 -116 58 -178q58 -62 154 -62q96 0 154 62q58 62 58 178v403h74v-402q0 -76 -21.5 -134q-21.5 -58 -60 -97q-38.5 -39 -91 -59q-52.5 -20 -113.5 -20zt0 0zM429 896h92l-118 -133l-69 0z" />
<glyph unicode="&#219;" horiz-adv-x="748" d="M374 -12q-62 0 -114.5 20q-52.5 20 -90.5 59q-38 39 -59.5 97q-21.5 58 -21.5 134v402h74v-403q0 -116 58 -178q58 -62 154 -62q96 0 154 62q58 62 58 178v403h74v-402q0 -76 -21.5 -134q-21.5 -58 -60 -97q-38.5 -39 -91 -59q-52.5 -20 -113.5 -20zt0 0zM337 896h72l111 -133h-71l-76 92l-76 -92l-71 0z" />
<glyph unicode="&#220;" horiz-adv-x="748" d="M374 -12q-62 0 -114.5 20q-52.5 20 -90.5 59q-38 39 -59.5 97q-21.5 58 -21.5 134v402h74v-403q0 -116 58 -178q58 -62 154 -62q96 0 154 62q58 62 58 178v403h74v-402q0 -76 -21.5 -134q-21.5 -58 -60 -97q-38.5 -39 -91 -59q-52.5 -20 -113.5 -20zt0 0zM228 828q0 20 13.5 33.5q13.5 13.5 33.5 13.5q20 0 33.5 -13.5q13.5 -13.5 13.5 -33.5q0 -20 -13.5 -33.5q-13.5 -13.5 -33.5 -13.5q-20 0 -33.5 13.5q-13.5 13.5 -13.5 33.5zt0 0zM428 828q0 20 13.5 33.5q13.5 13.5 33.5 13.5q20 0 33.5 -13.5q13.5 -13.5 13.5 -33.5q0 -20 -13.5 -33.5q-13.5 -13.5 -33.5 -13.5q-20 0 -33.5 13.5t-13.5 33.5z" />
<glyph unicode="&#221;" horiz-adv-x="664" d="M295 321l-272 379h86l224 -310l224 310h84l-272 -378v-322h-74zM384 896h92l-118 -133l-69 0z" />
<glyph unicode="&#222;" horiz-adv-x="665" d="M99 700h73v-156h221q54 0 95.5 -14.5q41.5 -14.5 70 -40q28.5 -25.5 43.5 -61q15 -35.5 15 -78.5q0 -44 -15 -80q-15 -36 -43.5 -62q-28.5 -26 -70 -40.5q-41.5 -14.5 -95.5 -14.5h-220v-153h-74zM388 220q74 0 115 33q41 33 41 95q0 63 -41 96q-41 33 -115 33h-215l0 -257z" />
<glyph unicode="&#223;" horiz-adv-x="617" d="M350 -12q-25 0 -49.5 3q-24.5 3 -43.5 11l0 68q36 -17 81 -17q34 0 63 9.5q29 9.5 50 28q21 18.5 33 45q12 26.5 12 60.5q0 36 -13.5 65.5q-13.5 29.5 -38 51.5q-24.5 22 -60 34q-35.5 12 -79.5 12h-21v54h21q62 0 97 29q35 29 35 84q0 52 -36.5 84.5q-36.5 32.5 -97.5 32.5q-64 0 -105 -40q-41 -40 -41 -112v-491h-72v491q0 50 16 90q16 40 44.5 68.5q28.5 28.5 68.5 43.5q40 15 88 15q48 0 86 -13.5q38 -13.5 65 -37q27 -23.5 41.5 -55.5q14.5 -32 14.5 -69q0 -60 -28 -94.5q-28 -34.5 -70 -48.5q30 -7 58 -23q28 -16 50 -41q22 -25 35.5 -59q13.5 -34 13.5 -78q0 -48 -16.5 -85q-16.5 -37 -46 -63q-29.5 -26 -69.5 -39.5t-86 -13.5z" />
<glyph unicode="&#224;" horiz-adv-x="594" d="M248 53q28 0 53 7q25 7 47 18.5q22 11.5 39 26q17 14.5 29 29.5l0 67q-26 17 -66.5 32.5q-40.5 15.5 -90.5 15.5q-66 0 -104.5 -26q-38.5 -26 -38.5 -71q0 -26 11 -45q11 -19 29.5 -31q18.5 -12 42 -17.5q23.5 -5.5 49.5 -5.5zt0 0zM228 -12q-36 0 -69.5 10.5q-33.5 10.5 -59 30.5q-25.5 20 -40.5 50q-15 30 -15 69q0 38 15.5 68q15.5 30 42.5 50.5q27 20.5 63 31q36 10.5 77 10.5q61 0 103.5 -15q42.5 -15 70.5 -32l0 48q0 34 -12 57q-12 23 -33 37q-21 14 -50.5 20.5q-29.5 6.5 -63.5 6.5q-48 0 -90.5 -16q-42.5 -16 -67.5 -33l0 70q24 15 67.5 29.5q43.5 14.5 105.5 14.5q46 0 85.5 -10.5q39.5 -10.5 68.5 -32.5q29 -22 45.5 -56q16.5 -34 16.5 -80v-199q0 -29 12.5 -44.5q12.5 -15.5 33.5 -15.5q16 0 28 6l0 -56q-8 -6 -22 -8.5q-14 -2.5 -26 -2.5q-32 0 -58.5 17.5q-26.5 17.5 -32.5 59.5q-29 -34 -77.5 -59.5q-48.5 -25.5 -117.5 -25.5zt0 0zM159 710h91l96 -134l-69 0z" />
<glyph unicode="&#225;" horiz-adv-x="594" d="M248 53q28 0 53 7q25 7 47 18.5q22 11.5 39 26q17 14.5 29 29.5l0 67q-26 17 -66.5 32.5q-40.5 15.5 -90.5 15.5q-66 0 -104.5 -26q-38.5 -26 -38.5 -71q0 -26 11 -45q11 -19 29.5 -31q18.5 -12 42 -17.5q23.5 -5.5 49.5 -5.5zt0 0zM228 -12q-36 0 -69.5 10.5q-33.5 10.5 -59 30.5q-25.5 20 -40.5 50q-15 30 -15 69q0 38 15.5 68q15.5 30 42.5 50.5q27 20.5 63 31q36 10.5 77 10.5q61 0 103.5 -15q42.5 -15 70.5 -32l0 48q0 34 -12 57q-12 23 -33 37q-21 14 -50.5 20.5q-29.5 6.5 -63.5 6.5q-48 0 -90.5 -16q-42.5 -16 -67.5 -33l0 70q24 15 67.5 29.5q43.5 14.5 105.5 14.5q46 0 85.5 -10.5q39.5 -10.5 68.5 -32.5q29 -22 45.5 -56q16.5 -34 16.5 -80v-199q0 -29 12.5 -44.5q12.5 -15.5 33.5 -15.5q16 0 28 6l0 -56q-8 -6 -22 -8.5q-14 -2.5 -26 -2.5q-32 0 -58.5 17.5q-26.5 17.5 -32.5 59.5q-29 -34 -77.5 -59.5q-48.5 -25.5 -117.5 -25.5zt0 0zM319 710h92l-118 -134l-70 0z" />
<glyph unicode="&#226;" horiz-adv-x="594" d="M248 53q28 0 53 7q25 7 47 18.5q22 11.5 39 26q17 14.5 29 29.5l0 67q-26 17 -66.5 32.5q-40.5 15.5 -90.5 15.5q-66 0 -104.5 -26q-38.5 -26 -38.5 -71q0 -26 11 -45q11 -19 29.5 -31q18.5 -12 42 -17.5q23.5 -5.5 49.5 -5.5zt0 0zM228 -12q-36 0 -69.5 10.5q-33.5 10.5 -59 30.5q-25.5 20 -40.5 50q-15 30 -15 69q0 38 15.5 68q15.5 30 42.5 50.5q27 20.5 63 31q36 10.5 77 10.5q61 0 103.5 -15q42.5 -15 70.5 -32l0 48q0 34 -12 57q-12 23 -33 37q-21 14 -50.5 20.5q-29.5 6.5 -63.5 6.5q-48 0 -90.5 -16q-42.5 -16 -67.5 -33l0 70q24 15 67.5 29.5q43.5 14.5 105.5 14.5q46 0 85.5 -10.5q39.5 -10.5 68.5 -32.5q29 -22 45.5 -56q16.5 -34 16.5 -80v-199q0 -29 12.5 -44.5q12.5 -15.5 33.5 -15.5q16 0 28 6l0 -56q-8 -6 -22 -8.5q-14 -2.5 -26 -2.5q-32 0 -58.5 17.5q-26.5 17.5 -32.5 59.5q-29 -34 -77.5 -59.5q-48.5 -25.5 -117.5 -25.5zt0 0zM239 710h73l110 -134h-71l-77 92l-76 -92l-71 0z" />
<glyph unicode="&#227;" horiz-adv-x="594" d="M248 53q28 0 53 7q25 7 47 18.5q22 11.5 39 26q17 14.5 29 29.5l0 67q-26 17 -66.5 32.5q-40.5 15.5 -90.5 15.5q-66 0 -104.5 -26q-38.5 -26 -38.5 -71q0 -26 11 -45q11 -19 29.5 -31q18.5 -12 42 -17.5q23.5 -5.5 49.5 -5.5zt0 0zM228 -12q-36 0 -69.5 10.5q-33.5 10.5 -59 30.5q-25.5 20 -40.5 50q-15 30 -15 69q0 38 15.5 68q15.5 30 42.5 50.5q27 20.5 63 31q36 10.5 77 10.5q61 0 103.5 -15q42.5 -15 70.5 -32l0 48q0 34 -12 57q-12 23 -33 37q-21 14 -50.5 20.5q-29.5 6.5 -63.5 6.5q-48 0 -90.5 -16q-42.5 -16 -67.5 -33l0 70q24 15 67.5 29.5q43.5 14.5 105.5 14.5q46 0 85.5 -10.5q39.5 -10.5 68.5 -32.5q29 -22 45.5 -56q16.5 -34 16.5 -80v-199q0 -29 12.5 -44.5q12.5 -15.5 33.5 -15.5q16 0 28 6l0 -56q-8 -6 -22 -8.5q-14 -2.5 -26 -2.5q-32 0 -58.5 17.5q-26.5 17.5 -32.5 59.5q-29 -34 -77.5 -59.5q-48.5 -25.5 -117.5 -25.5zt0 0zM350 589q-20 0 -38.5 8.5q-18.5 8.5 -36 19q-17.5 10.5 -33 19.5q-15.5 9 -30.5 9q-21 0 -30 -16q-9 -16 -11 -36l-49 0q2 47 25 78.5q23 31.5 62 31.5q20 0 38.5 -9q18.5 -9 36 -19.5q17.5 -10.5 33.5 -19q16 -8.5 30 -8.5q22 0 29.5 16q7.5 16 11.5 36l49 0q-1 -48 -24 -79t-63 -31z" />
<glyph unicode="&#228;" horiz-adv-x="594" d="M248 53q28 0 53 7q25 7 47 18.5q22 11.5 39 26q17 14.5 29 29.5l0 67q-26 17 -66.5 32.5q-40.5 15.5 -90.5 15.5q-66 0 -104.5 -26q-38.5 -26 -38.5 -71q0 -26 11 -45q11 -19 29.5 -31q18.5 -12 42 -17.5q23.5 -5.5 49.5 -5.5zt0 0zM228 -12q-36 0 -69.5 10.5q-33.5 10.5 -59 30.5q-25.5 20 -40.5 50q-15 30 -15 69q0 38 15.5 68q15.5 30 42.5 50.5q27 20.5 63 31q36 10.5 77 10.5q61 0 103.5 -15q42.5 -15 70.5 -32l0 48q0 34 -12 57q-12 23 -33 37q-21 14 -50.5 20.5q-29.5 6.5 -63.5 6.5q-48 0 -90.5 -16q-42.5 -16 -67.5 -33l0 70q24 15 67.5 29.5q43.5 14.5 105.5 14.5q46 0 85.5 -10.5q39.5 -10.5 68.5 -32.5q29 -22 45.5 -56q16.5 -34 16.5 -80v-199q0 -29 12.5 -44.5q12.5 -15.5 33.5 -15.5q16 0 28 6l0 -56q-8 -6 -22 -8.5q-14 -2.5 -26 -2.5q-32 0 -58.5 17.5q-26.5 17.5 -32.5 59.5q-29 -34 -77.5 -59.5q-48.5 -25.5 -117.5 -25.5zt0 0zM131 646q0 20 13.5 33.5q13.5 13.5 33.5 13.5q20 0 33.5 -13.5q13.5 -13.5 13.5 -33.5q0 -20 -13.5 -33.5q-13.5 -13.5 -33.5 -13.5q-20 0 -33.5 13.5q-13.5 13.5 -13.5 33.5zt0 0zM331 646q0 20 13.5 33.5q13.5 13.5 33.5 13.5q20 0 33.5 -13.5q13.5 -13.5 13.5 -33.5q0 -20 -13.5 -33.5q-13.5 -13.5 -33.5 -13.5q-20 0 -33.5 13.5t-13.5 33.5z" />
<glyph unicode="&#229;" horiz-adv-x="594" d="M248 53q28 0 53 7q25 7 47 18.5q22 11.5 39 26q17 14.5 29 29.5l0 67q-26 17 -66.5 32.5q-40.5 15.5 -90.5 15.5q-66 0 -104.5 -26q-38.5 -26 -38.5 -71q0 -26 11 -45q11 -19 29.5 -31q18.5 -12 42 -17.5q23.5 -5.5 49.5 -5.5zt0 0zM228 -12q-36 0 -69.5 10.5q-33.5 10.5 -59 30.5q-25.5 20 -40.5 50q-15 30 -15 69q0 38 15.5 68q15.5 30 42.5 50.5q27 20.5 63 31q36 10.5 77 10.5q61 0 103.5 -15q42.5 -15 70.5 -32l0 48q0 34 -12 57q-12 23 -33 37q-21 14 -50.5 20.5q-29.5 6.5 -63.5 6.5q-48 0 -90.5 -16q-42.5 -16 -67.5 -33l0 70q24 15 67.5 29.5q43.5 14.5 105.5 14.5q46 0 85.5 -10.5q39.5 -10.5 68.5 -32.5q29 -22 45.5 -56q16.5 -34 16.5 -80v-199q0 -29 12.5 -44.5q12.5 -15.5 33.5 -15.5q16 0 28 6l0 -56q-8 -6 -22 -8.5q-14 -2.5 -26 -2.5q-32 0 -58.5 17.5q-26.5 17.5 -32.5 59.5q-29 -34 -77.5 -59.5q-48.5 -25.5 -117.5 -25.5zt0 0zM281 742q40 0 68 -28q28 -28 28 -68q0 -40 -28 -68q-28 -28 -68 -28q-40 0 -68 28q-28 28 -28 68q0 40 28 68q28 28 68 28zt0 0zM281 590q24 0 40 16.5q16 16.5 16 39.5q0 24 -16 40q-16 16 -40 16q-23 0 -39.5 -16q-16.5 -16 -16.5 -40q0 -23 16.5 -39.5t39.5 -16.5z" />
<glyph unicode="&#230;" horiz-adv-x="935" d="M885 224h-397q3 -39 19.5 -70.5q16.5 -31.5 43.5 -54q27 -22.5 63.5 -34.5q36.5 -12 79.5 -12q47 0 86 12.5q39 12.5 69 32.5l0 -64q-26 -20 -70.5 -33q-44.5 -13 -98.5 -13q-72 0 -130 29.5q-58 29.5 -92 83.5q-15 -18 -37 -38q-22 -20 -50.5 -36.5q-28.5 -16.5 -63 -27.5q-34.5 -11 -75.5 -11q-39 0 -73 10.5q-34 10.5 -59.5 30.5q-25.5 20 -40.5 50q-15 30 -15 69q0 38 15.5 68q15.5 30 42.5 50.5q27 20.5 63 31q36 10.5 77 10.5q60 0 104 -15q44 -15 71 -32l0 46q0 33 -12 56.5q-12 23.5 -33 38.5q-21 15 -50.5 21.5q-29.5 6.5 -64.5 6.5q-48 0 -90.5 -15.5q-42.5 -15.5 -67.5 -32.5l0 69q35 21 79.5 32.5q44.5 11.5 95.5 11.5q65 0 116 -26.5q51 -26.5 73 -80.5q31 49 81.5 78q50.5 29 114.5 29q61 0 104 -24q43 -24 70 -60.5q27 -36.5 39.5 -81q12.5 -44.5 12.5 -85.5zM248 53q61 0 109.5 29q48.5 29 75.5 68q-5 13 -8.5 23.5q-3.5 10.5 -5.5 25.5q-26 17 -68 34q-42 17 -92 17q-66 0 -104.5 -26.5q-38.5 -26.5 -38.5 -71.5q0 -25 10 -43.5q10 -18.5 28 -31q18 -12.5 42 -18.5q24 -6 52 -6zt0 0zM812 283q-1 23 -10 49q-9 26 -27.5 47.5q-18.5 21.5 -47.5 36q-29 14.5 -71 14.5q-39 0 -69 -12.5q-30 -12.5 -51 -33q-21 -20.5 -33 -47q-12 -26.5 -14 -54.5z" />
<glyph unicode="&#231;" horiz-adv-x="524" d="M50 242q0 54 19.5 100.5q19.5 46.5 54 80q34.5 33.5 82 53q47.5 19.5 102.5 19.5q44 0 79.5 -9q35.5 -9 66.5 -26l0 -67q-66 37 -136 37q-41 0 -76.5 -14q-35.5 -14 -61.5 -39q-26 -25 -41 -60q-15 -35 -15 -76q0 -41 15 -75.5q15 -34.5 41 -59.5q26 -25 61.5 -39q35.5 -14 76.5 -14q43 0 78.5 11q35.5 11 66.5 31l0 -66q-52 -31 -112 -38l-63 -123h-87l85 121q-51 4 -94.5 24.5q-43.5 20.5 -75 54q-31.5 33.5 -49 78t-17.5 96.5z" />
<glyph unicode="&#232;" horiz-adv-x="571" d="M316 -12q-56 0 -104.5 18.5q-48.5 18.5 -84.5 52q-36 33.5 -56.5 80q-20.5 46.5 -20.5 102.5q0 54 17.5 100q17.5 46 50 80.5q32.5 34.5 77.5 54q45 19.5 100 19.5q61 0 104 -24q43 -24 70 -60.5q27 -36.5 39.5 -81q12.5 -44.5 12.5 -85.5v-20h-397q3 -39 19 -70.5q16 -31.5 43 -54q27 -22.5 63.5 -34.5q36.5 -12 80.5 -12q46 0 85 12.5q39 12.5 70 32.5l0 -64q-26 -20 -71 -33q-45 -13 -98 -13zt0 0zM448 283q-1 23 -10 49q-9 26 -27.5 47.5q-18.5 21.5 -47.5 36q-29 14.5 -71 14.5q-39 0 -69 -12.5q-30 -12.5 -51 -33.5q-21 -21 -33 -47.5q-12 -26.5 -14 -53.5zM180 710h91l96 -134l-69 0z" />
<glyph unicode="&#233;" horiz-adv-x="571" d="M316 -12q-56 0 -104.5 18.5q-48.5 18.5 -84.5 52q-36 33.5 -56.5 80q-20.5 46.5 -20.5 102.5q0 54 17.5 100q17.5 46 50 80.5q32.5 34.5 77.5 54q45 19.5 100 19.5q61 0 104 -24q43 -24 70 -60.5q27 -36.5 39.5 -81q12.5 -44.5 12.5 -85.5v-20h-397q3 -39 19 -70.5q16 -31.5 43 -54q27 -22.5 63.5 -34.5q36.5 -12 80.5 -12q46 0 85 12.5q39 12.5 70 32.5l0 -64q-26 -20 -71 -33q-45 -13 -98 -13zt0 0zM448 283q-1 23 -10 49q-9 26 -27.5 47.5q-18.5 21.5 -47.5 36q-29 14.5 -71 14.5q-39 0 -69 -12.5q-30 -12.5 -51 -33.5q-21 -21 -33 -47.5q-12 -26.5 -14 -53.5zM327 710h92l-118 -134l-70 0z" />
<glyph unicode="&#234;" horiz-adv-x="571" d="M316 -12q-56 0 -104.5 18.5q-48.5 18.5 -84.5 52q-36 33.5 -56.5 80q-20.5 46.5 -20.5 102.5q0 54 17.5 100q17.5 46 50 80.5q32.5 34.5 77.5 54q45 19.5 100 19.5q61 0 104 -24q43 -24 70 -60.5q27 -36.5 39.5 -81q12.5 -44.5 12.5 -85.5v-20h-397q3 -39 19 -70.5q16 -31.5 43 -54q27 -22.5 63.5 -34.5q36.5 -12 80.5 -12q46 0 85 12.5q39 12.5 70 32.5l0 -64q-26 -20 -71 -33q-45 -13 -98 -13zt0 0zM448 283q-1 23 -10 49q-9 26 -27.5 47.5q-18.5 21.5 -47.5 36q-29 14.5 -71 14.5q-39 0 -69 -12.5q-30 -12.5 -51 -33.5q-21 -21 -33 -47.5q-12 -26.5 -14 -53.5zM255 710h73l110 -134h-71l-77 92l-76 -92l-71 0z" />
<glyph unicode="&#235;" horiz-adv-x="571" d="M316 -12q-56 0 -104.5 18.5q-48.5 18.5 -84.5 52q-36 33.5 -56.5 80q-20.5 46.5 -20.5 102.5q0 54 17.5 100q17.5 46 50 80.5q32.5 34.5 77.5 54q45 19.5 100 19.5q61 0 104 -24q43 -24 70 -60.5q27 -36.5 39.5 -81q12.5 -44.5 12.5 -85.5v-20h-397q3 -39 19 -70.5q16 -31.5 43 -54q27 -22.5 63.5 -34.5q36.5 -12 80.5 -12q46 0 85 12.5q39 12.5 70 32.5l0 -64q-26 -20 -71 -33q-45 -13 -98 -13zt0 0zM448 283q-1 23 -10 49q-9 26 -27.5 47.5q-18.5 21.5 -47.5 36q-29 14.5 -71 14.5q-39 0 -69 -12.5q-30 -12.5 -51 -33.5q-21 -21 -33 -47.5q-12 -26.5 -14 -53.5zM144 646q0 20 13.5 33.5q13.5 13.5 33.5 13.5q20 0 33.5 -13.5q13.5 -13.5 13.5 -33.5q0 -20 -13.5 -33.5q-13.5 -13.5 -33.5 -13.5q-20 0 -33.5 13.5q-13.5 13.5 -13.5 33.5zt0 0zM344 646q0 20 13.5 33.5q13.5 13.5 33.5 13.5q20 0 33.5 -13.5q13.5 -13.5 13.5 -33.5q0 -20 -13.5 -33.5q-13.5 -13.5 -33.5 -13.5q-20 0 -33.5 13.5t-13.5 33.5z" />
<glyph unicode="&#236;" horiz-adv-x="253" d="M-32 710h91l96 -134h-69zM90 483h73v-483l-73 0z" />
<glyph unicode="&#237;" horiz-adv-x="253" d="M192 710h92l-118 -133h-69zM90 483h73v-483l-73 0z" />
<glyph unicode="&#238;" horiz-adv-x="253" d="M90 483h73v-483h-73zM91 710h73l110 -134h-71l-77 92l-76 -92l-71 0z" />
<glyph unicode="&#239;" horiz-adv-x="258" d="M-18 646q0 20 13.5 33.5q13.5 13.5 33.5 13.5q20 0 33.5 -13.5q13.5 -13.5 13.5 -33.5q0 -20 -13.5 -33.5q-13.5 -13.5 -33.5 -13.5q-20 0 -33.5 13.5q-13.5 13.5 -13.5 33.5zt0 0zM182 646q0 20 13.5 33.5q13.5 13.5 33.5 13.5q20 0 33.5 -13.5q13.5 -13.5 13.5 -33.5q0 -20 -13.5 -33.5q-13.5 -13.5 -33.5 -13.5q-20 0 -33.5 13.5q-13.5 13.5 -13.5 33.5zt0 0zM92 483h73v-483l-73 0z" />
<glyph unicode="&#240;" horiz-adv-x="598" d="M459 647l-109 -45q35 -51 63 -91.5q28 -40.5 50 -70.5q18 -25 33.5 -49.5q15.5 -24.5 27.5 -49.5q12 -25 18.5 -52q6.5 -27 6.5 -57q0 -49 -18 -93q-18 -44 -50.5 -77.5q-32.5 -33.5 -78.5 -53.5q-46 -20 -102 -20q-56 0 -102 19.5q-46 19.5 -79 52.5q-33 33 -51 76q-18 43 -18 91q0 48 17 90.5q17 42.5 47.5 74q30.5 31.5 73 50q42.5 18.5 93.5 18.5q32 0 60 -5.5q28 -5.5 53 -18.5l-104 143l-132 -53l-31 43l132 52l-58 79h79l40 -55l108 45zM300 53q37 0 69.5 13.5q32.5 13.5 56 37.5q23.5 24 37 56q13.5 32 13.5 69q0 37 -13.5 69q-13.5 32 -37 55.5q-23.5 23.5 -56 37q-32.5 13.5 -69.5 13.5q-38 0 -70.5 -13.5q-32.5 -13.5 -56 -37q-23.5 -23.5 -37 -55.5q-13.5 -32 -13.5 -69q0 -37 13.5 -69q13.5 -32 37 -56q23.5 -24 56 -37.5t70.5 -13.5z" />
<glyph unicode="&#241;" horiz-adv-x="610" d="M85 0v483h72v-74q14 16 33 31.5q19 15.5 43.5 27.5q24.5 12 53.5 19.5q29 7.5 63 7.5q92 0 138 -53.5q46 -53.5 46 -147.5v-294h-72v278q0 48 -13.5 77q-13.5 29 -33.5 45q-20 16 -44 21.5q-24 5.5 -46 5.5q-26 0 -51 -9q-25 -9 -47.5 -23q-22.5 -14 -40.5 -32q-18 -18 -29 -37l0 -326zM380 589q-20 0 -38.5 8.5q-18.5 8.5 -36 19q-17.5 10.5 -33 19.5q-15.5 9 -30.5 9q-21 0 -30 -16q-9 -16 -11 -36l-49 0q2 47 25 78.5q23 31.5 62 31.5q20 0 38.5 -9q18.5 -9 36 -19.5q17.5 -10.5 33.5 -19q16 -8.5 30 -8.5q22 0 29.5 16q7.5 16 11.5 36l49 0q-1 -48 -24 -79t-63 -31z" />
<glyph unicode="&#242;" horiz-adv-x="621" d="M311 495q59 0 107 -20.5q48 -20.5 82.5 -55.5q34.5 -35 53 -81q18.5 -46 18.5 -97q0 -51 -18.5 -97q-18.5 -46 -53 -80.5q-34.5 -34.5 -82.5 -55q-48 -20.5 -107 -20.5q-59 0 -107 20.5q-48 20.5 -82.5 55q-34.5 34.5 -53 80.5q-18.5 46 -18.5 97q0 51 18.5 97q18.5 46 53 81q34.5 35 82.5 55.5q48 20.5 107 20.5zt0 0zM311 53q40 0 74.5 14.5q34.5 14.5 59.5 40q25 25.5 39 59.5q14 34 14 74q0 40 -14 74.5q-14 34.5 -39 60q-25 25.5 -59.5 40q-34.5 14.5 -74.5 14.5q-41 0 -75 -14.5q-34 -14.5 -59 -40q-25 -25.5 -39 -60q-14 -34.5 -14 -74.5q0 -40 14 -74q14 -34 39 -59.5q25 -25.5 59 -40q34 -14.5 75 -14.5zt0 0zM174 710h91l96 -134l-69 0z" />
<glyph unicode="&#243;" horiz-adv-x="621" d="M311 495q59 0 107 -20.5q48 -20.5 82.5 -55.5q34.5 -35 53 -81q18.5 -46 18.5 -97q0 -51 -18.5 -97q-18.5 -46 -53 -80.5q-34.5 -34.5 -82.5 -55q-48 -20.5 -107 -20.5q-59 0 -107 20.5q-48 20.5 -82.5 55q-34.5 34.5 -53 80.5q-18.5 46 -18.5 97q0 51 18.5 97q18.5 46 53 81q34.5 35 82.5 55.5q48 20.5 107 20.5zt0 0zM311 53q40 0 74.5 14.5q34.5 14.5 59.5 40q25 25.5 39 59.5q14 34 14 74q0 40 -14 74.5q-14 34.5 -39 60q-25 25.5 -59.5 40q-34.5 14.5 -74.5 14.5q-41 0 -75 -14.5q-34 -14.5 -59 -40q-25 -25.5 -39 -60q-14 -34.5 -14 -74.5q0 -40 14 -74q14 -34 39 -59.5q25 -25.5 59 -40q34 -14.5 75 -14.5zt0 0zM363 710h92l-118 -134l-70 0z" />
<glyph unicode="&#244;" horiz-adv-x="621" d="M311 495q59 0 107 -20.5q48 -20.5 82.5 -55.5q34.5 -35 53 -81q18.5 -46 18.5 -97q0 -51 -18.5 -97q-18.5 -46 -53 -80.5q-34.5 -34.5 -82.5 -55q-48 -20.5 -107 -20.5q-59 0 -107 20.5q-48 20.5 -82.5 55q-34.5 34.5 -53 80.5q-18.5 46 -18.5 97q0 51 18.5 97q18.5 46 53 81q34.5 35 82.5 55.5q48 20.5 107 20.5zt0 0zM311 53q40 0 74.5 14.5q34.5 14.5 59.5 40q25 25.5 39 59.5q14 34 14 74q0 40 -14 74.5q-14 34.5 -39 60q-25 25.5 -59.5 40q-34.5 14.5 -74.5 14.5q-41 0 -75 -14.5q-34 -14.5 -59 -40q-25 -25.5 -39 -60q-14 -34.5 -14 -74.5q0 -40 14 -74q14 -34 39 -59.5q25 -25.5 59 -40q34 -14.5 75 -14.5zt0 0zM276 710h73l110 -134h-71l-77 92l-76 -92l-71 0z" />
<glyph unicode="&#245;" horiz-adv-x="621" d="M311 495q59 0 107 -20.5q48 -20.5 82.5 -55.5q34.5 -35 53 -81q18.5 -46 18.5 -97q0 -51 -18.5 -97q-18.5 -46 -53 -80.5q-34.5 -34.5 -82.5 -55q-48 -20.5 -107 -20.5q-59 0 -107 20.5q-48 20.5 -82.5 55q-34.5 34.5 -53 80.5q-18.5 46 -18.5 97q0 51 18.5 97q18.5 46 53 81q34.5 35 82.5 55.5q48 20.5 107 20.5zt0 0zM311 53q40 0 74.5 14.5q34.5 14.5 59.5 40q25 25.5 39 59.5q14 34 14 74q0 40 -14 74.5q-14 34.5 -39 60q-25 25.5 -59.5 40q-34.5 14.5 -74.5 14.5q-41 0 -75 -14.5q-34 -14.5 -59 -40q-25 -25.5 -39 -60q-14 -34.5 -14 -74.5q0 -40 14 -74q14 -34 39 -59.5q25 -25.5 59 -40q34 -14.5 75 -14.5zt0 0zM382 589q-20 0 -38.5 8.5q-18.5 8.5 -36 19q-17.5 10.5 -33 19.5q-15.5 9 -30.5 9q-21 0 -30 -16q-9 -16 -11 -36l-49 0q2 47 25 78.5q23 31.5 62 31.5q20 0 38.5 -9q18.5 -9 36 -19.5q17.5 -10.5 33.5 -19q16 -8.5 30 -8.5q22 0 29.5 16q7.5 16 11.5 36l49 0q-1 -48 -24 -79t-63 -31z" />
<glyph unicode="&#246;" horiz-adv-x="621" d="M311 495q59 0 107 -20.5q48 -20.5 82.5 -55.5q34.5 -35 53 -81q18.5 -46 18.5 -97q0 -51 -18.5 -97q-18.5 -46 -53 -80.5q-34.5 -34.5 -82.5 -55q-48 -20.5 -107 -20.5q-59 0 -107 20.5q-48 20.5 -82.5 55q-34.5 34.5 -53 80.5q-18.5 46 -18.5 97q0 51 18.5 97q18.5 46 53 81q34.5 35 82.5 55.5q48 20.5 107 20.5zt0 0zM311 53q40 0 74.5 14.5q34.5 14.5 59.5 40q25 25.5 39 59.5q14 34 14 74q0 40 -14 74.5q-14 34.5 -39 60q-25 25.5 -59.5 40q-34.5 14.5 -74.5 14.5q-41 0 -75 -14.5q-34 -14.5 -59 -40q-25 -25.5 -39 -60q-14 -34.5 -14 -74.5q0 -40 14 -74q14 -34 39 -59.5q25 -25.5 59 -40q34 -14.5 75 -14.5zt0 0zM165 646q0 20 13.5 33.5q13.5 13.5 33.5 13.5q20 0 33.5 -13.5q13.5 -13.5 13.5 -33.5q0 -20 -13.5 -33.5q-13.5 -13.5 -33.5 -13.5q-20 0 -33.5 13.5q-13.5 13.5 -13.5 33.5zt0 0zM365 646q0 20 13.5 33.5q13.5 13.5 33.5 13.5q20 0 33.5 -13.5q13.5 -13.5 13.5 -33.5q0 -20 -13.5 -33.5q-13.5 -13.5 -33.5 -13.5q-20 0 -33.5 13.5t-13.5 33.5z" />
<glyph unicode="&#247;" horiz-adv-x="596" d="M70 359h456v-67h-456zM243 530q0 23 16 39q16 16 39 16q23 0 39 -16q16 -16 16 -39q0 -23 -16 -39q-16 -16 -39 -16q-23 0 -39 16q-16 16 -16 39zt0 0zM243 124q0 23 16 39q16 16 39 16q23 0 39 -16q16 -16 16 -39q0 -23 -16 -39q-16 -16 -39 -16q-23 0 -39 16t-16 39z" />
<glyph unicode="&#248;" horiz-adv-x="621" d="M124 61q-35 35 -54.5 81.5q-19.5 46.5 -19.5 98.5q0 51 18.5 97q18.5 46 53 81q34.5 35 82.5 55.5q48 20.5 107 20.5q42 0 78 -10.5q36 -10.5 66 -29.5l24 28h69l-51 -61q36 -35 55.5 -82q19.5 -47 19.5 -99q0 -51 -18.5 -97q-18.5 -46 -53 -80.5q-34.5 -34.5 -82.5 -55q-48 -20.5 -107 -20.5q-84 0 -146 40l-23 -28h-69zM311 53q40 0 74.5 14.5q34.5 14.5 59.5 40q25 25.5 39 59.5q14 34 14 74q0 38 -12 70q-12 32 -35 57l-241 -287q44 -28 101 -28zt0 0zM124 241q0 -37 12 -69q12 -32 33 -57l242 287q-44 28 -100 28q-41 0 -75 -14.5q-34 -14.5 -59 -40q-25 -25.5 -39 -60t-14 -74.5z" />
<glyph unicode="&#249;" horiz-adv-x="611" d="M526 483v-483h-72v74q-14 -16 -33 -31.5q-19 -15.5 -43.5 -27.5q-24.5 -12 -53.5 -19.5q-29 -7.5 -63 -7.5q-92 0 -138 53.5q-46 53.5 -46 147.5v294h72v-278q0 -48 13 -77q13 -29 33.5 -45q20.5 -16 44.5 -21.5q24 -5.5 46 -5.5q25 0 50.5 8.5q25.5 8.5 48 23q22.5 14.5 40.5 32.5q18 18 29 37l0 326zM178 710h91l96 -134l-69 0z" />
<glyph unicode="&#250;" horiz-adv-x="611" d="M526 483v-483h-72v74q-14 -16 -33 -31.5q-19 -15.5 -43.5 -27.5q-24.5 -12 -53.5 -19.5q-29 -7.5 -63 -7.5q-92 0 -138 53.5q-46 53.5 -46 147.5v294h72v-278q0 -48 13 -77q13 -29 33.5 -45q20.5 -16 44.5 -21.5q24 -5.5 46 -5.5q25 0 50.5 8.5q25.5 8.5 48 23q22.5 14.5 40.5 32.5q18 18 29 37l0 326zM337 710h92l-118 -134l-70 0z" />
<glyph unicode="&#251;" horiz-adv-x="611" d="M526 483v-483h-72v74q-14 -16 -33 -31.5q-19 -15.5 -43.5 -27.5q-24.5 -12 -53.5 -19.5q-29 -7.5 -63 -7.5q-92 0 -138 53.5q-46 53.5 -46 147.5v294h72v-278q0 -48 13 -77q13 -29 33.5 -45q20.5 -16 44.5 -21.5q24 -5.5 46 -5.5q25 0 50.5 8.5q25.5 8.5 48 23q22.5 14.5 40.5 32.5q18 18 29 37l0 326zM266 710h73l110 -134h-71l-77 92l-76 -92l-71 0z" />
<glyph unicode="&#252;" horiz-adv-x="611" d="M526 483v-483h-72v74q-14 -16 -33 -31.5q-19 -15.5 -43.5 -27.5q-24.5 -12 -53.5 -19.5q-29 -7.5 -63 -7.5q-92 0 -138 53.5q-46 53.5 -46 147.5v294h72v-278q0 -48 13 -77q13 -29 33.5 -45q20.5 -16 44.5 -21.5q24 -5.5 46 -5.5q25 0 50.5 8.5q25.5 8.5 48 23q22.5 14.5 40.5 32.5q18 18 29 37l0 326zM155 646q0 20 13.5 33.5q13.5 13.5 33.5 13.5q20 0 33.5 -13.5q13.5 -13.5 13.5 -33.5q0 -20 -13.5 -33.5q-13.5 -13.5 -33.5 -13.5q-20 0 -33.5 13.5q-13.5 13.5 -13.5 33.5zt0 0zM355 646q0 20 13.5 33.5q13.5 13.5 33.5 13.5q20 0 33.5 -13.5q13.5 -13.5 13.5 -33.5q0 -20 -13.5 -33.5q-13.5 -13.5 -33.5 -13.5q-20 0 -33.5 13.5t-13.5 33.5z" />
<glyph unicode="&#253;" horiz-adv-x="555" d="M112 -204q-23 0 -43.5 3q-20.5 3 -33.5 11l0 67q15 -8 30.5 -12q15.5 -4 35.5 -4q48 0 79.5 40.5q31.5 40.5 63.5 116.5l-215 465h80l171 -380l166 380h78l-239 -537q-31 -71 -72 -110.5q-41 -39.5 -101 -39.5zt0 0zM323 710h92l-118 -134l-70 0z" />
<glyph unicode="&#254;" horiz-adv-x="636" d="M85 -200v900h72v-294q28 37 75 63q47 26 112 26q55 0 99.5 -20.5q44.5 -20.5 76.5 -55q32 -34.5 49.5 -80.5q17.5 -46 17.5 -97q0 -51 -17.5 -97.5q-17.5 -46.5 -49.5 -81q-32 -34.5 -76.5 -55q-44.5 -20.5 -99.5 -20.5q-65 0 -112 26q-47 26 -75 63l0 -277zM157 162q21 -47 67 -78q46 -31 103 -31q40 0 74.5 14.5q34.5 14.5 59 40q24.5 25.5 38.5 60q14 34.5 14 74.5q0 40 -14 74q-14 34 -38.5 59.5q-24.5 25.5 -59 40q-34.5 14.5 -74.5 14.5q-28 0 -54 -8.5q-26 -8.5 -48.5 -23q-22.5 -14.5 -40 -34.5q-17.5 -20 -27.5 -43z" />
<glyph unicode="&#255;" horiz-adv-x="555" d="M112 -204q-23 0 -43.5 3q-20.5 3 -33.5 11l0 67q15 -8 30.5 -12q15.5 -4 35.5 -4q48 0 79.5 40.5q31.5 40.5 63.5 116.5l-215 465h80l171 -380l166 380h78l-239 -537q-31 -71 -72 -110.5q-41 -39.5 -101 -39.5zt0 0zM127 646q0 20 13.5 33.5q13.5 13.5 33.5 13.5q20 0 33.5 -13.5q13.5 -13.5 13.5 -33.5q0 -20 -13.5 -33.5q-13.5 -13.5 -33.5 -13.5q-20 0 -33.5 13.5q-13.5 13.5 -13.5 33.5zt0 0zM327 646q0 20 13.5 33.5q13.5 13.5 33.5 13.5q20 0 33.5 -13.5q13.5 -13.5 13.5 -33.5q0 -20 -13.5 -33.5q-13.5 -13.5 -33.5 -13.5q-20 0 -33.5 13.5t-13.5 33.5z" />
<glyph unicode="&#256;" horiz-adv-x="753" d="M342 704h69l313 -704h-78l-87 193h-367l-85 -193h-77zM535 258l-159 353l-159 -353zM252 857h252v-55l-252 0z" />
<glyph unicode="&#257;" horiz-adv-x="594" d="M248 53q28 0 53 7q25 7 47 18.5q22 11.5 39 26q17 14.5 29 29.5l0 67q-26 17 -66.5 32.5q-40.5 15.5 -90.5 15.5q-66 0 -104.5 -26q-38.5 -26 -38.5 -71q0 -26 11 -45q11 -19 29.5 -31q18.5 -12 42 -17.5q23.5 -5.5 49.5 -5.5zt0 0zM228 -12q-36 0 -69.5 10.5q-33.5 10.5 -59 30.5q-25.5 20 -40.5 50q-15 30 -15 69q0 38 15.5 68q15.5 30 42.5 50.5q27 20.5 63 31q36 10.5 77 10.5q61 0 103.5 -15q42.5 -15 70.5 -32l0 48q0 34 -12 57q-12 23 -33 37q-21 14 -50.5 20.5q-29.5 6.5 -63.5 6.5q-48 0 -90.5 -16q-42.5 -16 -67.5 -33l0 70q24 15 67.5 29.5q43.5 14.5 105.5 14.5q46 0 85.5 -10.5q39.5 -10.5 68.5 -32.5q29 -22 45.5 -56q16.5 -34 16.5 -80v-199q0 -29 12.5 -44.5q12.5 -15.5 33.5 -15.5q16 0 28 6l0 -56q-8 -6 -22 -8.5q-14 -2.5 -26 -2.5q-32 0 -58.5 17.5q-26.5 17.5 -32.5 59.5q-29 -34 -77.5 -59.5q-48.5 -25.5 -117.5 -25.5zt0 0zM158 673h252v-55l-252 0z" />
<glyph unicode="&#258;" horiz-adv-x="753" d="M342 704h69l313 -704h-78l-87 193h-367l-85 -193h-77zM535 258l-159 353l-159 -353zM378 756q-28 0 -53 10q-25 10 -44 28.5q-19 18.5 -30 44.5q-11 26 -12 57l57 0q1 -37 24 -62q23 -25 58 -25q35 0 57.5 25q22.5 25 23.5 62l57 0q0 -31 -11.5 -57q-11.5 -26 -30 -44.5q-18.5 -18.5 -43.5 -28.5t-53 -10z" />
<glyph unicode="&#259;" horiz-adv-x="594" d="M248 53q28 0 53 7q25 7 47 18.5q22 11.5 39 26q17 14.5 29 29.5l0 67q-26 17 -66.5 32.5q-40.5 15.5 -90.5 15.5q-66 0 -104.5 -26q-38.5 -26 -38.5 -71q0 -26 11 -45q11 -19 29.5 -31q18.5 -12 42 -17.5q23.5 -5.5 49.5 -5.5zt0 0zM228 -12q-36 0 -69.5 10.5q-33.5 10.5 -59 30.5q-25.5 20 -40.5 50q-15 30 -15 69q0 38 15.5 68q15.5 30 42.5 50.5q27 20.5 63 31q36 10.5 77 10.5q61 0 103.5 -15q42.5 -15 70.5 -32l0 48q0 34 -12 57q-12 23 -33 37q-21 14 -50.5 20.5q-29.5 6.5 -63.5 6.5q-48 0 -90.5 -16q-42.5 -16 -67.5 -33l0 70q24 15 67.5 29.5q43.5 14.5 105.5 14.5q46 0 85.5 -10.5q39.5 -10.5 68.5 -32.5q29 -22 45.5 -56q16.5 -34 16.5 -80v-199q0 -29 12.5 -44.5q12.5 -15.5 33.5 -15.5q16 0 28 6l0 -56q-8 -6 -22 -8.5q-14 -2.5 -26 -2.5q-32 0 -58.5 17.5q-26.5 17.5 -32.5 59.5q-29 -34 -77.5 -59.5q-48.5 -25.5 -117.5 -25.5zt0 0zM279 570q-29 0 -54 10.5q-25 10.5 -43.5 29q-18.5 18.5 -29.5 44q-11 25.5 -12 56.5l57 0q1 -37 24 -61.5q23 -24.5 58 -24.5q35 0 57.5 24.5q22.5 24.5 23.5 61.5l57 0q-1 -31 -12.5 -56.5q-11.5 -25.5 -30 -44q-18.5 -18.5 -43.5 -29t-52 -10.5z" />
<glyph unicode="&#260;" horiz-adv-x="753" d="M745 -195q-54 0 -83 28.5q-29 28.5 -29 70.5q0 34 14.5 59q14.5 25 25.5 37l-27 0l-87 193h-367l-85 -193h-77l312 704h69l313 -704q-11 -12 -24 -33.5q-13 -21.5 -13 -49.5q0 -29 19 -47q19 -18 50 -18q12 0 21 2q9 2 19 5l0 -48q-8 -2 -20.5 -4q-12.5 -2 -30.5 -2zt0 0zM535 258l-159 353l-159 -353z" />
<glyph unicode="&#261;" horiz-adv-x="586" d="M583 -188q-54 0 -83 28.5q-29 28.5 -29 70.5q0 28 10 50q10 22 21 36q-29 2 -51.5 20q-22.5 18 -27.5 56q-29 -34 -77.5 -59.5q-48.5 -25.5 -117.5 -25.5q-36 0 -69.5 10.5q-33.5 10.5 -59 30.5q-25.5 20 -40.5 50q-15 30 -15 69q0 38 15.5 68q15.5 30 42.5 50.5q27 20.5 63 31q36 10.5 77 10.5q61 0 103.5 -15q42.5 -15 70.5 -32l0 48q0 34 -12 57q-12 23 -33 37q-21 14 -50.5 20.5q-29.5 6.5 -63.5 6.5q-48 0 -90.5 -16q-42.5 -16 -67.5 -33l0 70q24 15 67.5 29.5q43.5 14.5 105.5 14.5q46 0 85.5 -10.5q39.5 -10.5 68.5 -32.5q29 -22 45.5 -56q16.5 -34 16.5 -80v-199q0 -29 12.5 -44.5q12.5 -15.5 33.5 -15.5q16 0 28 6l0 -56q-11 -12 -24 -33.5q-13 -21.5 -13 -49.5q0 -29 19 -47q19 -18 50 -18q12 0 21 2q9 2 19 5l0 -48q-8 -2 -20.5 -4q-12.5 -2 -30.5 -2zt0 0zM248 53q28 0 53 7q25 7 47 18.5q22 11.5 39 26q17 14.5 29 29.5l0 67q-26 17 -66.5 32.5q-40.5 15.5 -90.5 15.5q-66 0 -104.5 -26q-38.5 -26 -38.5 -71q0 -26 11 -45q11 -19 29.5 -31q18.5 -12 42 -17.5t49.5 -5.5z" />
<glyph unicode="&#262;" horiz-adv-x="690" d="M429 -12q-76 0 -141.5 26.5q-65.5 26.5 -114 74.5q-48.5 48 -76 114.5q-27.5 66.5 -27.5 146.5q0 79 27.5 145.5q27.5 66.5 75.5 114.5q48 48 113.5 75q65.5 27 142.5 27q56 0 104.5 -12.5q48.5 -12.5 91.5 -39.5l0 -76q-43 28 -90 43.5q-47 15.5 -105 15.5q-60 0 -112 -22q-52 -22 -90.5 -61q-38.5 -39 -60.5 -93q-22 -54 -22 -117q0 -64 22 -117.5q22 -53.5 61 -92.5q39 -39 91.5 -61q52.5 -22 112.5 -22q121 0 208 70l0 -77q-42 -31 -95.5 -46.5q-53.5 -15.5 -115.5 -15.5zt0 0zM452 896h92l-118 -133l-69 0z" />
<glyph unicode="&#263;" horiz-adv-x="523" d="M307 -12q-55 0 -102 19.5q-47 19.5 -81.5 53.5q-34.5 34 -54 80.5q-19.5 46.5 -19.5 100.5q0 54 19.5 100.5q19.5 46.5 54 80q34.5 33.5 82 53q47.5 19.5 102.5 19.5q44 0 79.5 -9q35.5 -9 66.5 -26l0 -67q-66 37 -136 37q-41 0 -76.5 -14q-35.5 -14 -61.5 -39q-26 -25 -41 -60q-15 -35 -15 -76q0 -41 15 -75.5q15 -34.5 41 -59.5q26 -25 61.5 -39q35.5 -14 76.5 -14q43 0 78.5 11q35.5 11 66.5 31l0 -66q-68 -41 -156 -41zt0 0zM331 710h92l-118 -134l-70 0z" />
<glyph unicode="&#264;" horiz-adv-x="690" d="M429 -12q-76 0 -141.5 26.5q-65.5 26.5 -114 74.5q-48.5 48 -76 114.5q-27.5 66.5 -27.5 146.5q0 79 27.5 145.5q27.5 66.5 75.5 114.5q48 48 113.5 75q65.5 27 142.5 27q56 0 104.5 -12.5q48.5 -12.5 91.5 -39.5l0 -76q-43 28 -90 43.5q-47 15.5 -105 15.5q-60 0 -112 -22q-52 -22 -90.5 -61q-38.5 -39 -60.5 -93q-22 -54 -22 -117q0 -64 22 -117.5q22 -53.5 61 -92.5q39 -39 91.5 -61q52.5 -22 112.5 -22q121 0 208 70l0 -77q-42 -31 -95.5 -46.5q-53.5 -15.5 -115.5 -15.5zt0 0zM367 896h72l111 -133h-71l-76 92l-76 -92l-71 0z" />
<glyph unicode="&#265;" horiz-adv-x="523" d="M307 -12q-55 0 -102 19.5q-47 19.5 -81.5 53.5q-34.5 34 -54 80.5q-19.5 46.5 -19.5 100.5q0 54 19.5 100.5q19.5 46.5 54 80q34.5 33.5 82 53q47.5 19.5 102.5 19.5q44 0 79.5 -9q35.5 -9 66.5 -26l0 -67q-66 37 -136 37q-41 0 -76.5 -14q-35.5 -14 -61.5 -39q-26 -25 -41 -60q-15 -35 -15 -76q0 -41 15 -75.5q15 -34.5 41 -59.5q26 -25 61.5 -39q35.5 -14 76.5 -14q43 0 78.5 11q35.5 11 66.5 31l0 -66q-68 -41 -156 -41zt0 0zM250 710h73l110 -134h-71l-77 92l-76 -92l-71 0z" />
<glyph unicode="&#266;" horiz-adv-x="690" d="M429 -12q-76 0 -141.5 26.5q-65.5 26.5 -114 74.5q-48.5 48 -76 114.5q-27.5 66.5 -27.5 146.5q0 79 27.5 145.5q27.5 66.5 75.5 114.5q48 48 113.5 75q65.5 27 142.5 27q56 0 104.5 -12.5q48.5 -12.5 91.5 -39.5l0 -76q-43 28 -90 43.5q-47 15.5 -105 15.5q-60 0 -112 -22q-52 -22 -90.5 -61q-38.5 -39 -60.5 -93q-22 -54 -22 -117q0 -64 22 -117.5q22 -53.5 61 -92.5q39 -39 91.5 -61q52.5 -22 112.5 -22q121 0 208 70l0 -77q-42 -31 -95.5 -46.5q-53.5 -15.5 -115.5 -15.5zt0 0zM373 827q0 20 13.5 33.5q13.5 13.5 33.5 13.5q20 0 33.5 -13.5q13.5 -13.5 13.5 -33.5q0 -20 -13.5 -33.5q-13.5 -13.5 -33.5 -13.5q-20 0 -33.5 13.5t-13.5 33.5z" />
<glyph unicode="&#267;" horiz-adv-x="524" d="M307 -12q-55 0 -102 19.5q-47 19.5 -81.5 53.5q-34.5 34 -54 80.5q-19.5 46.5 -19.5 100.5q0 54 19.5 100.5q19.5 46.5 54 80q34.5 33.5 82 53q47.5 19.5 102.5 19.5q44 0 79.5 -9q35.5 -9 66.5 -26l0 -67q-66 37 -136 37q-41 0 -76.5 -14q-35.5 -14 -61.5 -39q-26 -25 -41 -60q-15 -35 -15 -76q0 -41 15 -75.5q15 -34.5 41 -59.5q26 -25 61.5 -39q35.5 -14 76.5 -14q43 0 78.5 11q35.5 11 66.5 31l0 -66q-68 -41 -156 -41zt0 0zM256 646q0 20 13.5 33.5q13.5 13.5 33.5 13.5q20 0 33.5 -13.5q13.5 -13.5 13.5 -33.5q0 -20 -13.5 -33.5q-13.5 -13.5 -33.5 -13.5q-20 0 -33.5 13.5t-13.5 33.5z" />
<glyph unicode="&#268;" horiz-adv-x="690" d="M429 -12q-76 0 -141.5 26.5q-65.5 26.5 -114 74.5q-48.5 48 -76 114.5q-27.5 66.5 -27.5 146.5q0 79 27.5 145.5q27.5 66.5 75.5 114.5q48 48 113.5 75q65.5 27 142.5 27q56 0 104.5 -12.5q48.5 -12.5 91.5 -39.5l0 -76q-43 28 -90 43.5q-47 15.5 -105 15.5q-60 0 -112 -22q-52 -22 -90.5 -61q-38.5 -39 -60.5 -93q-22 -54 -22 -117q0 -64 22 -117.5q22 -53.5 61 -92.5q39 -39 91.5 -61q52.5 -22 112.5 -22q121 0 208 70l0 -77q-42 -31 -95.5 -46.5q-53.5 -15.5 -115.5 -15.5zt0 0zM267 896h71l76 -91l77 91h70l-111 -133l-73 0z" />
<glyph unicode="&#269;" horiz-adv-x="523" d="M307 -12q-55 0 -102 19.5q-47 19.5 -81.5 53.5q-34.5 34 -54 80.5q-19.5 46.5 -19.5 100.5q0 54 19.5 100.5q19.5 46.5 54 80q34.5 33.5 82 53q47.5 19.5 102.5 19.5q44 0 79.5 -9q35.5 -9 66.5 -26l0 -67q-66 37 -136 37q-41 0 -76.5 -14q-35.5 -14 -61.5 -39q-26 -25 -41 -60q-15 -35 -15 -76q0 -41 15 -75.5q15 -34.5 41 -59.5q26 -25 61.5 -39q35.5 -14 76.5 -14q43 0 78.5 11q35.5 11 66.5 31l0 -66q-68 -41 -156 -41zt0 0zM149 710h72l75 -92l77 92h70l-111 -134l-73 0z" />
<glyph unicode="&#270;" horiz-adv-x="778" d="M99 700h229q84 0 154 -25.5q70 -25.5 120 -71.5q50 -46 77.5 -110.5q27.5 -64.5 27.5 -142.5q0 -78 -27.5 -142.5q-27.5 -64.5 -77.5 -110.5q-50 -46 -120 -71.5q-70 -25.5 -154 -25.5h-229zM319 67q73 0 131 20q58 20 98.5 57q40.5 37 62 89.5q21.5 52.5 21.5 116.5q0 64 -21.5 116.5q-21.5 52.5 -62 89.5q-40.5 37 -98.5 57q-58 20 -131 20h-146v-566zM196 896h71l76 -91l77 91h70l-111 -133l-73 0z" />
<glyph unicode="&#271;" horiz-adv-x="759" d="M552 700v-700h-72v77q-28 -37 -75 -63q-47 -26 -112 -26q-55 0 -99.5 20.5q-44.5 20.5 -76.5 55q-32 34.5 -49.5 80.5q-17.5 46 -17.5 97q0 51 17.5 97.5q17.5 46.5 49.5 81q32 34.5 76.5 55q44.5 20.5 99.5 20.5q65 0 112 -26q47 -26 75 -63l0 294zM480 321q-21 47 -67 78q-46 31 -103 31q-41 0 -75 -14.5q-34 -14.5 -58.5 -40q-24.5 -25.5 -38.5 -60q-14 -34.5 -14 -74.5q0 -40 14 -74q14 -34 38.5 -59.5q24.5 -25.5 58.5 -40q34 -14.5 75 -14.5q28 0 54 8.5q26 8.5 48.5 23q22.5 14.5 39.5 34.5q17 20 28 43zM695 700h75l-74 -177l-57 0z" />
<glyph unicode="&#272;" horiz-adv-x="828" d="M149 324h-111v67h111v309h229q84 0 154 -25.5q70 -25.5 120 -71.5q50 -46 77.5 -110.5q27.5 -64.5 27.5 -142.5q0 -78 -27.5 -142.5q-27.5 -64.5 -77.5 -110.5q-50 -46 -120 -71.5q-70 -25.5 -154 -25.5h-229zM369 67q73 0 131 20q58 20 98.5 57q40.5 37 62 89.5q21.5 52.5 21.5 116.5q0 64 -21.5 116.5q-21.5 52.5 -62 89.5q-40.5 37 -98.5 57q-58 20 -131 20h-146v-242h162v-67h-162l0 -257z" />
<glyph unicode="&#273;" horiz-adv-x="634" d="M552 700v-80h107v-63h-107v-557h-72v77q-28 -37 -75 -63q-47 -26 -112 -26q-55 0 -99.5 20.5q-44.5 20.5 -76.5 55q-32 34.5 -49.5 80.5q-17.5 46 -17.5 97q0 51 17.5 97.5q17.5 46.5 49.5 81q32 34.5 76.5 55q44.5 20.5 99.5 20.5q65 0 112 -26q47 -26 75 -63l0 151h-144v63h144v80zM480 321q-21 47 -67 78q-46 31 -103 31q-41 0 -75 -14.5q-34 -14.5 -58.5 -40q-24.5 -25.5 -38.5 -60q-14 -34.5 -14 -74.5q0 -40 14 -74q14 -34 38.5 -59.5q24.5 -25.5 58.5 -40q34 -14.5 75 -14.5q28 0 54 8.5q26 8.5 48.5 23q22.5 14.5 39.5 34.5q17 20 28 43z" />
<glyph unicode="&#274;" horiz-adv-x="640" d="M99 700h480v-67h-406v-224h333v-67h-333v-275h421v-67h-495zM220 857h252v-55l-252 0z" />
<glyph unicode="&#275;" horiz-adv-x="571" d="M316 -12q-56 0 -104.5 18.5q-48.5 18.5 -84.5 52q-36 33.5 -56.5 80q-20.5 46.5 -20.5 102.5q0 54 17.5 100q17.5 46 50 80.5q32.5 34.5 77.5 54q45 19.5 100 19.5q61 0 104 -24q43 -24 70 -60.5q27 -36.5 39.5 -81q12.5 -44.5 12.5 -85.5v-20h-397q3 -39 19 -70.5q16 -31.5 43 -54q27 -22.5 63.5 -34.5q36.5 -12 80.5 -12q46 0 85 12.5q39 12.5 70 32.5l0 -64q-26 -20 -71 -33q-45 -13 -98 -13zt0 0zM448 283q-1 23 -10 49q-9 26 -27.5 47.5q-18.5 21.5 -47.5 36q-29 14.5 -71 14.5q-39 0 -69 -12.5q-30 -12.5 -51 -33.5q-21 -21 -33 -47.5q-12 -26.5 -14 -53.5zM166 673h252v-55l-252 0z" />
<glyph unicode="&#276;" horiz-adv-x="640" d="M99 700h480v-67h-406v-224h333v-67h-333v-275h421v-67h-495zM347 756q-28 0 -53 10q-25 10 -44 28.5q-19 18.5 -30 44.5q-11 26 -12 57l57 0q1 -37 24 -62q23 -25 58 -25q35 0 57.5 25q22.5 25 23.5 62l57 0q0 -31 -11.5 -57q-11.5 -26 -30 -44.5q-18.5 -18.5 -43.5 -28.5t-53 -10z" />
<glyph unicode="&#277;" horiz-adv-x="571" d="M316 -12q-56 0 -104.5 18.5q-48.5 18.5 -84.5 52q-36 33.5 -56.5 80q-20.5 46.5 -20.5 102.5q0 54 17.5 100q17.5 46 50 80.5q32.5 34.5 77.5 54q45 19.5 100 19.5q61 0 104 -24q43 -24 70 -60.5q27 -36.5 39.5 -81q12.5 -44.5 12.5 -85.5v-20h-397q3 -39 19 -70.5q16 -31.5 43 -54q27 -22.5 63.5 -34.5q36.5 -12 80.5 -12q46 0 85 12.5q39 12.5 70 32.5l0 -64q-26 -20 -71 -33q-45 -13 -98 -13zt0 0zM448 283q-1 23 -10 49q-9 26 -27.5 47.5q-18.5 21.5 -47.5 36q-29 14.5 -71 14.5q-39 0 -69 -12.5q-30 -12.5 -51 -33.5q-21 -21 -33 -47.5q-12 -26.5 -14 -53.5zM291 570q-29 0 -54 10.5q-25 10.5 -43.5 29q-18.5 18.5 -29.5 44q-11 25.5 -12 56.5l57 0q1 -37 24 -61.5q23 -24.5 58 -24.5q35 0 57.5 24.5q22.5 24.5 23.5 61.5l57 0q-1 -31 -12.5 -56.5q-11.5 -25.5 -30 -44q-18.5 -18.5 -43.5 -29t-52 -10.5z" />
<glyph unicode="&#278;" horiz-adv-x="640" d="M99 700h480v-67h-406v-224h333v-67h-333v-275h421v-67h-495zM298 827q0 20 13.5 33.5q13.5 13.5 33.5 13.5q20 0 33.5 -13.5q13.5 -13.5 13.5 -33.5q0 -20 -13.5 -33.5q-13.5 -13.5 -33.5 -13.5q-20 0 -33.5 13.5t-13.5 33.5z" />
<glyph unicode="&#279;" horiz-adv-x="571" d="M316 -12q-56 0 -104.5 18.5q-48.5 18.5 -84.5 52q-36 33.5 -56.5 80q-20.5 46.5 -20.5 102.5q0 54 17.5 100q17.5 46 50 80.5q32.5 34.5 77.5 54q45 19.5 100 19.5q61 0 104 -24q43 -24 70 -60.5q27 -36.5 39.5 -81q12.5 -44.5 12.5 -85.5v-20h-397q3 -39 19 -70.5q16 -31.5 43 -54q27 -22.5 63.5 -34.5q36.5 -12 80.5 -12q46 0 85 12.5q39 12.5 70 32.5l0 -64q-26 -20 -71 -33q-45 -13 -98 -13zt0 0zM448 283q-1 23 -10 49q-9 26 -27.5 47.5q-18.5 21.5 -47.5 36q-29 14.5 -71 14.5q-39 0 -69 -12.5q-30 -12.5 -51 -33.5q-21 -21 -33 -47.5q-12 -26.5 -14 -53.5zM245 646q0 20 13.5 33.5q13.5 13.5 33.5 13.5q20 0 33.5 -13.5q13.5 -13.5 13.5 -33.5q0 -20 -13.5 -33.5q-13.5 -13.5 -33.5 -13.5q-20 0 -33.5 13.5t-13.5 33.5z" />
<glyph unicode="&#280;" horiz-adv-x="643" d="M99 700h480v-67h-406v-224h333v-67h-333v-275h421v-67q-11 -12 -24 -33.5q-13 -21.5 -13 -49.5q0 -29 19 -47q19 -18 50 -18q12 0 21 2q9 2 19 5l0 -48q-8 -2 -20.5 -4q-12.5 -2 -30.5 -2q-54 0 -83 28.5q-29 28.5 -29 70.5q0 34 14.5 59q14.5 25 25.5 37l-444 0z" />
<glyph unicode="&#281;" horiz-adv-x="571" d="M506 -161q-54 0 -83 28.5q-29 28.5 -29 70.5q0 18 4.5 33.5q4.5 15.5 10.5 28.5q-42 -12 -93 -12q-56 0 -104.5 18.5q-48.5 18.5 -84.5 52q-36 33.5 -56.5 80q-20.5 46.5 -20.5 102.5q0 54 17.5 100q17.5 46 50 80.5q32.5 34.5 77.5 54q45 19.5 100 19.5q61 0 104 -24q43 -24 70 -60.5q27 -36.5 39.5 -81q12.5 -44.5 12.5 -85.5v-20h-397q3 -39 19 -70.5q16 -31.5 43 -54q27 -22.5 63.5 -34.5q36.5 -12 80.5 -12q46 0 85 12.5q39 12.5 70 32.5l0 -64q-11 -12 -24 -33.5q-13 -21.5 -13 -49.5q0 -29 19 -47q19 -18 50 -18q12 0 21 2q9 2 19 5l0 -48q-8 -2 -20.5 -4q-12.5 -2 -30.5 -2zt0 0zM448 283q-1 23 -10 49q-9 26 -27.5 47.5q-18.5 21.5 -47.5 36q-29 14.5 -71 14.5q-39 0 -69 -12.5q-30 -12.5 -51 -33.5q-21 -21 -33 -47.5q-12 -26.5 -14 -53.5z" />
<glyph unicode="&#282;" horiz-adv-x="640" d="M99 700h480v-67h-406v-224h333v-67h-333v-275h421v-67h-495zM198 896h71l76 -91l77 91h70l-111 -133l-73 0z" />
<glyph unicode="&#283;" horiz-adv-x="571" d="M316 -12q-56 0 -104.5 18.5q-48.5 18.5 -84.5 52q-36 33.5 -56.5 80q-20.5 46.5 -20.5 102.5q0 54 17.5 100q17.5 46 50 80.5q32.5 34.5 77.5 54q45 19.5 100 19.5q61 0 104 -24q43 -24 70 -60.5q27 -36.5 39.5 -81q12.5 -44.5 12.5 -85.5v-20h-397q3 -39 19 -70.5q16 -31.5 43 -54q27 -22.5 63.5 -34.5q36.5 -12 80.5 -12q46 0 85 12.5q39 12.5 70 32.5l0 -64q-26 -20 -71 -33q-45 -13 -98 -13zt0 0zM448 283q-1 23 -10 49q-9 26 -27.5 47.5q-18.5 21.5 -47.5 36q-29 14.5 -71 14.5q-39 0 -69 -12.5q-30 -12.5 -51 -33.5q-21 -21 -33 -47.5q-12 -26.5 -14 -53.5zM143 710h72l75 -92l77 92h70l-111 -134l-73 0z" />
<glyph unicode="&#284;" horiz-adv-x="780" d="M427 -12q-75 0 -140.5 26.5q-65.5 26.5 -113.5 74.5q-48 48 -75.5 114.5q-27.5 66.5 -27.5 146.5q0 79 27.5 145.5q27.5 66.5 75.5 114.5q48 48 113.5 75q65.5 27 142.5 27q65 0 121 -17q56 -17 101 -50l0 -75q-49 37 -105 55q-56 18 -113 18q-61 0 -113.5 -22q-52.5 -22 -91.5 -61q-39 -39 -61 -93q-22 -54 -22 -118q0 -65 22.5 -119q22.5 -54 60.5 -92.5q38 -38.5 89.5 -59.5q51.5 -21 109.5 -21q58 0 110 18q52 18 89 55l0 272h73v-301q-42 -48 -112 -80.5q-70 -32.5 -160 -32.5zt0 0zM369 896h72l111 -133h-71l-76 92l-76 -92l-71 0z" />
<glyph unicode="&#285;" horiz-adv-x="636" d="M480 82q-27 -36 -74 -61q-47 -25 -113 -25q-54 0 -99 20q-45 20 -77 53.5q-32 33.5 -49.5 79q-17.5 45.5 -17.5 96.5q0 51 17.5 96.5q17.5 45.5 49.5 79.5q32 34 77 54q45 20 99 20q66 0 113 -24.5q47 -24.5 74 -61.5l0 74h72v-452q0 -60 -21 -104q-21 -44 -57 -73.5q-36 -29.5 -83.5 -43.5q-47.5 -14 -100.5 -14q-52 0 -103 12.5q-51 12.5 -84 31.5l0 70q38 -23 85 -36q47 -13 95 -13q40 0 76 9.5q36 9.5 63 30q27 20.5 42.5 53q15.5 32.5 15.5 77.5zM480 324q-20 47 -66.5 76.5q-46.5 29.5 -103.5 29.5q-40 0 -74 -14q-34 -14 -59 -39q-25 -25 -39 -59q-14 -34 -14 -73q0 -39 14 -73q14 -34 39 -58.5q25 -24.5 59 -38.5q34 -14 74 -14q57 0 103.5 29.5q46.5 29.5 66.5 76.5zM277 710h73l110 -134h-71l-77 92l-76 -92l-71 0z" />
<glyph unicode="&#286;" horiz-adv-x="780" d="M427 -12q-75 0 -140.5 26.5q-65.5 26.5 -113.5 74.5q-48 48 -75.5 114.5q-27.5 66.5 -27.5 146.5q0 79 27.5 145.5q27.5 66.5 75.5 114.5q48 48 113.5 75q65.5 27 142.5 27q65 0 121 -17q56 -17 101 -50l0 -75q-49 37 -105 55q-56 18 -113 18q-61 0 -113.5 -22q-52.5 -22 -91.5 -61q-39 -39 -61 -93q-22 -54 -22 -118q0 -65 22.5 -119q22.5 -54 60.5 -92.5q38 -38.5 89.5 -59.5q51.5 -21 109.5 -21q58 0 110 18q52 18 89 55l0 272h73v-301q-42 -48 -112 -80.5q-70 -32.5 -160 -32.5zt0 0zM420 761q-28 0 -53 10q-25 10 -44 28.5q-19 18.5 -30 44.5q-11 26 -12 57l57 0q1 -37 24 -62q23 -25 58 -25q35 0 57.5 25q22.5 25 23.5 62l57 0q0 -31 -11.5 -57q-11.5 -26 -30 -44.5q-18.5 -18.5 -43.5 -28.5t-53 -10z" />
<glyph unicode="&#287;" horiz-adv-x="636" d="M480 82q-27 -36 -74 -61q-47 -25 -113 -25q-54 0 -99 20q-45 20 -77 53.5q-32 33.5 -49.5 79q-17.5 45.5 -17.5 96.5q0 51 17.5 96.5q17.5 45.5 49.5 79.5q32 34 77 54q45 20 99 20q66 0 113 -24.5q47 -24.5 74 -61.5l0 74h72v-452q0 -60 -21 -104q-21 -44 -57 -73.5q-36 -29.5 -83.5 -43.5q-47.5 -14 -100.5 -14q-52 0 -103 12.5q-51 12.5 -84 31.5l0 70q38 -23 85 -36q47 -13 95 -13q40 0 76 9.5q36 9.5 63 30q27 20.5 42.5 53q15.5 32.5 15.5 77.5zM480 324q-20 47 -66.5 76.5q-46.5 29.5 -103.5 29.5q-40 0 -74 -14q-34 -14 -59 -39q-25 -25 -39 -59q-14 -34 -14 -73q0 -39 14 -73q14 -34 39 -58.5q25 -24.5 59 -38.5q34 -14 74 -14q57 0 103.5 29.5q46.5 29.5 66.5 76.5zM309 570q-29 0 -54 10.5q-25 10.5 -43.5 29q-18.5 18.5 -29.5 44q-11 25.5 -12 56.5l57 0q1 -37 24 -61.5q23 -24.5 58 -24.5q35 0 57.5 24.5q22.5 24.5 23.5 61.5l57 0q-1 -31 -12.5 -56.5q-11.5 -25.5 -30 -44q-18.5 -18.5 -43.5 -29t-52 -10.5z" />
<glyph unicode="&#288;" horiz-adv-x="780" d="M427 -12q-75 0 -140.5 26.5q-65.5 26.5 -113.5 74.5q-48 48 -75.5 114.5q-27.5 66.5 -27.5 146.5q0 79 27.5 145.5q27.5 66.5 75.5 114.5q48 48 113.5 75q65.5 27 142.5 27q65 0 121 -17q56 -17 101 -50l0 -75q-49 37 -105 55q-56 18 -113 18q-61 0 -113.5 -22q-52.5 -22 -91.5 -61q-39 -39 -61 -93q-22 -54 -22 -118q0 -65 22.5 -119q22.5 -54 60.5 -92.5q38 -38.5 89.5 -59.5q51.5 -21 109.5 -21q58 0 110 18q52 18 89 55l0 272h73v-301q-42 -48 -112 -80.5q-70 -32.5 -160 -32.5zt0 0zM376 827q0 20 13.5 33.5q13.5 13.5 33.5 13.5q20 0 33.5 -13.5q13.5 -13.5 13.5 -33.5q0 -20 -13.5 -33.5q-13.5 -13.5 -33.5 -13.5q-20 0 -33.5 13.5t-13.5 33.5z" />
<glyph unicode="&#289;" horiz-adv-x="636" d="M480 82q-27 -36 -74 -61q-47 -25 -113 -25q-54 0 -99 20q-45 20 -77 53.5q-32 33.5 -49.5 79q-17.5 45.5 -17.5 96.5q0 51 17.5 96.5q17.5 45.5 49.5 79.5q32 34 77 54q45 20 99 20q66 0 113 -24.5q47 -24.5 74 -61.5l0 74h72v-452q0 -60 -21 -104q-21 -44 -57 -73.5q-36 -29.5 -83.5 -43.5q-47.5 -14 -100.5 -14q-52 0 -103 12.5q-51 12.5 -84 31.5l0 70q38 -23 85 -36q47 -13 95 -13q40 0 76 9.5q36 9.5 63 30q27 20.5 42.5 53q15.5 32.5 15.5 77.5zM480 324q-20 47 -66.5 76.5q-46.5 29.5 -103.5 29.5q-40 0 -74 -14q-34 -14 -59 -39q-25 -25 -39 -59q-14 -34 -14 -73q0 -39 14 -73q14 -34 39 -58.5q25 -24.5 59 -38.5q34 -14 74 -14q57 0 103.5 29.5q46.5 29.5 66.5 76.5zM262 646q0 20 13.5 33.5q13.5 13.5 33.5 13.5q20 0 33.5 -13.5q13.5 -13.5 13.5 -33.5q0 -20 -13.5 -33.5q-13.5 -13.5 -33.5 -13.5q-20 0 -33.5 13.5t-13.5 33.5z" />
<glyph unicode="&#290;" horiz-adv-x="780" d="M427 -12q-75 0 -140.5 26.5q-65.5 26.5 -113.5 74.5q-48 48 -75.5 114.5q-27.5 66.5 -27.5 146.5q0 79 27.5 145.5q27.5 66.5 75.5 114.5q48 48 113.5 75q65.5 27 142.5 27q65 0 121 -17q56 -17 101 -50l0 -75q-49 37 -105 55q-56 18 -113 18q-61 0 -113.5 -22q-52.5 -22 -91.5 -61q-39 -39 -61 -93q-22 -54 -22 -118q0 -65 22.5 -119q22.5 -54 60.5 -92.5q38 -38.5 89.5 -59.5q51.5 -21 109.5 -21q58 0 110 18q52 18 89 55l0 272h73v-301q-42 -48 -112 -80.5q-70 -32.5 -160 -32.5zt0 0zM401 -54h75l-74 -177l-57 0z" />
<glyph unicode="&#291;" horiz-adv-x="636" d="M480 82q-27 -36 -74 -61q-47 -25 -113 -25q-54 0 -99 20q-45 20 -77 53.5q-32 33.5 -49.5 79q-17.5 45.5 -17.5 96.5q0 51 17.5 96.5q17.5 45.5 49.5 79.5q32 34 77 54q45 20 99 20q66 0 113 -24.5q47 -24.5 74 -61.5l0 74h72v-452q0 -60 -21 -104q-21 -44 -57 -73.5q-36 -29.5 -83.5 -43.5q-47.5 -14 -100.5 -14q-52 0 -103 12.5q-51 12.5 -84 31.5l0 70q38 -23 85 -36q47 -13 95 -13q40 0 76 9.5q36 9.5 63 30q27 20.5 42.5 53q15.5 32.5 15.5 77.5zM480 324q-20 47 -66.5 76.5q-46.5 29.5 -103.5 29.5q-40 0 -74 -14q-34 -14 -59 -39q-25 -25 -39 -59q-14 -34 -14 -73q0 -39 14 -73q14 -34 39 -58.5q25 -24.5 59 -38.5q34 -14 74 -14q57 0 103.5 29.5q46.5 29.5 66.5 76.5zM331 557h-75l74 177l57 0z" />
<glyph unicode="&#292;" horiz-adv-x="761" d="M99 700h74v-291h416v291h74v-700h-74v342h-416v-342h-74zM344 896h72l111 -133h-71l-76 92l-76 -92l-71 0z" />
<glyph unicode="&#293;" horiz-adv-x="607" d="M82 0v700h72v-291q14 16 33 31.5q19 15.5 43.5 27.5q24.5 12 53.5 19.5q29 7.5 63 7.5q92 0 138 -53.5q46 -53.5 46 -147.5v-294h-72v278q0 48 -13.5 77q-13.5 29 -33.5 45q-20 16 -44 21.5q-24 5.5 -46 5.5q-26 0 -51 -9q-25 -9 -47.5 -23q-22.5 -14 -40.5 -32q-18 -18 -29 -37l0 -326zM83 896h72l111 -133h-71l-76 92l-76 -92l-71 0z" />
<glyph unicode="&#294;" horiz-adv-x="861" d="M148 537h-88v53h88v110h74v-110h417v110h74v-110h88v-53h-88v-537h-74v342h-417v-342h-74zM639 409v128h-417l0 -128z" />
<glyph unicode="&#295;" horiz-adv-x="641" d="M116 0v557h-102v63h102v80h72v-80h143v-63h-143v-209q14 16 33 31.5q19 15.5 43.5 27.5q24.5 12 53.5 19.5q29 7.5 63 7.5q92 0 138 -53.5q46 -53.5 46 -147.5v-233h-72v217q0 48 -13.5 77q-13.5 29 -33.5 45q-20 16 -44 21.5q-24 5.5 -46 5.5q-26 0 -51 -9q-25 -9 -47.5 -23q-22.5 -14 -40.5 -32q-18 -18 -29 -37l0 -265z" />
<glyph unicode="&#296;" horiz-adv-x="281" d="M104 700h74v-700h-74zM212 772q-20 0 -38.5 9q-18.5 9 -36 19.5q-17.5 10.5 -33 19.5q-15.5 9 -30.5 9q-21 0 -30 -16.5q-9 -16.5 -11 -36.5l-49 0q1 23 7.5 43q6.5 20 17.5 35q11 15 27 23.5q16 8.5 35 8.5q20 0 38.5 -9q18.5 -9 36 -19.5q17.5 -10.5 33.5 -19q16 -8.5 30 -8.5q22 0 29.5 16q7.5 16 11.5 36l49 0q-1 -47 -24 -78.5t-63 -31.5z" />
<glyph unicode="&#297;" horiz-adv-x="253" d="M197 589q-20 0 -38.5 8.5q-18.5 8.5 -36 19q-17.5 10.5 -33 19.5q-15.5 9 -30.5 9q-21 0 -30 -16q-9 -16 -11 -36l-49 0q2 47 25 78.5q23 31.5 62 31.5q20 0 38.5 -9q18.5 -9 36 -19.5q17.5 -10.5 33.5 -19q16 -8.5 30 -8.5q22 0 29.5 16q7.5 16 11.5 36l49 0q-1 -48 -24 -79q-23 -31 -63 -31zt0 0zM90 483h73v-483l-73 0z" />
<glyph unicode="&#298;" horiz-adv-x="281" d="M104 700h74v-700h-74zM15 857h252v-55l-252 0z" />
<glyph unicode="&#299;" horiz-adv-x="253" d="M0 673h252v-55h-252zM90 483h73v-483l-73 0z" />
<glyph unicode="&#300;" horiz-adv-x="281" d="M104 700h74v-700h-74zM142 756q-28 0 -53 10q-25 10 -44 28.5q-19 18.5 -30 44.5q-11 26 -12 57l57 0q1 -37 24 -62q23 -25 58 -25q35 0 57.5 25q22.5 25 23.5 62l57 0q0 -31 -11.5 -57q-11.5 -26 -30 -44.5q-18.5 -18.5 -43.5 -28.5t-53 -10z" />
<glyph unicode="&#301;" horiz-adv-x="253" d="M127 570q-29 0 -54 10.5q-25 10.5 -43.5 29q-18.5 18.5 -29.5 44q-11 25.5 -12 56.5l57 0q1 -37 24 -61.5q23 -24.5 58 -24.5q35 0 57.5 24.5q22.5 24.5 23.5 61.5l57 0q-1 -31 -12.5 -56.5q-11.5 -25.5 -30 -44q-18.5 -18.5 -43.5 -29q-25 -10.5 -52 -10.5zt0 0zM90 483h73v-483l-73 0z" />
<glyph unicode="&#302;" horiz-adv-x="281" d="M104 700h74v-700q-11 -12 -24 -33.5q-13 -21.5 -13 -49.5q0 -29 19 -47q19 -18 50 -18q12 0 21 2q9 2 19 5l0 -48q-8 -2 -20.5 -4q-12.5 -2 -30.5 -2q-54 0 -83 28.5q-29 28.5 -29 70.5q0 34 14.5 59q14.5 25 25.5 37l-23 0z" />
<glyph unicode="&#303;" horiz-adv-x="264" d="M96 483h72v-483q-11 -12 -24 -33.5q-13 -21.5 -13 -49.5q0 -29 19 -47q19 -18 50 -18q12 0 21 2q9 2 19 5l0 -48q-8 -2 -20.5 -4q-12.5 -2 -30.5 -2q-54 0 -83 28.5q-29 28.5 -29 70.5q0 34 14.5 59q14.5 25 25.5 37l-21 0zM82 649q0 21 14.5 36q14.5 15 35.5 15q21 0 36 -15q15 -15 15 -36q0 -21 -15 -35.5q-15 -14.5 -36 -14.5q-21 0 -35.5 14.5t-14.5 35.5z" />
<glyph unicode="&#304;" horiz-adv-x="281" d="M104 700h74v-700h-74zM94 827q0 20 13.5 33.5q13.5 13.5 33.5 13.5q20 0 33.5 -13.5q13.5 -13.5 13.5 -33.5q0 -20 -13.5 -33.5q-13.5 -13.5 -33.5 -13.5q-20 0 -33.5 13.5t-13.5 33.5z" />
<glyph unicode="&#305;" horiz-adv-x="253" d="M90 483h73v-483l-73 0z" />
<glyph unicode="&#306;" horiz-adv-x="604" d="M104 700h74v-446h-74zM275 -12q-46 0 -91 10.5q-45 10.5 -80 35.5l0 76q30 -24 72.5 -38.5q42.5 -14.5 87.5 -14.5q88 0 131.5 40.5q43.5 40.5 43.5 128.5v474h74v-480q0 -61 -17 -105q-17 -44 -48.5 -72q-31.5 -28 -75.5 -41.5t-97 -13.5z" />
<glyph unicode="&#307;" horiz-adv-x="527" d="M96 483h72v-483h-72zM82 649q0 21 14.5 36q14.5 15 35.5 15q21 0 36 -15q15 -15 15 -36q0 -21 -15 -35.5q-15 -14.5 -36 -14.5q-21 0 -35.5 14.5q-14.5 14.5 -14.5 35.5zt0 0zM287 -204q-20 0 -44.5 4.5q-24.5 4.5 -40.5 13.5l0 66q14 -8 32 -13.5q18 -5.5 38 -5.5q85 0 85 97v525h72v-536q0 -41 -11.5 -70q-11.5 -29 -31 -47q-19.5 -18 -45 -26q-25.5 -8 -54.5 -8zt0 0zM343 649q0 21 14.5 36q14.5 15 35.5 15q21 0 36 -15q15 -15 15 -36q0 -21 -15 -35.5q-15 -14.5 -36 -14.5q-21 0 -35.5 14.5t-14.5 35.5z" />
<glyph unicode="&#308;" horiz-adv-x="502" d="M191 -12q-43 0 -85 10.5q-42 10.5 -75 34.5l0 77q28 -25 67 -39q39 -14 80 -14q81 0 121 40.5q40 40.5 40 128.5v474h74v-487q0 -59 -16 -101.5q-16 -42.5 -45.5 -70q-29.5 -27.5 -70.5 -40.5q-41 -13 -90 -13zt0 0zM338 896h72l111 -133h-71l-76 92l-76 -92l-71 0z" />
<glyph unicode="&#309;" horiz-adv-x="266" d="M26 -204q-20 0 -44.5 4.5q-24.5 4.5 -40.5 13.5l0 66q14 -8 32 -13.5q18 -5.5 38 -5.5q85 0 85 97v525h72v-536q0 -41 -11.5 -70q-11.5 -29 -31 -47q-19.5 -18 -45 -26q-25.5 -8 -54.5 -8zt0 0zM97 710h73l110 -134h-71l-77 92l-76 -92l-71 0z" />
<glyph unicode="&#310;" horiz-adv-x="661" d="M173 396l324 304h98l-344 -320l397 -380h-104l-371 356v-356h-74v700h74zM333 -54h75l-74 -177l-57 0z" />
<glyph unicode="&#311;" horiz-adv-x="539" d="M155 284l230 199h98l-255 -218l291 -265h-103l-261 238v-238h-72v700h72zM260 -54h75l-74 -177l-57 0z" />
<glyph unicode="&#312;" horiz-adv-x="541" d="M157 284l230 199h98l-255 -218l291 -265h-103l-261 238v-238h-72v483l72 0z" />
</font>
</defs>
</svg>
