<?xml version="1.0" standalone="no"?>
<!DOCTYPE svg PUBLIC "-//W3C//DTD SVG 1.1//EN" "http://www.w3.org/Graphics/SVG/1.1/DTD/svg11.dtd" >
<svg xmlns="http://www.w3.org/2000/svg">
<metadata>
Generated by SVGconv.
Copyright   : Copyright (c) 2012 by Vyacheslav Kirilenko, Gayane Bagdasaryan. All rights reserved.
Designer    : Vyacheslav Kirilenko, Gayane Bagdasaryan
Foundry     : Vyacheslav Kirilenko, Gayane Bagdasaryan
Foundry URL : http://www.brownfox.org
</metadata>
<defs>
<font id="Geometria-Italic" horiz-adv-x="698" >
<font-face units-per-em="1000" ascent="949" descent="309" />
<missing-glyph horiz-adv-x="659" />
<glyph unicode="&#13;" horiz-adv-x="264" />
<glyph unicode="&#32;" horiz-adv-x="264" />
<glyph unicode="&#33;" horiz-adv-x="285" d="M206 700h94l-90 -485h-67zM99 46q0 22 15 37q15 15 37 15q22 0 37 -15q15 -15 15 -37q0 -22 -15 -37q-15 -15 -37 -15q-22 0 -37 15t-15 37z" />
<glyph unicode="&#34;" horiz-adv-x="356" d="M350 700h64l-40 -253h-64zM165 700h64l-40 -253l-64 0z" />
<glyph unicode="&#35;" horiz-adv-x="716" d="M222 189h-145l10 61h144l32 199h-145l10 61h144l31 190h61l-30 -190h195l30 190h61l-30 -190h145l-10 -61h-144l-32 -199h145l-10 -61h-145l-30 -189h-61l30 189h-195l-30 -189h-61zM488 250l31 199h-195l-31 -199z" />
<glyph unicode="&#36;" horiz-adv-x="626" d="M249 -112l16 103q-33 3 -64 10.5q-31 7.5 -58 17q-27 9.5 -49 21q-22 11.5 -37 23.5l12 79q16 -16 43 -31q27 -15 60.5 -27q33.5 -12 72.5 -19.5q39 -7.5 80 -7.5q30 0 65.5 7.5q35.5 7.5 65.5 24.5q30 17 50.5 44q20.5 27 20.5 67q0 31 -14.5 51.5q-14.5 20.5 -39.5 35.5q-25 15 -58 25.5q-33 10.5 -70 21.5q-43 13 -81.5 26.5q-38.5 13.5 -67 33q-28.5 19.5 -45.5 47.5q-17 28 -17 69q0 49 20.5 86q20.5 37 54 62q33.5 25 78 38q44.5 13 92.5 15l17 102h74l-17 -104q49 -6 93 -21q44 -15 76 -36l-11 -74q-42 29 -99 47q-57 18 -121 18q-32 0 -64.5 -7q-32.5 -7 -58.5 -22q-26 -15 -42.5 -39q-16.5 -24 -16.5 -57q0 -29 16.5 -47.5q16.5 -18.5 42.5 -31q26 -12.5 59.5 -22q33.5 -9.5 68.5 -20.5q38 -12 75 -26.5q37 -14.5 66.5 -35.5q29.5 -21 47.5 -51.5q18 -30.5 18 -73.5q0 -52 -22 -92.5q-22 -40.5 -59 -68q-37 -27.5 -84.5 -43q-47.5 -15.5 -98.5 -17.5l-16 -102z" />
<glyph unicode="&#37;" horiz-adv-x="822" d="M760 700l-519 -700h-69l519 700zM303 712q37 0 67 -12.5q30 -12.5 51 -34.5q21 -22 32 -50.5q11 -28.5 11 -60.5q0 -36 -13 -68.5q-13 -32.5 -36.5 -57q-23.5 -24.5 -56 -39q-32.5 -14.5 -70.5 -14.5q-37 0 -67 13q-30 13 -51 35q-21 22 -32.5 51q-11.5 29 -11.5 61q0 36 13.5 68q13.5 32 37 56q23.5 24 56 38.5q32.5 14.5 70.5 14.5zt0 0zM288 430q24 0 45.5 10q21.5 10 37.5 26.5q16 16.5 25 39q9 22.5 9 48.5q0 44 -27.5 73.5q-27.5 29.5 -74.5 29.5q-24 0 -45.5 -9.5q-21.5 -9.5 -37.5 -26q-16 -16.5 -25 -39q-9 -22.5 -9 -47.5q0 -45 28 -75q28 -30 74 -30zt0 0zM645 325q37 0 67 -13q30 -13 51 -34.5q21 -21.5 32.5 -50.5q11.5 -29 11.5 -61q0 -36 -13.5 -68.5q-13.5 -32.5 -37 -56.5q-23.5 -24 -56 -38.5q-32.5 -14.5 -70.5 -14.5q-37 0 -67 13q-30 13 -51 35q-21 22 -32.5 51q-11.5 29 -11.5 61q0 36 13.5 68q13.5 32 37 56q23.5 24 56 38.5q32.5 14.5 70.5 14.5zt0 0zM630 43q24 0 45.5 10q21.5 10 37.5 26.5q16 16.5 25 39q9 22.5 9 47.5q0 45 -27.5 74.5q-27.5 29.5 -74.5 29.5q-24 0 -45.5 -9.5q-21.5 -9.5 -37.5 -26q-16 -16.5 -25 -39q-9 -22.5 -9 -47.5q0 -45 28 -75t74 -30z" />
<glyph unicode="&#38;" horiz-adv-x="715" d="M582 572q-30 29 -74 52q-44 23 -97 23q-57 0 -94.5 -30q-37.5 -30 -37.5 -84q0 -35 13 -60q13 -25 42 -59l208 -253q74 87 98 214l72 0q-15 -76 -47 -144.5q-32 -68.5 -80 -122.5l89 -108h-88l-51 62q-45 -35 -98.5 -54.5q-53.5 -19.5 -117.5 -19.5q-52 0 -96.5 16q-44.5 16 -77 45.5q-32.5 29.5 -51 70q-18.5 40.5 -18.5 89.5q0 49 16.5 86q16.5 37 41 63.5q24.5 26.5 52.5 42.5q28 16 51 23q-14 22 -23 48q-9 26 -9 60q0 41 15.5 74q15.5 33 42.5 56.5q27 23.5 64.5 36.5q37.5 13 81.5 13q57 0 106 -20.5q49 -20.5 78 -45.5zM326 53q48 0 89.5 15.5q41.5 15.5 77.5 44.5l-215 260q-21 -4 -43.5 -16.5q-22.5 -12.5 -41.5 -33q-19 -20.5 -31 -49q-12 -28.5 -12 -65.5q0 -33 12 -61.5q12 -28.5 35 -49.5q23 -21 55.5 -33t73.5 -12z" />
<glyph unicode="&#39;" horiz-adv-x="171" d="M165 700h64l-40 -253l-64 0z" />
<glyph unicode="&#40;" horiz-adv-x="329" d="M397 706q-108 -117 -158.5 -257q-50.5 -140 -50.5 -292q0 -116 30 -206.5q30 -90.5 72 -156.5l-76 0q-40 61 -66.5 154q-26.5 93 -26.5 207q0 74 10.5 146.5q10.5 72.5 34 142.5q23.5 70 61.5 136q38 66 93 126l77 0z" />
<glyph unicode="&#41;" horiz-adv-x="330" d="M9 -206q108 117 158.5 257q50.5 140 50.5 292q0 116 -30 206.5q-30 90.5 -72 156.5l76 0q40 -61 66.5 -154q26.5 -93 26.5 -207q0 -74 -10.5 -146.5q-10.5 -72.5 -34 -142.5q-23.5 -70 -61.5 -136q-38 -66 -93 -126z" />
<glyph unicode="&#42;" horiz-adv-x="427" d="M275 565l20 135h53l-22 -135l127 69l19 -46l-129 -67l108 -68l-34 -45l-105 70l-21 -137h-53l23 136l-128 -69l-19 45l129 69l-108 67l34 44z" />
<glyph unicode="&#43;" horiz-adv-x="605" d="M315 292h-207l11 67h207l32 206h65l-32 -206h207l-11 -67h-207l-32 -205l-65 0z" />
<glyph unicode="&#44;" horiz-adv-x="251" d="M211 103l-145 -255h-61l120 255z" />
<glyph unicode="&#45;" horiz-adv-x="473" d="M144 305h281l-11 -66l-280 0z" />
<glyph unicode="&#46;" horiz-adv-x="236" d="M73 46q0 22 15 37q15 15 37 15q22 0 37 -15q15 -15 15 -37q0 -22 -15 -37q-15 -15 -37 -15q-22 0 -37 15t-15 37z" />
<glyph unicode="&#47;" horiz-adv-x="511" d="M-19 -140l568 932h80l-568 -932z" />
<glyph unicode="&#48;" horiz-adv-x="707" d="M442 712q61 0 108.5 -22.5q47.5 -22.5 80.5 -63.5q33 -41 50 -97.5q17 -56.5 17 -123.5q0 -74 -22 -148.5q-22 -74.5 -63.5 -134q-41.5 -59.5 -101 -97q-59.5 -37.5 -134.5 -37.5q-61 0 -108.5 23q-47.5 23 -80.5 63.5q-33 40.5 -50.5 97q-17.5 56.5 -17.5 124.5q0 75 22 149q22 74 63.5 133.5q41.5 59.5 101.5 96.5q60 37 135 37zt0 0zM379 57q58 0 104 32.5q46 32.5 77.5 83q31.5 50.5 48 112q16.5 61.5 16.5 119.5q0 46 -11 89q-11 43 -33.5 76.5q-22.5 33.5 -57.5 53.5q-35 20 -84 20q-58 0 -104 -32q-46 -32 -77.5 -82.5q-31.5 -50.5 -48 -111.5q-16.5 -61 -16.5 -119q0 -46 11 -89.5q11 -43.5 33.5 -77q22.5 -33.5 57.5 -54t84 -20.5z" />
<glyph unicode="&#49;" horiz-adv-x="367" d="M292 620l-172 -90l11 71l181 99h65l-111 -700l-72 0z" />
<glyph unicode="&#50;" horiz-adv-x="575" d="M141 640q38 31 88 51.5q50 20.5 118 20.5q48 0 88 -15q40 -15 68.5 -41q28.5 -26 44.5 -62.5q16 -36.5 16 -79.5q0 -75 -47.5 -138.5q-47.5 -63.5 -136.5 -134.5l-215 -174h369l-11 -67h-477l8 55l265 218q38 31 69.5 59.5q31.5 28.5 54 56.5q22.5 28 35 56q12.5 28 12.5 58q0 33 -12.5 59q-12.5 26 -33.5 44q-21 18 -49 27.5q-28 9.5 -60 9.5q-66 0 -115 -24.5q-49 -24.5 -91 -60.5l12 82z" />
<glyph unicode="&#51;" horiz-adv-x="571" d="M339 435q39 -4 76.5 -18q37.5 -14 67 -39q29.5 -25 47 -61q17.5 -36 17.5 -82q0 -59 -23.5 -104.5q-23.5 -45.5 -63 -77.5q-39.5 -32 -91.5 -48.5q-52 -16.5 -110 -16.5q-75 0 -127 17.5q-52 17.5 -86 41.5l11 73q32 -25 82 -44q50 -19 119 -19q40 0 78.5 11q38.5 11 69 32.5q30.5 21.5 49 54.5q18.5 33 18.5 78q0 37 -14.5 65q-14.5 28 -39.5 46.5q-25 18.5 -58.5 27.5q-33.5 9 -71.5 9q-17 0 -34 -3q-17 -3 -29 -6l8 50l244 211h-321l10 67h424l-9 -54z" />
<glyph unicode="&#52;" horiz-adv-x="633" d="M443 193h-377l9 59l449 448h70l-70 -440h117l-11 -67h-116l-31 -193h-71zM453 260l55 338l-341 -338z" />
<glyph unicode="&#53;" horiz-adv-x="594" d="M330 444q56 0 100.5 -17q44.5 -17 75.5 -46q31 -29 47.5 -67.5q16.5 -38.5 16.5 -81.5q0 -60 -24.5 -105.5q-24.5 -45.5 -65.5 -76q-41 -30.5 -95 -46.5q-54 -16 -114 -16q-72 0 -121.5 15.5q-49.5 15.5 -81.5 38.5l12 73q30 -22 77 -40q47 -18 115 -18q38 0 77.5 9.5q39.5 9.5 72 30q32.5 20.5 53.5 53q21 32.5 21 78.5q0 30 -12 58q-12 28 -36 49q-24 21 -60 33.5q-36 12.5 -84 12.5q-40 0 -79 -6.5q-39 -6.5 -78 -17.5l97 343h351l-10 -67h-294l-57 -199q41 10 96 10z" />
<glyph unicode="&#54;" horiz-adv-x="641" d="M404 448q48 0 86.5 -16q38.5 -16 66.5 -44q28 -28 43 -65q15 -37 15 -80q0 -53 -18.5 -99q-18.5 -46 -52 -81q-33.5 -35 -80.5 -55q-47 -20 -103 -20q-56 0 -101.5 19.5q-45.5 19.5 -77 55q-31.5 35.5 -48.5 84.5q-17 49 -17 109q0 93 26 176q26 83 72 145.5q46 62.5 110 98.5q64 36 140 36q49 0 93 -13.5q44 -13.5 70 -36.5l-11 -69q-61 50 -152 50q-53 0 -99 -23q-46 -23 -81.5 -63q-35.5 -40 -57.5 -94q-22 -54 -28 -115q32 43 85 71.5q53 28.5 120 28.5zt0 0zM363 57q37 0 70 14q33 14 57.5 38q24.5 24 38.5 57.5q14 33.5 14 72.5q0 64 -41 104q-41 40 -111 40q-30 0 -60 -10.5q-30 -10.5 -57 -28.5q-27 -18 -48.5 -42q-21.5 -24 -34.5 -51q0 -39 10.5 -74q10.5 -35 31.5 -62q21 -27 53.5 -42.5t76.5 -15.5z" />
<glyph unicode="&#55;" horiz-adv-x="553" d="M522 633h-376l10 67h462l-10 -55l-428 -645l-79 0z" />
<glyph unicode="&#56;" horiz-adv-x="661" d="M499 363q58 -20 94.5 -62.5q36.5 -42.5 36.5 -101.5q0 -50 -22 -89q-22 -39 -59 -66q-37 -27 -85 -41.5q-48 -14.5 -99 -14.5q-52 0 -101 13q-49 13 -86.5 38q-37.5 25 -60.5 62.5q-23 37.5 -23 86.5q0 35 12.5 66q12.5 31 36 56q23.5 25 57 43q33.5 18 75.5 27q-45 21 -71.5 57.5q-26.5 36.5 -26.5 84.5q0 43 19.5 78.5q19.5 35.5 51.5 60q32 24.5 74.5 38q42.5 13.5 89.5 13.5q40 0 81 -10.5q41 -10.5 74.5 -32.5q33.5 -22 54.5 -55q21 -33 21 -78q0 -33 -12 -61.5q-12 -28.5 -32 -50.5q-20 -22 -46 -37.5q-26 -15.5 -54 -23.5zt0 0zM247 518q0 -29 14 -51.5q14 -22.5 36.5 -37.5q22.5 -15 51 -22.5q28.5 -7.5 58.5 -7.5q28 0 57 8q29 8 53 24q24 16 39 40q15 24 15 57q0 29 -14 51.5q-14 22.5 -36.5 38q-22.5 15.5 -51.5 23.5q-29 8 -59 8q-28 0 -57 -8.5q-29 -8.5 -52.5 -25q-23.5 -16.5 -38.5 -41q-15 -24.5 -15 -56.5zt0 0zM360 51q37 0 72 9.5q35 9.5 63 28.5q28 19 45 47q17 28 17 64q0 31 -15.5 56q-15.5 25 -41.5 43q-26 18 -61 27.5q-35 9.5 -75 9.5q-37 0 -72 -9.5q-35 -9.5 -62.5 -27.5q-27.5 -18 -44.5 -45.5q-17 -27.5 -17 -63.5q0 -32 15.5 -57.5q15.5 -25.5 42 -43.5q26.5 -18 61.5 -28t73 -10z" />
<glyph unicode="&#57;" horiz-adv-x="641" d="M341 252q-48 0 -86.5 16q-38.5 16 -66.5 43.5q-28 27.5 -43 65q-15 37.5 -15 80.5q0 52 18.5 98.5q18.5 46.5 52 81.5q33.5 35 80.5 55q47 20 103 20q56 0 101.5 -19.5q45.5 -19.5 77 -55q31.5 -35.5 48.5 -84.5q17 -49 17 -109q0 -93 -26 -176q-26 -83 -72 -145.5q-46 -62.5 -110 -98.5q-64 -36 -140 -36q-49 0 -93 13.5q-44 13.5 -70 36.5l11 69q61 -50 152 -50q53 0 99 23q46 23 81 63q35 40 57.5 93.5q22.5 53.5 28.5 115.5q-32 -43 -85 -71.5q-53 -28.5 -120 -28.5zt0 0zM382 643q-37 0 -70 -14q-33 -14 -57.5 -38q-24.5 -24 -38.5 -57.5q-14 -33.5 -14 -72.5q0 -64 41 -104q41 -40 111 -40q30 0 60 10.5q30 10.5 57 28.5q27 18 48.5 42q21.5 24 34.5 51q0 39 -10.5 74q-10.5 35 -31.5 62q-21 27 -53.5 42.5t-76.5 15.5z" />
<glyph unicode="&#58;" horiz-adv-x="236" d="M132 418q0 22 15 37q15 15 37 15q22 0 37 -15q15 -15 15 -37q0 -22 -15 -37q-15 -15 -37 -15q-22 0 -37 15q-15 15 -15 37zt0 0zM73 46q0 22 15 37q15 15 37 15q22 0 37 -15q15 -15 15 -37q0 -22 -15 -37q-15 -15 -37 -15q-22 0 -37 15t-15 37z" />
<glyph unicode="&#59;" horiz-adv-x="251" d="M211 103l-145 -255h-61l120 255zM147 418q0 22 15 37q15 15 37 15q22 0 37 -15q15 -15 15 -37q0 -22 -15 -37q-15 -15 -37 -15q-22 0 -37 15t-15 37z" />
<glyph unicode="&#60;" horiz-adv-x="605" d="M619 490l-428 -167l376 -167l-12 -71l-447 204l11 68l512 205z" />
<glyph unicode="&#61;" horiz-adv-x="605" d="M137 472h479l-11 -66h-478zM101 244h479l-11 -66l-478 0z" />
<glyph unicode="&#62;" horiz-adv-x="605" d="M151 562l447 -205l-12 -68l-511 -204l12 72l427 167l-375 167z" />
<glyph unicode="&#63;" horiz-adv-x="476" d="M232 361q33 6 69 19.5q36 13.5 67 34.5q31 21 51 50q20 29 20 65q0 50 -37 81.5q-37 31.5 -106 31.5q-50 0 -94 -17.5q-44 -17.5 -79 -38.5l11 71q35 23 80.5 36.5q45.5 13.5 97.5 13.5q43 0 80 -12.5q37 -12.5 64 -35q27 -22.5 42.5 -54q15.5 -31.5 15.5 -70.5q0 -44 -18.5 -79q-18.5 -35 -49 -61.5q-30.5 -26.5 -70 -45q-39.5 -18.5 -80.5 -28.5l-18 -107h-69zM218 -6q-23 0 -37.5 15q-14.5 15 -14.5 38q0 22 14.5 37q14.5 15 37.5 15q21 0 36.5 -15q15.5 -15 15.5 -37q0 -23 -15.5 -38t-36.5 -15z" />
<glyph unicode="&#64;" horiz-adv-x="967" d="M559 713q88 0 161.5 -30q73.5 -30 126.5 -81.5q53 -51.5 82 -120.5q29 -69 29 -148q0 -46 -13 -94q-13 -48 -38.5 -87q-25.5 -39 -63.5 -63.5q-38 -24.5 -88 -24.5q-50 0 -77 22.5q-27 22.5 -35 51.5q-26 -28 -66 -52q-40 -24 -96 -24q-44 0 -78 15q-34 15 -57.5 41.5q-23.5 26.5 -36 61q-12.5 34.5 -12.5 73.5q0 46 15.5 88q15.5 42 44.5 74.5q29 32.5 69 51.5q40 19 90 19q56 0 95.5 -24.5q39.5 -24.5 58.5 -51.5l10 61h69l-43 -274q-1 -6 -1.5 -13q-0.5 -7 -0.5 -14q0 -38 20.5 -56q20.5 -18 50.5 -18q36 0 64.5 21.5q28.5 21.5 49 55.5q20.5 34 31 76q10.5 42 10.5 83q0 71 -25 135q-25 64 -73 113q-48 49 -117 77.5q-69 28.5 -157 28.5q-89 0 -169 -34.5q-80 -34.5 -140.5 -95q-60.5 -60.5 -96 -142q-35.5 -81.5 -35.5 -174.5q0 -79 27 -147.5q27 -68.5 76 -119.5q49 -51 116.5 -80q67.5 -29 148.5 -29q63 0 112.5 13.5q49.5 13.5 96.5 36.5l-5 -31q-48 -23 -97.5 -34.5q-49.5 -11.5 -107.5 -11.5q-85 0 -157 30.5q-72 30.5 -125 84.5q-53 54 -83 127.5q-30 73.5 -30 159.5q0 94 35.5 180q35.5 86 98.5 151.5q63 65.5 149 104q86 38.5 187 38.5zt0 0zM661 346q-8 14 -21.5 27.5q-13.5 13.5 -30.5 24.5q-17 11 -38 18q-21 7 -44 7q-32 0 -60.5 -12.5q-28.5 -12.5 -50 -34q-21.5 -21.5 -34 -51.5q-12.5 -30 -12.5 -66q0 -29 10 -54q10 -25 28 -43q18 -18 42.5 -28q24.5 -10 54.5 -10q19 0 38 6q19 6 36.5 16.5q17.5 10.5 32 24q14.5 13.5 25.5 28.5z" />
<glyph unicode="&#65;" horiz-adv-x="753" d="M593 193h-368l-115 -193h-80l423 704h69l202 -704h-76zM264 258h311l-99 353z" />
<glyph unicode="&#66;" horiz-adv-x="726" d="M570 379q58 -13 93 -53.5q35 -40.5 35 -104.5q0 -53 -20 -94q-20 -41 -54.5 -69.5q-34.5 -28.5 -82 -43q-47.5 -14.5 -102.5 -14.5h-340l111 700h295q85 0 133 -40q48 -40 48 -108q0 -60 -28.5 -106q-28.5 -46 -87.5 -67zt0 0zM237 404h221q30 0 58 7.5q28 7.5 50 23.5q22 16 35 40.5q13 24.5 13 57.5q0 46 -31.5 73q-31.5 27 -88.5 27h-221zM438 67q36 0 69 9.5q33 9.5 57.5 28.5q24.5 19 39.5 48q15 29 15 69q0 54 -36 85.5q-36 31.5 -104 31.5h-252l-43 -272z" />
<glyph unicode="&#67;" horiz-adv-x="690" d="M198 322q0 -56 19 -104.5q19 -48.5 53.5 -84q34.5 -35.5 83.5 -56q49 -20.5 109 -20.5q57 0 109.5 16.5q52.5 16.5 97.5 48.5l-11 -78q-88 -56 -202 -56q-76 0 -137.5 25q-61.5 25 -105 69.5q-43.5 44.5 -67.5 104.5q-24 60 -24 131q0 81 28 152.5q28 71.5 78 125.5q50 54 120.5 85q70.5 31 156.5 31q66 0 118.5 -16q52.5 -16 92.5 -42l-12 -71q-39 27 -88 43.5q-49 16.5 -112 16.5q-65 0 -121.5 -24.5q-56.5 -24.5 -97.5 -67.5q-41 -43 -64.5 -101.5t-23.5 -127.5z" />
<glyph unicode="&#68;" horiz-adv-x="780" d="M418 700q79 0 143 -23q64 -23 109 -64q45 -41 69.5 -99q24.5 -58 24.5 -128q0 -92 -33.5 -164q-33.5 -72 -93.5 -121.5q-60 -49.5 -142.5 -75q-82.5 -25.5 -179.5 -25.5h-216l111 700zM351 67q73 0 135 22.5q62 22.5 107 63.5q45 41 70 100q25 59 25 132q0 55 -18.5 100.5q-18.5 45.5 -54 78.5q-35.5 33 -87 51q-51.5 18 -117.5 18h-138l-89 -566z" />
<glyph unicode="&#69;" horiz-adv-x="645" d="M210 700h480l-11 -67h-406l-35 -224h333l-11 -67h-333l-43 -275h421l-11 -67l-495 0z" />
<glyph unicode="&#70;" horiz-adv-x="622" d="M210 700h477l-11 -67h-403l-37 -233h327l-10 -67h-327l-53 -333l-74 0z" />
<glyph unicode="&#71;" horiz-adv-x="779" d="M690 402h73l-50 -312q-49 -46 -112 -74q-63 -28 -149 -28q-74 0 -134.5 25q-60.5 25 -103.5 69q-43 44 -67 104.5q-24 60.5 -24 131.5q0 81 28 152.5q28 71.5 78 125q50 53.5 120.5 85q70.5 31.5 156.5 31.5q69 0 129.5 -20q60.5 -20 101.5 -53l-12 -72q-42 35 -98 55.5q-56 20.5 -122 20.5q-65 0 -121.5 -24.5q-56.5 -24.5 -97.5 -68q-41 -43.5 -64.5 -102q-23.5 -58.5 -23.5 -127.5q0 -58 19 -106.5q19 -48.5 53.5 -83.5q34.5 -35 82.5 -54.5q48 -19.5 107 -19.5q54 0 99.5 17q45.5 17 84.5 51z" />
<glyph unicode="&#72;" horiz-adv-x="761" d="M210 700h74l-46 -291h416l46 291h74l-111 -700h-74l54 342h-416l-54 -342l-74 0z" />
<glyph unicode="&#73;" horiz-adv-x="281" d="M215 700h74l-111 -700l-74 0z" />
<glyph unicode="&#74;" horiz-adv-x="507" d="M448 203q-9 -59 -30.5 -100q-21.5 -41 -54 -66.5q-32.5 -25.5 -74 -37q-41.5 -11.5 -91.5 -11.5q-45 0 -86.5 12q-41.5 12 -70.5 37l11 75q25 -26 63 -40.5q38 -14.5 80 -14.5q78 0 123.5 37.5q45.5 37.5 59.5 127.5l74 478l74 0z" />
<glyph unicode="&#75;" horiz-adv-x="663" d="M235 396l374 304h98l-399 -328l341 -372h-92l-329 356l-55 -356h-74l111 700l74 0z" />
<glyph unicode="&#76;" horiz-adv-x="597" d="M210 700h74l-100 -633h391l-11 -67l-465 0z" />
<glyph unicode="&#77;" horiz-adv-x="847" d="M677 0l93 587l-277 -305h-45l-183 306l-93 -588h-73l111 700h69l200 -339l305 339h76l-110 -700z" />
<glyph unicode="&#78;" horiz-adv-x="775" d="M261 580l-90 -580h-72l111 700h62l352 -578l92 578h72l-111 -700l-63 0z" />
<glyph unicode="&#79;" horiz-adv-x="845" d="M498 712q75 0 136.5 -25q61.5 -25 104.5 -69.5q43 -44.5 66.5 -105.5q23.5 -61 23.5 -132q0 -80 -28 -151q-28 -71 -78 -124.5q-50 -53.5 -119 -85q-69 -31.5 -150 -31.5q-75 0 -136 25.5q-61 25.5 -104.5 70q-43.5 44.5 -67 105.5q-23.5 61 -23.5 132q0 79 28 150.5q28 71.5 78 124.5q50 53 119 84.5q69 31.5 150 31.5zt0 0zM456 57q63 0 117 25q54 25 94.5 68.5q40.5 43.5 63.5 102q23 58.5 23 126.5q0 55 -18 103.5q-18 48.5 -52 84q-34 35.5 -81.5 56q-47.5 20.5 -106.5 20.5q-63 0 -117 -24.5q-54 -24.5 -94.5 -68q-40.5 -43.5 -63.5 -102q-23 -58.5 -23 -126.5q0 -56 18 -104.5q18 -48.5 52 -84q34 -35.5 81.5 -56t106.5 -20.5z" />
<glyph unicode="&#80;" horiz-adv-x="665" d="M493 700q100 0 152.5 -48q52.5 -48 52.5 -124q0 -49 -19 -89q-19 -40 -52 -69q-33 -29 -78 -45q-45 -16 -97 -16h-230l-49 -309h-74l111 700zM456 376q31 0 61.5 9q30.5 9 53.5 26.5q23 17.5 37.5 44.5q14.5 27 14.5 63q0 54 -35 84q-35 30 -103 30h-212l-40 -257z" />
<glyph unicode="&#81;" horiz-adv-x="845" d="M498 712q75 0 136.5 -25q61.5 -25 104.5 -69.5q43 -44.5 66.5 -105.5q23.5 -61 23.5 -132q0 -68 -20.5 -129.5q-20.5 -61.5 -57.5 -112q-37 -50.5 -88.5 -86.5q-51.5 -36 -114.5 -52q23 -30 52.5 -44q29.5 -14 60.5 -14q49 0 87 22l-11 -72q-21 -10 -42 -14.5q-21 -4.5 -50 -4.5q-51 0 -95.5 29q-44.5 29 -86.5 86l-9 0q-75 0 -136 25.5q-61 25.5 -104.5 70q-43.5 44.5 -67 105.5q-23.5 61 -23.5 132q0 79 28 150.5q28 71.5 78 124.5q50 53 119 84.5q69 31.5 150 31.5zt0 0zM456 57q63 0 117 25q54 25 94.5 68.5q40.5 43.5 63.5 102q23 58.5 23 126.5q0 55 -18 103.5q-18 48.5 -52 84q-34 35.5 -81.5 56q-47.5 20.5 -106.5 20.5q-63 0 -117 -24.5q-54 -24.5 -94.5 -68q-40.5 -43.5 -63.5 -102q-23 -58.5 -23 -126.5q0 -56 18 -104.5q18 -48.5 52 -84q34 -35.5 81.5 -56t106.5 -20.5z" />
<glyph unicode="&#82;" horiz-adv-x="736" d="M614 0l-168 315h-223l-50 -315h-74l111 700h299q49 0 86.5 -12.5q37.5 -12.5 63 -35q25.5 -22.5 39 -54q13.5 -31.5 13.5 -68.5q0 -41 -13.5 -75.5q-13.5 -34.5 -38 -61q-24.5 -26.5 -58.5 -45q-34 -18.5 -75 -26.5l172 -322zM234 382h239q32 0 62 9q30 9 52.5 26.5q22.5 17.5 36 43q13.5 25.5 13.5 59.5q0 54 -36 83.5q-36 29.5 -103 29.5l-225 0z" />
<glyph unicode="&#83;" horiz-adv-x="626" d="M611 578q-42 29 -99 47q-57 18 -121 18q-32 0 -64.5 -7q-32.5 -7 -58.5 -22q-26 -15 -42.5 -39q-16.5 -24 -16.5 -57q0 -29 16.5 -47.5q16.5 -18.5 42.5 -31q26 -12.5 59.5 -22q33.5 -9.5 68.5 -20.5q38 -12 75 -26.5q37 -14.5 66.5 -35.5q29.5 -21 47.5 -51.5q18 -30.5 18 -73.5q0 -54 -24 -95.5q-24 -41.5 -63 -69.5q-39 -28 -89.5 -42.5q-50.5 -14.5 -104.5 -14.5q-41 0 -80.5 6q-39.5 6 -74.5 16.5q-35 10.5 -63.5 24q-28.5 13.5 -46.5 28.5l12 79q16 -16 43 -31q27 -15 60.5 -27q33.5 -12 72.5 -19.5q39 -7.5 80 -7.5q30 0 65.5 7.5q35.5 7.5 65.5 24.5q30 17 50.5 44q20.5 27 20.5 67q0 31 -14.5 51.5q-14.5 20.5 -39.5 35.5q-25 15 -58 25.5q-33 10.5 -70 21.5q-43 13 -81.5 26.5q-38.5 13.5 -67 33q-28.5 19.5 -45.5 47.5q-17 28 -17 69q0 51 22 89q22 38 58.5 63q36.5 25 83.5 37.5q47 12.5 98 12.5q64 0 124.5 -16q60.5 -16 101.5 -44z" />
<glyph unicode="&#84;" horiz-adv-x="630" d="M377 633h-241l11 67h559l-11 -67h-244l-100 -633l-74 0z" />
<glyph unicode="&#85;" horiz-adv-x="746" d="M768 700l-66 -415q-12 -74 -40.5 -130q-28.5 -56 -70 -93q-41.5 -37 -93.5 -55.5q-52 -18.5 -112 -18.5q-57 0 -104.5 16q-47.5 16 -81.5 47.5q-34 31.5 -52.5 78q-18.5 46.5 -18.5 106.5q0 17 2 35q2 18 5 38l62 391h73l-62 -394q-6 -35 -6 -62q0 -90 49 -138.5q49 -48.5 140 -48.5q97 0 158.5 63q61.5 63 81.5 186l62 394z" />
<glyph unicode="&#86;" horiz-adv-x="754" d="M826 700l-420 -704h-69l-197 704h79l166 -601l356 601z" />
<glyph unicode="&#87;" horiz-adv-x="1053" d="M660 701l90 -582l287 581h81l-352 -704h-65l-89 577l-272 -577h-65l-131 704h79l102 -583l275 584z" />
<glyph unicode="&#88;" horiz-adv-x="708" d="M457 379l223 -379h-85l-188 321l-288 -321h-90l342 381l-186 319h83l153 -261l235 261l88 0z" />
<glyph unicode="&#89;" horiz-adv-x="664" d="M747 700l-330 -378l-51 -322h-74l50 321l-213 379h82l177 -310l270 310z" />
<glyph unicode="&#90;" horiz-adv-x="642" d="M58 53l509 580h-404l10 67h504l-8 -52l-507 -581h441l-10 -67l-543 0z" />
<glyph unicode="&#91;" horiz-adv-x="388" d="M206 706h253l-9 -61h-183l-125 -790h183l-10 -61l-253 0z" />
<glyph unicode="&#92;" horiz-adv-x="510" d="M409 -140l-273 932h73l273 -932z" />
<glyph unicode="&#93;" horiz-adv-x="388" d="M260 -206h-252l9 61h183l125 790h-183l9 61l253 0z" />
<glyph unicode="&#94;" horiz-adv-x="517" d="M338 717h68l111 -371h-67l-87 303l-183 -303l-72 0z" />
<glyph unicode="&#95;" horiz-adv-x="620" d="M-4 -73h605l-9 -56l-603 0z" />
<glyph unicode="&#96;" horiz-adv-x="524" d="M454 576h-69l-111 134l90 0z" />
<glyph unicode="&#97;" horiz-adv-x="596" d="M549 57q6 0 13.5 1.5q7.5 1.5 13.5 4.5l-9 -58q-22 -10 -46 -10q-31 0 -57 16q-26 16 -28 56q-31 -31 -79 -55q-48 -24 -114 -24q-39 0 -71.5 11q-32.5 11 -56 31q-23.5 20 -36.5 47.5q-13 27.5 -13 61.5q0 44 17.5 76q17.5 32 47 52.5q29.5 20.5 66.5 30.5q37 10 76 10q66 0 111.5 -17q45.5 -17 74.5 -34q5 29 7 45.5q2 16.5 2 27.5q0 56 -37 78q-37 22 -102 22q-54 0 -97.5 -12q-43.5 -12 -72.5 -27l12 68q26 14 69 25q43 11 104 11q37 0 72.5 -8q35.5 -8 63 -26.5q27.5 -18.5 44.5 -48q17 -29.5 17 -71.5q0 -17 -3 -38.5q-3 -21.5 -6 -38.5l-20 -125q-2 -11 -3 -21.5q-1 -10.5 -1 -18.5q0 -20 10 -31q10 -11 31 -11zt0 0zM267 53q28 0 54 7.5q26 7.5 48.5 19.5q22.5 12 40 26q17.5 14 29.5 28l10 65q-35 25 -78.5 37.5q-43.5 12.5 -86.5 12.5q-29 0 -55.5 -6q-26.5 -6 -47 -19q-20.5 -13 -32.5 -32q-12 -19 -12 -46q0 -47 37 -70t93 -23z" />
<glyph unicode="&#98;" horiz-adv-x="642" d="M405 495q51 0 91.5 -18.5q40.5 -18.5 69 -49.5q28.5 -31 43.5 -72.5q15 -41.5 15 -87.5q0 -56 -19 -107q-19 -51 -53.5 -89q-34.5 -38 -83.5 -60.5q-49 -22.5 -108 -22.5q-36 0 -66 8.5q-30 8.5 -54 22q-24 13.5 -42 31q-18 17.5 -30 34.5l-13 -84h-72l111 700h72l-47 -286q32 35 80 58q48 23 106 23zt0 0zM351 53q41 0 77 15.5q36 15.5 63 43.5q27 28 43 66q16 38 16 82q0 37 -12 68q-12 31 -33.5 53.5q-21.5 22.5 -52.5 35.5q-31 13 -69 13q-26 0 -52 -7.5q-26 -7.5 -49.5 -21q-23.5 -13.5 -43.5 -32q-20 -18.5 -32 -39.5l-27 -174q8 -18 24.5 -36.5q16.5 -18.5 39 -33.5q22.5 -15 50 -24t58.5 -9z" />
<glyph unicode="&#99;" horiz-adv-x="520" d="M334 -12q-57 0 -102 18q-45 18 -77 49.5q-32 31.5 -49 74q-17 42.5 -17 90.5q0 59 21.5 109.5q21.5 50.5 59.5 87q38 36.5 89 57.5q51 21 110 21q52 0 91 -11.5q39 -11.5 68 -30.5l-11 -66q-29 20 -63 31.5q-34 11.5 -78 11.5q-46 0 -85 -15.5q-39 -15.5 -67.5 -43.5q-28.5 -28 -44.5 -65.5q-16 -37.5 -16 -81.5q0 -38 13.5 -69.5q13.5 -31.5 38.5 -54q25 -22.5 59 -35q34 -12.5 75 -12.5q38 0 71 9.5q33 9.5 64 26.5l-11 -69q-32 -17 -66.5 -24.5t-72.5 -7.5z" />
<glyph unicode="&#100;" horiz-adv-x="637" d="M307 -12q-51 0 -91.5 18q-40.5 18 -68.5 49.5q-28 31.5 -43 72.5q-15 41 -15 88q0 56 19 106.5q19 50.5 53.5 89q34.5 38.5 83.5 61q49 22.5 108 22.5q36 0 65.5 -8.5q29.5 -8.5 53.5 -22q24 -13.5 42 -31q18 -17.5 30 -34.5l49 301h72l-110 -700h-73l11 69q-31 -35 -78.5 -58q-47.5 -23 -107.5 -23zt0 0zM362 430q-41 0 -77.5 -16q-36.5 -16 -63.5 -43.5q-27 -27.5 -42.5 -65.5q-15.5 -38 -15.5 -82q0 -37 11.5 -68q11.5 -31 33.5 -53.5q22 -22.5 52.5 -35.5q30.5 -13 68.5 -13q26 0 52.5 8q26.5 8 50 21.5q23.5 13.5 43 32q19.5 18.5 31.5 39.5l27 174q-8 18 -24 36.5q-16 18.5 -38.5 33q-22.5 14.5 -50 23.5t-58.5 9z" />
<glyph unicode="&#101;" horiz-adv-x="579" d="M351 53q45 0 81.5 11.5q36.5 11.5 69.5 31.5l-9 -68q-27 -18 -67 -29q-40 -11 -89 -11q-53 0 -98.5 16q-45.5 16 -78.5 46q-33 30 -52 72.5q-19 42.5 -19 95.5q0 55 19 105q19 50 54 88q35 38 84 61q49 23 108 23q54 0 93.5 -18.5q39.5 -18.5 65.5 -48q26 -29.5 39 -67q13 -37.5 13 -75.5q0 -14 -1.5 -31.5q-1.5 -17.5 -3.5 -30.5l-399 0q0 -44 15 -76q15 -32 40.5 -53q25.5 -21 60 -31.5q34.5 -10.5 74.5 -10.5zt0 0zM350 430q-35 0 -65 -11q-30 -11 -54 -30.5q-24 -19.5 -40.5 -46.5q-16.5 -27 -23.5 -59l327 0q1 5 1 8q0 3 0 7q0 24 -9 48q-9 24 -27 42.5q-18 18.5 -45 30t-64 11.5z" />
<glyph unicode="&#102;" horiz-adv-x="394" d="M123 0l67 420h-96l10 63h97l12 80q10 66 51 105.5q41 39.5 110 39.5q29 0 53 -4q24 -4 46 -15l-11 -66q-16 8 -35 14q-19 6 -46 6q-41 0 -66.5 -23.5q-25.5 -23.5 -32.5 -68.5l-10 -68h168l-10 -63h-168l-67 -420z" />
<glyph unicode="&#103;" horiz-adv-x="636" d="M630 483l-74 -464q-10 -61 -35.5 -103.5q-25.5 -42.5 -64 -69q-38.5 -26.5 -87 -38.5q-48.5 -12 -103.5 -12q-28 0 -55.5 4q-27.5 4 -52.5 10q-25 6 -46 14.5q-21 8.5 -36 17.5l11 69q34 -22 81.5 -36q47.5 -14 101.5 -14q41 0 76.5 8q35.5 8 64 27.5q28.5 19.5 47.5 51q19 31.5 27 79.5l8 48q-31 -35 -78 -57q-47 -22 -107 -22q-52 0 -92.5 18q-40.5 18 -69 49q-28.5 31 -43.5 72q-15 41 -15 87q0 54 19 103q19 49 53.5 87q34.5 38 83.5 60.5q49 22.5 108 22.5q36 0 66 -8.5q30 -8.5 54.5 -22q24.5 -13.5 42.5 -30.5q18 -17 29 -34l14 83zM533 329q-8 18 -24.5 36.5q-16.5 18.5 -39 32.5q-22.5 14 -50 23q-27.5 9 -58.5 9q-41 0 -77 -15.5q-36 -15.5 -63 -42.5q-27 -27 -43 -64q-16 -37 -16 -80q0 -36 12.5 -67q12.5 -31 35 -53q22.5 -22 54.5 -34.5q32 -12.5 71 -12.5q25 0 50 7.5q25 7.5 47.5 21q22.5 13.5 42 31.5q19.5 18 32.5 39z" />
<glyph unicode="&#104;" horiz-adv-x="610" d="M532 0h-72l41 254q2 14 4.5 31q2.5 17 2.5 32q0 57 -33.5 83.5q-33.5 26.5 -86.5 26.5q-29 0 -56 -9q-27 -9 -50.5 -22.5q-23.5 -13.5 -43 -31q-19.5 -17.5 -31.5 -33.5l-52 -331h-72l112 700h72l-47 -287q15 15 34.5 29.5q19.5 14.5 44 26q24.5 11.5 53.5 19q29 7.5 63 7.5q37 0 68 -11q31 -11 53 -32q22 -21 34 -50.5q12 -29.5 12 -66.5q0 -20 -3 -41.5q-3 -21.5 -6 -38.5z" />
<glyph unicode="&#105;" horiz-adv-x="264" d="M181 649q0 22 14.5 36.5q14.5 14.5 36.5 14.5q21 0 35.5 -14.5q14.5 -14.5 14.5 -36.5q0 -22 -14.5 -36.5q-14.5 -14.5 -35.5 -14.5q-22 0 -36.5 14.5q-14.5 14.5 -14.5 36.5zt0 0zM173 483h72l-77 -483l-72 0z" />
<glyph unicode="&#106;" horiz-adv-x="264" d="M-5 -204q-20 0 -44 4.5q-24 4.5 -38 13.5l10 66q14 -8 30.5 -13.5q16.5 -5.5 36.5 -5.5q85 0 100 97l83 525h72l-85 -536q-7 -41 -23 -70q-16 -29 -38 -47q-22 -18 -49 -26q-27 -8 -55 -8zt0 0zM181 649q0 22 14.5 36.5q14.5 14.5 36.5 14.5q21 0 35.5 -14.5q14.5 -14.5 14.5 -36.5q0 -22 -14.5 -36.5q-14.5 -14.5 -35.5 -14.5q-22 0 -36.5 14.5t-14.5 36.5z" />
<glyph unicode="&#107;" horiz-adv-x="541" d="M200 284l257 199h99l-288 -225l248 -258h-92l-231 240l-38 -240h-72l111 700l72 0z" />
<glyph unicode="&#108;" horiz-adv-x="286" d="M173 137q-2 -9 -3.5 -21.5q-1.5 -12.5 -1.5 -20.5q0 -23 13.5 -32.5q13.5 -9.5 35.5 -9.5q14 0 29 3q15 3 26 10v-64q-27 -8 -47 -11q-20 -3 -36 -3q-94 0 -94 87q0 14 2 30q2 16 4 30l89 565l72 0z" />
<glyph unicode="&#109;" horiz-adv-x="920" d="M232 483l-12 -69q27 33 71.5 57q44.5 24 105.5 24q60 0 99 -25.5q39 -25.5 47 -70.5q14 18 34 35.5q20 17.5 44.5 31q24.5 13.5 54 21.5q29.5 8 62.5 8q70 0 112 -38.5q42 -38.5 42 -113.5q0 -14 -2.5 -32q-2.5 -18 -4.5 -32l-44 -279h-72l44 280q2 11 3.5 22.5q1.5 11.5 1.5 21.5q0 31 -9.5 51q-9.5 20 -24.5 31.5q-15 11.5 -33 16q-18 4.5 -35 4.5q-57 0 -100.5 -29.5q-43.5 -29.5 -67.5 -69.5q-1 -12 -3 -29q-2 -17 -4 -27l-43 -272h-72l45 284q2 11 3 21q1 10 1 21q0 30 -9.5 49.5q-9.5 19.5 -23.5 31q-14 11.5 -32 16q-18 4.5 -34 4.5q-60 0 -100 -27q-40 -27 -69 -67l-52 -333h-72l76 483z" />
<glyph unicode="&#110;" horiz-adv-x="610" d="M532 0h-72l41 254q2 14 4.5 31q2.5 17 2.5 32q0 57 -33.5 83.5q-33.5 26.5 -86.5 26.5q-29 0 -56 -9q-27 -9 -50.5 -22.5q-23.5 -13.5 -43 -31q-19.5 -17.5 -31.5 -33.5l-52 -331h-72l77 483h72l-12 -70q15 15 34.5 29.5q19.5 14.5 44 26q24.5 11.5 53.5 19q29 7.5 63 7.5q37 0 68 -11q31 -11 53 -32q22 -21 34 -50.5q12 -29.5 12 -66.5q0 -20 -3 -41.5q-3 -21.5 -6 -38.5z" />
<glyph unicode="&#111;" horiz-adv-x="621" d="M358 495q56 0 101.5 -19q45.5 -19 77.5 -51q32 -32 49 -75.5q17 -43.5 17 -92.5q0 -54 -20 -103q-20 -49 -56 -86q-36 -37 -85.5 -58.5q-49.5 -21.5 -107.5 -21.5q-57 0 -102 19q-45 19 -77 51.5q-32 32.5 -49 75.5q-17 43 -17 92q0 54 20 103q20 49 56 86q36 37 85 58.5q49 21.5 108 21.5zt0 0zM334 53q41 0 77.5 16q36.5 16 63.5 43.5q27 27.5 43 65q16 37.5 16 81.5q0 37 -13 68.5q-13 31.5 -36 54q-23 22.5 -55.5 35.5q-32.5 13 -71.5 13q-41 0 -77.5 -16q-36.5 -16 -63.5 -43.5q-27 -27.5 -43 -65.5q-16 -38 -16 -81q0 -38 12.5 -69q12.5 -31 36 -54q23.5 -23 56 -35.5t71.5 -12.5z" />
<glyph unicode="&#112;" horiz-adv-x="642" d="M406 495q51 0 91.5 -18.5q40.5 -18.5 68.5 -49.5q28 -31 43 -72.5q15 -41.5 15 -87.5q0 -56 -19 -107q-19 -51 -53.5 -89q-34.5 -38 -83.5 -60.5q-49 -22.5 -108 -22.5q-36 0 -66 9q-30 9 -54 23q-24 14 -42 31q-18 17 -30 34l-46 -285h-72l108 683h73l-12 -68q32 35 79.5 57.5q47.5 22.5 107.5 22.5zt0 0zM351 53q41 0 77 15.5q36 15.5 63 43.5q27 28 43 66q16 38 16 82q0 37 -12 68q-12 31 -33.5 53.5q-21.5 22.5 -52.5 35.5q-31 13 -69 13q-26 0 -52 -7.5q-26 -7.5 -49.5 -21q-23.5 -13.5 -43.5 -31.5q-20 -18 -32 -39l-27 -174q8 -18 24.5 -36.5q16.5 -18.5 39 -33.5q22.5 -15 50 -24.5t58.5 -9.5z" />
<glyph unicode="&#113;" horiz-adv-x="636" d="M307 -12q-51 0 -91.5 18q-40.5 18 -68.5 49.5q-28 31.5 -43 72.5q-15 41 -15 88q0 56 19 106.5q19 50.5 53.5 89q34.5 38.5 83.5 61q49 22.5 108 22.5q36 0 65.5 -8.5q29.5 -8.5 53.5 -22q24 -13.5 42 -31q18 -17.5 30 -34.5l14 84h72l-107 -683h-73l43 269q-31 -35 -78.5 -58q-47.5 -23 -107.5 -23zt0 0zM362 430q-41 0 -77.5 -16q-36.5 -16 -63.5 -43.5q-27 -27.5 -42.5 -65.5q-15.5 -38 -15.5 -82q0 -37 11.5 -68q11.5 -31 33.5 -53.5q22 -22.5 52.5 -35.5q30.5 -13 68.5 -13q26 0 52.5 8q26.5 8 50 21.5q23.5 13.5 43 32q19.5 18.5 31.5 39.5l27 174q-8 18 -24 36.5q-16 18.5 -38.5 33q-22.5 14.5 -50 23.5t-58.5 9z" />
<glyph unicode="&#114;" horiz-adv-x="366" d="M160 483h72l-15 -92q18 24 42 43q24 19 51.5 32.5q27.5 13.5 57 21q29.5 7.5 58.5 7.5l-12 -73q-61 0 -117.5 -30.5q-56.5 -30.5 -92.5 -86.5l-49 -305l-72 0z" />
<glyph unicode="&#115;" horiz-adv-x="496" d="M481 372q-35 26 -83 42q-48 16 -99 16q-21 0 -42.5 -3.5q-21.5 -3.5 -39 -12q-17.5 -8.5 -28.5 -23q-11 -14.5 -11 -36.5q0 -33 34.5 -49q34.5 -16 93.5 -33q76 -23 119 -52q43 -29 43 -83q0 -40 -18 -68.5q-18 -28.5 -47.5 -46.5q-29.5 -18 -66.5 -26.5q-37 -8.5 -74 -8.5q-36 0 -68.5 5.5q-32.5 5.5 -60 14.5q-27.5 9 -49 20q-21.5 11 -35.5 22l10 70q12 -10 31.5 -21.5q19.5 -11.5 45 -21.5q25.5 -10 57 -17q31.5 -7 69.5 -7q21 0 45 3.5q24 3.5 44.5 12q20.5 8.5 33.5 24q13 15.5 13 39.5q0 16 -9.5 27.5q-9.5 11.5 -27 21q-17.5 9.5 -42 18q-24.5 8.5 -55.5 17.5q-30 9 -58 19.5q-28 10.5 -50.5 26.5q-22.5 16 -36 37q-13.5 21 -13.5 51q0 38 16.5 65.5q16.5 27.5 43.5 45q27 17.5 62 26q35 8.5 72 8.5q47 0 98 -12q51 -12 93 -42z" />
<glyph unicode="&#116;" horiz-adv-x="430" d="M103 483h114l24 149h72l-23 -149h168l-10 -63h-169l-40 -251q-2 -13 -4 -28.5q-2 -15.5 -2 -26.5q0 -31 19 -44.5q19 -13.5 55 -13.5q23 0 44.5 6.5q21.5 6.5 35.5 13.5l-9 -66q-16 -11 -44.5 -16.5q-28.5 -5.5 -55.5 -5.5q-54 0 -87 24.5q-33 24.5 -33 78.5q0 11 1.5 25q1.5 14 3.5 26l44 278l-114 0z" />
<glyph unicode="&#117;" horiz-adv-x="610" d="M155 483h72l-41 -254q-2 -14 -4.5 -31q-2.5 -17 -2.5 -32q0 -57 33.5 -83.5q33.5 -26.5 86.5 -26.5q28 0 55.5 9q27.5 9 51 22.5q23.5 13.5 43 30.5q19.5 17 31.5 34l52 331h72l-77 -483h-72l12 70q-15 -15 -34.5 -29.5q-19.5 -14.5 -44 -26q-24.5 -11.5 -53.5 -19q-29 -7.5 -63 -7.5q-38 0 -68.5 11q-30.5 11 -52.5 32q-22 21 -34 50.5q-12 29.5 -12 66.5q0 20 3 41.5q3 21.5 6 38.5z" />
<glyph unicode="&#118;" horiz-adv-x="567" d="M612 483l-299 -486h-66l-145 486h76l116 -390l239 390z" />
<glyph unicode="&#119;" horiz-adv-x="819" d="M856 483l-251 -486h-61l-76 380l-196 -380h-62l-96 486h70l76 -377l193 379h59l74 -380l197 378z" />
<glyph unicode="&#120;" horiz-adv-x="560" d="M360 255l169 -255h-80l-136 205l-196 -205h-88l249 258l-148 225h79l116 -174l168 174l87 0z" />
<glyph unicode="&#121;" horiz-adv-x="555" d="M281 -60q-42 -72 -88 -108q-46 -36 -109 -36q-22 0 -41 5q-19 5 -32 12l11 65q13 -8 28.5 -12.5q15.5 -4.5 33.5 -4.5q50 0 87.5 41q37.5 41 81.5 117l-153 464h75l123 -383l217 383l80 0z" />
<glyph unicode="&#122;" horiz-adv-x="504" d="M45 48l360 372h-287l10 63h390l-8 -50l-357 -370h322l-10 -63l-427 0z" />
<glyph unicode="&#123;" horiz-adv-x="363" d="M438 706l-9 -61h-41q-43 0 -67 -22.5q-24 -22.5 -30 -63.5l-26 -165q-8 -51 -27 -89q-19 -38 -65 -55q29 -12 40 -34.5q11 -22.5 11 -54.5q0 -13 -1.5 -26.5q-1.5 -13.5 -3.5 -28.5l-23 -148q-2 -9 -3.5 -21.5q-1.5 -12.5 -1.5 -18.5q0 -29 18 -46q18 -17 54 -17h41l-9 -61h-57q-57 0 -88 28q-31 28 -31 79q0 8 1 18.5q1 10.5 3 21.5q2 15 5.5 38q3.5 23 7 45.5q3.5 22.5 6.5 41q3 18.5 4 25.5q2 14 4 28.5q2 14.5 2 27.5q0 29 -12.5 49.5q-12.5 20.5 -49.5 24.5l9 58q28 3 45.5 15q17.5 12 28 31q10.5 19 16 42.5q5.5 23.5 9.5 47.5l24 152q11 66 53 102.5q42 36.5 107 36.5z" />
<glyph unicode="&#124;" horiz-adv-x="309" d="M242 760h62l-138 -871l-62 0z" />
<glyph unicode="&#125;" horiz-adv-x="363" d="M4 -206l9 61h41q43 0 67 22.5q24 22.5 30 63.5l26 165q8 51 27 89q19 38 65 55q-29 12 -40 34.5q-11 22.5 -11 54.5q0 13 1.5 26.5q1.5 13.5 3.5 28.5l23 148q2 9 3.5 21.5q1.5 12.5 1.5 18.5q0 29 -18 46q-18 17 -54 17h-41l9 61h57q57 0 88 -28q31 -28 31 -79q0 -8 -1 -18.5q-1 -10.5 -3 -21.5q-2 -15 -5.5 -38q-3.5 -23 -7 -45.5q-3.5 -22.5 -6.5 -41q-3 -18.5 -4 -25.5q-2 -14 -4 -28.5q-2 -14.5 -2 -27.5q0 -29 12.5 -49.5q12.5 -20.5 49.5 -24.5l-9 -58q-28 -3 -45.5 -15.5q-17.5 -12.5 -28 -31q-10.5 -18.5 -16 -42q-5.5 -23.5 -9.5 -47.5l-24 -152q-11 -66 -53 -102.5q-42 -36.5 -107 -36.5z" />
<glyph unicode="&#126;" horiz-adv-x="571" d="M434 200q-32 0 -59.5 8q-27.5 8 -53.5 17q-26 9 -53.5 17q-27.5 8 -59.5 8q-32 0 -61 -11.5q-29 -11.5 -52 -32.5l11 70q17 17 47 27.5q30 10.5 65 10.5q32 0 59.5 -8q27.5 -8 53.5 -17q26 -9 53.5 -17q27.5 -8 59.5 -8q32 0 60.5 11q28.5 11 51.5 32l-11 -69q-16 -18 -47 -28t-64 -10z" />
<glyph unicode="&#160;" horiz-adv-x="264" />
<glyph unicode="&#161;" horiz-adv-x="285" d="M157 -200h-95l88 469h67zM261 438q0 -23 -15 -38q-15 -15 -37 -15q-22 0 -37 15q-15 15 -15 38q0 21 15 36q15 15 37 15q22 0 37 -15t15 -36z" />
<glyph unicode="&#162;" horiz-adv-x="520" d="M251 -117l17 112q-42 9 -75 30q-33 21 -56.5 51q-23.5 30 -35.5 66.5q-12 36.5 -12 77.5q0 57 20 105.5q20 48.5 54.5 84.5q34.5 36 81.5 58q47 22 102 26l17 107h62l-17 -108q37 -4 66.5 -14.5q29.5 -10.5 52.5 -25.5l-11 -66q-29 20 -63 31.5q-34 11.5 -78 11.5q-46 0 -85 -15.5q-39 -15.5 -67.5 -43.5q-28.5 -28 -44.5 -65.5q-16 -37.5 -16 -81.5q0 -38 13.5 -69.5q13.5 -31.5 38.5 -54q25 -22.5 59 -35q34 -12.5 75 -12.5q38 0 71 9.5q33 9.5 64 26.5l-11 -69q-32 -17 -66.5 -24.5q-34.5 -7.5 -72.5 -7.5h-5l-15 -105z" />
<glyph unicode="&#163;" horiz-adv-x="589" d="M473 643q-80 0 -129 -43q-49 -43 -63 -125l-19 -113h275l-11 -67h-274l-28 -168q-4 -22 -11 -36.5q-7 -14.5 -21 -23.5l348 0l-11 -67h-469l10 67h20q18 0 29.5 8.5q11.5 8.5 19 22q7.5 13.5 11.5 31q4 17.5 7 34.5l21 132h-72l10 67h72l22 130q17 107 86 163.5q69 56.5 176 56.5q45 0 85.5 -10.5q40.5 -10.5 71.5 -33.5l-11 -71q-27 22 -64.5 34t-80.5 12z" />
<glyph unicode="&#164;" horiz-adv-x="562" d="M542 351q0 -70 -40 -124l65 -65l-41 -39l-66 64q-24 -20 -55.5 -31q-31.5 -11 -67.5 -11q-35 0 -66 11q-31 11 -57 31l-65 -64l-40 39l64 65q-40 54 -40 124q0 34 10 65.5q10 31.5 30 57.5l-64 65l40 40l65 -64q26 20 57 31q31 11 66 11q36 0 67.5 -11q31.5 -11 55.5 -31l66 64l41 -40l-66 -65q20 -26 30.5 -57.5q10.5 -31.5 10.5 -65.5zt0 0zM337 206q30 0 56.5 11.5q26.5 11.5 46 31q19.5 19.5 30.5 46q11 26.5 11 56.5q0 30 -11 56.5q-11 26.5 -30.5 46q-19.5 19.5 -46 31q-26.5 11.5 -56.5 11.5q-30 0 -56 -11.5q-26 -11.5 -45.5 -31q-19.5 -19.5 -30.5 -46q-11 -26.5 -11 -56.5q0 -30 11 -56.5q11 -26.5 30.5 -46q19.5 -19.5 45.5 -31t56 -11.5z" />
<glyph unicode="&#165;" horiz-adv-x="629" d="M295 141h-209l10 63h209l14 93h-209l10 63h184l-175 340h83l158 -312l256 312h86l-283 -340h184l-10 -63h-210l-14 -93h210l-10 -63h-210l-23 -141l-74 0z" />
<glyph unicode="&#166;" horiz-adv-x="306" d="M160 242h62l-56 -353h-62zM242 760h62l-56 -353l-62 0z" />
<glyph unicode="&#167;" horiz-adv-x="645" d="M412 643q-22 0 -49 -3.5q-27 -3.5 -51 -13.5q-24 -10 -40.5 -27.5q-16.5 -17.5 -16.5 -44.5q0 -21 13.5 -37q13.5 -16 36.5 -29q23 -13 54 -24.5q31 -11.5 66 -23.5q44 -15 80 -32q36 -17 62 -37.5q26 -20.5 40.5 -45.5q14.5 -25 14.5 -57q0 -31 -11 -56q-11 -25 -29.5 -44.5q-18.5 -19.5 -43 -33.5q-24.5 -14 -52.5 -23q26 -18 44 -43.5q18 -25.5 18 -60.5q0 -45 -21 -76q-21 -31 -55 -50.5q-34 -19.5 -76.5 -28q-42.5 -8.5 -85.5 -8.5q-65 0 -124 17.5q-59 17.5 -98 43.5l10 73q43 -28 99.5 -46.5q56.5 -18.5 119.5 -18.5q22 0 49 3.5q27 3.5 51 13.5q24 10 40.5 27.5q16.5 17.5 16.5 44.5q0 21 -13.5 37q-13.5 16 -36.5 29q-23 13 -54 24.5q-31 11.5 -66 23.5q-44 15 -80 32q-36 17 -62 37.5q-26 20.5 -40.5 45.5q-14.5 25 -14.5 57q0 31 11 56q11 25 29.5 44.5q18.5 19.5 43 33.5q24.5 14 52.5 23q-26 18 -44 43.5q-18 25.5 -18 60.5q0 45 21 76q21 31 55 50.5q34 19.5 76.5 28q42.5 8.5 85.5 8.5q65 0 124 -17.5q59 -17.5 98 -43.5l-10 -73q-43 28 -99.5 46.5q-56.5 18.5 -119.5 18.5zt0 0zM301 411q-19 -2 -41 -10.5q-22 -8.5 -40.5 -23q-18.5 -14.5 -30.5 -34q-12 -19.5 -12 -44.5q0 -25 16 -44q16 -19 41 -34q25 -15 55.5 -26.5q30.5 -11.5 59.5 -21.5l79 -28q19 2 41 10.5q22 8.5 40.5 23q18.5 14.5 30.5 34q12 19.5 12 44.5q0 25 -16 44q-16 19 -41 34q-25 15 -55.5 26.5q-30.5 11.5 -59.5 21.5z" />
<glyph unicode="&#168;" horiz-adv-x="524" d="M215 646q0 20 13.5 33.5q13.5 13.5 33.5 13.5q20 0 33.5 -13.5q13.5 -13.5 13.5 -33.5q0 -20 -13.5 -33.5q-13.5 -13.5 -33.5 -13.5q-20 0 -33.5 13.5q-13.5 13.5 -13.5 33.5zt0 0zM415 646q0 20 13.5 33.5q13.5 13.5 33.5 13.5q20 0 33.5 -13.5q13.5 -13.5 13.5 -33.5q0 -20 -13.5 -33.5q-13.5 -13.5 -33.5 -13.5q-20 0 -33.5 13.5t-13.5 33.5z" />
<glyph unicode="&#169;" horiz-adv-x="867" d="M488 15q70 0 131 26.5q61 26.5 106 72q45 45.5 71 106.5q26 61 26 130q0 69 -25.5 130q-25.5 61 -70.5 106.5q-45 45.5 -106 72q-61 26.5 -131 26.5q-70 0 -130.5 -26.5q-60.5 -26.5 -105.5 -72q-45 -45.5 -71 -107q-26 -61.5 -26 -130.5q0 -69 25.5 -130q25.5 -61 70.5 -106q45 -45 105.5 -71.5q60.5 -26.5 130.5 -26.5zt0 0zM488 -12q-75 0 -141 28.5q-66 28.5 -115 77.5q-49 49 -77 115.5q-28 66.5 -28 141.5q0 74 28.5 140q28.5 66 77.5 115q49 49 115 77.5q66 28.5 141 28.5q76 0 142 -28.5q66 -28.5 115 -77.5q49 -49 77 -115.5q28 -66.5 28 -141.5q0 -74 -28.5 -140q-28.5 -66 -77.5 -115q-49 -49 -115 -77.5q-66 -28.5 -142 -28.5zt0 0zM512 155q-42 0 -78 15q-36 15 -62.5 41.5q-26.5 26.5 -41.5 62q-15 35.5 -15 76.5q0 41 15 76.5q15 35.5 41.5 61.5q26.5 26 62.5 41q36 15 78 15q58 0 101 -25l0 -57q-21 14 -46 21.5q-25 7.5 -55 7.5q-29 0 -54 -10.5q-25 -10.5 -43.5 -29.5q-18.5 -19 -29 -44.5q-10.5 -25.5 -10.5 -56.5q0 -31 10.5 -57q10.5 -26 29.5 -44.5q19 -18.5 44 -29q25 -10.5 55 -10.5q62 0 109 36l0 -58q-46 -32 -111 -32z" />
<glyph unicode="&#170;" horiz-adv-x="522" d="M426 479q-27 19 -60.5 28q-33.5 9 -66.5 9q-22 0 -42 -4.5q-20 -4.5 -35.5 -14q-15.5 -9.5 -24.5 -24q-9 -14.5 -9 -35.5q0 -35 27.5 -52.5q27.5 -17.5 70.5 -17.5q21 0 41 5.5q20 5.5 37.5 14.5q17.5 9 31 20q13.5 11 22.5 22zM503 371q4 0 9.5 1q5.5 1 10.5 3l-7 -45q-8 -4 -17 -5.5q-9 -1.5 -18 -1.5q-24 0 -44 12q-20 12 -21 43q-24 -23 -60.5 -42q-36.5 -19 -87.5 -19q-60 0 -98 32q-38 32 -38 83q0 34 13.5 58.5q13.5 24.5 36 40.5q22.5 16 51 24q28.5 8 58.5 8q50 0 84.5 -13q34.5 -13 57.5 -27q4 25 6 37q2 12 2 19q0 42 -28.5 58.5q-28.5 16.5 -79.5 16.5q-41 0 -74 -9q-33 -9 -55 -20l9 52q20 10 52.5 19q32.5 9 79.5 9q28 0 55.5 -6q27.5 -6 48.5 -20q21 -14 34 -36.5q13 -22.5 13 -55.5q0 -11 -2 -25q-2 -14 -4 -24l-16 -105q-1 -8 -2 -16q-1 -8 -1 -14q0 -32 32 -32z" />
<glyph unicode="&#171;" horiz-adv-x="569" d="M71 223l6 37l178 183h78l-197 -206l130 -197h-73zM303 223l6 37l178 183h78l-197 -206l130 -197l-73 0z" />
<glyph unicode="&#172;" horiz-adv-x="554" d="M476 323h-362l10 66h428l-37 -237l-66 0z" />
<glyph unicode="&#173;" horiz-adv-x="473" d="M144 305h281l-11 -66l-280 0z" />
<glyph unicode="&#174;" horiz-adv-x="863" d="M347 543h171q60 0 92 -29.5q32 -29.5 32 -76.5q0 -38 -21.5 -65.5q-21.5 -27.5 -61.5 -36.5l119 -167h-65l-115 162h-94v-162h-57zM516 377q32 0 50 15q18 15 18 43q0 29 -18 44q-18 15 -50 15h-112v-117zM484 15q70 0 131 26.5q61 26.5 106 72q45 45.5 71 106.5q26 61 26 130q0 69 -25.5 130q-25.5 61 -70.5 106.5q-45 45.5 -106 72q-61 26.5 -131 26.5q-70 0 -130.5 -26.5q-60.5 -26.5 -105.5 -72q-45 -45.5 -71 -107q-26 -61.5 -26 -130.5q0 -69 25.5 -130q25.5 -61 70.5 -106q45 -45 105.5 -71.5q60.5 -26.5 130.5 -26.5zt0 0zM484 -12q-75 0 -141 28.5q-66 28.5 -115 77.5q-49 49 -77 115.5q-28 66.5 -28 141.5q0 74 28.5 140q28.5 66 77.5 115q49 49 115 77.5q66 28.5 141 28.5q76 0 142 -28.5q66 -28.5 115 -77.5q49 -49 77 -115.5q28 -66.5 28 -141.5q0 -74 -28.5 -140q-28.5 -66 -77.5 -115q-49 -49 -115 -77.5t-142 -28.5z" />
<glyph unicode="&#175;" horiz-adv-x="518" d="M242 673h262l-8 -55l-262 0z" />
<glyph unicode="&#176;" horiz-adv-x="424" d="M300 661q-21 0 -39 -8q-18 -8 -31.5 -21.5q-13.5 -13.5 -21 -32q-7.5 -18.5 -7.5 -39.5q0 -42 28.5 -71q28.5 -29 70.5 -29q42 0 70.5 29q28.5 29 28.5 71q0 21 -7.5 39.5q-7.5 18.5 -21 32q-13.5 13.5 -31.5 21.5q-18 8 -39 8zt0 0zM300 712q31 0 59 -12q28 -12 49 -33q21 -21 33 -48.5q12 -27.5 12 -58.5q0 -31 -12 -58.5q-12 -27.5 -33 -48q-21 -20.5 -49 -32.5q-28 -12 -59 -12q-31 0 -59 12q-28 12 -49 32.5q-21 20.5 -33 48q-12 27.5 -12 58.5q0 31 12 58.5q12 27.5 33 48.5q21 21 49 33t59 12z" />
<glyph unicode="&#177;" horiz-adv-x="605" d="M327 363h-207l11 66h207l27 172h65l-27 -172h207l-11 -66h-207l-27 -169h-65zM81 119h479l-10 -65l-479 0z" />
<glyph unicode="&#178;" horiz-adv-x="351" d="M150 670q23 17 50 26q27 9 61 9q54 0 89.5 -29.5q35.5 -29.5 35.5 -80.5q0 -41 -26.5 -75q-26.5 -34 -74.5 -72l-91 -73h179l-9 -53h-270l8 45l135 109q41 32 63 57.5q22 25.5 22 53.5q0 28 -20 45q-20 17 -52 17q-30 0 -58 -12.5q-28 -12.5 -52 -30.5z" />
<glyph unicode="&#179;" horiz-adv-x="327" d="M266 557q18 -3 35.5 -10.5q17.5 -7.5 31 -20.5q13.5 -13 22 -31q8.5 -18 8.5 -41q0 -33 -12.5 -58.5q-12.5 -25.5 -34.5 -43q-22 -17.5 -51 -26.5q-29 -9 -62 -9q-42 0 -73 9q-31 9 -50 23l10 59q17 -15 45.5 -25.5q28.5 -10.5 64.5 -10.5q18 0 36.5 5q18.5 5 32.5 15q14 10 23 25q9 15 9 35q0 29 -24 46q-24 17 -60 17q-26 0 -45 -6l6 41l117 96h-156l8 54h240l-7 -46z" />
<glyph unicode="&#180;" horiz-adv-x="496" d="M470 710l-123 -134h-70l103 134z" />
<glyph unicode="&#181;" horiz-adv-x="614" d="M159 483h72l-41 -254q-2 -14 -4.5 -31q-2.5 -17 -2.5 -32q0 -57 33.5 -83.5q33.5 -26.5 86.5 -26.5q28 0 55.5 9q27.5 9 51 22.5q23.5 13.5 43 30.5q19.5 17 31.5 34l52 331h72l-77 -483h-72l12 70q-15 -15 -34.5 -29.5q-19.5 -14.5 -44 -26q-24.5 -11.5 -53.5 -19q-29 -7.5 -63 -7.5q-73 0 -118 40l-36 -228h-72l32 200z" />
<glyph unicode="&#182;" horiz-adv-x="525" d="M537 700l-110 -700h-74l50 316h-84q-48 0 -84 12.5q-36 12.5 -61 34.5q-25 22 -37.5 52q-12.5 30 -12.5 65q0 52 20 93q20 41 55 69q35 28 81 43q46 15 99 15z" />
<glyph unicode="&#183;" horiz-adv-x="236" d="M126 381q0 22 15 37q15 15 37 15q22 0 37 -15q15 -15 15 -37q0 -22 -15 -37q-15 -15 -37 -15q-22 0 -37 15t-15 37z" />
<glyph unicode="&#184;" horiz-adv-x="482" d="M211 -132h-85l110 138l59 0z" />
<glyph unicode="&#185;" horiz-adv-x="252" d="M228 634l-112 -59l9 64l115 61h60l-59 -378l-63 0z" />
<glyph unicode="&#186;" horiz-adv-x="458" d="M317 705q43 0 78 -14.5q35 -14.5 60 -39q25 -24.5 39 -58q14 -33.5 14 -71.5q0 -41 -15.5 -78.5q-15.5 -37.5 -43 -65.5q-27.5 -28 -66 -44.5q-38.5 -16.5 -83.5 -16.5q-42 0 -77 14.5q-35 14.5 -60 39q-25 24.5 -39 58q-14 33.5 -14 72.5q0 41 15.5 78q15.5 37 43 65q27.5 28 65.5 44.5q38 16.5 83 16.5zt0 0zM300 370q30 0 57 12q27 12 46.5 33q19.5 21 31 49q11.5 28 11.5 60q0 27 -9.5 50q-9.5 23 -26.5 40q-17 17 -40.5 26.5q-23.5 9.5 -52.5 9.5q-30 0 -56.5 -12q-26.5 -12 -46.5 -32.5q-20 -20.5 -31.5 -48q-11.5 -27.5 -11.5 -59.5q0 -27 9.5 -50.5q9.5 -23.5 26.5 -40.5q17 -17 40.5 -27t52.5 -10z" />
<glyph unicode="&#187;" horiz-adv-x="569" d="M567 260l-6 -37l-178 -183h-78l197 206l-130 197h73zM336 260l-6 -37l-179 -183h-78l198 206l-131 197l73 0z" />
<glyph unicode="&#188;" horiz-adv-x="748" d="M709 700l-522 -700h-71l522 700zM229 634l-112 -59l9 64l115 61h60l-59 -378h-63zM623 98h-198l8 45l234 235h61l-36 -229h59l-9 -51h-58l-16 -98h-61zM631 149l24 153l-154 -153z" />
<glyph unicode="&#189;" horiz-adv-x="808" d="M709 700l-522 -700h-71l522 700zM229 634l-112 -59l9 64l115 61h60l-59 -378h-63zM557 348q23 17 50 26q27 9 61 9q54 0 89.5 -29.5q35.5 -29.5 35.5 -80.5q0 -41 -26.5 -75q-26.5 -34 -74.5 -72l-91 -73h179l-9 -53h-270l8 45l135 109q41 32 63 57.5q22 25.5 22 53.5q0 28 -20 45q-20 17 -52 17q-30 0 -58 -12.5q-28 -12.5 -52 -30.5z" />
<glyph unicode="&#190;" horiz-adv-x="792" d="M753 700l-522 -700h-71l522 700zM667 98h-198l8 45l234 235h61l-36 -229h59l-9 -51h-58l-16 -98h-61zM675 149l24 153l-154 -153zM266 557q18 -3 35.5 -10.5q17.5 -7.5 31 -20.5q13.5 -13 22 -31q8.5 -18 8.5 -41q0 -33 -12.5 -58.5q-12.5 -25.5 -34.5 -43q-22 -17.5 -51 -26.5q-29 -9 -62 -9q-42 0 -73 9q-31 9 -50 23l10 59q17 -15 45.5 -25.5q28.5 -10.5 64.5 -10.5q18 0 36.5 5q18.5 5 32.5 15q14 10 23 25q9 15 9 35q0 29 -24 46q-24 17 -60 17q-26 0 -45 -6l6 41l117 96h-156l8 54h240l-7 -46z" />
<glyph unicode="&#191;" horiz-adv-x="476" d="M321 136q-32 -6 -68 -18.5q-36 -12.5 -66.5 -32.5q-30.5 -20 -50.5 -48q-20 -28 -20 -64q0 -50 37.5 -81q37.5 -31 105.5 -31q51 0 95 17.5q44 17.5 78 38.5l-11 -71q-35 -23 -80.5 -36.5q-45.5 -13.5 -97.5 -13.5q-42 0 -79 12q-37 12 -64.5 34.5q-27.5 22.5 -43 53.5q-15.5 31 -15.5 70q0 44 18.5 78.5q18.5 34.5 48.5 60q30 25.5 69 43q39 17.5 81 28.5l15 93h69zM281 437q0 22 15 37q15 15 37 15q22 0 37 -15q15 -15 15 -37q0 -22 -15 -37q-15 -15 -37 -15q-22 0 -37 15t-15 37z" />
<glyph unicode="&#192;" horiz-adv-x="753" d="M593 193h-368l-115 -193h-80l423 704h69l202 -704h-76zM264 258h311l-99 353zM527 763h-68l-111 133l90 0z" />
<glyph unicode="&#193;" horiz-adv-x="753" d="M593 193h-368l-115 -193h-80l423 704h69l202 -704h-76zM264 258h311l-99 353zM657 896l-124 -133h-69l102 133z" />
<glyph unicode="&#194;" horiz-adv-x="753" d="M593 193h-368l-115 -193h-80l423 704h69l202 -704h-76zM264 258h311l-99 353zM643 763h-68l-61 91l-91 -91h-74l133 133l72 0z" />
<glyph unicode="&#195;" horiz-adv-x="753" d="M593 193h-368l-115 -193h-80l423 704h69l202 -704h-76zM264 258h311l-99 353zM568 772q-20 0 -37.5 9q-17.5 9 -33 20q-15.5 11 -30 20q-14.5 9 -29.5 9q-22 0 -32.5 -16.5q-10.5 -16.5 -15.5 -36.5l-49 0q8 47 35.5 78q27.5 31 67.5 31q20 0 37.5 -9q17.5 -9 33 -19.5q15.5 -10.5 29.5 -19.5q14 -9 29 -9q23 0 33 15.5q10 15.5 16 36.5l49 0q-8 -46 -35.5 -77.5t-67.5 -31.5z" />
<glyph unicode="&#196;" horiz-adv-x="753" d="M593 193h-368l-115 -193h-80l423 704h69l202 -704h-76zM264 258h311l-99 353zM358 828q0 20 13.5 33.5q13.5 13.5 33.5 13.5q20 0 33.5 -13.5q13.5 -13.5 13.5 -33.5q0 -20 -13.5 -33.5q-13.5 -13.5 -33.5 -13.5q-20 0 -33.5 13.5q-13.5 13.5 -13.5 33.5zt0 0zM558 828q0 20 13.5 33.5q13.5 13.5 33.5 13.5q20 0 33.5 -13.5q13.5 -13.5 13.5 -33.5q0 -20 -13.5 -33.5q-13.5 -13.5 -33.5 -13.5q-20 0 -33.5 13.5t-13.5 33.5z" />
<glyph unicode="&#197;" horiz-adv-x="753" d="M593 193h-368l-115 -193h-80l423 704h69l202 -704h-76zM264 258h311l-99 353zM502 926q19 0 36.5 -7.5q17.5 -7.5 30.5 -20.5q13 -13 20.5 -30.5q7.5 -17.5 7.5 -37.5q0 -20 -7.5 -37.5q-7.5 -17.5 -20.5 -30.5q-13 -13 -30.5 -20.5q-17.5 -7.5 -36.5 -7.5q-41 0 -69 28q-28 28 -28 68q0 40 28 68q28 28 69 28zt0 0zM502 774q23 0 39 16.5q16 16.5 16 39.5q0 24 -16 40q-16 16 -39 16q-24 0 -40.5 -16q-16.5 -16 -16.5 -40q0 -23 16.5 -39.5t40.5 -16.5z" />
<glyph unicode="&#198;" horiz-adv-x="1032" d="M490 0l30 193h-284l-149 -193h-83l539 700h534l-11 -67h-404l-36 -224h332l-11 -67h-331l-44 -275h419l-11 -67zM286 258h245l59 375l-15 0z" />
<glyph unicode="&#199;" horiz-adv-x="690" d="M198 322q0 -56 19 -104.5q19 -48.5 53.5 -84q34.5 -35.5 83.5 -56q49 -20.5 109 -20.5q57 0 109.5 16.5q52.5 16.5 97.5 48.5l-11 -78q-84 -54 -199 -56l-73 -120h-85l98 124q-64 9 -115 37q-51 28 -87 71q-36 43 -55.5 98.5q-19.5 55.5 -19.5 119.5q0 81 28 152.5q28 71.5 78 125.5q50 54 120.5 85q70.5 31 156.5 31q66 0 118.5 -16q52.5 -16 92.5 -42l-12 -71q-39 27 -88 43.5q-49 16.5 -112 16.5q-65 0 -121.5 -24.5q-56.5 -24.5 -97.5 -67.5q-41 -43 -64.5 -101.5t-23.5 -127.5z" />
<glyph unicode="&#200;" horiz-adv-x="645" d="M210 700h480l-11 -67h-406l-35 -224h333l-11 -67h-333l-43 -275h421l-11 -67h-495zM512 763h-68l-111 133l90 0z" />
<glyph unicode="&#201;" horiz-adv-x="645" d="M210 700h480l-11 -67h-406l-35 -224h333l-11 -67h-333l-43 -275h421l-11 -67h-495zM604 896l-124 -133h-69l102 133z" />
<glyph unicode="&#202;" horiz-adv-x="645" d="M210 700h480l-11 -67h-406l-35 -224h333l-11 -67h-333l-43 -275h421l-11 -67h-495zM606 763h-68l-61 91l-91 -91h-74l133 133l72 0z" />
<glyph unicode="&#203;" horiz-adv-x="645" d="M210 700h480l-11 -67h-406l-35 -224h333l-11 -67h-333l-43 -275h421l-11 -67h-495zM314 828q0 20 13.5 33.5q13.5 13.5 33.5 13.5q20 0 33.5 -13.5q13.5 -13.5 13.5 -33.5q0 -20 -13.5 -33.5q-13.5 -13.5 -33.5 -13.5q-20 0 -33.5 13.5q-13.5 13.5 -13.5 33.5zt0 0zM514 828q0 20 13.5 33.5q13.5 13.5 33.5 13.5q20 0 33.5 -13.5q13.5 -13.5 13.5 -33.5q0 -20 -13.5 -33.5q-13.5 -13.5 -33.5 -13.5q-20 0 -33.5 13.5t-13.5 33.5z" />
<glyph unicode="&#204;" horiz-adv-x="281" d="M215 700h74l-111 -700h-74zM296 763h-68l-111 133l90 0z" />
<glyph unicode="&#205;" horiz-adv-x="281" d="M215 700h74l-111 -700h-74zM422 896l-124 -133h-69l102 133z" />
<glyph unicode="&#206;" horiz-adv-x="281" d="M215 700h74l-111 -700h-74zM407 763h-68l-61 91l-91 -91h-74l133 133l72 0z" />
<glyph unicode="&#207;" horiz-adv-x="281" d="M215 700h74l-111 -700h-74zM122 828q0 20 13.5 33.5q13.5 13.5 33.5 13.5q20 0 33.5 -13.5q13.5 -13.5 13.5 -33.5q0 -20 -13.5 -33.5q-13.5 -13.5 -33.5 -13.5q-20 0 -33.5 13.5q-13.5 13.5 -13.5 33.5zt0 0zM322 828q0 20 13.5 33.5q13.5 13.5 33.5 13.5q20 0 33.5 -13.5q13.5 -13.5 13.5 -33.5q0 -20 -13.5 -33.5q-13.5 -13.5 -33.5 -13.5q-20 0 -33.5 13.5t-13.5 33.5z" />
<glyph unicode="&#208;" horiz-adv-x="810" d="M448 700q79 0 143 -23q64 -23 109 -64q45 -41 69.5 -99q24.5 -58 24.5 -128q0 -92 -33.5 -164q-33.5 -72 -93.5 -121.5q-60 -49.5 -142.5 -75q-82.5 -25.5 -179.5 -25.5h-216l51 325h-109l10 65h110l49 310zM381 67q73 0 135 22.5q62 22.5 107 63.5q45 41 70 100q25 59 25 132q0 55 -18.5 100.5q-18.5 45.5 -54 78.5q-35.5 33 -87 51q-51.5 18 -117.5 18h-138l-39 -243h164l-10 -65h-164l-40 -258z" />
<glyph unicode="&#209;" horiz-adv-x="775" d="M261 580l-90 -580h-72l111 700h62l352 -578l92 578h72l-111 -700h-63zM584 772q-20 0 -37.5 9q-17.5 9 -33 20q-15.5 11 -30 20q-14.5 9 -29.5 9q-22 0 -32.5 -16.5q-10.5 -16.5 -15.5 -36.5l-49 0q8 47 35.5 78q27.5 31 67.5 31q20 0 37.5 -9q17.5 -9 33 -19.5q15.5 -10.5 29.5 -19.5q14 -9 29 -9q23 0 33 15.5q10 15.5 16 36.5l49 0q-8 -46 -35.5 -77.5t-67.5 -31.5z" />
<glyph unicode="&#210;" horiz-adv-x="845" d="M498 712q75 0 136.5 -25q61.5 -25 104.5 -69.5q43 -44.5 66.5 -105.5q23.5 -61 23.5 -132q0 -80 -28 -151q-28 -71 -78 -124.5q-50 -53.5 -119 -85q-69 -31.5 -150 -31.5q-75 0 -136 25.5q-61 25.5 -104.5 70q-43.5 44.5 -67 105.5q-23.5 61 -23.5 132q0 79 28 150.5q28 71.5 78 124.5q50 53 119 84.5q69 31.5 150 31.5zt0 0zM456 57q63 0 117 25q54 25 94.5 68.5q40.5 43.5 63.5 102q23 58.5 23 126.5q0 55 -18 103.5q-18 48.5 -52 84q-34 35.5 -81.5 56q-47.5 20.5 -106.5 20.5q-63 0 -117 -24.5q-54 -24.5 -94.5 -68q-40.5 -43.5 -63.5 -102q-23 -58.5 -23 -126.5q0 -56 18 -104.5q18 -48.5 52 -84q34 -35.5 81.5 -56q47.5 -20.5 106.5 -20.5zt0 0zM583 763h-68l-111 133l90 0z" />
<glyph unicode="&#211;" horiz-adv-x="845" d="M498 712q75 0 136.5 -25q61.5 -25 104.5 -69.5q43 -44.5 66.5 -105.5q23.5 -61 23.5 -132q0 -80 -28 -151q-28 -71 -78 -124.5q-50 -53.5 -119 -85q-69 -31.5 -150 -31.5q-75 0 -136 25.5q-61 25.5 -104.5 70q-43.5 44.5 -67 105.5q-23.5 61 -23.5 132q0 79 28 150.5q28 71.5 78 124.5q50 53 119 84.5q69 31.5 150 31.5zt0 0zM456 57q63 0 117 25q54 25 94.5 68.5q40.5 43.5 63.5 102q23 58.5 23 126.5q0 55 -18 103.5q-18 48.5 -52 84q-34 35.5 -81.5 56q-47.5 20.5 -106.5 20.5q-63 0 -117 -24.5q-54 -24.5 -94.5 -68q-40.5 -43.5 -63.5 -102q-23 -58.5 -23 -126.5q0 -56 18 -104.5q18 -48.5 52 -84q34 -35.5 81.5 -56q47.5 -20.5 106.5 -20.5zt0 0zM690 896l-124 -133h-69l102 133z" />
<glyph unicode="&#212;" horiz-adv-x="845" d="M498 712q75 0 136.5 -25q61.5 -25 104.5 -69.5q43 -44.5 66.5 -105.5q23.5 -61 23.5 -132q0 -80 -28 -151q-28 -71 -78 -124.5q-50 -53.5 -119 -85q-69 -31.5 -150 -31.5q-75 0 -136 25.5q-61 25.5 -104.5 70q-43.5 44.5 -67 105.5q-23.5 61 -23.5 132q0 79 28 150.5q28 71.5 78 124.5q50 53 119 84.5q69 31.5 150 31.5zt0 0zM456 57q63 0 117 25q54 25 94.5 68.5q40.5 43.5 63.5 102q23 58.5 23 126.5q0 55 -18 103.5q-18 48.5 -52 84q-34 35.5 -81.5 56q-47.5 20.5 -106.5 20.5q-63 0 -117 -24.5q-54 -24.5 -94.5 -68q-40.5 -43.5 -63.5 -102q-23 -58.5 -23 -126.5q0 -56 18 -104.5q18 -48.5 52 -84q34 -35.5 81.5 -56q47.5 -20.5 106.5 -20.5zt0 0zM682 763h-68l-61 91l-91 -91h-74l133 133l72 0z" />
<glyph unicode="&#213;" horiz-adv-x="845" d="M498 712q75 0 136.5 -25q61.5 -25 104.5 -69.5q43 -44.5 66.5 -105.5q23.5 -61 23.5 -132q0 -80 -28 -151q-28 -71 -78 -124.5q-50 -53.5 -119 -85q-69 -31.5 -150 -31.5q-75 0 -136 25.5q-61 25.5 -104.5 70q-43.5 44.5 -67 105.5q-23.5 61 -23.5 132q0 79 28 150.5q28 71.5 78 124.5q50 53 119 84.5q69 31.5 150 31.5zt0 0zM456 57q63 0 117 25q54 25 94.5 68.5q40.5 43.5 63.5 102q23 58.5 23 126.5q0 55 -18 103.5q-18 48.5 -52 84q-34 35.5 -81.5 56q-47.5 20.5 -106.5 20.5q-63 0 -117 -24.5q-54 -24.5 -94.5 -68q-40.5 -43.5 -63.5 -102q-23 -58.5 -23 -126.5q0 -56 18 -104.5q18 -48.5 52 -84q34 -35.5 81.5 -56q47.5 -20.5 106.5 -20.5zt0 0zM607 772q-20 0 -37.5 9q-17.5 9 -33 20q-15.5 11 -30 20q-14.5 9 -29.5 9q-22 0 -32.5 -16.5q-10.5 -16.5 -15.5 -36.5l-49 0q8 47 35.5 78q27.5 31 67.5 31q20 0 37.5 -9q17.5 -9 33 -19.5q15.5 -10.5 29.5 -19.5q14 -9 29 -9q23 0 33 15.5q10 15.5 16 36.5l49 0q-8 -46 -35.5 -77.5t-67.5 -31.5z" />
<glyph unicode="&#214;" horiz-adv-x="845" d="M498 712q75 0 136.5 -25q61.5 -25 104.5 -69.5q43 -44.5 66.5 -105.5q23.5 -61 23.5 -132q0 -80 -28 -151q-28 -71 -78 -124.5q-50 -53.5 -119 -85q-69 -31.5 -150 -31.5q-75 0 -136 25.5q-61 25.5 -104.5 70q-43.5 44.5 -67 105.5q-23.5 61 -23.5 132q0 79 28 150.5q28 71.5 78 124.5q50 53 119 84.5q69 31.5 150 31.5zt0 0zM456 57q63 0 117 25q54 25 94.5 68.5q40.5 43.5 63.5 102q23 58.5 23 126.5q0 55 -18 103.5q-18 48.5 -52 84q-34 35.5 -81.5 56q-47.5 20.5 -106.5 20.5q-63 0 -117 -24.5q-54 -24.5 -94.5 -68q-40.5 -43.5 -63.5 -102q-23 -58.5 -23 -126.5q0 -56 18 -104.5q18 -48.5 52 -84q34 -35.5 81.5 -56q47.5 -20.5 106.5 -20.5zt0 0zM392 828q0 20 13.5 33.5q13.5 13.5 33.5 13.5q20 0 33.5 -13.5q13.5 -13.5 13.5 -33.5q0 -20 -13.5 -33.5q-13.5 -13.5 -33.5 -13.5q-20 0 -33.5 13.5q-13.5 13.5 -13.5 33.5zt0 0zM592 828q0 20 13.5 33.5q13.5 13.5 33.5 13.5q20 0 33.5 -13.5q13.5 -13.5 13.5 -33.5q0 -20 -13.5 -33.5q-13.5 -13.5 -33.5 -13.5q-20 0 -33.5 13.5t-13.5 33.5z" />
<glyph unicode="&#215;" horiz-adv-x="536" d="M547 479l-181 -157l131 -155l-50 -45l-131 156l-182 -156l-41 49l181 155l-132 157l51 44l132 -156l181 156z" />
<glyph unicode="&#216;" horiz-adv-x="845" d="M498 712q68 0 124 -20q56 -20 98 -57l64 65h77l-103 -105q34 -43 52.5 -97.5q18.5 -54.5 18.5 -117.5q0 -80 -28 -151q-28 -71 -78 -124.5q-50 -53.5 -119 -85q-69 -31.5 -150 -31.5q-67 0 -123 20q-56 20 -98 56l-63 -64h-78l103 104q-35 44 -53.5 98.5q-18.5 54.5 -18.5 118.5q0 79 28 150.5q28 71.5 78 124.5q50 53 119 84.5q69 31.5 150 31.5zt0 0zM198 322q0 -48 13 -89q13 -41 37 -75l419 424q-32 29 -75.5 45q-43.5 16 -95.5 16q-63 0 -117 -24.5q-54 -24.5 -94.5 -68q-40.5 -43.5 -63.5 -102q-23 -58.5 -23 -126.5zt0 0zM456 57q63 0 117 25q54 25 94.5 68.5q40.5 43.5 63.5 102q23 58.5 23 126.5q0 46 -13 87.5q-13 41.5 -37 74.5l-419 -424q33 -29 76 -44.5t95 -15.5z" />
<glyph unicode="&#217;" horiz-adv-x="746" d="M768 700l-66 -415q-12 -74 -40.5 -130q-28.5 -56 -70 -93q-41.5 -37 -93.5 -55.5q-52 -18.5 -112 -18.5q-57 0 -104.5 16q-47.5 16 -81.5 47.5q-34 31.5 -52.5 78q-18.5 46.5 -18.5 106.5q0 17 2 35q2 18 5 38l62 391h73l-62 -394q-6 -35 -6 -62q0 -90 49 -138.5q49 -48.5 140 -48.5q97 0 158.5 63q61.5 63 81.5 186l62 394zM545 763h-68l-111 133l90 0z" />
<glyph unicode="&#218;" horiz-adv-x="746" d="M768 700l-66 -415q-12 -74 -40.5 -130q-28.5 -56 -70 -93q-41.5 -37 -93.5 -55.5q-52 -18.5 -112 -18.5q-57 0 -104.5 16q-47.5 16 -81.5 47.5q-34 31.5 -52.5 78q-18.5 46.5 -18.5 106.5q0 17 2 35q2 18 5 38l62 391h73l-62 -394q-6 -35 -6 -62q0 -90 49 -138.5q49 -48.5 140 -48.5q97 0 158.5 63q61.5 63 81.5 186l62 394zM639 896l-124 -133h-69l102 133z" />
<glyph unicode="&#219;" horiz-adv-x="746" d="M768 700l-66 -415q-12 -74 -40.5 -130q-28.5 -56 -70 -93q-41.5 -37 -93.5 -55.5q-52 -18.5 -112 -18.5q-57 0 -104.5 16q-47.5 16 -81.5 47.5q-34 31.5 -52.5 78q-18.5 46.5 -18.5 106.5q0 17 2 35q2 18 5 38l62 391h73l-62 -394q-6 -35 -6 -62q0 -90 49 -138.5q49 -48.5 140 -48.5q97 0 158.5 63q61.5 63 81.5 186l62 394zM639 763h-68l-61 91l-91 -91h-74l133 133l72 0z" />
<glyph unicode="&#220;" horiz-adv-x="746" d="M768 700l-66 -415q-12 -74 -40.5 -130q-28.5 -56 -70 -93q-41.5 -37 -93.5 -55.5q-52 -18.5 -112 -18.5q-57 0 -104.5 16q-47.5 16 -81.5 47.5q-34 31.5 -52.5 78q-18.5 46.5 -18.5 106.5q0 17 2 35q2 18 5 38l62 391h73l-62 -394q-6 -35 -6 -62q0 -90 49 -138.5q49 -48.5 140 -48.5q97 0 158.5 63q61.5 63 81.5 186l62 394zM355 828q0 20 13.5 33.5q13.5 13.5 33.5 13.5q20 0 33.5 -13.5q13.5 -13.5 13.5 -33.5q0 -20 -13.5 -33.5q-13.5 -13.5 -33.5 -13.5q-20 0 -33.5 13.5q-13.5 13.5 -13.5 33.5zt0 0zM555 828q0 20 13.5 33.5q13.5 13.5 33.5 13.5q20 0 33.5 -13.5q13.5 -13.5 13.5 -33.5q0 -20 -13.5 -33.5q-13.5 -13.5 -33.5 -13.5q-20 0 -33.5 13.5t-13.5 33.5z" />
<glyph unicode="&#221;" horiz-adv-x="664" d="M747 700l-330 -378l-51 -322h-74l50 321l-213 379h82l177 -310l270 310zM601 896l-124 -133h-69l102 133z" />
<glyph unicode="&#222;" horiz-adv-x="665" d="M283 700l-25 -156h210q100 0 152.5 -48q52.5 -48 52.5 -124q0 -49 -19 -89q-19 -40 -52 -69q-33 -29 -78 -45q-45 -16 -97 -16h-230l-24 -153h-74l111 700zM431 220q31 0 61.5 9q30.5 9 53.5 26.5q23 17.5 37.5 44.5q14.5 27 14.5 63q0 54 -35 84q-35 30 -103 30h-212l-40 -257z" />
<glyph unicode="&#223;" horiz-adv-x="614" d="M364 -12q-36 0 -62.5 5.5q-26.5 5.5 -44.5 13.5l11 67q17 -9 39 -15q22 -6 54 -6q32 0 62.5 11q30.5 11 54 32q23.5 21 37.5 51q14 30 14 67q0 60 -44 100q-44 40 -122 44l-22 1l8 54h33q27 0 52.5 8q25.5 8 45 23.5q19.5 15.5 31.5 38q12 22.5 12 52.5q0 22 -8.5 41.5q-8.5 19.5 -25 34.5q-16.5 15 -40.5 23.5q-24 8.5 -55 8.5q-30 0 -56.5 -9.5q-26.5 -9.5 -47.5 -28q-21 -18.5 -35.5 -45.5q-14.5 -27 -20.5 -62l-79 -498h-72l78 501q8 50 29 88.5q21 38.5 52.5 65q31.5 26.5 71.5 40q40 13.5 86 13.5q43 0 79 -12q36 -12 62 -34q26 -22 40.5 -51.5q14.5 -29.5 14.5 -64.5q0 -57 -33.5 -100q-33.5 -43 -93.5 -63q26 -7 50 -21.5q24 -14.5 42 -36q18 -21.5 29 -50q11 -28.5 11 -63.5q0 -50 -18 -91q-18 -41 -50 -70.5q-32 -29.5 -75 -46t-94 -16.5z" />
<glyph unicode="&#224;" horiz-adv-x="596" d="M549 57q6 0 13.5 1.5q7.5 1.5 13.5 4.5l-9 -58q-22 -10 -46 -10q-31 0 -57 16q-26 16 -28 56q-31 -31 -79 -55q-48 -24 -114 -24q-39 0 -71.5 11q-32.5 11 -56 31q-23.5 20 -36.5 47.5q-13 27.5 -13 61.5q0 44 17.5 76q17.5 32 47 52.5q29.5 20.5 66.5 30.5q37 10 76 10q66 0 111.5 -17q45.5 -17 74.5 -34q5 29 7 45.5q2 16.5 2 27.5q0 56 -37 78q-37 22 -102 22q-54 0 -97.5 -12q-43.5 -12 -72.5 -27l12 68q26 14 69 25q43 11 104 11q37 0 72.5 -8q35.5 -8 63 -26.5q27.5 -18.5 44.5 -48q17 -29.5 17 -71.5q0 -17 -3 -38.5q-3 -21.5 -6 -38.5l-20 -125q-2 -11 -3 -21.5q-1 -10.5 -1 -18.5q0 -20 10 -31q10 -11 31 -11zt0 0zM267 53q28 0 54 7.5q26 7.5 48.5 19.5q22.5 12 40 26q17.5 14 29.5 28l10 65q-35 25 -78.5 37.5q-43.5 12.5 -86.5 12.5q-29 0 -55.5 -6q-26.5 -6 -47 -19q-20.5 -13 -32.5 -32q-12 -19 -12 -46q0 -47 37 -70q37 -23 93 -23zt0 0zM460 576h-69l-111 134l90 0z" />
<glyph unicode="&#225;" horiz-adv-x="596" d="M549 57q6 0 13.5 1.5q7.5 1.5 13.5 4.5l-9 -58q-22 -10 -46 -10q-31 0 -57 16q-26 16 -28 56q-31 -31 -79 -55q-48 -24 -114 -24q-39 0 -71.5 11q-32.5 11 -56 31q-23.5 20 -36.5 47.5q-13 27.5 -13 61.5q0 44 17.5 76q17.5 32 47 52.5q29.5 20.5 66.5 30.5q37 10 76 10q66 0 111.5 -17q45.5 -17 74.5 -34q5 29 7 45.5q2 16.5 2 27.5q0 56 -37 78q-37 22 -102 22q-54 0 -97.5 -12q-43.5 -12 -72.5 -27l12 68q26 14 69 25q43 11 104 11q37 0 72.5 -8q35.5 -8 63 -26.5q27.5 -18.5 44.5 -48q17 -29.5 17 -71.5q0 -17 -3 -38.5q-3 -21.5 -6 -38.5l-20 -125q-2 -11 -3 -21.5q-1 -10.5 -1 -18.5q0 -20 10 -31q10 -11 31 -11zt0 0zM267 53q28 0 54 7.5q26 7.5 48.5 19.5q22.5 12 40 26q17.5 14 29.5 28l10 65q-35 25 -78.5 37.5q-43.5 12.5 -86.5 12.5q-29 0 -55.5 -6q-26.5 -6 -47 -19q-20.5 -13 -32.5 -32q-12 -19 -12 -46q0 -47 37 -70q37 -23 93 -23zt0 0zM526 710l-123 -134h-70l103 134z" />
<glyph unicode="&#226;" horiz-adv-x="596" d="M549 57q6 0 13.5 1.5q7.5 1.5 13.5 4.5l-9 -58q-22 -10 -46 -10q-31 0 -57 16q-26 16 -28 56q-31 -31 -79 -55q-48 -24 -114 -24q-39 0 -71.5 11q-32.5 11 -56 31q-23.5 20 -36.5 47.5q-13 27.5 -13 61.5q0 44 17.5 76q17.5 32 47 52.5q29.5 20.5 66.5 30.5q37 10 76 10q66 0 111.5 -17q45.5 -17 74.5 -34q5 29 7 45.5q2 16.5 2 27.5q0 56 -37 78q-37 22 -102 22q-54 0 -97.5 -12q-43.5 -12 -72.5 -27l12 68q26 14 69 25q43 11 104 11q37 0 72.5 -8q35.5 -8 63 -26.5q27.5 -18.5 44.5 -48q17 -29.5 17 -71.5q0 -17 -3 -38.5q-3 -21.5 -6 -38.5l-20 -125q-2 -11 -3 -21.5q-1 -10.5 -1 -18.5q0 -20 10 -31q10 -11 31 -11zt0 0zM267 53q28 0 54 7.5q26 7.5 48.5 19.5q22.5 12 40 26q17.5 14 29.5 28l10 65q-35 25 -78.5 37.5q-43.5 12.5 -86.5 12.5q-29 0 -55.5 -6q-26.5 -6 -47 -19q-20.5 -13 -32.5 -32q-12 -19 -12 -46q0 -47 37 -70q37 -23 93 -23zt0 0zM522 576h-68l-62 91l-91 -91h-73l132 134l73 0z" />
<glyph unicode="&#227;" horiz-adv-x="596" d="M549 57q6 0 13.5 1.5q7.5 1.5 13.5 4.5l-9 -58q-22 -10 -46 -10q-31 0 -57 16q-26 16 -28 56q-31 -31 -79 -55q-48 -24 -114 -24q-39 0 -71.5 11q-32.5 11 -56 31q-23.5 20 -36.5 47.5q-13 27.5 -13 61.5q0 44 17.5 76q17.5 32 47 52.5q29.5 20.5 66.5 30.5q37 10 76 10q66 0 111.5 -17q45.5 -17 74.5 -34q5 29 7 45.5q2 16.5 2 27.5q0 56 -37 78q-37 22 -102 22q-54 0 -97.5 -12q-43.5 -12 -72.5 -27l12 68q26 14 69 25q43 11 104 11q37 0 72.5 -8q35.5 -8 63 -26.5q27.5 -18.5 44.5 -48q17 -29.5 17 -71.5q0 -17 -3 -38.5q-3 -21.5 -6 -38.5l-20 -125q-2 -11 -3 -21.5q-1 -10.5 -1 -18.5q0 -20 10 -31q10 -11 31 -11zt0 0zM267 53q28 0 54 7.5q26 7.5 48.5 19.5q22.5 12 40 26q17.5 14 29.5 28l10 65q-35 25 -78.5 37.5q-43.5 12.5 -86.5 12.5q-29 0 -55.5 -6q-26.5 -6 -47 -19q-20.5 -13 -32.5 -32q-12 -19 -12 -46q0 -47 37 -70q37 -23 93 -23zt0 0zM453 589q-20 0 -37.5 9q-17.5 9 -33 20q-15.5 11 -30 20q-14.5 9 -29.5 9q-22 0 -32.5 -16.5q-10.5 -16.5 -15.5 -36.5l-49 0q8 47 35.5 78q27.5 31 67.5 31q20 0 37.5 -9q17.5 -9 33 -19.5q15.5 -10.5 30 -19.5q14.5 -9 29.5 -9q22 0 32 15.5q10 15.5 17 36.5l49 0q-8 -46 -35.5 -77.5t-68.5 -31.5z" />
<glyph unicode="&#228;" horiz-adv-x="596" d="M549 57q6 0 13.5 1.5q7.5 1.5 13.5 4.5l-9 -58q-22 -10 -46 -10q-31 0 -57 16q-26 16 -28 56q-31 -31 -79 -55q-48 -24 -114 -24q-39 0 -71.5 11q-32.5 11 -56 31q-23.5 20 -36.5 47.5q-13 27.5 -13 61.5q0 44 17.5 76q17.5 32 47 52.5q29.5 20.5 66.5 30.5q37 10 76 10q66 0 111.5 -17q45.5 -17 74.5 -34q5 29 7 45.5q2 16.5 2 27.5q0 56 -37 78q-37 22 -102 22q-54 0 -97.5 -12q-43.5 -12 -72.5 -27l12 68q26 14 69 25q43 11 104 11q37 0 72.5 -8q35.5 -8 63 -26.5q27.5 -18.5 44.5 -48q17 -29.5 17 -71.5q0 -17 -3 -38.5q-3 -21.5 -6 -38.5l-20 -125q-2 -11 -3 -21.5q-1 -10.5 -1 -18.5q0 -20 10 -31q10 -11 31 -11zt0 0zM267 53q28 0 54 7.5q26 7.5 48.5 19.5q22.5 12 40 26q17.5 14 29.5 28l10 65q-35 25 -78.5 37.5q-43.5 12.5 -86.5 12.5q-29 0 -55.5 -6q-26.5 -6 -47 -19q-20.5 -13 -32.5 -32q-12 -19 -12 -46q0 -47 37 -70q37 -23 93 -23zt0 0zM239 646q0 20 13.5 33.5q13.5 13.5 33.5 13.5q20 0 33.5 -13.5q13.5 -13.5 13.5 -33.5q0 -20 -13.5 -33.5q-13.5 -13.5 -33.5 -13.5q-20 0 -33.5 13.5q-13.5 13.5 -13.5 33.5zt0 0zM439 646q0 20 13.5 33.5q13.5 13.5 33.5 13.5q20 0 33.5 -13.5q13.5 -13.5 13.5 -33.5q0 -20 -13.5 -33.5q-13.5 -13.5 -33.5 -13.5q-20 0 -33.5 13.5t-13.5 33.5z" />
<glyph unicode="&#229;" horiz-adv-x="596" d="M549 57q6 0 13.5 1.5q7.5 1.5 13.5 4.5l-9 -58q-22 -10 -46 -10q-31 0 -57 16q-26 16 -28 56q-31 -31 -79 -55q-48 -24 -114 -24q-39 0 -71.5 11q-32.5 11 -56 31q-23.5 20 -36.5 47.5q-13 27.5 -13 61.5q0 44 17.5 76q17.5 32 47 52.5q29.5 20.5 66.5 30.5q37 10 76 10q66 0 111.5 -17q45.5 -17 74.5 -34q5 29 7 45.5q2 16.5 2 27.5q0 56 -37 78q-37 22 -102 22q-54 0 -97.5 -12q-43.5 -12 -72.5 -27l12 68q26 14 69 25q43 11 104 11q37 0 72.5 -8q35.5 -8 63 -26.5q27.5 -18.5 44.5 -48q17 -29.5 17 -71.5q0 -17 -3 -38.5q-3 -21.5 -6 -38.5l-20 -125q-2 -11 -3 -21.5q-1 -10.5 -1 -18.5q0 -20 10 -31q10 -11 31 -11zt0 0zM267 53q28 0 54 7.5q26 7.5 48.5 19.5q22.5 12 40 26q17.5 14 29.5 28l10 65q-35 25 -78.5 37.5q-43.5 12.5 -86.5 12.5q-29 0 -55.5 -6q-26.5 -6 -47 -19q-20.5 -13 -32.5 -32q-12 -19 -12 -46q0 -47 37 -70q37 -23 93 -23zt0 0zM396 726q40 0 68 -28q28 -28 28 -68q0 -40 -28 -68q-28 -28 -68 -28q-40 0 -68 28q-28 28 -28 68q0 40 28 68q28 28 68 28zt0 0zM396 574q23 0 39.5 16.5q16.5 16.5 16.5 39.5q0 24 -16.5 40q-16.5 16 -39.5 16q-23 0 -39.5 -16q-16.5 -16 -16.5 -40q0 -23 16.5 -39.5t39.5 -16.5z" />
<glyph unicode="&#230;" horiz-adv-x="941" d="M523 224q0 -44 14.5 -76q14.5 -32 40 -53q25.5 -21 60 -31.5q34.5 -10.5 75.5 -10.5q46 0 82.5 11.5q36.5 11.5 68.5 31.5l-9 -68q-27 -18 -66.5 -29q-39.5 -11 -88.5 -11q-69 0 -125 27.5q-56 27.5 -88 78.5q-19 -20 -44.5 -39q-25.5 -19 -56.5 -34q-31 -15 -67 -24q-36 -9 -75 -9q-39 0 -72 11q-33 11 -56.5 30.5q-23.5 19.5 -36.5 47q-13 27.5 -13 60.5q0 44 17.5 76q17.5 32 46.5 53q29 21 66.5 31q37.5 10 76.5 10q66 0 111 -17q45 -17 74 -34q5 24 7.5 39.5q2.5 15.5 2.5 34.5q0 56 -38 78q-38 22 -107 22q-52 0 -94 -12q-42 -12 -70 -27l12 68q24 14 67 25q43 11 107 11q27 0 54 -5q27 -5 51 -16q24 -11 43 -27.5q19 -16.5 31 -40.5q35 40 83.5 64.5q48.5 24.5 109.5 24.5q54 0 93.5 -18.5q39.5 -18.5 65.5 -48q26 -29.5 38.5 -67q12.5 -37.5 12.5 -75.5q0 -14 -1 -31.5q-1 -17.5 -4 -30.5zM267 53q34 0 64 8.5q30 8.5 55.5 22q25.5 13.5 45 30q19.5 16.5 31.5 31.5q-7 22 -10 52q-36 26 -81.5 38.5q-45.5 12.5 -87.5 12.5q-29 0 -55.5 -6q-26.5 -6 -47 -19q-20.5 -13 -32.5 -32.5q-12 -19.5 -12 -46.5q0 -23 10 -40.5q10 -17.5 27.5 -28.5q17.5 -11 41.5 -16.5q24 -5.5 51 -5.5zt0 0zM856 283q0 4 0.5 6.5q0.5 2.5 0.5 6.5q0 25 -8.5 49q-8.5 24 -26.5 43q-18 19 -45 30.5q-27 11.5 -64 11.5q-35 0 -65.5 -11q-30.5 -11 -54.5 -30.5q-24 -19.5 -40.5 -46.5q-16.5 -27 -23.5 -59z" />
<glyph unicode="&#231;" horiz-adv-x="520" d="M272 -132h-85l98 124q-46 7 -82 27.5q-36 20.5 -61.5 50.5q-25.5 30 -39 68.5q-13.5 38.5 -13.5 81.5q0 59 21.5 109.5q21.5 50.5 59.5 87q38 36.5 89 57.5q51 21 110 21q52 0 91 -11.5q39 -11.5 68 -30.5l-11 -66q-29 20 -63 31.5q-34 11.5 -78 11.5q-46 0 -85 -15.5q-39 -15.5 -67.5 -43.5q-28.5 -28 -44.5 -65.5q-16 -37.5 -16 -81.5q0 -38 13.5 -69.5q13.5 -31.5 38.5 -54q25 -22.5 59 -35q34 -12.5 75 -12.5q38 0 71 9.5q33 9.5 64 26.5l-11 -69q-29 -15 -61 -22.5q-32 -7.5 -67 -9.5z" />
<glyph unicode="&#232;" horiz-adv-x="579" d="M351 53q45 0 81.5 11.5q36.5 11.5 69.5 31.5l-9 -68q-27 -18 -67 -29q-40 -11 -89 -11q-53 0 -98.5 16q-45.5 16 -78.5 46q-33 30 -52 72.5q-19 42.5 -19 95.5q0 55 19 105q19 50 54 88q35 38 84 61q49 23 108 23q54 0 93.5 -18.5q39.5 -18.5 65.5 -48q26 -29.5 39 -67q13 -37.5 13 -75.5q0 -14 -1.5 -31.5q-1.5 -17.5 -3.5 -30.5l-399 0q0 -44 15 -76q15 -32 40.5 -53q25.5 -21 60 -31.5q34.5 -10.5 74.5 -10.5zt0 0zM350 430q-35 0 -65 -11q-30 -11 -54 -30.5q-24 -19.5 -40.5 -46.5q-16.5 -27 -23.5 -59l327 0q1 5 1 8q0 3 0 7q0 24 -9 48q-9 24 -27 42.5q-18 18.5 -45 30q-27 11.5 -64 11.5zt0 0zM449 576h-69l-111 134l90 0z" />
<glyph unicode="&#233;" horiz-adv-x="579" d="M351 53q45 0 81.5 11.5q36.5 11.5 69.5 31.5l-9 -68q-27 -18 -67 -29q-40 -11 -89 -11q-53 0 -98.5 16q-45.5 16 -78.5 46q-33 30 -52 72.5q-19 42.5 -19 95.5q0 55 19 105q19 50 54 88q35 38 84 61q49 23 108 23q54 0 93.5 -18.5q39.5 -18.5 65.5 -48q26 -29.5 39 -67q13 -37.5 13 -75.5q0 -14 -1.5 -31.5q-1.5 -17.5 -3.5 -30.5l-399 0q0 -44 15 -76q15 -32 40.5 -53q25.5 -21 60 -31.5q34.5 -10.5 74.5 -10.5zt0 0zM350 430q-35 0 -65 -11q-30 -11 -54 -30.5q-24 -19.5 -40.5 -46.5q-16.5 -27 -23.5 -59l327 0q1 5 1 8q0 3 0 7q0 24 -9 48q-9 24 -27 42.5q-18 18.5 -45 30q-27 11.5 -64 11.5zt0 0zM526 710l-123 -134h-70l103 134z" />
<glyph unicode="&#234;" horiz-adv-x="579" d="M351 53q45 0 81.5 11.5q36.5 11.5 69.5 31.5l-9 -68q-27 -18 -67 -29q-40 -11 -89 -11q-53 0 -98.5 16q-45.5 16 -78.5 46q-33 30 -52 72.5q-19 42.5 -19 95.5q0 55 19 105q19 50 54 88q35 38 84 61q49 23 108 23q54 0 93.5 -18.5q39.5 -18.5 65.5 -48q26 -29.5 39 -67q13 -37.5 13 -75.5q0 -14 -1.5 -31.5q-1.5 -17.5 -3.5 -30.5l-399 0q0 -44 15 -76q15 -32 40.5 -53q25.5 -21 60 -31.5q34.5 -10.5 74.5 -10.5zt0 0zM350 430q-35 0 -65 -11q-30 -11 -54 -30.5q-24 -19.5 -40.5 -46.5q-16.5 -27 -23.5 -59l327 0q1 5 1 8q0 3 0 7q0 24 -9 48q-9 24 -27 42.5q-18 18.5 -45 30q-27 11.5 -64 11.5zt0 0zM530 576h-68l-62 91l-91 -91h-73l132 134l73 0z" />
<glyph unicode="&#235;" horiz-adv-x="579" d="M351 53q45 0 81.5 11.5q36.5 11.5 69.5 31.5l-9 -68q-27 -18 -67 -29q-40 -11 -89 -11q-53 0 -98.5 16q-45.5 16 -78.5 46q-33 30 -52 72.5q-19 42.5 -19 95.5q0 55 19 105q19 50 54 88q35 38 84 61q49 23 108 23q54 0 93.5 -18.5q39.5 -18.5 65.5 -48q26 -29.5 39 -67q13 -37.5 13 -75.5q0 -14 -1.5 -31.5q-1.5 -17.5 -3.5 -30.5l-399 0q0 -44 15 -76q15 -32 40.5 -53q25.5 -21 60 -31.5q34.5 -10.5 74.5 -10.5zt0 0zM350 430q-35 0 -65 -11q-30 -11 -54 -30.5q-24 -19.5 -40.5 -46.5q-16.5 -27 -23.5 -59l327 0q1 5 1 8q0 3 0 7q0 24 -9 48q-9 24 -27 42.5q-18 18.5 -45 30q-27 11.5 -64 11.5zt0 0zM245 646q0 20 13.5 33.5q13.5 13.5 33.5 13.5q20 0 33.5 -13.5q13.5 -13.5 13.5 -33.5q0 -20 -13.5 -33.5q-13.5 -13.5 -33.5 -13.5q-20 0 -33.5 13.5q-13.5 13.5 -13.5 33.5zt0 0zM445 646q0 20 13.5 33.5q13.5 13.5 33.5 13.5q20 0 33.5 -13.5q13.5 -13.5 13.5 -33.5q0 -20 -13.5 -33.5q-13.5 -13.5 -33.5 -13.5q-20 0 -33.5 13.5t-13.5 33.5z" />
<glyph unicode="&#236;" horiz-adv-x="260" d="M259 576h-69l-111 134h90zM173 483h73l-77 -483l-73 0z" />
<glyph unicode="&#237;" horiz-adv-x="260" d="M384 710l-123 -133h-70l103 133zM173 483h73l-77 -483l-73 0z" />
<glyph unicode="&#238;" horiz-adv-x="264" d="M173 483h73l-77 -483h-73zM367 576h-68l-62 91l-91 -91h-73l132 134l73 0z" />
<glyph unicode="&#239;" horiz-adv-x="264" d="M86 646q0 20 13.5 33.5q13.5 13.5 33.5 13.5q20 0 33.5 -13.5q13.5 -13.5 13.5 -33.5q0 -20 -13.5 -33.5q-13.5 -13.5 -33.5 -13.5q-20 0 -33.5 13.5q-13.5 13.5 -13.5 33.5zt0 0zM286 646q0 20 13.5 33.5q13.5 13.5 33.5 13.5q20 0 33.5 -13.5q13.5 -13.5 13.5 -33.5q0 -20 -13.5 -33.5q-13.5 -13.5 -33.5 -13.5q-20 0 -33.5 13.5q-13.5 13.5 -13.5 33.5zt0 0zM173 483h73l-77 -483l-73 0z" />
<glyph unicode="&#240;" horiz-adv-x="601" d="M326 53q39 0 72.5 14.5q33.5 14.5 58.5 39.5q25 25 39.5 59.5q14.5 34.5 14.5 74.5q0 34 -11.5 64q-11.5 30 -33 52q-21.5 22 -51.5 34.5q-30 12.5 -67 12.5q-39 0 -72.5 -15q-33.5 -15 -59 -41q-25.5 -26 -40 -60.5q-14.5 -34.5 -14.5 -74.5q0 -35 11.5 -64.5q11.5 -29.5 32.5 -50.5q21 -21 51.5 -33q30.5 -12 68.5 -12zt0 0zM523 413q28 -47 44 -85q16 -38 16 -83q0 -52 -19 -98.5q-19 -46.5 -53.5 -82q-34.5 -35.5 -82 -56q-47.5 -20.5 -104.5 -20.5q-53 0 -96 17q-43 17 -74 47q-31 30 -48 70.5q-17 40.5 -17 87.5q0 51 19 96q19 45 52.5 79.5q33.5 34.5 79 54.5q45.5 20 99.5 20q29 0 55 -8q26 -8 47 -19l-94 150l-142 -55l-27 44l141 53l-47 75h75l33 -53l121 46l26 -44l-120 -46z" />
<glyph unicode="&#241;" horiz-adv-x="614" d="M532 0h-72l41 254q2 14 4.5 31q2.5 17 2.5 32q0 57 -33.5 83.5q-33.5 26.5 -86.5 26.5q-29 0 -56 -9q-27 -9 -50.5 -22.5q-23.5 -13.5 -43 -31q-19.5 -17.5 -31.5 -33.5l-52 -331h-72l77 483h72l-12 -70q15 15 34.5 29.5q19.5 14.5 44 26q24.5 11.5 53.5 19q29 7.5 63 7.5q37 0 68 -11q31 -11 53 -32q22 -21 34 -50.5q12 -29.5 12 -66.5q0 -20 -3 -41.5q-3 -21.5 -6 -38.5zM482 589q-20 0 -37.5 9q-17.5 9 -33 20q-15.5 11 -30 20q-14.5 9 -29.5 9q-22 0 -32.5 -16.5q-10.5 -16.5 -15.5 -36.5l-49 0q8 47 35.5 78q27.5 31 67.5 31q20 0 37.5 -9q17.5 -9 33 -19.5q15.5 -10.5 30 -19.5q14.5 -9 29.5 -9q22 0 32 15.5q10 15.5 17 36.5l49 0q-8 -46 -35.5 -77.5t-68.5 -31.5z" />
<glyph unicode="&#242;" horiz-adv-x="621" d="M358 495q56 0 101.5 -19q45.5 -19 77.5 -51q32 -32 49 -75.5q17 -43.5 17 -92.5q0 -54 -20 -103q-20 -49 -56 -86q-36 -37 -85.5 -58.5q-49.5 -21.5 -107.5 -21.5q-57 0 -102 19q-45 19 -77 51.5q-32 32.5 -49 75.5q-17 43 -17 92q0 54 20 103q20 49 56 86q36 37 85 58.5q49 21.5 108 21.5zt0 0zM334 53q41 0 77.5 16q36.5 16 63.5 43.5q27 27.5 43 65q16 37.5 16 81.5q0 37 -13 68.5q-13 31.5 -36 54q-23 22.5 -55.5 35.5q-32.5 13 -71.5 13q-41 0 -77.5 -16q-36.5 -16 -63.5 -43.5q-27 -27.5 -43 -65.5q-16 -38 -16 -81q0 -38 12.5 -69q12.5 -31 36 -54q23.5 -23 56 -35.5q32.5 -12.5 71.5 -12.5zt0 0zM463 576h-69l-111 134l90 0z" />
<glyph unicode="&#243;" horiz-adv-x="621" d="M358 495q56 0 101.5 -19q45.5 -19 77.5 -51q32 -32 49 -75.5q17 -43.5 17 -92.5q0 -54 -20 -103q-20 -49 -56 -86q-36 -37 -85.5 -58.5q-49.5 -21.5 -107.5 -21.5q-57 0 -102 19q-45 19 -77 51.5q-32 32.5 -49 75.5q-17 43 -17 92q0 54 20 103q20 49 56 86q36 37 85 58.5q49 21.5 108 21.5zt0 0zM334 53q41 0 77.5 16q36.5 16 63.5 43.5q27 27.5 43 65q16 37.5 16 81.5q0 37 -13 68.5q-13 31.5 -36 54q-23 22.5 -55.5 35.5q-32.5 13 -71.5 13q-41 0 -77.5 -16q-36.5 -16 -63.5 -43.5q-27 -27.5 -43 -65.5q-16 -38 -16 -81q0 -38 12.5 -69q12.5 -31 36 -54q23.5 -23 56 -35.5q32.5 -12.5 71.5 -12.5zt0 0zM532 710l-123 -134h-70l103 134z" />
<glyph unicode="&#244;" horiz-adv-x="621" d="M358 495q56 0 101.5 -19q45.5 -19 77.5 -51q32 -32 49 -75.5q17 -43.5 17 -92.5q0 -54 -20 -103q-20 -49 -56 -86q-36 -37 -85.5 -58.5q-49.5 -21.5 -107.5 -21.5q-57 0 -102 19q-45 19 -77 51.5q-32 32.5 -49 75.5q-17 43 -17 92q0 54 20 103q20 49 56 86q36 37 85 58.5q49 21.5 108 21.5zt0 0zM334 53q41 0 77.5 16q36.5 16 63.5 43.5q27 27.5 43 65q16 37.5 16 81.5q0 37 -13 68.5q-13 31.5 -36 54q-23 22.5 -55.5 35.5q-32.5 13 -71.5 13q-41 0 -77.5 -16q-36.5 -16 -63.5 -43.5q-27 -27.5 -43 -65.5q-16 -38 -16 -81q0 -38 12.5 -69q12.5 -31 36 -54q23.5 -23 56 -35.5q32.5 -12.5 71.5 -12.5zt0 0zM540 576h-68l-62 91l-91 -91h-73l132 134l73 0z" />
<glyph unicode="&#245;" horiz-adv-x="621" d="M358 495q56 0 101.5 -19q45.5 -19 77.5 -51q32 -32 49 -75.5q17 -43.5 17 -92.5q0 -54 -20 -103q-20 -49 -56 -86q-36 -37 -85.5 -58.5q-49.5 -21.5 -107.5 -21.5q-57 0 -102 19q-45 19 -77 51.5q-32 32.5 -49 75.5q-17 43 -17 92q0 54 20 103q20 49 56 86q36 37 85 58.5q49 21.5 108 21.5zt0 0zM334 53q41 0 77.5 16q36.5 16 63.5 43.5q27 27.5 43 65q16 37.5 16 81.5q0 37 -13 68.5q-13 31.5 -36 54q-23 22.5 -55.5 35.5q-32.5 13 -71.5 13q-41 0 -77.5 -16q-36.5 -16 -63.5 -43.5q-27 -27.5 -43 -65.5q-16 -38 -16 -81q0 -38 12.5 -69q12.5 -31 36 -54q23.5 -23 56 -35.5q32.5 -12.5 71.5 -12.5zt0 0zM473 589q-20 0 -37.5 9q-17.5 9 -33 20q-15.5 11 -30 20q-14.5 9 -29.5 9q-22 0 -32.5 -16.5q-10.5 -16.5 -15.5 -36.5l-49 0q8 47 35.5 78q27.5 31 67.5 31q20 0 37.5 -9q17.5 -9 33 -19.5q15.5 -10.5 30 -19.5q14.5 -9 29.5 -9q22 0 32 15.5q10 15.5 17 36.5l49 0q-8 -46 -35.5 -77.5t-68.5 -31.5z" />
<glyph unicode="&#246;" horiz-adv-x="621" d="M358 495q56 0 101.5 -19q45.5 -19 77.5 -51q32 -32 49 -75.5q17 -43.5 17 -92.5q0 -54 -20 -103q-20 -49 -56 -86q-36 -37 -85.5 -58.5q-49.5 -21.5 -107.5 -21.5q-57 0 -102 19q-45 19 -77 51.5q-32 32.5 -49 75.5q-17 43 -17 92q0 54 20 103q20 49 56 86q36 37 85 58.5q49 21.5 108 21.5zt0 0zM334 53q41 0 77.5 16q36.5 16 63.5 43.5q27 27.5 43 65q16 37.5 16 81.5q0 37 -13 68.5q-13 31.5 -36 54q-23 22.5 -55.5 35.5q-32.5 13 -71.5 13q-41 0 -77.5 -16q-36.5 -16 -63.5 -43.5q-27 -27.5 -43 -65.5q-16 -38 -16 -81q0 -38 12.5 -69q12.5 -31 36 -54q23.5 -23 56 -35.5q32.5 -12.5 71.5 -12.5zt0 0zM258 646q0 20 13.5 33.5q13.5 13.5 33.5 13.5q20 0 33.5 -13.5q13.5 -13.5 13.5 -33.5q0 -20 -13.5 -33.5q-13.5 -13.5 -33.5 -13.5q-20 0 -33.5 13.5q-13.5 13.5 -13.5 33.5zt0 0zM458 646q0 20 13.5 33.5q13.5 13.5 33.5 13.5q20 0 33.5 -13.5q13.5 -13.5 13.5 -33.5q0 -20 -13.5 -33.5q-13.5 -13.5 -33.5 -13.5q-20 0 -33.5 13.5t-13.5 33.5z" />
<glyph unicode="&#247;" horiz-adv-x="582" d="M245 122q0 23 15 38.5q15 15.5 38 15.5q23 0 38 -15.5q15 -15.5 15 -38.5q0 -23 -15 -38q-15 -15 -38 -15q-23 0 -38 15q-15 15 -15 38zt0 0zM319 529q0 23 15 38.5q15 15.5 38 15.5q23 0 38.5 -15.5q15.5 -15.5 15.5 -38.5q0 -23 -15.5 -38.5q-15.5 -15.5 -38.5 -15.5q-23 0 -38 15.5q-15 15.5 -15 38.5zt0 0zM116 359h455l-10 -67l-455 0z" />
<glyph unicode="&#248;" horiz-adv-x="621" d="M358 495q48 0 87.5 -13.5q39.5 -13.5 70.5 -37.5l39 39h70l-74 -74q25 -32 38.5 -70q13.5 -38 13.5 -82q0 -54 -20 -103q-20 -49 -56 -86q-36 -37 -85.5 -58.5q-49.5 -21.5 -107.5 -21.5q-47 0 -86 13q-39 13 -69 36l-37 -37h-71l71 71q-26 32 -39.5 71q-13.5 39 -13.5 84q0 54 20 103q20 49 56 86q36 37 85 58.5q49 21.5 108 21.5zt0 0zM158 224q0 -62 32 -105l278 277q-23 16 -50.5 25q-27.5 9 -59.5 9q-41 0 -77.5 -16q-36.5 -16 -63.5 -43.5q-27 -27.5 -43 -65.5q-16 -38 -16 -81zt0 0zM334 53q41 0 77.5 16q36.5 16 63.5 43.5q27 27.5 43 65q16 37.5 16 81.5q0 59 -31 102l-277 -277q45 -31 108 -31z" />
<glyph unicode="&#249;" horiz-adv-x="610" d="M155 483h72l-41 -254q-2 -14 -4.5 -31q-2.5 -17 -2.5 -32q0 -57 33.5 -83.5q33.5 -26.5 86.5 -26.5q28 0 55.5 9q27.5 9 51 22.5q23.5 13.5 43 30.5q19.5 17 31.5 34l52 331h72l-77 -483h-72l12 70q-15 -15 -34.5 -29.5q-19.5 -14.5 -44 -26q-24.5 -11.5 -53.5 -19q-29 -7.5 -63 -7.5q-38 0 -68.5 11q-30.5 11 -52.5 32q-22 21 -34 50.5q-12 29.5 -12 66.5q0 20 3 41.5q3 21.5 6 38.5zM460 576h-69l-111 134l90 0z" />
<glyph unicode="&#250;" horiz-adv-x="610" d="M155 483h72l-41 -254q-2 -14 -4.5 -31q-2.5 -17 -2.5 -32q0 -57 33.5 -83.5q33.5 -26.5 86.5 -26.5q28 0 55.5 9q27.5 9 51 22.5q23.5 13.5 43 30.5q19.5 17 31.5 34l52 331h72l-77 -483h-72l12 70q-15 -15 -34.5 -29.5q-19.5 -14.5 -44 -26q-24.5 -11.5 -53.5 -19q-29 -7.5 -63 -7.5q-38 0 -68.5 11q-30.5 11 -52.5 32q-22 21 -34 50.5q-12 29.5 -12 66.5q0 20 3 41.5q3 21.5 6 38.5zM533 710l-123 -134h-70l103 134z" />
<glyph unicode="&#251;" horiz-adv-x="610" d="M155 483h72l-41 -254q-2 -14 -4.5 -31q-2.5 -17 -2.5 -32q0 -57 33.5 -83.5q33.5 -26.5 86.5 -26.5q28 0 55.5 9q27.5 9 51 22.5q23.5 13.5 43 30.5q19.5 17 31.5 34l52 331h72l-77 -483h-72l12 70q-15 -15 -34.5 -29.5q-19.5 -14.5 -44 -26q-24.5 -11.5 -53.5 -19q-29 -7.5 -63 -7.5q-38 0 -68.5 11q-30.5 11 -52.5 32q-22 21 -34 50.5q-12 29.5 -12 66.5q0 20 3 41.5q3 21.5 6 38.5zM538 576h-68l-62 91l-91 -91h-73l132 134l73 0z" />
<glyph unicode="&#252;" horiz-adv-x="610" d="M155 483h72l-41 -254q-2 -14 -4.5 -31q-2.5 -17 -2.5 -32q0 -57 33.5 -83.5q33.5 -26.5 86.5 -26.5q28 0 55.5 9q27.5 9 51 22.5q23.5 13.5 43 30.5q19.5 17 31.5 34l52 331h72l-77 -483h-72l12 70q-15 -15 -34.5 -29.5q-19.5 -14.5 -44 -26q-24.5 -11.5 -53.5 -19q-29 -7.5 -63 -7.5q-38 0 -68.5 11q-30.5 11 -52.5 32q-22 21 -34 50.5q-12 29.5 -12 66.5q0 20 3 41.5q3 21.5 6 38.5zM252 646q0 20 13.5 33.5q13.5 13.5 33.5 13.5q20 0 33.5 -13.5q13.5 -13.5 13.5 -33.5q0 -20 -13.5 -33.5q-13.5 -13.5 -33.5 -13.5q-20 0 -33.5 13.5q-13.5 13.5 -13.5 33.5zt0 0zM452 646q0 20 13.5 33.5q13.5 13.5 33.5 13.5q20 0 33.5 -13.5q13.5 -13.5 13.5 -33.5q0 -20 -13.5 -33.5q-13.5 -13.5 -33.5 -13.5q-20 0 -33.5 13.5t-13.5 33.5z" />
<glyph unicode="&#253;" horiz-adv-x="555" d="M281 -60q-42 -72 -88 -108q-46 -36 -109 -36q-22 0 -41 5q-19 5 -32 12l11 65q13 -8 28.5 -12.5q15.5 -4.5 33.5 -4.5q50 0 87.5 41q37.5 41 81.5 117l-153 464h75l123 -383l217 383h80zM515 710l-123 -134h-70l103 134z" />
<glyph unicode="&#254;" horiz-adv-x="642" d="M406 495q51 0 91.5 -18.5q40.5 -18.5 68.5 -49.5q28 -31 43 -72.5q15 -41.5 15 -87.5q0 -56 -19 -107q-19 -51 -53.5 -89q-34.5 -38 -83.5 -60.5q-49 -22.5 -108 -22.5q-36 0 -66 9q-30 9 -54 23q-24 14 -42 31q-18 17 -30 34l-46 -285h-72l143 900h73l-47 -285q32 35 79.5 57.5q47.5 22.5 107.5 22.5zt0 0zM351 53q41 0 77 15.5q36 15.5 63 43.5q27 28 43 66q16 38 16 82q0 37 -12 68q-12 31 -33.5 53.5q-21.5 22.5 -52.5 35.5q-31 13 -69 13q-26 0 -52 -7.5q-26 -7.5 -49.5 -21q-23.5 -13.5 -43.5 -31.5q-20 -18 -32 -39l-27 -174q8 -18 24.5 -36.5q16.5 -18.5 39 -33.5q22.5 -15 50 -24.5t58.5 -9.5z" />
<glyph unicode="&#255;" horiz-adv-x="555" d="M281 -60q-42 -72 -88 -108q-46 -36 -109 -36q-22 0 -41 5q-19 5 -32 12l11 65q13 -8 28.5 -12.5q15.5 -4.5 33.5 -4.5q50 0 87.5 41q37.5 41 81.5 117l-153 464h75l123 -383l217 383h80zM215 646q0 20 13.5 33.5q13.5 13.5 33.5 13.5q20 0 33.5 -13.5q13.5 -13.5 13.5 -33.5q0 -20 -13.5 -33.5q-13.5 -13.5 -33.5 -13.5q-20 0 -33.5 13.5q-13.5 13.5 -13.5 33.5zt0 0zM415 646q0 20 13.5 33.5q13.5 13.5 33.5 13.5q20 0 33.5 -13.5q13.5 -13.5 13.5 -33.5q0 -20 -13.5 -33.5q-13.5 -13.5 -33.5 -13.5q-20 0 -33.5 13.5t-13.5 33.5z" />
<glyph unicode="&#256;" horiz-adv-x="753" d="M593 193h-368l-115 -193h-80l423 704h69l202 -704h-76zM264 258h311l-99 353zM382 857h262l-8 -55l-262 0z" />
<glyph unicode="&#257;" horiz-adv-x="596" d="M549 57q6 0 13.5 1.5q7.5 1.5 13.5 4.5l-9 -58q-22 -10 -46 -10q-31 0 -57 16q-26 16 -28 56q-31 -31 -79 -55q-48 -24 -114 -24q-39 0 -71.5 11q-32.5 11 -56 31q-23.5 20 -36.5 47.5q-13 27.5 -13 61.5q0 44 17.5 76q17.5 32 47 52.5q29.5 20.5 66.5 30.5q37 10 76 10q66 0 111.5 -17q45.5 -17 74.5 -34q5 29 7 45.5q2 16.5 2 27.5q0 56 -37 78q-37 22 -102 22q-54 0 -97.5 -12q-43.5 -12 -72.5 -27l12 68q26 14 69 25q43 11 104 11q37 0 72.5 -8q35.5 -8 63 -26.5q27.5 -18.5 44.5 -48q17 -29.5 17 -71.5q0 -17 -3 -38.5q-3 -21.5 -6 -38.5l-20 -125q-2 -11 -3 -21.5q-1 -10.5 -1 -18.5q0 -20 10 -31q10 -11 31 -11zt0 0zM267 53q28 0 54 7.5q26 7.5 48.5 19.5q22.5 12 40 26q17.5 14 29.5 28l10 65q-35 25 -78.5 37.5q-43.5 12.5 -86.5 12.5q-29 0 -55.5 -6q-26.5 -6 -47 -19q-20.5 -13 -32.5 -32q-12 -19 -12 -46q0 -47 37 -70q37 -23 93 -23zt0 0zM271 673h262l-8 -55l-262 0z" />
<glyph unicode="&#258;" horiz-adv-x="753" d="M593 193h-368l-115 -193h-80l423 704h69l202 -704h-76zM264 258h311l-99 353zM653 896q-10 -60 -51 -97.5q-41 -37.5 -99 -37.5q-27 0 -49.5 8.5q-22.5 8.5 -39 23.5q-16.5 15 -26 36q-9.5 21 -9.5 47q0 5 0 10q0 5 1 10l51 0q-1 -3 -1 -6.5q0 -3.5 0 -5.5q0 -33 19.5 -54.5q19.5 -21.5 56.5 -21.5q38 0 63.5 25.5q25.5 25.5 32.5 62.5z" />
<glyph unicode="&#259;" horiz-adv-x="596" d="M549 57q6 0 13.5 1.5q7.5 1.5 13.5 4.5l-9 -58q-22 -10 -46 -10q-31 0 -57 16q-26 16 -28 56q-31 -31 -79 -55q-48 -24 -114 -24q-39 0 -71.5 11q-32.5 11 -56 31q-23.5 20 -36.5 47.5q-13 27.5 -13 61.5q0 44 17.5 76q17.5 32 47 52.5q29.5 20.5 66.5 30.5q37 10 76 10q66 0 111.5 -17q45.5 -17 74.5 -34q5 29 7 45.5q2 16.5 2 27.5q0 56 -37 78q-37 22 -102 22q-54 0 -97.5 -12q-43.5 -12 -72.5 -27l12 68q26 14 69 25q43 11 104 11q37 0 72.5 -8q35.5 -8 63 -26.5q27.5 -18.5 44.5 -48q17 -29.5 17 -71.5q0 -17 -3 -38.5q-3 -21.5 -6 -38.5l-20 -125q-2 -11 -3 -21.5q-1 -10.5 -1 -18.5q0 -20 10 -31q10 -11 31 -11zt0 0zM267 53q28 0 54 7.5q26 7.5 48.5 19.5q22.5 12 40 26q17.5 14 29.5 28l10 65q-35 25 -78.5 37.5q-43.5 12.5 -86.5 12.5q-29 0 -55.5 -6q-26.5 -6 -47 -19q-20.5 -13 -32.5 -32q-12 -19 -12 -46q0 -47 37 -70q37 -23 93 -23zt0 0zM540 710q-10 -61 -51.5 -99.5q-41.5 -38.5 -101.5 -38.5q-56 0 -92 32.5q-36 32.5 -36 86.5q0 5 0 9.5q0 4.5 1 9.5l54 0q-1 -6 -1 -9.5q0 -3.5 0 -6.5q0 -32 19.5 -51.5q19.5 -19.5 56.5 -19.5q40 0 64.5 25q24.5 25 31.5 62z" />
<glyph unicode="&#260;" horiz-adv-x="753" d="M724 0q-17 -16 -34 -40.5q-17 -24.5 -17 -53.5q0 -26 16 -40q16 -14 45 -14q20 0 40 6l-7 -46q-8 -2 -21 -4.5q-13 -2.5 -31 -2.5q-48 0 -73 25q-25 25 -25 60q0 32 16 60q16 28 40 50l-25 0l-55 193h-368l-115 -193h-80l423 704h69zM264 258h311l-99 353z" />
<glyph unicode="&#261;" horiz-adv-x="596" d="M549 57q6 0 13.5 1.5q7.5 1.5 13.5 4.5l-9 -58q-17 -16 -34 -40.5q-17 -24.5 -17 -53.5q0 -26 16 -40q16 -14 45 -14q20 0 40 6l-7 -46q-8 -2 -21 -4.5q-13 -2.5 -31 -2.5q-48 0 -73 25q-25 25 -25 60q0 29 13 55q13 26 33 46q-27 3 -47.5 19.5q-20.5 16.5 -22.5 51.5q-31 -31 -79 -55q-48 -24 -114 -24q-39 0 -71.5 11q-32.5 11 -56 31q-23.5 20 -36.5 47.5q-13 27.5 -13 61.5q0 44 17.5 76q17.5 32 47 52.5q29.5 20.5 66.5 30.5q37 10 76 10q66 0 111.5 -17q45.5 -17 74.5 -34q5 29 7 45.5q2 16.5 2 27.5q0 56 -37 78q-37 22 -102 22q-54 0 -97.5 -12q-43.5 -12 -72.5 -27l12 68q26 14 69 25q43 11 104 11q37 0 72.5 -8q35.5 -8 63 -26.5q27.5 -18.5 44.5 -48q17 -29.5 17 -71.5q0 -17 -3 -38.5q-3 -21.5 -6 -38.5l-20 -125q-2 -11 -3 -21.5q-1 -10.5 -1 -18.5q0 -20 10 -31q10 -11 31 -11zt0 0zM267 53q28 0 54 7.5q26 7.5 48.5 19.5q22.5 12 40 26q17.5 14 29.5 28l10 65q-35 25 -78.5 37.5q-43.5 12.5 -86.5 12.5q-29 0 -55.5 -6q-26.5 -6 -47 -19q-20.5 -13 -32.5 -32q-12 -19 -12 -46q0 -47 37 -70t93 -23z" />
<glyph unicode="&#262;" horiz-adv-x="690" d="M198 322q0 -56 19 -104.5q19 -48.5 53.5 -84q34.5 -35.5 83.5 -56q49 -20.5 109 -20.5q57 0 109.5 16.5q52.5 16.5 97.5 48.5l-11 -78q-88 -56 -202 -56q-76 0 -137.5 25q-61.5 25 -105 69.5q-43.5 44.5 -67.5 104.5q-24 60 -24 131q0 81 28 152.5q28 71.5 78 125.5q50 54 120.5 85q70.5 31 156.5 31q66 0 118.5 -16q52.5 -16 92.5 -42l-12 -71q-39 27 -88 43.5q-49 16.5 -112 16.5q-65 0 -121.5 -24.5q-56.5 -24.5 -97.5 -67.5q-41 -43 -64.5 -101.5q-23.5 -58.5 -23.5 -127.5zt0 0zM681 896l-124 -133h-69l102 133z" />
<glyph unicode="&#263;" horiz-adv-x="523" d="M334 -12q-57 0 -102 18q-45 18 -77 49.5q-32 31.5 -49 74q-17 42.5 -17 90.5q0 59 21.5 109.5q21.5 50.5 59.5 87q38 36.5 89 57.5q51 21 110 21q52 0 91 -11.5q39 -11.5 68 -30.5l-11 -66q-29 20 -63 31.5q-34 11.5 -78 11.5q-46 0 -85 -15.5q-39 -15.5 -67.5 -43.5q-28.5 -28 -44.5 -65.5q-16 -37.5 -16 -81.5q0 -38 13.5 -69.5q13.5 -31.5 38.5 -54q25 -22.5 59 -35q34 -12.5 75 -12.5q38 0 71 9.5q33 9.5 64 26.5l-11 -69q-32 -17 -66.5 -24.5q-34.5 -7.5 -72.5 -7.5zt0 0zM534 710l-123 -134h-70l103 134z" />
<glyph unicode="&#264;" horiz-adv-x="690" d="M198 322q0 -56 19 -104.5q19 -48.5 53.5 -84q34.5 -35.5 83.5 -56q49 -20.5 109 -20.5q57 0 109.5 16.5q52.5 16.5 97.5 48.5l-11 -78q-88 -56 -202 -56q-76 0 -137.5 25q-61.5 25 -105 69.5q-43.5 44.5 -67.5 104.5q-24 60 -24 131q0 81 28 152.5q28 71.5 78 125.5q50 54 120.5 85q70.5 31 156.5 31q66 0 118.5 -16q52.5 -16 92.5 -42l-12 -71q-39 27 -88 43.5q-49 16.5 -112 16.5q-65 0 -121.5 -24.5q-56.5 -24.5 -97.5 -67.5q-41 -43 -64.5 -101.5q-23.5 -58.5 -23.5 -127.5zt0 0zM670 763h-68l-61 91l-91 -91h-74l133 133l72 0z" />
<glyph unicode="&#265;" horiz-adv-x="523" d="M334 -12q-57 0 -102 18q-45 18 -77 49.5q-32 31.5 -49 74q-17 42.5 -17 90.5q0 59 21.5 109.5q21.5 50.5 59.5 87q38 36.5 89 57.5q51 21 110 21q52 0 91 -11.5q39 -11.5 68 -30.5l-11 -66q-29 20 -63 31.5q-34 11.5 -78 11.5q-46 0 -85 -15.5q-39 -15.5 -67.5 -43.5q-28.5 -28 -44.5 -65.5q-16 -37.5 -16 -81.5q0 -38 13.5 -69.5q13.5 -31.5 38.5 -54q25 -22.5 59 -35q34 -12.5 75 -12.5q38 0 71 9.5q33 9.5 64 26.5l-11 -69q-32 -17 -66.5 -24.5q-34.5 -7.5 -72.5 -7.5zt0 0zM522 576h-68l-62 91l-91 -91h-73l132 134l73 0z" />
<glyph unicode="&#266;" horiz-adv-x="690" d="M198 322q0 -56 19 -104.5q19 -48.5 53.5 -84q34.5 -35.5 83.5 -56q49 -20.5 109 -20.5q57 0 109.5 16.5q52.5 16.5 97.5 48.5l-11 -78q-88 -56 -202 -56q-76 0 -137.5 25q-61.5 25 -105 69.5q-43.5 44.5 -67.5 104.5q-24 60 -24 131q0 81 28 152.5q28 71.5 78 125.5q50 54 120.5 85q70.5 31 156.5 31q66 0 118.5 -16q52.5 -16 92.5 -42l-12 -71q-39 27 -88 43.5q-49 16.5 -112 16.5q-65 0 -121.5 -24.5q-56.5 -24.5 -97.5 -67.5q-41 -43 -64.5 -101.5q-23.5 -58.5 -23.5 -127.5zt0 0zM494 828q0 20 13.5 33.5q13.5 13.5 33.5 13.5q20 0 33.5 -13.5q13.5 -13.5 13.5 -33.5q0 -20 -13.5 -33.5q-13.5 -13.5 -33.5 -13.5q-20 0 -33.5 13.5t-13.5 33.5z" />
<glyph unicode="&#267;" horiz-adv-x="520" d="M334 -12q-57 0 -102 18q-45 18 -77 49.5q-32 31.5 -49 74q-17 42.5 -17 90.5q0 59 21.5 109.5q21.5 50.5 59.5 87q38 36.5 89 57.5q51 21 110 21q52 0 91 -11.5q39 -11.5 68 -30.5l-11 -66q-29 20 -63 31.5q-34 11.5 -78 11.5q-46 0 -85 -15.5q-39 -15.5 -67.5 -43.5q-28.5 -28 -44.5 -65.5q-16 -37.5 -16 -81.5q0 -38 13.5 -69.5q13.5 -31.5 38.5 -54q25 -22.5 59 -35q34 -12.5 75 -12.5q38 0 71 9.5q33 9.5 64 26.5l-11 -69q-32 -17 -66.5 -24.5q-34.5 -7.5 -72.5 -7.5zt0 0zM357 646q0 20 13.5 33.5q13.5 13.5 33.5 13.5q20 0 33.5 -13.5q13.5 -13.5 13.5 -33.5q0 -20 -13.5 -33.5q-13.5 -13.5 -33.5 -13.5q-20 0 -33.5 13.5t-13.5 33.5z" />
<glyph unicode="&#268;" horiz-adv-x="690" d="M198 322q0 -56 19 -104.5q19 -48.5 53.5 -84q34.5 -35.5 83.5 -56q49 -20.5 109 -20.5q57 0 109.5 16.5q52.5 16.5 97.5 48.5l-11 -78q-88 -56 -202 -56q-76 0 -137.5 25q-61.5 25 -105 69.5q-43.5 44.5 -67.5 104.5q-24 60 -24 131q0 81 28 152.5q28 71.5 78 125.5q50 54 120.5 85q70.5 31 156.5 31q66 0 118.5 -16q52.5 -16 92.5 -42l-12 -71q-39 27 -88 43.5q-49 16.5 -112 16.5q-65 0 -121.5 -24.5q-56.5 -24.5 -97.5 -67.5q-41 -43 -64.5 -101.5q-23.5 -58.5 -23.5 -127.5zt0 0zM406 896h68l61 -90l92 90h73l-133 -133l-72 0z" />
<glyph unicode="&#269;" horiz-adv-x="523" d="M334 -12q-57 0 -102 18q-45 18 -77 49.5q-32 31.5 -49 74q-17 42.5 -17 90.5q0 59 21.5 109.5q21.5 50.5 59.5 87q38 36.5 89 57.5q51 21 110 21q52 0 91 -11.5q39 -11.5 68 -30.5l-11 -66q-29 20 -63 31.5q-34 11.5 -78 11.5q-46 0 -85 -15.5q-39 -15.5 -67.5 -43.5q-28.5 -28 -44.5 -65.5q-16 -37.5 -16 -81.5q0 -38 13.5 -69.5q13.5 -31.5 38.5 -54q25 -22.5 59 -35q34 -12.5 75 -12.5q38 0 71 9.5q33 9.5 64 26.5l-11 -69q-32 -17 -66.5 -24.5q-34.5 -7.5 -72.5 -7.5zt0 0zM259 710h68l62 -91l91 91h73l-132 -134l-73 0z" />
<glyph unicode="&#270;" horiz-adv-x="780" d="M418 700q79 0 143 -23q64 -23 109 -64q45 -41 69.5 -99q24.5 -58 24.5 -128q0 -92 -33.5 -164q-33.5 -72 -93.5 -121.5q-60 -49.5 -142.5 -75q-82.5 -25.5 -179.5 -25.5h-216l111 700zM351 67q73 0 135 22.5q62 22.5 107 63.5q45 41 70 100q25 59 25 132q0 55 -18.5 100.5q-18.5 45.5 -54 78.5q-35.5 33 -87 51q-51.5 18 -117.5 18h-138l-89 -566zM336 896h68l61 -90l92 90h73l-133 -133l-72 0z" />
<glyph unicode="&#271;" horiz-adv-x="759" d="M307 -12q-51 0 -91.5 18q-40.5 18 -68.5 49.5q-28 31.5 -43 72.5q-15 41 -15 88q0 56 19 106.5q19 50.5 53.5 89q34.5 38.5 83.5 61q49 22.5 108 22.5q36 0 65.5 -8.5q29.5 -8.5 53.5 -22q24 -13.5 42 -31q18 -17.5 30 -34.5l49 301h72l-110 -700h-73l11 69q-31 -35 -78.5 -58q-47.5 -23 -107.5 -23zt0 0zM362 430q-41 0 -77.5 -16q-36.5 -16 -63.5 -43.5q-27 -27.5 -42.5 -65.5q-15.5 -38 -15.5 -82q0 -37 11.5 -68q11.5 -31 33.5 -53.5q22 -22.5 52.5 -35.5q30.5 -13 68.5 -13q26 0 52.5 8q26.5 8 50 21.5q23.5 13.5 43 32q19.5 18.5 31.5 39.5l27 174q-8 18 -24 36.5q-16 18.5 -38.5 33q-22.5 14.5 -50 23.5q-27.5 9 -58.5 9zt0 0zM720 523l72 177h65l-80 -177z" />
<glyph unicode="&#272;" horiz-adv-x="810" d="M448 700q79 0 143 -23q64 -23 109 -64q45 -41 69.5 -99q24.5 -58 24.5 -128q0 -92 -33.5 -164q-33.5 -72 -93.5 -121.5q-60 -49.5 -142.5 -75q-82.5 -25.5 -179.5 -25.5h-216l51 325h-109l10 65h110l49 310zM381 67q73 0 135 22.5q62 22.5 107 63.5q45 41 70 100q25 59 25 132q0 55 -18.5 100.5q-18.5 45.5 -54 78.5q-35.5 33 -87 51q-51.5 18 -117.5 18h-138l-39 -243h164l-10 -65h-164l-40 -258z" />
<glyph unicode="&#273;" horiz-adv-x="637" d="M437 620h143l13 80h72l-13 -80h108l-10 -63h-108l-87 -557h-73l11 69q-31 -35 -78.5 -58q-47.5 -23 -107.5 -23q-51 0 -91.5 18q-40.5 18 -68.5 49.5q-28 31.5 -43 72.5q-15 41 -15 88q0 56 19 106.5q19 50.5 53.5 89q34.5 38.5 83.5 61q49 22.5 108 22.5q36 0 65.5 -8.5q29.5 -8.5 53.5 -22q24 -13.5 42 -31q18 -17.5 30 -34.5l25 158h-142zM362 430q-41 0 -77.5 -16q-36.5 -16 -63.5 -43.5q-27 -27.5 -42.5 -65.5q-15.5 -38 -15.5 -82q0 -37 11.5 -68q11.5 -31 33.5 -53.5q22 -22.5 52.5 -35.5q30.5 -13 68.5 -13q26 0 52.5 8q26.5 8 50 21.5q23.5 13.5 43 32q19.5 18.5 31.5 39.5l27 174q-8 18 -24 36.5q-16 18.5 -38.5 33q-22.5 14.5 -50 23.5t-58.5 9z" />
<glyph unicode="&#274;" horiz-adv-x="645" d="M210 700h480l-11 -67h-406l-35 -224h333l-11 -67h-333l-43 -275h421l-11 -67h-495zM344 857h262l-8 -55l-262 0z" />
<glyph unicode="&#275;" horiz-adv-x="579" d="M351 53q45 0 81.5 11.5q36.5 11.5 69.5 31.5l-9 -68q-27 -18 -67 -29q-40 -11 -89 -11q-53 0 -98.5 16q-45.5 16 -78.5 46q-33 30 -52 72.5q-19 42.5 -19 95.5q0 55 19 105q19 50 54 88q35 38 84 61q49 23 108 23q54 0 93.5 -18.5q39.5 -18.5 65.5 -48q26 -29.5 39 -67q13 -37.5 13 -75.5q0 -14 -1.5 -31.5q-1.5 -17.5 -3.5 -30.5l-399 0q0 -44 15 -76q15 -32 40.5 -53q25.5 -21 60 -31.5q34.5 -10.5 74.5 -10.5zt0 0zM350 430q-35 0 -65 -11q-30 -11 -54 -30.5q-24 -19.5 -40.5 -46.5q-16.5 -27 -23.5 -59l327 0q1 5 1 8q0 3 0 7q0 24 -9 48q-9 24 -27 42.5q-18 18.5 -45 30q-27 11.5 -64 11.5zt0 0zM272 673h262l-8 -55l-262 0z" />
<glyph unicode="&#276;" horiz-adv-x="645" d="M210 700h480l-11 -67h-406l-35 -224h333l-11 -67h-333l-43 -275h421l-11 -67h-495zM608 896q-10 -60 -51 -97.5q-41 -37.5 -99 -37.5q-27 0 -49.5 8.5q-22.5 8.5 -39 23.5q-16.5 15 -26 36q-9.5 21 -9.5 47q0 5 0 10q0 5 1 10l51 0q-1 -3 -1 -6.5q0 -3.5 0 -5.5q0 -33 19.5 -54.5q19.5 -21.5 56.5 -21.5q38 0 63.5 25.5q25.5 25.5 32.5 62.5z" />
<glyph unicode="&#277;" horiz-adv-x="579" d="M351 53q45 0 81.5 11.5q36.5 11.5 69.5 31.5l-9 -68q-27 -18 -67 -29q-40 -11 -89 -11q-53 0 -98.5 16q-45.5 16 -78.5 46q-33 30 -52 72.5q-19 42.5 -19 95.5q0 55 19 105q19 50 54 88q35 38 84 61q49 23 108 23q54 0 93.5 -18.5q39.5 -18.5 65.5 -48q26 -29.5 39 -67q13 -37.5 13 -75.5q0 -14 -1.5 -31.5q-1.5 -17.5 -3.5 -30.5l-399 0q0 -44 15 -76q15 -32 40.5 -53q25.5 -21 60 -31.5q34.5 -10.5 74.5 -10.5zt0 0zM350 430q-35 0 -65 -11q-30 -11 -54 -30.5q-24 -19.5 -40.5 -46.5q-16.5 -27 -23.5 -59l327 0q1 5 1 8q0 3 0 7q0 24 -9 48q-9 24 -27 42.5q-18 18.5 -45 30q-27 11.5 -64 11.5zt0 0zM537 710q-10 -61 -51.5 -99.5q-41.5 -38.5 -101.5 -38.5q-56 0 -92 32.5q-36 32.5 -36 86.5q0 5 0 9.5q0 4.5 1 9.5l54 0q-1 -6 -1 -9.5q0 -3.5 0 -6.5q0 -32 19.5 -51.5q19.5 -19.5 56.5 -19.5q40 0 64.5 25q24.5 25 31.5 62z" />
<glyph unicode="&#278;" horiz-adv-x="645" d="M210 700h480l-11 -67h-406l-35 -224h333l-11 -67h-333l-43 -275h421l-11 -67h-495zM420 828q0 20 13.5 33.5q13.5 13.5 33.5 13.5q20 0 33.5 -13.5q13.5 -13.5 13.5 -33.5q0 -20 -13.5 -33.5q-13.5 -13.5 -33.5 -13.5q-20 0 -33.5 13.5t-13.5 33.5z" />
<glyph unicode="&#279;" horiz-adv-x="579" d="M351 53q45 0 81.5 11.5q36.5 11.5 69.5 31.5l-9 -68q-27 -18 -67 -29q-40 -11 -89 -11q-53 0 -98.5 16q-45.5 16 -78.5 46q-33 30 -52 72.5q-19 42.5 -19 95.5q0 55 19 105q19 50 54 88q35 38 84 61q49 23 108 23q54 0 93.5 -18.5q39.5 -18.5 65.5 -48q26 -29.5 39 -67q13 -37.5 13 -75.5q0 -14 -1.5 -31.5q-1.5 -17.5 -3.5 -30.5l-399 0q0 -44 15 -76q15 -32 40.5 -53q25.5 -21 60 -31.5q34.5 -10.5 74.5 -10.5zt0 0zM350 430q-35 0 -65 -11q-30 -11 -54 -30.5q-24 -19.5 -40.5 -46.5q-16.5 -27 -23.5 -59l327 0q1 5 1 8q0 3 0 7q0 24 -9 48q-9 24 -27 42.5q-18 18.5 -45 30q-27 11.5 -64 11.5zt0 0zM350 646q0 20 13.5 33.5q13.5 13.5 33.5 13.5q20 0 33.5 -13.5q13.5 -13.5 13.5 -33.5q0 -20 -13.5 -33.5q-13.5 -13.5 -33.5 -13.5q-20 0 -33.5 13.5t-13.5 33.5z" />
<glyph unicode="&#280;" horiz-adv-x="645" d="M210 700h480l-11 -67h-406l-35 -224h333l-11 -67h-333l-43 -275h421l-11 -67q-17 -16 -34 -40.5q-17 -24.5 -17 -53.5q0 -26 16 -40q16 -14 45 -14q20 0 40 6l-7 -46q-8 -2 -21 -4.5q-13 -2.5 -31 -2.5q-48 0 -73 25q-25 25 -25 60q0 32 16 60q16 28 40 50l-444 0z" />
<glyph unicode="&#281;" horiz-adv-x="579" d="M351 53q45 0 81.5 11.5q36.5 11.5 69.5 31.5l-9 -68q-17 -16 -34 -40.5q-17 -24.5 -17 -53.5q0 -26 16 -40q16 -14 45 -14q20 0 40 6l-7 -46q-8 -2 -21 -4.5q-13 -2.5 -31 -2.5q-48 0 -73 25q-25 25 -25 60q0 22 7 41.5q7 19.5 20 36.5q-37 -8 -76 -8q-53 0 -98.5 16q-45.5 16 -78.5 46q-33 30 -52 72.5q-19 42.5 -19 95.5q0 55 19 105q19 50 54 88q35 38 84 61q49 23 108 23q54 0 93.5 -18.5q39.5 -18.5 65.5 -48q26 -29.5 39 -67q13 -37.5 13 -75.5q0 -14 -1.5 -31.5q-1.5 -17.5 -3.5 -30.5l-399 0q0 -44 15 -76q15 -32 40.5 -53q25.5 -21 60 -31.5q34.5 -10.5 74.5 -10.5zt0 0zM350 430q-35 0 -65 -11q-30 -11 -54 -30.5q-24 -19.5 -40.5 -46.5q-16.5 -27 -23.5 -59l327 0q1 5 1 8q0 3 0 7q0 24 -9 48q-9 24 -27 42.5q-18 18.5 -45 30t-64 11.5z" />
<glyph unicode="&#282;" horiz-adv-x="645" d="M210 700h480l-11 -67h-406l-35 -224h333l-11 -67h-333l-43 -275h421l-11 -67h-495zM332 896h68l61 -90l92 90h73l-133 -133l-72 0z" />
<glyph unicode="&#283;" horiz-adv-x="579" d="M351 53q45 0 81.5 11.5q36.5 11.5 69.5 31.5l-9 -68q-27 -18 -67 -29q-40 -11 -89 -11q-53 0 -98.5 16q-45.5 16 -78.5 46q-33 30 -52 72.5q-19 42.5 -19 95.5q0 55 19 105q19 50 54 88q35 38 84 61q49 23 108 23q54 0 93.5 -18.5q39.5 -18.5 65.5 -48q26 -29.5 39 -67q13 -37.5 13 -75.5q0 -14 -1.5 -31.5q-1.5 -17.5 -3.5 -30.5l-399 0q0 -44 15 -76q15 -32 40.5 -53q25.5 -21 60 -31.5q34.5 -10.5 74.5 -10.5zt0 0zM350 430q-35 0 -65 -11q-30 -11 -54 -30.5q-24 -19.5 -40.5 -46.5q-16.5 -27 -23.5 -59l327 0q1 5 1 8q0 3 0 7q0 24 -9 48q-9 24 -27 42.5q-18 18.5 -45 30q-27 11.5 -64 11.5zt0 0zM256 710h68l62 -91l91 91h73l-132 -134l-73 0z" />
<glyph unicode="&#284;" horiz-adv-x="779" d="M690 402h73l-50 -312q-49 -46 -112 -74q-63 -28 -149 -28q-74 0 -134.5 25q-60.5 25 -103.5 69q-43 44 -67 104.5q-24 60.5 -24 131.5q0 81 28 152.5q28 71.5 78 125q50 53.5 120.5 85q70.5 31.5 156.5 31.5q69 0 129.5 -20q60.5 -20 101.5 -53l-12 -72q-42 35 -98 55.5q-56 20.5 -122 20.5q-65 0 -121.5 -24.5q-56.5 -24.5 -97.5 -68q-41 -43.5 -64.5 -102q-23.5 -58.5 -23.5 -127.5q0 -58 19 -106.5q19 -48.5 53.5 -83.5q34.5 -35 82.5 -54.5q48 -19.5 107 -19.5q54 0 99.5 17q45.5 17 84.5 51zM672 763h-68l-61 91l-91 -91h-74l133 133l72 0z" />
<glyph unicode="&#285;" horiz-adv-x="636" d="M630 483l-74 -464q-10 -61 -35.5 -103.5q-25.5 -42.5 -64 -69q-38.5 -26.5 -87 -38.5q-48.5 -12 -103.5 -12q-28 0 -55.5 4q-27.5 4 -52.5 10q-25 6 -46 14.5q-21 8.5 -36 17.5l11 69q34 -22 81.5 -36q47.5 -14 101.5 -14q41 0 76.5 8q35.5 8 64 27.5q28.5 19.5 47.5 51q19 31.5 27 79.5l8 48q-31 -35 -78 -57q-47 -22 -107 -22q-52 0 -92.5 18q-40.5 18 -69 49q-28.5 31 -43.5 72q-15 41 -15 87q0 54 19 103q19 49 53.5 87q34.5 38 83.5 60.5q49 22.5 108 22.5q36 0 66 -8.5q30 -8.5 54.5 -22q24.5 -13.5 42.5 -30.5q18 -17 29 -34l14 83zM533 329q-8 18 -24.5 36.5q-16.5 18.5 -39 32.5q-22.5 14 -50 23q-27.5 9 -58.5 9q-41 0 -77 -15.5q-36 -15.5 -63 -42.5q-27 -27 -43 -64q-16 -37 -16 -80q0 -36 12.5 -67q12.5 -31 35 -53q22.5 -22 54.5 -34.5q32 -12.5 71 -12.5q25 0 50 7.5q25 7.5 47.5 21q22.5 13.5 42 31.5q19.5 18 32.5 39zM545 576h-68l-62 91l-91 -91h-73l132 134l73 0z" />
<glyph unicode="&#286;" horiz-adv-x="779" d="M690 402h73l-50 -312q-49 -46 -112 -74q-63 -28 -149 -28q-74 0 -134.5 25q-60.5 25 -103.5 69q-43 44 -67 104.5q-24 60.5 -24 131.5q0 81 28 152.5q28 71.5 78 125q50 53.5 120.5 85q70.5 31.5 156.5 31.5q69 0 129.5 -20q60.5 -20 101.5 -53l-12 -72q-42 35 -98 55.5q-56 20.5 -122 20.5q-65 0 -121.5 -24.5q-56.5 -24.5 -97.5 -68q-41 -43.5 -64.5 -102q-23.5 -58.5 -23.5 -127.5q0 -58 19 -106.5q19 -48.5 53.5 -83.5q34.5 -35 82.5 -54.5q48 -19.5 107 -19.5q54 0 99.5 17q45.5 17 84.5 51zM696 901q-10 -60 -51 -97.5q-41 -37.5 -99 -37.5q-27 0 -49.5 8.5q-22.5 8.5 -39 23.5q-16.5 15 -26 36q-9.5 21 -9.5 47q0 5 0 10q0 5 1 10l51 0q-1 -3 -1 -6.5q0 -3.5 0 -5.5q0 -33 19.5 -54.5q19.5 -21.5 56.5 -21.5q38 0 63.5 25.5q25.5 25.5 32.5 62.5z" />
<glyph unicode="&#287;" horiz-adv-x="636" d="M630 483l-74 -464q-10 -61 -35.5 -103.5q-25.5 -42.5 -64 -69q-38.5 -26.5 -87 -38.5q-48.5 -12 -103.5 -12q-28 0 -55.5 4q-27.5 4 -52.5 10q-25 6 -46 14.5q-21 8.5 -36 17.5l11 69q34 -22 81.5 -36q47.5 -14 101.5 -14q41 0 76.5 8q35.5 8 64 27.5q28.5 19.5 47.5 51q19 31.5 27 79.5l8 48q-31 -35 -78 -57q-47 -22 -107 -22q-52 0 -92.5 18q-40.5 18 -69 49q-28.5 31 -43.5 72q-15 41 -15 87q0 54 19 103q19 49 53.5 87q34.5 38 83.5 60.5q49 22.5 108 22.5q36 0 66 -8.5q30 -8.5 54.5 -22q24.5 -13.5 42.5 -30.5q18 -17 29 -34l14 83zM533 329q-8 18 -24.5 36.5q-16.5 18.5 -39 32.5q-22.5 14 -50 23q-27.5 9 -58.5 9q-41 0 -77 -15.5q-36 -15.5 -63 -42.5q-27 -27 -43 -64q-16 -37 -16 -80q0 -36 12.5 -67q12.5 -31 35 -53q22.5 -22 54.5 -34.5q32 -12.5 71 -12.5q25 0 50 7.5q25 7.5 47.5 21q22.5 13.5 42 31.5q19.5 18 32.5 39zM552 710q-10 -61 -51.5 -99.5q-41.5 -38.5 -101.5 -38.5q-56 0 -92 32.5q-36 32.5 -36 86.5q0 5 0 9.5q0 4.5 1 9.5l54 0q-1 -6 -1 -9.5q0 -3.5 0 -6.5q0 -32 19.5 -51.5q19.5 -19.5 56.5 -19.5q40 0 64.5 25q24.5 25 31.5 62z" />
<glyph unicode="&#288;" horiz-adv-x="779" d="M690 402h73l-50 -312q-49 -46 -112 -74q-63 -28 -149 -28q-74 0 -134.5 25q-60.5 25 -103.5 69q-43 44 -67 104.5q-24 60.5 -24 131.5q0 81 28 152.5q28 71.5 78 125q50 53.5 120.5 85q70.5 31.5 156.5 31.5q69 0 129.5 -20q60.5 -20 101.5 -53l-12 -72q-42 35 -98 55.5q-56 20.5 -122 20.5q-65 0 -121.5 -24.5q-56.5 -24.5 -97.5 -68q-41 -43.5 -64.5 -102q-23.5 -58.5 -23.5 -127.5q0 -58 19 -106.5q19 -48.5 53.5 -83.5q34.5 -35 82.5 -54.5q48 -19.5 107 -19.5q54 0 99.5 17q45.5 17 84.5 51zM496 828q0 20 13.5 33.5q13.5 13.5 33.5 13.5q20 0 33.5 -13.5q13.5 -13.5 13.5 -33.5q0 -20 -13.5 -33.5q-13.5 -13.5 -33.5 -13.5q-20 0 -33.5 13.5t-13.5 33.5z" />
<glyph unicode="&#289;" horiz-adv-x="636" d="M630 483l-74 -464q-10 -61 -35.5 -103.5q-25.5 -42.5 -64 -69q-38.5 -26.5 -87 -38.5q-48.5 -12 -103.5 -12q-28 0 -55.5 4q-27.5 4 -52.5 10q-25 6 -46 14.5q-21 8.5 -36 17.5l11 69q34 -22 81.5 -36q47.5 -14 101.5 -14q41 0 76.5 8q35.5 8 64 27.5q28.5 19.5 47.5 51q19 31.5 27 79.5l8 48q-31 -35 -78 -57q-47 -22 -107 -22q-52 0 -92.5 18q-40.5 18 -69 49q-28.5 31 -43.5 72q-15 41 -15 87q0 54 19 103q19 49 53.5 87q34.5 38 83.5 60.5q49 22.5 108 22.5q36 0 66 -8.5q30 -8.5 54.5 -22q24.5 -13.5 42.5 -30.5q18 -17 29 -34l14 83zM533 329q-8 18 -24.5 36.5q-16.5 18.5 -39 32.5q-22.5 14 -50 23q-27.5 9 -58.5 9q-41 0 -77 -15.5q-36 -15.5 -63 -42.5q-27 -27 -43 -64q-16 -37 -16 -80q0 -36 12.5 -67q12.5 -31 35 -53q22.5 -22 54.5 -34.5q32 -12.5 71 -12.5q25 0 50 7.5q25 7.5 47.5 21q22.5 13.5 42 31.5q19.5 18 32.5 39zM377 646q0 20 13.5 33.5q13.5 13.5 33.5 13.5q20 0 33.5 -13.5q13.5 -13.5 13.5 -33.5q0 -20 -13.5 -33.5q-13.5 -13.5 -33.5 -13.5q-20 0 -33.5 13.5t-13.5 33.5z" />
<glyph unicode="&#290;" horiz-adv-x="779" d="M690 402h73l-50 -312q-49 -46 -112 -74q-63 -28 -149 -28q-74 0 -134.5 25q-60.5 25 -103.5 69q-43 44 -67 104.5q-24 60.5 -24 131.5q0 81 28 152.5q28 71.5 78 125q50 53.5 120.5 85q70.5 31.5 156.5 31.5q69 0 129.5 -20q60.5 -20 101.5 -53l-12 -72q-42 35 -98 55.5q-56 20.5 -122 20.5q-65 0 -121.5 -24.5q-56.5 -24.5 -97.5 -68q-41 -43.5 -64.5 -102q-23.5 -58.5 -23.5 -127.5q0 -58 19 -106.5q19 -48.5 53.5 -83.5q34.5 -35 82.5 -54.5q48 -19.5 107 -19.5q54 0 99.5 17q45.5 17 84.5 51zM340 -231l72 177h65l-80 -177z" />
<glyph unicode="&#291;" horiz-adv-x="633" d="M630 483l-74 -464q-10 -61 -35.5 -103.5q-25.5 -42.5 -64 -69q-38.5 -26.5 -87 -38.5q-48.5 -12 -103.5 -12q-28 0 -55.5 4q-27.5 4 -52.5 10q-25 6 -46 14.5q-21 8.5 -36 17.5l11 69q34 -22 81.5 -36q47.5 -14 101.5 -14q41 0 76.5 8q35.5 8 64 27.5q28.5 19.5 47.5 51q19 31.5 27 79.5l8 48q-31 -35 -78 -57q-47 -22 -107 -22q-52 0 -92.5 18q-40.5 18 -69 49q-28.5 31 -43.5 72q-15 41 -15 87q0 54 19 103q19 49 53.5 87q34.5 38 83.5 60.5q49 22.5 108 22.5q36 0 66 -8.5q30 -8.5 54.5 -22q24.5 -13.5 42.5 -30.5q18 -17 29 -34l14 83zM533 329q-8 18 -24.5 36.5q-16.5 18.5 -39 32.5q-22.5 14 -50 23q-27.5 9 -58.5 9q-41 0 -77 -15.5q-36 -15.5 -63 -42.5q-27 -27 -43 -64q-16 -37 -16 -80q0 -36 12.5 -67q12.5 -31 35 -53q22.5 -22 54.5 -34.5q32 -12.5 71 -12.5q25 0 50 7.5q25 7.5 47.5 21q22.5 13.5 42 31.5q19.5 18 32.5 39zM483 735l-72 -177h-65l80 177z" />
<glyph unicode="&#292;" horiz-adv-x="761" d="M210 700h74l-46 -291h416l46 291h74l-111 -700h-74l54 342h-416l-54 -342h-74zM644 763h-68l-61 91l-91 -91h-74l133 133l72 0z" />
<glyph unicode="&#293;" horiz-adv-x="610" d="M532 0h-72l41 254q2 14 4.5 31q2.5 17 2.5 32q0 57 -33.5 83.5q-33.5 26.5 -86.5 26.5q-29 0 -56 -9q-27 -9 -50.5 -22.5q-23.5 -13.5 -43 -31q-19.5 -17.5 -31.5 -33.5l-52 -331h-72l112 700h72l-47 -287q15 15 34.5 29.5q19.5 14.5 44 26q24.5 11.5 53.5 19q29 7.5 63 7.5q37 0 68 -11q31 -11 53 -32q22 -21 34 -50.5q12 -29.5 12 -66.5q0 -20 -3 -41.5q-3 -21.5 -6 -38.5zM386 763h-68l-61 91l-91 -91h-74l133 133l72 0z" />
</font>
</defs>
</svg>
