<svg id="SvgjsSvg1000" xmlns="http://www.w3.org/2000/svg" version="1.1" xmlns:xlink="http://www.w3.org/1999/xlink" xmlns:svgjs="http://svgjs.com/svgjs" width="16" height="30"><defs id="SvgjsDefs1001"></defs><path id="SvgjsPath1007" d="M827.397 3068.01L823.5590000000001 3068C819.248 3068 816.4620000000001 3070.9 816.4620000000001 3075.38L816.4620000000001 3078.79L812.6030000000001 3078.79C812.2700000000001 3078.79 812.0000000000001 3079.06 812.0000000000001 3079.4L812.0000000000001 3084.33C812.0000000000001 3084.67 812.2700000000001 3084.94 812.6030000000001 3084.94L816.4620000000001 3084.94L816.4620000000001 3097.39C816.4620000000001 3097.73 816.7320000000001 3098 817.065 3098L822.1 3098C822.433 3098 822.703 3097.73 822.703 3097.39L822.703 3084.94L827.2139999999999 3084.94C827.5479999999999 3084.94 827.818 3084.67 827.818 3084.33L827.8199999999999 3079.4C827.8199999999999 3079.2400000000002 827.756 3079.08 827.6429999999999 3078.9700000000003C827.5299999999999 3078.8500000000004 827.3759999999999 3078.7900000000004 827.2159999999999 3078.7900000000004L822.7029999999999 3078.7900000000004L822.7029999999999 3075.9000000000005C822.7029999999999 3074.5100000000007 823.0289999999999 3073.8100000000004 824.8109999999998 3073.8100000000004L827.3969999999998 3073.8100000000004C827.7299999999998 3073.8100000000004 827.9999999999998 3073.53 827.9999999999998 3073.2000000000003L827.9999999999998 3068.6200000000003C827.9999999999998 3068.28 827.7299999999998 3068.01 827.3969999999998 3068.01Z " fill="#ffffff" transform="matrix(1,0,0,1,-812,-3068)"></path></svg>