<?xml version="1.0" encoding="utf-8"?>
<!-- Generator: Adobe Illustrator 16.0.0, SVG Export Plug-In . SVG Version: 6.00 Build 0)  -->
<!DOCTYPE svg PUBLIC "-//W3C//DTD SVG 1.1//EN" "http://www.w3.org/Graphics/SVG/1.1/DTD/svg11.dtd">
<svg version="1.1" id="Слой_1" xmlns="http://www.w3.org/2000/svg" xmlns:xlink="http://www.w3.org/1999/xlink" x="0px" y="0px"
	 width="216.328px" height="56.656px" viewBox="0 0 216.328 56.656" enable-background="new 0 0 216.328 56.656"
	 xml:space="preserve">
<path d="M75.235,26.507c-0.707,0-1.355,0.256-1.833,0.713v-0.581h-1.162v7.837h1.162v-2.776c0.354,0.342,0.939,0.708,1.833,0.708
	c1.572,0,2.757-1.271,2.757-2.956C77.992,27.772,76.807,26.507,75.235,26.507z M76.819,29.451c0,1.068-0.77,1.874-1.79,1.874
	c-0.698,0-1.333-0.401-1.627-1.026v-1.674c0.278-0.611,0.943-1.036,1.627-1.036C76.05,27.589,76.819,28.39,76.819,29.451z"/>
<path d="M81.487,26.507c-1.628,0-2.811,1.243-2.811,2.956c0,1.706,1.273,2.944,3.026,2.944c0.778,0,1.505-0.201,1.944-0.537
	l0.059-0.045v-1.123l-0.232,0.153c-0.467,0.308-1.02,0.47-1.598,0.47c-1.087,0-1.84-0.567-2.004-1.492h4.212V29.44
	C84.083,27.982,83.191,26.507,81.487,26.507z M81.444,27.589c1.019,0,1.387,0.74,1.462,1.239H79.88
	C79.997,28.188,80.543,27.589,81.444,27.589z"/>
<polygon points="91.468,31.216 89.462,31.216 89.462,26.639 88.312,26.639 88.312,31.216 86.328,31.216 86.328,26.639 
	85.166,26.639 85.166,32.275 92.619,32.275 92.619,26.639 91.468,26.639 "/>
<path d="M96.514,26.507c-1.628,0-2.811,1.243-2.811,2.956c0,1.706,1.273,2.944,3.026,2.944c0.778,0,1.505-0.201,1.944-0.537
	l0.059-0.045v-1.123L98.5,30.855c-0.467,0.308-1.02,0.47-1.598,0.47c-1.087,0-1.84-0.567-2.004-1.492h4.212V29.44
	C99.11,27.982,98.218,26.507,96.514,26.507z M96.471,27.589c1.02,0,1.388,0.74,1.462,1.239h-3.027
	C95.023,28.188,95.57,27.589,96.471,27.589z"/>
<polygon points="104.146,28.851 101.354,28.851 101.354,26.639 100.193,26.639 100.193,32.275 101.354,32.275 101.354,29.932 
	104.146,29.932 104.146,32.275 105.297,32.275 105.297,26.639 104.146,26.639 "/>
<polygon points="107.919,30.419 107.919,26.639 106.758,26.639 106.758,32.275 107.777,32.275 110.787,28.505 110.787,32.275 
	111.949,32.275 111.949,26.639 110.93,26.639 "/>
<path d="M113.246,28.429c0,0.854,0.422,1.438,1.191,1.666l-1.582,2.181h1.34l1.422-1.958h1.367v1.958h1.152v-5.637h-2.844
	C113.785,26.639,113.246,27.563,113.246,28.429z M116.984,27.688v1.581h-1.572c-0.453,0-0.992-0.136-0.992-0.785
	c0-0.658,0.539-0.796,0.992-0.796H116.984z"/>
<path d="M127.494,26.639h-4.234v0.15c0,2.327-0.225,3.582-0.799,4.427h-0.73v2.61h1.119v-1.551h4.482v1.551h1.119v-2.61h-0.957
	V26.639z M126.342,27.699v3.517h-2.613c0.396-0.802,0.605-1.982,0.617-3.517H126.342z"/>
<path d="M130.563,28.539c-0.037,1.868-0.346,2.701-1.002,2.701c-0.059,0-0.119,0-0.174-0.016l-0.191-0.055v1.124l0.131,0.016
	c0.092,0.012,0.174,0.013,0.277,0.013c1.969,0,2.047-2.442,2.09-3.754l0.027-0.833h1.998v4.576h1.152v-5.637h-4.262L130.563,28.539z
	"/>
<path d="M136.168,28.465c0,0.854,0.422,1.438,1.191,1.666l-1.582,2.181h1.34l1.422-1.958h1.367v1.958h1.152v-5.637h-2.844
	C136.707,26.675,136.168,27.6,136.168,28.465z M139.906,27.724v1.581h-1.572c-0.453,0-0.992-0.136-0.992-0.785
	c0-0.658,0.539-0.796,0.992-0.796H139.906z"/>
<path d="M146.561,28.539c-0.037,1.868-0.346,2.701-1.002,2.701c-0.059,0-0.119,0-0.174-0.016l-0.191-0.055v1.124l0.131,0.016
	c0.092,0.012,0.174,0.013,0.277,0.013c1.969,0,2.047-2.442,2.09-3.754l0.027-0.833h1.998v4.576h1.152v-5.637h-4.262L146.561,28.539z
	"/>
<path d="M157.348,31.329c-0.092,0-0.334,0-0.334-0.543v-2.102c0-1.341-0.936-2.142-2.5-2.142c-0.947,0-1.592,0.276-1.963,0.508
	l-0.072,0.044v1.194l0.236-0.163c0.334-0.231,0.957-0.501,1.617-0.501c1.029,0,1.529,0.375,1.529,1.147v0.229
	c-0.51-0.262-1.066-0.39-1.691-0.39c-1.344,0-2.283,0.786-2.283,1.91c0,1.131,0.877,1.922,2.133,1.922
	c0.961,0,1.605-0.386,2.01-0.773c0.18,0.44,0.564,0.696,1.07,0.696c0.186,0,0.463-0.042,0.635-0.158l0.066-0.044v-1.033l-0.23,0.145
	C157.51,31.313,157.441,31.329,157.348,31.329z M155.861,30.033v0.589c-0.299,0.35-0.883,0.739-1.605,0.739
	c-0.283,0-1.207-0.063-1.207-0.884c0-0.546,0.496-0.872,1.326-0.872C155.01,29.605,155.523,29.829,155.861,30.033z"/>
<path d="M161.641,26.928c-0.844,0-1.57,0.295-2.068,0.824c0.295-1.764,1.633-2.021,3.574-2.394l0.475-0.092v-1.119l-0.178,0.033
	c-3.115,0.589-5.023,1.126-5.023,4.592c0,2.264,1.143,3.671,2.982,3.671c1.617,0,2.791-1.211,2.791-2.879
	C164.193,28.062,163.096,26.928,161.641,26.928z M161.402,31.361c-1.092,0-1.736-0.752-1.818-2.118
	c0.293-0.601,0.992-1.233,1.861-1.233c0.934,0,1.584,0.666,1.584,1.621C163.029,30.634,162.346,31.361,161.402,31.361z"/>
<path d="M167.861,26.543c-1.701,0-2.984,1.271-2.984,2.956c0,1.679,1.283,2.944,2.984,2.944c1.699,0,2.982-1.266,2.982-2.944
	C170.844,27.814,169.561,26.543,167.861,26.543z M167.861,31.361c-1.033,0-1.811-0.801-1.811-1.862c0-1.068,0.777-1.874,1.811-1.874
	c1.031,0,1.809,0.806,1.809,1.874C169.67,30.561,168.893,31.361,167.861,31.361z"/>
<path d="M174.898,26.543c-0.707,0-1.355,0.256-1.832,0.713v-0.581h-1.162v7.837h1.162v-2.776c0.354,0.342,0.939,0.708,1.832,0.708
	c1.572,0,2.758-1.271,2.758-2.956C177.656,27.809,176.471,26.543,174.898,26.543z M176.482,29.487c0,1.068-0.768,1.874-1.789,1.874
	c-0.697,0-1.334-0.401-1.627-1.026v-1.674c0.279-0.611,0.943-1.036,1.627-1.036C175.715,27.625,176.482,28.426,176.482,29.487z"/>
<path d="M183.738,31.329c-0.092,0-0.336,0-0.336-0.543v-2.102c0-1.341-0.934-2.142-2.498-2.142c-0.949,0-1.592,0.276-1.965,0.508
	l-0.07,0.044v1.194l0.236-0.163c0.332-0.231,0.957-0.501,1.615-0.501c1.031,0,1.531,0.375,1.531,1.147v0.229
	c-0.51-0.262-1.066-0.39-1.693-0.39c-1.344,0-2.283,0.786-2.283,1.91c0,1.131,0.877,1.922,2.133,1.922
	c0.961,0,1.605-0.386,2.01-0.773c0.182,0.44,0.566,0.696,1.072,0.696c0.184,0,0.461-0.042,0.633-0.158l0.066-0.044v-1.033
	l-0.23,0.145C183.9,31.313,183.832,31.329,183.738,31.329z M182.252,30.033v0.589c-0.299,0.35-0.883,0.739-1.605,0.739
	c-0.283,0-1.207-0.063-1.207-0.884c0-0.546,0.494-0.872,1.324-0.872C181.4,29.605,181.914,29.829,182.252,30.033z"/>
<polygon points="184.334,27.735 186.197,27.735 186.197,32.312 187.35,32.312 187.35,27.735 189.213,27.735 189.213,26.675 
	184.334,26.675 "/>
<path d="M192.504,26.543c-1.701,0-2.984,1.271-2.984,2.956c0,1.679,1.283,2.944,2.984,2.944c1.699,0,2.982-1.266,2.982-2.944
	C195.486,27.814,194.203,26.543,192.504,26.543z M192.504,31.361c-1.033,0-1.811-0.801-1.811-1.862c0-1.068,0.777-1.874,1.811-1.874
	c1.031,0,1.809,0.806,1.809,1.874C194.313,30.561,193.535,31.361,192.504,31.361z"/>
<path d="M199.541,26.543c-0.707,0-1.355,0.256-1.832,0.713v-0.581h-1.162v7.837h1.162v-2.776c0.354,0.342,0.939,0.708,1.832,0.708
	c1.572,0,2.758-1.271,2.758-2.956C202.299,27.809,201.113,26.543,199.541,26.543z M201.125,29.487c0,1.068-0.768,1.874-1.789,1.874
	c-0.697,0-1.334-0.401-1.627-1.026v-1.674c0.279-0.611,0.943-1.036,1.627-1.036C200.357,27.625,201.125,28.426,201.125,29.487z"/>
<polygon points="204.523,30.455 204.523,26.675 203.361,26.675 203.361,32.312 204.381,32.312 207.389,28.541 207.389,32.312 
	208.553,32.312 208.553,26.675 207.531,26.675 "/>
<path d="M212.607,26.117c1.129,0,1.918-0.764,1.918-1.855v-0.15h-1.041l-0.004,0.147c-0.008,0.526-0.355,0.865-0.883,0.865
	c-0.539,0-0.873-0.33-0.873-0.862v-0.15h-1.045v0.15C210.68,25.371,211.455,26.117,212.607,26.117z"/>
<polygon points="214.184,26.675 211.174,30.455 211.174,26.675 210.012,26.675 210.012,32.312 211.031,32.312 214.041,28.541 
	214.041,32.312 215.203,32.312 215.203,26.675 "/>
<path fill-rule="evenodd" clip-rule="evenodd" fill="#FBEE35" d="M7.003,28.375c0-11.8,9.5-21.3,21.3-21.3
	c11.8,0,21.4,9.5,21.4,21.3c0,11.9-9.6,21.4-21.4,21.4C16.503,49.775,7.003,40.275,7.003,28.375z"/>
<path fill-rule="evenodd" clip-rule="evenodd" fill="#030B0A" d="M31.603,0.975v1.601c12.8,1.6,22.7,12.6,22.7,25.8
	c0,14.4-11.6,26-26,26c-14.3,0-26-11.6-26-26c0-13.2,10-24.2,22.8-25.8V0.975c-13.8,1.5-24.4,13.2-24.4,27.4
	c0,15.3,12.3,27.7,27.6,27.7c15.3,0,27.7-12.4,27.7-27.7C56.003,14.175,45.303,2.475,31.603,0.975z"/>
<path fill-rule="evenodd" clip-rule="evenodd" fill="#101114" d="M13.403,37.275h-2.1v-21.2h2.1v8.899c1.6-1.8,3.5-2.6,5.9-2.6
	c3.6,0,5.6,2.2,5.6,6v8.9h-2.2v-8.4c0-3.8-2.4-4.5-4.2-4.5c-1,0-2,0.3-2.9,1c-1,0.6-1.7,1.3-2.2,2.1V37.275z"/>
<path fill-rule="evenodd" clip-rule="evenodd" fill="#101114" d="M27.103,34.075v-33.7h2.2v33.2c0,1.399,0.6,2.2,1.9,2.2
	c0.5,0,1-0.2,1.4-0.4v1.9c-0.5,0.3-1.2,0.399-2.1,0.399C28.603,37.675,27.103,36.675,27.103,34.075z"/>
<path fill-rule="evenodd" clip-rule="evenodd" fill="#101114" d="M34.403,37.275V22.675h2.2v2.8c1.1-1.899,3.5-3.1,5.9-3.1v2.1
	c-0.7,0-1.3,0.101-1.8,0.301c-2,0.5-3.4,1.899-4.1,3.3v9.2H34.403z"/>
</svg>
