<?xml version="1.0" encoding="utf-8"?>
<!-- Generator: Adobe Illustrator 16.0.0, SVG Export Plug-In . SVG Version: 6.00 Build 0)  -->
<!DOCTYPE svg PUBLIC "-//W3C//DTD SVG 1.1//EN" "http://www.w3.org/Graphics/SVG/1.1/DTD/svg11.dtd">
<svg version="1.1" xmlns="http://www.w3.org/2000/svg" xmlns:xlink="http://www.w3.org/1999/xlink" x="0px" y="0px"
	 width="595.28px" height="1500px" viewBox="0 0 595.28 1500" enable-background="new 0 0 595.28 1500" xml:space="preserve">
<g id="Layer_1" display="none">
	<rect y="2.561" display="inline" fill="#BCBEC0" stroke="#231F20" stroke-miterlimit="10" width="595.28" height="1497.439"/>
</g>
<g id="Layer_2">
	<path fill="#FFFFFF" d="M62.771,66.791l-5.145-14.377v-5.508h0.154c0.256,0.012,0.473-0.186,0.484-0.441s-0.186-0.472-0.441-0.484
		c-0.014-0.001-0.029-0.001-0.043,0h-7.126c-0.256-0.012-0.472,0.185-0.484,0.44c-0.012,0.256,0.186,0.473,0.44,0.484
		c0.015,0,0.029,0,0.044,0h0.159v5.508l-5.145,14.377c-0.424,0.945-0.002,2.055,0.942,2.479c0.285,0.127,0.599,0.182,0.909,0.158
		h13.393c1.031,0.082,1.934-0.689,2.016-1.721C62.954,67.393,62.899,67.078,62.771,66.791z M61.836,68.105
		c-0.223,0.277-0.567,0.428-0.923,0.4H47.521c-0.523,0.078-1.01-0.283-1.088-0.807c-0.029-0.204,0.006-0.412,0.104-0.594
		l5.17-14.454c0.018-0.05,0.027-0.103,0.027-0.156v-5.588H56.7v5.588c0,0.053,0.009,0.106,0.027,0.156l5.17,14.454
		C62.042,67.429,62.02,67.802,61.836,68.105L61.836,68.105z M44.269,68.346c-4.258,0.866-8.412-1.885-9.278-6.144
		c-0.735-3.615,1.141-7.256,4.511-8.756c0.167-0.075,0.274-0.24,0.273-0.423V41.352h5.863v11.675
		c-0.001,0.183,0.106,0.348,0.273,0.423c0.855,0.382,1.637,0.915,2.305,1.572c0.178,0.184,0.471,0.19,0.654,0.013
		c0.186-0.177,0.191-0.47,0.014-0.655c-0.006-0.006-0.012-0.013-0.019-0.019c-0.675-0.663-1.451-1.213-2.3-1.629V41.352h0.147
		c0.256,0.012,0.472-0.185,0.484-0.441c0.012-0.255-0.186-0.472-0.44-0.484c-0.015,0-0.029,0-0.044,0H38.69
		c-0.255-0.012-0.472,0.186-0.483,0.441c-0.013,0.255,0.186,0.472,0.44,0.484c0.015,0.001,0.029,0.001,0.043,0h0.154v11.375
		c-4.362,2.136-6.168,7.403-4.033,11.767c1.758,3.59,5.715,5.543,9.634,4.756c0.243-0.078,0.378-0.338,0.302-0.582
		C44.682,68.462,44.483,68.33,44.269,68.346L44.269,68.346z"/>
	<g>
		<path fill="none" stroke="#FFFFFF" stroke-miterlimit="10" d="M100.527,54.056v14.377V54.056z"/>
		<path fill="none" stroke="#FFFFFF" stroke-miterlimit="10" d="M105.804,68.433H95.25H105.804z"/>
		<path fill="none" stroke="#FFFFFF" stroke-miterlimit="10" d="M111.239,46.358c0,0-4.525,7.698-10.72,7.698
			s-11.216-7.698-11.216-7.698l11.216,0.12L111.239,46.358z"/>
		<path fill="none" stroke="#FFFFFF" stroke-miterlimit="10" d="M94.283,64.869l12.763-0.563c0,0,1.668-0.604,2.116-1.111
			c0.369-0.419,1.025-1.739,1.086-2.293c0.045-0.415-0.322-1.309-0.588-1.631c-0.431-0.521-1.593-0.936-2.258-1.064
			c-1.848-0.356-4.438-0.727-6.31-0.922c-1.438-0.149-5.062-0.128-6.461-0.488c-0.696-0.179-2.671-1.001-3.098-1.143
			s-2.301-1.544-2.917-2.222c-0.487-0.536-1.388-1.709-1.637-2.388c-0.24-0.653-0.322-2.071-0.285-2.766
			c0.036-0.688,0.315-2.055,0.569-2.695c0.252-0.637,0.967-1.829,1.423-2.34c0.54-0.604,1.887-1.537,2.562-1.986
			c0.63-0.419,1.93-1.212,2.634-1.489c0.562-0.222,1.977-0.567,2.58-0.567"/>
		<ellipse fill="none" stroke="#FFFFFF" stroke-miterlimit="10" cx="100.719" cy="39.413" rx="4.217" ry="2.48"/>
	</g>
	<path fill="#FFFFFF" d="M143.678,55.124l5.234-5.101c2.626-2.535,2.7-6.719,0.165-9.345c-0.055-0.056-0.109-0.111-0.165-0.165
		c-2.726-2.623-7.035-2.623-9.76,0l-5.233,5.1l0,0l-4.525,4.408c-2.626,2.538-2.698,6.725-0.159,9.351
		c0.052,0.055,0.105,0.107,0.159,0.16c2.725,2.621,7.034,2.621,9.759,0L143.678,55.124L143.678,55.124L143.678,55.124z
		 M139.855,41.2c2.333-2.243,6.02-2.243,8.353,0c2.248,2.167,2.313,5.747,0.145,7.995c-0.047,0.049-0.096,0.097-0.145,0.144
		l-4.882,4.758l-8.353-8.14L139.855,41.2z M138.455,58.848c-2.333,2.243-6.021,2.243-8.353,0c-2.248-2.173-2.309-5.756-0.137-8.003
		c0.044-0.046,0.09-0.092,0.137-0.137l4.173-4.065l8.353,8.139L138.455,58.848z M151.166,55.497
		c-3.885,0.097-6.955,3.324-6.858,7.209c0.098,3.885,3.326,6.955,7.211,6.857c3.816-0.095,6.859-3.217,6.859-7.034
		c-0.057-3.933-3.285-7.079-7.218-7.032H151.166z M144.942,62.529c0.049-3.392,2.832-6.104,6.224-6.063
		c1.513-0.002,2.975,0.541,4.119,1.531c-0.032,0.016-0.062,0.035-0.089,0.057l-8.7,8.475c-1-1.092-1.556-2.518-1.56-3.999H144.942z
		 M151.166,68.595c-1.438,0.003-2.835-0.486-3.956-1.387l8.689-8.469c0.021-0.023,0.039-0.051,0.054-0.078
		c0.925,1.076,1.435,2.449,1.436,3.868c-0.048,3.394-2.835,6.107-6.229,6.065H151.166z"/>
	<path id="Forma_1" fill="#FFFFFF" d="M202.566,70.055h-26.283c-0.197,0-0.357-0.16-0.357-0.356c0-0.094,0.036-0.183,0.101-0.25
		c2.89-2.963,3.174-2.752,3.423-2.564c0.372,0.21,0.8,0.302,1.226,0.263c0.119-0.011,0.227-0.075,0.292-0.175
		c0.421-0.688,1.715-1.794,2.484-1.464c0.588-0.069,1.148-0.291,1.625-0.644c0.2-0.381,0.537-0.673,0.943-0.816
		c0.045-0.025,0.095-0.04,0.146-0.043c0.325-0.009,0.645-0.082,0.94-0.218c0.399-0.409,0.835-0.782,1.301-1.114
		c0.19-0.146,0.457-0.134,0.636,0.025c0.019,0.017,0.037,0.032,0.058,0.046v-9.357c0.006-2.049-0.794-4.018-2.227-5.482
		c-0.721,0.641-1.638,1.015-2.601,1.062c-1.589,0.069-3.242-0.742-4.915-2.413c-2.722-2.665-4.128-6.396-3.843-10.194
		c0.021-0.16,0.147-0.287,0.309-0.308c3.799-0.284,7.531,1.12,10.199,3.84c1.672,1.671,2.485,3.324,2.414,4.912
		c-0.044,0.962-0.417,1.88-1.057,2.6c0.972,0.988,1.688,2.198,2.086,3.525c0.397-1.329,1.112-2.54,2.084-3.53
		c-0.636-0.719-1.007-1.633-1.053-2.591c-0.07-1.588,0.743-3.241,2.415-4.912c2.668-2.721,6.4-4.125,10.2-3.84
		c0.16,0.021,0.286,0.146,0.308,0.307c0.284,3.799-1.122,7.53-3.844,10.195c-1.672,1.671-3.324,2.484-4.915,2.412
		c-0.966-0.046-1.888-0.422-2.609-1.065c-1.435,1.466-2.236,3.437-2.23,5.487v9.3c0.179-0.145,0.433-0.149,0.616-0.01
		c0.471,0.334,0.909,0.71,1.312,1.123c0.295,0.128,0.612,0.199,0.935,0.209c0.051,0.004,0.101,0.019,0.146,0.043
		c0.406,0.144,0.743,0.436,0.943,0.817c0.478,0.352,1.038,0.572,1.627,0.642c0.769-0.329,2.063,0.777,2.482,1.465
		c0.065,0.101,0.174,0.165,0.293,0.175c0.426,0.039,0.853-0.053,1.225-0.263c0.25-0.187,0.533-0.4,3.423,2.564
		c0.133,0.146,0.122,0.372-0.024,0.505C202.735,70.02,202.653,70.053,202.566,70.055z M177.145,69.341h24.563
		c-0.625-0.651-1.302-1.251-2.023-1.794c-0.504,0.267-1.078,0.371-1.644,0.3c-0.316-0.048-0.597-0.23-0.769-0.5
		c-0.352-0.59-0.925-1.016-1.592-1.18c-0.624,0.267-1.879-0.422-2.181-0.62c-0.191-0.097-0.339-0.262-0.415-0.461
		c-0.163-0.144-0.342-0.269-0.532-0.372c-0.5,0-0.985-0.173-1.374-0.487c-0.323-0.321-0.671-0.616-1.041-0.882
		c-0.431,0.289-0.992,0.289-1.423,0c-0.369,0.266-0.718,0.561-1.04,0.882c-0.389,0.314-0.874,0.486-1.374,0.487
		c-0.19,0.104-0.369,0.229-0.532,0.372c-0.076,0.199-0.224,0.364-0.415,0.461c-0.3,0.2-1.557,0.887-2.181,0.62
		c-0.667,0.164-1.241,0.589-1.592,1.18c-0.172,0.27-0.453,0.452-0.77,0.5c-0.565,0.071-1.139-0.033-1.643-0.3
		c-0.723,0.542-1.4,1.143-2.027,1.794H177.145z M176.205,36.735c-0.128,3.479,1.199,6.854,3.663,9.313
		c1.523,1.522,3,2.263,4.378,2.2c0.896-0.042,1.741-0.428,2.359-1.078c0.014-0.017,0.029-0.031,0.045-0.044
		c0.65-0.624,1.037-1.473,1.079-2.372c0.057-1.376-0.687-2.845-2.206-4.362c-2.462-2.464-5.841-3.789-9.321-3.656H176.205z
		 M202.233,36.724c-3.308,0.015-6.477,1.335-8.817,3.673c-1.52,1.519-2.263,2.986-2.206,4.362c0.043,0.899,0.43,1.749,1.08,2.372
		c0.016,0.013,0.03,0.027,0.044,0.043c0.623,0.65,1.473,1.036,2.373,1.079c1.379,0.056,2.846-0.687,4.365-2.205
		c2.467-2.456,3.795-5.832,3.663-9.312c-0.132-0.009-0.301-0.009-0.505-0.009L202.233,36.724z M192.949,46.595
		c-0.063,0-0.126-0.017-0.181-0.049c-0.17-0.1-0.227-0.318-0.128-0.488c0.022-0.037,0.273-0.464,0.715-1.1l-0.226-1.84
		c-0.024-0.195,0.115-0.373,0.311-0.397c0.196-0.024,0.374,0.115,0.398,0.311l0,0l0.132,1.076c0.488-0.646,1.01-1.269,1.562-1.862
		c0.17-0.183,0.354-0.37,0.552-0.56l-0.322-1.912c-0.054-0.189,0.058-0.387,0.247-0.44c0.189-0.053,0.387,0.058,0.44,0.247
		c0.007,0.024,0.011,0.05,0.013,0.075l0.244,1.45c1.313-1.144,2.684-2.221,4.105-3.227c0.162-0.113,0.385-0.075,0.498,0.087
		c0.114,0.161,0.075,0.385-0.087,0.498l0,0c-0.021,0.014-1.274,0.899-2.641,2l1.369,0.443c0.188,0.062,0.29,0.263,0.229,0.45
		c-0.061,0.188-0.263,0.29-0.45,0.229l0,0l-1.8-0.585c-0.422,0.353-0.837,0.717-1.214,1.071l-0.009,0.01
		c-0.236,0.223-0.456,0.441-0.653,0.653c-0.3,0.318-0.575,0.638-0.832,0.948l2.724,0.732c0.192,0.043,0.313,0.234,0.27,0.427
		c-0.044,0.192-0.235,0.313-0.428,0.27c-0.009-0.002-0.018-0.005-0.027-0.008l-3.025-0.813c-0.533,0.681-1.026,1.393-1.478,2.131
		c-0.065,0.108-0.185,0.173-0.311,0.171H192.949z M185.991,46.595c-0.128,0-0.245-0.067-0.31-0.177
		c-0.451-0.738-0.944-1.45-1.478-2.132l-3.025,0.814c-0.188,0.057-0.388-0.05-0.445-0.238c-0.057-0.188,0.05-0.388,0.239-0.445
		c0.007-0.002,0.014-0.004,0.021-0.006l2.724-0.732c-0.257-0.311-0.535-0.629-0.832-0.948c-0.2-0.211-0.417-0.43-0.653-0.653
		l-0.01-0.01c-0.377-0.354-0.792-0.719-1.214-1.072l-1.8,0.586c-0.188,0.061-0.39-0.042-0.45-0.229
		c-0.062-0.188,0.041-0.389,0.229-0.45l0,0l1.369-0.443c-1.365-1.101-2.62-1.98-2.641-2c-0.161-0.114-0.2-0.337-0.087-0.498
		c0.114-0.161,0.337-0.2,0.498-0.086c1.422,1.005,2.792,2.082,4.105,3.226l0.244-1.45c0.054-0.189,0.251-0.3,0.44-0.247
		c0.162,0.046,0.27,0.197,0.26,0.365l-0.322,1.912c0.2,0.189,0.383,0.377,0.553,0.559c0.552,0.595,1.072,1.217,1.561,1.864
		l0.131-1.075c0.024-0.195,0.202-0.335,0.398-0.311c0.195,0.023,0.335,0.202,0.311,0.397l0,0l-0.226,1.838
		c0.441,0.638,0.693,1.064,0.715,1.101c0.102,0.17,0.047,0.39-0.123,0.491c-0.056,0.033-0.12,0.051-0.185,0.051H185.991z"/>
	<path id="Forma_1_1_" fill="#FFFFFF" d="M231.084,67.006c-8.561,0-15.5-6.939-15.5-15.5s6.939-15.5,15.5-15.5s15.5,6.939,15.5,15.5
		l0,0C246.574,60.063,239.641,66.996,231.084,67.006z M231.084,37.006c-8.008,0-14.5,6.492-14.5,14.5c0,8.008,6.492,14.5,14.5,14.5
		c8.008,0,14.5-6.492,14.5-14.5l0,0C245.575,43.501,239.088,37.015,231.084,37.006z M228.218,58.117l-5.541-5.541l0.708-0.708
		l4.833,4.834l10.522-10.521l0.707,0.707L228.218,58.117z"/>
	<path id="Forma_1_2_" fill="#FFFFFF" d="M283.054,69.862c-1.436-0.021-2.583-1.201-2.563-2.637l0.738-15.973
		c-2.152-0.831-3.426-3.241-3.426-6.542c0-3.788,2.355-6.87,5.25-6.87s5.251,3.082,5.251,6.87c0,3.3-1.272,5.71-3.426,6.542
		l0.739,15.95c0.027,1.44-1.118,2.631-2.56,2.659C283.058,69.861,283.056,69.862,283.054,69.862z M283.054,38.862
		c-2.348,0-4.259,2.624-4.259,5.852c0,3.007,1.151,5.134,3.081,5.688c0.225,0.068,0.374,0.28,0.361,0.514l-0.758,16.335
		c0.007,0.869,0.717,1.568,1.586,1.562s1.569-0.716,1.563-1.586l-0.757-16.313c-0.013-0.234,0.138-0.446,0.362-0.514
		c1.93-0.554,3.08-2.681,3.08-5.688c0-3.229-1.91-5.853-4.26-5.853V38.862z M269.536,69.862c-1.436-0.021-2.584-1.2-2.564-2.637l0,0
		l0.74-15.983c-2.069-0.791-3.433-2.778-3.426-4.993v-7.9c-0.005-0.276,0.215-0.504,0.491-0.509c0.003,0,0.006,0,0.009,0h2.211
		c0.276,0,0.5,0.224,0.5,0.5c0,0.003,0,0.006,0,0.009v6.83h0.55v-6.829c-0.005-0.276,0.215-0.504,0.491-0.509
		c0.003,0,0.006,0,0.009,0h2c0.276,0,0.5,0.224,0.5,0.5c0,0.003,0,0.006,0,0.009v6.83h0.55v-6.83
		c-0.005-0.276,0.215-0.504,0.491-0.509c0.003,0,0.006,0,0.009,0h2.217c0.276,0,0.5,0.224,0.5,0.5c0,0.003,0,0.006,0,0.009v7.9
		c0.006,2.215-1.357,4.203-3.426,4.993l0.74,15.958c0.027,1.441-1.119,2.632-2.561,2.659
		C269.556,69.861,269.546,69.861,269.536,69.862z M265.275,38.862v7.389c-0.006,1.91,1.249,3.596,3.081,4.137
		c0.225,0.067,0.375,0.279,0.362,0.514l-0.756,16.349c-0.015,0.869,0.678,1.586,1.547,1.6c0.869,0.015,1.585-0.678,1.6-1.547
		c0-0.025,0-0.051,0-0.077l-0.757-16.325c-0.013-0.234,0.137-0.447,0.362-0.514c1.833-0.541,3.088-2.227,3.082-4.137V38.86h-1.227
		v6.83c0.005,0.276-0.215,0.504-0.491,0.509c-0.003,0-0.006,0-0.009,0h-1.54c-0.276,0-0.5-0.224-0.5-0.5c0-0.003,0-0.006,0-0.009
		v-6.83h-1.006v6.83c0.005,0.276-0.215,0.504-0.491,0.509c-0.003,0-0.006,0-0.009,0h-1.527c-0.276,0-0.5-0.224-0.5-0.5
		c0-0.003,0-0.006,0-0.009v-6.83h-1.228L265.275,38.862z"/>
	<path id="Forma_1_3_" fill="#FFFFFF" d="M311.881,43.017c0.455,0.003,0.826-0.363,0.83-0.818c0.002-0.341,0.063-0.679,0.18-1
		c0.437-1.122,1.516-1.861,2.72-1.862c2.5,0.012,4.538-2,4.56-4.5c0-0.458-0.371-0.83-0.83-0.83c-0.458,0-0.83,0.372-0.83,0.83
		c-0.001,0.342-0.065,0.681-0.189,1c-0.295,0.78-0.916,1.392-1.699,1.677c-0.323,0.123-0.666,0.186-1.011,0.185
		c-2.501-0.015-4.542,1.999-4.56,4.5C311.054,42.654,311.426,43.021,311.881,43.017z M329.65,69.004l-0.01-16.312l-7.141,5.661
		V52.68l-6.979,5.626l-0.58-9.67h-0.021v-1.378c0-1.243-1.006-2.252-2.25-2.255h-3.209c-1.244,0.003-2.25,1.012-2.25,2.255v1.4
		L305.65,68.99L329.65,69.004z M321.48,54.814v5.649l7.14-5.662l0.011,13.175H306.75l1.44-18.784h5.771l0.659,11.151L321.48,54.814z
		 M308.23,47.258c-0.001-0.681,0.549-1.233,1.23-1.234h3.209c0.681,0.001,1.231,0.553,1.23,1.234v0.913h-5.67V47.258L308.23,47.258z
		"/>
	<path id="Forma_1_copy_3_копия_2" fill="#FFFFFF" d="M371.269,54.062l1.506,14.37h2.506v-3.757
		c0.001-0.175,0.143-0.316,0.317-0.315l0,0h1.508v-7.567c0.01-0.176,0.159-0.309,0.335-0.299c0.16,0.009,0.289,0.137,0.299,0.299
		v7.569h0.787c0.175-0.001,0.316,0.141,0.317,0.315l0,0v3.755h0.876c0.174-0.001,0.314,0.14,0.315,0.314
		c0,0.174-0.141,0.315-0.314,0.315c-0.001,0-0.001,0-0.001,0h-29.451c-0.175,0-1.014,0.045-1-0.314
		c0.063-0.449,0.479-0.762,0.928-0.699c0.023,0.004,0.049,0.008,0.072,0.014h2v-13c0-0.174,0.236-0.117,0.412-0.117
		c0.175,0,0.588-0.057,0.588,0.117v13h7l3-18 M375.913,68.432h2.301v-3.442h-2.301V68.432z M364.269,51.062l-3,17h10l-1-14
		 M378.76,56.407c-0.037,0-0.073-0.006-0.108-0.019l-23.391-8.433l-2.283,6.278c-0.061,0.165-0.242,0.249-0.407,0.188
		c-0.081-0.03-0.146-0.092-0.181-0.171l-3.096-7.145c-0.031-0.074-0.033-0.157-0.006-0.232l2.771-7.612
		c0.045-0.131,0.17-0.217,0.309-0.212l5.625,0.183c0.174,0.005,0.311,0.15,0.305,0.324c0,0.033-0.007,0.066-0.018,0.098
		l-1.611,4.435l23.393,8.434c0.162,0.059,0.247,0.237,0.189,0.4l-1.192,3.275c-0.028,0.078-0.087,0.143-0.163,0.178
		C378.853,56.396,378.807,56.407,378.76,56.407z M355.477,47.361l23.092,8.328l0.978-2.682l-23.094-8.327L355.477,47.361z
		 M349.927,46.968l2.729,6.3l2.094-5.756c0.004-0.024,0.01-0.048,0.02-0.07l1.189-3.274c0.007-0.02,0.016-0.038,0.026-0.056
		l1.552-4.264l-4.959-0.162L349.927,46.968z"/>
	<path fill="#808285" d="M62.771,133.842l-5.145-14.377v-5.508h0.154c0.256,0.012,0.473-0.186,0.484-0.441s-0.186-0.472-0.441-0.484
		c-0.014-0.001-0.029-0.001-0.043,0h-7.126c-0.256-0.012-0.472,0.185-0.484,0.44c-0.012,0.256,0.186,0.473,0.44,0.484
		c0.015,0,0.029,0,0.044,0h0.159v5.508l-5.145,14.377c-0.424,0.945-0.002,2.055,0.942,2.479c0.285,0.127,0.599,0.182,0.909,0.158
		h13.393c1.031,0.082,1.934-0.689,2.016-1.721C62.954,134.445,62.899,134.129,62.771,133.842z M61.836,135.157
		c-0.223,0.277-0.567,0.428-0.923,0.4H47.521c-0.523,0.078-1.01-0.283-1.088-0.807c-0.029-0.204,0.006-0.412,0.104-0.594
		l5.17-14.454c0.018-0.05,0.027-0.103,0.027-0.156v-5.588H56.7v5.588c0,0.053,0.009,0.106,0.027,0.156l5.17,14.454
		C62.042,134.481,62.02,134.854,61.836,135.157L61.836,135.157z M44.269,135.398c-4.258,0.866-8.412-1.885-9.278-6.144
		c-0.735-3.615,1.141-7.256,4.511-8.756c0.167-0.075,0.274-0.24,0.273-0.423v-11.671h5.863v11.675
		c-0.001,0.183,0.106,0.348,0.273,0.423c0.855,0.382,1.637,0.915,2.305,1.572c0.178,0.184,0.471,0.19,0.654,0.013
		c0.186-0.177,0.191-0.47,0.014-0.655c-0.006-0.006-0.012-0.013-0.019-0.019c-0.675-0.663-1.451-1.213-2.3-1.629v-11.381h0.147
		c0.256,0.012,0.472-0.185,0.484-0.441c0.012-0.255-0.186-0.472-0.44-0.484c-0.015,0-0.029,0-0.044,0H38.69
		c-0.255-0.012-0.472,0.186-0.483,0.441c-0.013,0.255,0.186,0.472,0.44,0.484c0.015,0.001,0.029,0.001,0.043,0h0.154v11.375
		c-4.362,2.136-6.168,7.403-4.033,11.767c1.758,3.59,5.715,5.543,9.634,4.756c0.243-0.078,0.378-0.338,0.302-0.582
		C44.682,135.514,44.483,135.381,44.269,135.398L44.269,135.398z"/>
	<g>
		<path fill="none" stroke="#939598" stroke-miterlimit="10" d="M102.527,121.108v14.377V121.108z"/>
		<path fill="none" stroke="#939598" stroke-miterlimit="10" d="M107.804,135.485H97.25H107.804z"/>
		<path fill="none" stroke="#939598" stroke-miterlimit="10" d="M113.239,113.41c0,0-4.525,7.698-10.72,7.698
			s-11.216-7.698-11.216-7.698l11.216,0.119L113.239,113.41z"/>
		<path fill="none" stroke="#939598" stroke-miterlimit="10" d="M96.283,131.92l12.763-0.563c0,0,1.668-0.604,2.116-1.111
			c0.369-0.419,1.025-1.739,1.086-2.293c0.045-0.415-0.322-1.309-0.588-1.631c-0.431-0.521-1.593-0.936-2.258-1.064
			c-1.848-0.356-4.438-0.727-6.31-0.922c-1.438-0.149-5.062-0.128-6.461-0.488c-0.696-0.179-2.671-1.001-3.098-1.143
			s-2.301-1.544-2.917-2.222c-0.487-0.536-1.388-1.709-1.637-2.388c-0.24-0.653-0.322-2.071-0.285-2.766
			c0.036-0.688,0.315-2.055,0.569-2.695c0.252-0.637,0.967-1.829,1.423-2.34c0.54-0.604,1.887-1.537,2.562-1.986
			c0.63-0.419,1.93-1.212,2.634-1.489c0.562-0.222,1.977-0.567,2.58-0.567"/>
		<ellipse fill="none" stroke="#939598" stroke-miterlimit="10" cx="102.719" cy="106.465" rx="4.217" ry="2.48"/>
	</g>
	<path fill="#808285" d="M154.678,122.176l5.234-5.101c2.626-2.535,2.7-6.719,0.165-9.345c-0.055-0.056-0.109-0.111-0.165-0.165
		c-2.726-2.623-7.035-2.623-9.76,0l-5.233,5.1l0,0l-4.525,4.408c-2.626,2.538-2.698,6.725-0.159,9.351
		c0.052,0.055,0.105,0.107,0.159,0.16c2.725,2.621,7.034,2.621,9.759,0L154.678,122.176L154.678,122.176L154.678,122.176z
		 M150.855,108.251c2.333-2.243,6.02-2.243,8.353,0c2.248,2.167,2.313,5.747,0.145,7.995c-0.047,0.049-0.096,0.097-0.145,0.144
		l-4.882,4.758l-8.353-8.14L150.855,108.251z M149.455,125.899c-2.333,2.243-6.021,2.243-8.353,0
		c-2.248-2.173-2.309-5.756-0.137-8.003c0.044-0.046,0.09-0.092,0.137-0.137l4.173-4.065l8.353,8.139L149.455,125.899z
		 M162.166,122.549c-3.885,0.097-6.955,3.324-6.858,7.209c0.098,3.885,3.326,6.955,7.211,6.857c3.816-0.095,6.859-3.217,6.859-7.034
		c-0.057-3.933-3.285-7.079-7.218-7.032H162.166z M155.942,129.581c0.049-3.392,2.832-6.104,6.224-6.063
		c1.513-0.002,2.975,0.541,4.119,1.531c-0.032,0.016-0.062,0.035-0.089,0.057l-8.7,8.475c-1-1.092-1.556-2.518-1.56-3.999H155.942z
		 M162.166,135.646c-1.438,0.003-2.835-0.486-3.956-1.387l8.689-8.469c0.021-0.023,0.039-0.051,0.054-0.078
		c0.925,1.076,1.435,2.449,1.436,3.868c-0.048,3.394-2.835,6.107-6.229,6.065H162.166z"/>
	<path id="Forma_1_12_" fill="#808285" d="M216.566,137.106h-26.283c-0.197,0-0.357-0.16-0.357-0.356
		c0-0.094,0.036-0.183,0.101-0.25c2.89-2.963,3.174-2.752,3.423-2.564c0.372,0.21,0.8,0.302,1.226,0.263
		c0.119-0.011,0.227-0.075,0.292-0.175c0.421-0.688,1.715-1.794,2.484-1.464c0.588-0.069,1.148-0.291,1.625-0.644
		c0.2-0.381,0.537-0.673,0.943-0.816c0.045-0.025,0.095-0.04,0.146-0.043c0.325-0.009,0.645-0.082,0.94-0.218
		c0.399-0.409,0.835-0.782,1.301-1.114c0.19-0.146,0.457-0.134,0.636,0.025c0.019,0.017,0.037,0.032,0.058,0.046v-9.357
		c0.006-2.049-0.794-4.018-2.227-5.482c-0.721,0.641-1.638,1.015-2.601,1.062c-1.589,0.069-3.242-0.742-4.915-2.413
		c-2.722-2.665-4.128-6.396-3.843-10.194c0.021-0.16,0.147-0.287,0.309-0.308c3.799-0.284,7.531,1.12,10.199,3.84
		c1.672,1.671,2.485,3.324,2.414,4.912c-0.044,0.962-0.417,1.88-1.057,2.6c0.972,0.988,1.688,2.198,2.086,3.525
		c0.397-1.329,1.112-2.54,2.084-3.53c-0.636-0.719-1.007-1.633-1.053-2.591c-0.07-1.588,0.743-3.241,2.415-4.912
		c2.668-2.721,6.4-4.125,10.2-3.84c0.16,0.021,0.286,0.146,0.308,0.307c0.284,3.799-1.122,7.53-3.844,10.195
		c-1.672,1.671-3.324,2.484-4.915,2.412c-0.966-0.046-1.888-0.422-2.609-1.065c-1.435,1.466-2.236,3.437-2.23,5.487v9.3
		c0.179-0.145,0.433-0.149,0.616-0.01c0.471,0.334,0.909,0.71,1.312,1.123c0.295,0.128,0.612,0.199,0.935,0.209
		c0.051,0.004,0.101,0.019,0.146,0.043c0.406,0.144,0.743,0.436,0.943,0.817c0.478,0.352,1.038,0.572,1.627,0.642
		c0.769-0.329,2.063,0.777,2.482,1.465c0.065,0.101,0.174,0.165,0.293,0.175c0.426,0.039,0.853-0.053,1.225-0.263
		c0.25-0.187,0.533-0.4,3.423,2.564c0.133,0.146,0.122,0.372-0.024,0.505C216.735,137.071,216.653,137.104,216.566,137.106z
		 M191.145,136.393h24.563c-0.625-0.651-1.302-1.251-2.023-1.794c-0.504,0.267-1.078,0.371-1.644,0.3
		c-0.316-0.048-0.597-0.23-0.769-0.5c-0.352-0.59-0.925-1.016-1.592-1.18c-0.624,0.267-1.879-0.422-2.181-0.62
		c-0.191-0.097-0.339-0.262-0.415-0.461c-0.163-0.144-0.342-0.269-0.532-0.372c-0.5,0-0.985-0.173-1.374-0.487
		c-0.323-0.321-0.671-0.616-1.041-0.882c-0.431,0.289-0.992,0.289-1.423,0c-0.369,0.266-0.718,0.561-1.04,0.882
		c-0.389,0.314-0.874,0.486-1.374,0.487c-0.19,0.104-0.369,0.229-0.532,0.372c-0.076,0.199-0.224,0.364-0.415,0.461
		c-0.3,0.2-1.557,0.887-2.181,0.62c-0.667,0.164-1.241,0.589-1.592,1.18c-0.172,0.27-0.453,0.452-0.77,0.5
		c-0.565,0.071-1.139-0.033-1.643-0.3c-0.723,0.542-1.4,1.143-2.027,1.794H191.145z M190.205,103.787
		c-0.128,3.479,1.199,6.854,3.663,9.313c1.523,1.522,3,2.263,4.378,2.2c0.896-0.042,1.741-0.428,2.359-1.078
		c0.014-0.017,0.029-0.031,0.045-0.044c0.65-0.624,1.037-1.473,1.079-2.372c0.057-1.376-0.687-2.845-2.206-4.362
		c-2.462-2.464-5.841-3.789-9.321-3.656H190.205z M216.233,103.775c-3.308,0.015-6.477,1.335-8.817,3.673
		c-1.52,1.519-2.263,2.986-2.206,4.362c0.043,0.899,0.43,1.749,1.08,2.372c0.016,0.013,0.03,0.027,0.044,0.043
		c0.623,0.65,1.473,1.036,2.373,1.079c1.379,0.056,2.846-0.687,4.365-2.205c2.467-2.456,3.795-5.832,3.663-9.312
		c-0.132-0.009-0.301-0.009-0.505-0.009L216.233,103.775z M206.949,113.646c-0.063,0-0.126-0.017-0.181-0.049
		c-0.17-0.1-0.227-0.318-0.128-0.488c0.022-0.037,0.273-0.464,0.715-1.1l-0.226-1.84c-0.024-0.195,0.115-0.373,0.311-0.397
		c0.196-0.024,0.374,0.115,0.398,0.311l0,0l0.132,1.076c0.488-0.646,1.01-1.269,1.562-1.862c0.17-0.183,0.354-0.37,0.552-0.56
		l-0.322-1.912c-0.054-0.189,0.058-0.387,0.247-0.44c0.189-0.053,0.387,0.058,0.44,0.247c0.007,0.024,0.011,0.05,0.013,0.075
		l0.244,1.45c1.313-1.144,2.684-2.221,4.105-3.227c0.162-0.113,0.385-0.075,0.498,0.087c0.114,0.161,0.075,0.385-0.087,0.498l0,0
		c-0.021,0.014-1.274,0.899-2.641,2l1.369,0.443c0.188,0.062,0.29,0.263,0.229,0.45c-0.061,0.188-0.263,0.29-0.45,0.229l0,0
		l-1.8-0.585c-0.422,0.353-0.837,0.717-1.214,1.071l-0.009,0.01c-0.236,0.223-0.456,0.441-0.653,0.653
		c-0.3,0.318-0.575,0.638-0.832,0.948l2.724,0.732c0.192,0.043,0.313,0.234,0.27,0.427c-0.044,0.192-0.235,0.313-0.428,0.27
		c-0.009-0.002-0.018-0.005-0.027-0.008l-3.025-0.813c-0.533,0.681-1.026,1.393-1.478,2.131c-0.065,0.108-0.185,0.173-0.311,0.171
		H206.949z M199.991,113.646c-0.128,0-0.245-0.067-0.31-0.177c-0.451-0.738-0.944-1.45-1.478-2.132l-3.025,0.814
		c-0.188,0.057-0.388-0.05-0.445-0.238c-0.057-0.188,0.05-0.388,0.239-0.445c0.007-0.002,0.014-0.004,0.021-0.006l2.724-0.732
		c-0.257-0.311-0.535-0.629-0.832-0.948c-0.2-0.211-0.417-0.43-0.653-0.653l-0.01-0.01c-0.377-0.354-0.792-0.719-1.214-1.072
		l-1.8,0.586c-0.188,0.061-0.39-0.042-0.45-0.229c-0.062-0.188,0.041-0.389,0.229-0.45l0,0l1.369-0.443
		c-1.365-1.101-2.62-1.98-2.641-2c-0.161-0.114-0.2-0.337-0.087-0.498c0.114-0.161,0.337-0.2,0.498-0.086
		c1.422,1.005,2.792,2.082,4.105,3.226l0.244-1.45c0.054-0.189,0.251-0.3,0.44-0.247c0.162,0.046,0.27,0.197,0.26,0.365
		l-0.322,1.912c0.2,0.189,0.383,0.377,0.553,0.559c0.552,0.595,1.072,1.217,1.561,1.864l0.131-1.075
		c0.024-0.195,0.202-0.335,0.398-0.311c0.195,0.023,0.335,0.202,0.311,0.397l0,0l-0.226,1.838c0.441,0.638,0.693,1.064,0.715,1.101
		c0.102,0.17,0.047,0.39-0.123,0.491c-0.056,0.033-0.12,0.051-0.185,0.051H199.991z"/>
	<path id="Forma_1_11_" fill="#808285" d="M249.084,134.058c-8.561,0-15.5-6.939-15.5-15.5s6.939-15.5,15.5-15.5
		s15.5,6.939,15.5,15.5l0,0C264.574,127.114,257.641,134.048,249.084,134.058z M249.084,104.058c-8.008,0-14.5,6.492-14.5,14.5
		c0,8.008,6.492,14.5,14.5,14.5c8.008,0,14.5-6.492,14.5-14.5l0,0C263.575,110.553,257.088,104.066,249.084,104.058z
		 M246.218,125.169l-5.541-5.541l0.708-0.708l4.833,4.834l10.522-10.521l0.707,0.707L246.218,125.169z"/>
	<path id="Forma_1_10_" fill="#808285" d="M303.055,136.914c-1.436-0.021-2.584-1.201-2.563-2.637l0.738-15.973
		c-2.152-0.831-3.426-3.241-3.426-6.542c0-3.788,2.356-6.87,5.25-6.87s5.25,3.082,5.25,6.87c0,3.3-1.271,5.71-3.426,6.542
		l0.74,15.95c0.027,1.44-1.119,2.631-2.561,2.659C303.059,136.913,303.057,136.914,303.055,136.914z M303.055,105.914
		c-2.348,0-4.259,2.624-4.259,5.852c0,3.007,1.152,5.134,3.082,5.688c0.225,0.068,0.373,0.28,0.361,0.514l-0.758,16.335
		c0.006,0.869,0.717,1.568,1.586,1.562s1.568-0.716,1.563-1.586l-0.758-16.313c-0.012-0.234,0.139-0.446,0.363-0.514
		c1.93-0.554,3.08-2.681,3.08-5.688c0-3.229-1.91-5.853-4.26-5.853V105.914z M289.536,136.914c-1.436-0.021-2.584-1.2-2.564-2.637
		l0,0l0.74-15.983c-2.069-0.791-3.433-2.778-3.426-4.993v-7.9c-0.005-0.276,0.215-0.504,0.491-0.509c0.003,0,0.006,0,0.009,0h2.211
		c0.276,0,0.5,0.224,0.5,0.5c0,0.003,0,0.006,0,0.009v6.83h0.55v-6.829c-0.005-0.276,0.215-0.504,0.491-0.509
		c0.003,0,0.006,0,0.009,0h2c0.276,0,0.5,0.224,0.5,0.5c0,0.003,0,0.006,0,0.009v6.83h0.55v-6.83
		c-0.005-0.276,0.215-0.504,0.491-0.509c0.003,0,0.006,0,0.009,0h2.217c0.276,0,0.5,0.224,0.5,0.5c0,0.003,0,0.006,0,0.009v7.9
		c0.006,2.215-1.357,4.203-3.426,4.993l0.74,15.958c0.027,1.441-1.119,2.632-2.561,2.659
		C289.556,136.913,289.546,136.913,289.536,136.914z M285.275,105.914v7.389c-0.006,1.91,1.249,3.596,3.081,4.137
		c0.225,0.067,0.375,0.279,0.362,0.514l-0.756,16.349c-0.015,0.869,0.678,1.586,1.547,1.6c0.869,0.015,1.585-0.678,1.6-1.547
		c0-0.025,0-0.051,0-0.077l-0.757-16.325c-0.013-0.234,0.137-0.447,0.362-0.514c1.833-0.541,3.088-2.227,3.082-4.137v-7.391h-1.227
		v6.83c0.005,0.276-0.215,0.504-0.491,0.509c-0.003,0-0.006,0-0.009,0h-1.54c-0.276,0-0.5-0.224-0.5-0.5c0-0.003,0-0.006,0-0.009
		v-6.83h-1.006v6.83c0.005,0.276-0.215,0.504-0.491,0.509c-0.003,0-0.006,0-0.009,0h-1.527c-0.276,0-0.5-0.224-0.5-0.5
		c0-0.003,0-0.006,0-0.009v-6.83h-1.228L285.275,105.914z"/>
	<path id="Forma_1_9_" fill="#808285" d="M336.881,110.069c0.455,0.003,0.826-0.363,0.83-0.818c0.002-0.341,0.063-0.679,0.18-1
		c0.437-1.122,1.516-1.861,2.72-1.862c2.5,0.012,4.538-2,4.56-4.5c0-0.458-0.371-0.83-0.83-0.83c-0.458,0-0.83,0.372-0.83,0.83
		c-0.001,0.342-0.065,0.681-0.189,1c-0.295,0.78-0.916,1.392-1.699,1.677c-0.323,0.123-0.666,0.186-1.011,0.185
		c-2.501-0.015-4.542,1.999-4.56,4.5C336.054,109.706,336.426,110.072,336.881,110.069z M354.65,136.056l-0.01-16.312l-7.141,5.661
		v-5.674l-6.979,5.626l-0.58-9.67h-0.021v-1.378c0-1.243-1.006-2.252-2.25-2.255h-3.209c-1.244,0.003-2.25,1.012-2.25,2.255v1.4
		l-1.561,20.332L354.65,136.056z M346.48,121.866v5.649l7.14-5.662l0.011,13.175H331.75l1.44-18.784h5.771l0.659,11.151
		L346.48,121.866z M333.23,114.31c-0.001-0.681,0.549-1.233,1.23-1.234h3.209c0.681,0.001,1.231,0.553,1.23,1.234v0.913h-5.67
		V114.31L333.23,114.31z"/>
	<path id="Forma_1_copy_3_копия_2_1_" fill="#808285" d="M400.269,121.113l1.506,14.37h2.506v-3.757
		c0.001-0.175,0.143-0.316,0.317-0.315l0,0h1.508v-7.567c0.01-0.176,0.159-0.309,0.335-0.299c0.16,0.009,0.289,0.137,0.299,0.299
		v7.569h0.787c0.175-0.001,0.316,0.141,0.317,0.315l0,0v3.755h0.876c0.174-0.001,0.314,0.14,0.315,0.314
		c0,0.174-0.141,0.315-0.314,0.315c-0.001,0-0.001,0-0.001,0h-29.451c-0.175,0-1.014,0.045-1-0.314
		c0.063-0.449,0.479-0.762,0.928-0.699c0.023,0.004,0.049,0.008,0.072,0.014h2v-13c0-0.174,0.236-0.117,0.412-0.117
		c0.175,0,0.588-0.057,0.588,0.117v13h7l3-18 M404.913,135.483h2.301v-3.442h-2.301V135.483z M393.269,118.113l-3,17h10l-1-14
		 M407.76,123.459c-0.037,0-0.073-0.006-0.108-0.019l-23.391-8.433l-2.283,6.278c-0.061,0.165-0.242,0.249-0.407,0.188
		c-0.081-0.03-0.146-0.092-0.181-0.171l-3.096-7.145c-0.031-0.074-0.033-0.157-0.006-0.232l2.771-7.612
		c0.045-0.131,0.17-0.217,0.309-0.212l5.625,0.183c0.174,0.005,0.311,0.15,0.305,0.324c0,0.033-0.007,0.066-0.018,0.098
		l-1.611,4.435l23.393,8.434c0.162,0.059,0.247,0.237,0.189,0.4l-1.192,3.275c-0.028,0.078-0.087,0.143-0.163,0.178
		C407.853,123.447,407.807,123.459,407.76,123.459z M384.477,114.413l23.092,8.328l0.978-2.682l-23.094-8.327L384.477,114.413z
		 M378.927,114.02l2.729,6.3l2.094-5.756c0.004-0.024,0.01-0.048,0.02-0.07l1.189-3.274c0.007-0.02,0.016-0.038,0.026-0.056
		l1.552-4.264l-4.959-0.162L378.927,114.02z"/>
	<path d="M133.688,193.885c-0.402-0.447-0.971-0.708-1.572-0.72c-0.605,0.014-1.178,0.271-1.59,0.715l-1.471,1.462
		c-0.119-0.065-0.24-0.126-0.357-0.187c-0.167-0.084-0.325-0.162-0.46-0.246c-1.457-0.945-2.749-2.121-3.827-3.482
		c-0.5-0.604-0.921-1.269-1.255-1.978c0.381-0.348,0.734-0.71,1.078-1.059c0.131-0.13,0.261-0.264,0.391-0.395
		c0.887-0.77,0.982-2.113,0.212-3c-0.065-0.076-0.137-0.146-0.212-0.212l-1.27-1.268c-0.144-0.144-0.292-0.292-0.432-0.441
		c-0.279-0.288-0.572-0.585-0.874-0.864c-0.407-0.427-0.968-0.673-1.558-0.682c-0.596,0.012-1.164,0.257-1.581,0.682l-0.009,0.009
		l-1.581,1.593c-0.587,0.574-0.945,1.341-1.009,2.159c-0.052,1.179,0.152,2.354,0.6,3.446c0.833,2.167,2.036,4.171,3.557,5.925
		c1.995,2.398,4.479,4.342,7.287,5.7c1.275,0.657,2.664,1.066,4.092,1.207c0.101,0,0.2,0.009,0.293,0.009
		c1.02,0.024,1.999-0.396,2.684-1.15c0-0.011,0.014-0.015,0.019-0.024c0.255-0.296,0.526-0.575,0.813-0.841
		c0.199-0.189,0.404-0.389,0.604-0.6c0.435-0.423,0.687-1,0.7-1.607c-0.012-0.605-0.271-1.181-0.716-1.592L133.688,193.885z
		 M135.353,198.775L135.353,198.775c-0.182,0.199-0.367,0.371-0.567,0.566c-0.316,0.293-0.616,0.604-0.899,0.93
		c-0.445,0.492-1.086,0.762-1.748,0.737c-0.07,0-0.146,0-0.215,0c-1.267-0.13-2.497-0.499-3.627-1.086
		c-2.644-1.28-4.983-3.11-6.864-5.367c-1.43-1.647-2.563-3.531-3.348-5.567c-0.39-0.917-0.568-1.91-0.521-2.906
		c0.037-0.523,0.266-1.014,0.642-1.379l1.586-1.584c0.185-0.195,0.438-0.313,0.706-0.329c0.26,0.016,0.504,0.132,0.679,0.325
		l0.014,0.014c0.284,0.265,0.554,0.539,0.837,0.831c0.144,0.149,0.293,0.3,0.442,0.45l1.269,1.268
		c0.397,0.285,0.488,0.837,0.204,1.235c-0.057,0.079-0.125,0.148-0.204,0.204c-0.134,0.135-0.265,0.27-0.4,0.4
		c-0.391,0.4-0.763,0.77-1.168,1.133c-0.009,0.006-0.017,0.014-0.023,0.023c-0.293,0.266-0.39,0.687-0.242,1.054
		c0,0.013,0.01,0.028,0.014,0.042c0.382,0.882,0.887,1.706,1.5,2.447l0,0c1.161,1.469,2.556,2.736,4.129,3.752
		c0.186,0.113,0.377,0.217,0.572,0.311c0.168,0.084,0.326,0.164,0.46,0.246c0.019,0.01,0.038,0.023,0.056,0.032
		c0.143,0.075,0.301,0.114,0.461,0.116c0.27-0.006,0.524-0.122,0.707-0.32l1.59-1.588c0.181-0.201,0.432-0.326,0.701-0.348
		c0.26,0.016,0.502,0.139,0.67,0.339l0.008,0.009l2.563,2.559c0.403,0.307,0.482,0.882,0.176,1.285
		c-0.047,0.063-0.102,0.117-0.162,0.166H135.353z M128.179,185.49c2.488,0.43,4.439,2.377,4.873,4.866
		c0.051,0.301,0.313,0.521,0.618,0.52c0.036-0.001,0.071-0.004,0.107-0.01c0.341-0.056,0.573-0.379,0.517-0.721
		c0-0.001,0-0.002-0.001-0.003c-0.523-3.013-2.886-5.371-5.899-5.888c-0.342-0.057-0.665,0.17-0.727,0.511
		c-0.062,0.337,0.162,0.661,0.499,0.723C128.17,185.489,128.174,185.49,128.179,185.49z M138.278,189.961
		c-0.861-4.959-4.749-8.841-9.709-9.695c-0.34-0.068-0.67,0.151-0.737,0.49c-0.068,0.339,0.151,0.669,0.49,0.737
		c0.015,0.003,0.031,0.006,0.047,0.008c4.435,0.762,7.909,4.232,8.677,8.665c0.052,0.301,0.313,0.521,0.619,0.52
		c0.036-0.001,0.072-0.004,0.107-0.009c0.335-0.054,0.563-0.37,0.508-0.706c0-0.005-0.002-0.01-0.002-0.014V189.961z"/>
	<path id="Forma_1_4_" d="M177.223,183.011v-0.101c-0.01-0.414-0.174-0.81-0.461-1.109l-0.034-0.035
		c-0.019,0-0.032-0.015-0.033-0.033c0,0,0-0.001,0.001-0.002c-0.068-0.068-0.132-0.1-0.201-0.169c-0.033,0-0.033-0.034-0.067-0.034
		c-0.067-0.034-0.164-0.068-0.231-0.1c-0.033,0-0.033-0.034-0.068-0.034c-0.095-0.04-0.196-0.063-0.299-0.069h-0.067
		c-0.101,0-0.231-0.033-0.363-0.033h-21.513c-0.134-0.006-0.269,0.006-0.4,0.033c-0.037-0.006-0.074,0.007-0.1,0.034
		c-0.1,0.034-0.2,0.034-0.262,0.069c-0.034,0-0.034,0.034-0.067,0.034c-0.067,0.035-0.165,0.068-0.232,0.1l-0.034,0.034
		c-0.067,0.035-0.131,0.1-0.2,0.134l-0.1,0.101c-0.226,0.253-0.366,0.571-0.4,0.909v15.135c0.049,0.439,0.275,0.841,0.626,1.11
		c0.319,0.221,0.698,0.339,1.087,0.337h21.689c0.111,0.006,0.223-0.006,0.329-0.034h0.067c0.1-0.035,0.199-0.035,0.263-0.069h0.033
		c0.64-0.225,1.06-0.838,1.038-1.515v-14.661C177.223,183.042,177.223,183.045,177.223,183.011z M175.113,182.54l-10.383,10.343
		l-2.374-2.362l0,0l-8.143-7.987h20.899l0,0V182.54z M153.323,197.399v-14.018l7.679,7.547L153.323,197.399z M164.398,198.104
		h-9.986l7.483-6.268l2.4,2.393c0.084,0.081,0.187,0.139,0.3,0.168h0.2c0.115-0.021,0.221-0.08,0.3-0.168l2.273-2.259l7.515,6.134
		h-10.48H164.398z M175.998,197.431l-7.711-6.368l7.711-7.682V197.431z"/>
	<path id="Forma_1_5_" d="M200.052,198.899c2.186,0.008,4.303-0.765,5.97-2.179l7.24,7.261c0.315,0.35,0.854,0.378,1.205,0.062
		c0.35-0.315,0.377-0.854,0.062-1.204c-0.019-0.021-0.037-0.039-0.057-0.058l-7.25-7.261c3.284-3.967,2.729-9.846-1.237-13.129
		c-3.968-3.284-9.846-2.73-13.13,1.237c-3.283,3.967-2.729,9.846,1.237,13.129C195.769,198.145,197.876,198.902,200.052,198.899z
		 M200.052,181.887c4.228-0.009,7.662,3.412,7.67,7.64c0.008,4.229-3.412,7.662-7.64,7.67c-4.229,0.009-7.662-3.412-7.67-7.64
		c0-0.005,0-0.01,0-0.014C192.411,185.321,195.83,181.895,200.052,181.887L200.052,181.887z"/>
	<path id="Forma_1_6_" d="M286.896,188.405c-0.12-0.129-0.12-0.329,0-0.458c0.12-0.125,0.318-0.128,0.442-0.008
		c0.003,0.003,0.006,0.005,0.008,0.008l3.96,4.03l3.96-4.03c0.12-0.125,0.318-0.128,0.442-0.008
		c0.002,0.003,0.005,0.005,0.008,0.008c0.119,0.129,0.119,0.329,0,0.458l-4.19,4.261c-0.12,0.124-0.318,0.128-0.442,0.008
		c-0.003-0.003-0.005-0.005-0.007-0.008L286.896,188.405z"/>
	<path id="Forma_1_7_" d="M73.628,183.256h24v2.106h-24V183.256z M73.628,191.137h24v2.105h-24V191.137L73.628,191.137z
		 M73.628,199.146h24v2.109h-24v-2.111V199.146z"/>
	<circle opacity="0.2" fill="#FFFFFF" cx="120.843" cy="282.377" r="38.5"/>
	<path id="Forma_1_copy" fill="#0815BC" d="M113.099,300.482c-0.504,0.523-1.336,0.539-1.859,0.035
		c-0.523-0.504-0.539-1.336-0.035-1.859c0.008-0.008,0.016-0.018,0.024-0.025l16.43-16.266l-16.43-16.268
		c-0.511-0.498-0.521-1.315-0.023-1.826c0.007-0.008,0.015-0.016,0.023-0.023c0.519-0.51,1.351-0.51,1.87,0l17.369,17.193
		c0.51,0.511,0.51,1.338,0,1.849L113.099,300.482z"/>
	<path id="Forma_1_copy_1_" fill="#FFFFFF" d="M55.345,264.271c0.503-0.523,1.336-0.539,1.859-0.035
		c0.524,0.504,0.54,1.336,0.036,1.859c-0.008,0.008-0.016,0.018-0.025,0.025l-16.429,16.266l16.43,16.268
		c0.511,0.498,0.521,1.314,0.022,1.826c-0.007,0.008-0.015,0.016-0.022,0.023c-0.519,0.51-1.351,0.51-1.87,0l-17.369-17.193
		c-0.51-0.511-0.51-1.338,0-1.849L55.345,264.271z"/>
	<path id="Forma_1_copy_10" fill="#808285" d="M359.946,189.54c0.408,0,0.74,0.331,0.74,0.739s-0.33,0.74-0.738,0.741
		c-0.409,0-0.74-0.331-0.741-0.739c0,0,0,0,0-0.001c0-0.408,0.33-0.739,0.737-0.74H359.946z M352.153,198.91L352.153,198.91
		c0,0.01,0,0.01,0.012,0.01c0.009,0.027,0.021,0.055,0.033,0.08c0,0.01,0.012,0.01,0.012,0.02c0.002,0.011,0.006,0.021,0.01,0.03
		l0.012,0.011c0.012,0.02,0.034,0.029,0.045,0.049l0.012,0.01c0.005,0.012,0.013,0.022,0.022,0.031
		c0.005-0.001,0.011,0.003,0.011,0.008c0,0.001,0,0.002,0,0.002c0.012,0.01,0.021,0.01,0.034,0.02l0.011,0.01
		c0.006,0,0.011,0.005,0.012,0.01c0.017,0.008,0.032,0.018,0.045,0.031c0.008-0.002,0.017,0.002,0.021,0.01l0,0
		c0.008,0,0.016,0.004,0.021,0.01c0.033,0.008,0.066,0.012,0.101,0.01h12.116c0.25,0.003,0.455-0.197,0.459-0.449
		c0-0.004,0-0.007,0-0.01V186.72c0.002-0.251-0.197-0.457-0.449-0.46c-0.004,0-0.008,0-0.01,0h-12.077
		c-0.25-0.003-0.456,0.197-0.459,0.447c0,0.004,0,0.009,0,0.013v12.06c0,0.03,0.011,0.079,0.011,0.11v0.02H352.153z M364.253,198.33
		H354.14l7.479-4.891l2.643,2.521v2.37H364.253z M353.054,187.18h11.199v7.51l-2.273-2.169c-0.154-0.147-0.389-0.172-0.57-0.061
		l-2.139,1.41l-1.489-1.5c-0.151-0.152-0.39-0.177-0.571-0.06l-4.153,2.62v-7.75H353.054z M353.054,196.01l4.333-2.73l1.1,1.11
		l-5.431,3.55v-1.93H353.054z"/>
	<circle fill="none" stroke="#939598" stroke-miterlimit="10" cx="211.584" cy="283.373" r="22.5"/>
	<path id="Forma_1_copy_2_" fill="#939598" d="M213.612,273.954c0.262-0.272,0.695-0.28,0.967-0.019
		c0.272,0.263,0.281,0.695,0.019,0.968c-0.004,0.004-0.008,0.009-0.013,0.013l-8.546,8.461l8.546,8.462
		c0.266,0.259,0.271,0.685,0.012,0.95c-0.003,0.004-0.008,0.008-0.012,0.012c-0.27,0.266-0.703,0.266-0.973,0l-9.035-8.943
		c-0.266-0.266-0.266-0.695,0-0.961L213.612,273.954z"/>
	<circle fill="none" stroke="#0815BC" stroke-miterlimit="10" cx="267.793" cy="283.373" r="22.5"/>
	<path id="Forma_1_copy_3_" fill="#0815BC" d="M265.765,292.791c-0.262,0.271-0.695,0.28-0.967,0.018
		c-0.272-0.262-0.281-0.695-0.019-0.967c0.004-0.004,0.008-0.009,0.013-0.014l8.546-8.46l-8.546-8.462
		c-0.266-0.259-0.271-0.684-0.012-0.95c0.003-0.004,0.008-0.008,0.012-0.012c0.27-0.266,0.703-0.265,0.973,0l9.035,8.943
		c0.266,0.265,0.266,0.696,0,0.961L265.765,292.791z"/>
	<path id="Forma_1_8_" fill="#939598" d="M191.213,362.246h1.48v7.979h1.391v-7.979h1.51v-1.311h-4.381V362.246z M203.014,363.226
		c-0.523,0.035-1.002,0.313-1.291,0.75v-3.04h-1.26v9.29h1.26v-0.67c0.287,0.444,0.764,0.729,1.291,0.771
		c0.479,0.02,0.902-0.311,1-0.78c0.105-0.455,0.148-0.923,0.129-1.39v-2.76c0.021-0.468-0.021-0.936-0.129-1.391
		C203.917,363.536,203.493,363.206,203.014,363.226L203.014,363.226z M202.893,368.246c0,0.63-0.189,0.939-0.549,0.939
		c-0.242-0.012-0.467-0.124-0.621-0.31v-4.22c0.156-0.184,0.381-0.293,0.621-0.301c0.359,0,0.549,0.32,0.549,0.94V368.246
		L202.893,368.246z M198.124,368.596c-0.154,0.312-0.447,0.531-0.789,0.591c-0.162,0.005-0.295-0.121-0.301-0.282
		c0-0.003,0-0.006,0-0.008c-0.012-0.163-0.016-0.327-0.01-0.49v-5.101h-1.25v5.471c-0.016,0.347,0.021,0.693,0.109,1.029
		c0.117,0.341,0.453,0.556,0.811,0.521c0.576-0.064,1.098-0.374,1.43-0.851v0.75h1.26v-6.92h-1.26V368.596z M199.204,356.916
		c0.41,0,0.6-0.33,0.6-0.97v-2.95c0-0.64-0.189-0.97-0.6-0.97s-0.609,0.33-0.609,0.97v2.95
		C198.594,356.586,198.793,356.916,199.204,356.916L199.204,356.916z M200.043,342.276c-10.271,0.006-18.596,8.337-18.59,18.609
		c0.006,10.273,8.338,18.596,18.609,18.591c10.27-0.006,18.59-8.332,18.59-18.601c0-10.272-8.326-18.6-18.6-18.6
		C200.051,342.276,200.047,342.276,200.043,342.276L200.043,342.276z M202.114,350.977h1.27v5.149
		c-0.006,0.163-0.002,0.327,0.01,0.49c-0.004,0.162,0.125,0.297,0.289,0.3c0.004,0,0.008,0,0.012,0
		c0.346-0.063,0.643-0.285,0.799-0.6v-5.341h1.271v6.99h-1.271v-0.76c-0.336,0.481-0.865,0.795-1.449,0.86
		c-0.359,0.035-0.699-0.18-0.82-0.521c-0.088-0.339-0.125-0.689-0.109-1.04V350.977L202.114,350.977L202.114,350.977z
		 M197.323,353.256c-0.047-0.578,0.094-1.156,0.4-1.649c0.641-0.817,1.824-0.96,2.641-0.319c0.119,0.094,0.227,0.2,0.32,0.319
		c0.297,0.496,0.434,1.072,0.389,1.649v2.45c0.045,0.574-0.092,1.147-0.389,1.64c-0.643,0.817-1.824,0.961-2.643,0.319
		c-0.117-0.093-0.225-0.2-0.318-0.319c-0.305-0.489-0.445-1.064-0.4-1.64V353.256z M193.944,348.586l0.99,3.681l0.959-3.681h1.42
		l-1.689,5.58v3.801h-1.4v-3.801c-0.223-1.007-0.51-1.999-0.859-2.97c-0.301-0.87-0.609-1.74-0.9-2.61H193.944z M210.063,370.836
		c-0.24,1.089-1.143,1.907-2.25,2.04c-5.172,0.387-10.367,0.387-15.539,0c-1.107-0.13-2.008-0.95-2.24-2.04
		c-0.48-3.252-0.48-6.558,0-9.81c0.246-1.083,1.139-1.896,2.24-2.04c5.176-0.374,10.373-0.374,15.549,0
		c1.102,0.14,1.998,0.956,2.24,2.04C210.547,364.293,210.698,367.591,210.063,370.836L210.063,370.836z M207.014,363.227
		c-0.59-0.029-1.156,0.237-1.512,0.71c-0.293,0.49-0.426,1.06-0.379,1.63v2.42c-0.047,0.572,0.094,1.144,0.4,1.63
		c0.357,0.473,0.926,0.738,1.52,0.71c0.6,0.029,1.172-0.255,1.51-0.75c0.16-0.222,0.264-0.479,0.301-0.75
		c0.01-0.13,0.02-0.41,0.02-0.811v-0.18h-1.279c0,0.5-0.012,0.78-0.021,0.85c-0.023,0.289-0.27,0.51-0.559,0.5
		c-0.432,0-0.65-0.319-0.65-0.96v-1.229h2.51v-1.43c0.047-0.57-0.086-1.14-0.381-1.63
		C208.151,363.467,207.594,363.2,207.014,363.227L207.014,363.227z M207.624,365.956h-1.25v-0.64c0-0.64,0.209-0.96,0.629-0.96
		c0.41,0,0.621,0.32,0.621,0.96V365.956z M56.803,343.406c-9.744-0.153-17.769,7.622-17.922,17.367
		c-0.152,9.745,7.623,17.77,17.368,17.922c9.745,0.153,17.769-7.623,17.921-17.367c0.002-0.095,0.003-0.188,0.003-0.282
		C74.236,351.383,66.465,343.492,56.803,343.406z M61.124,361.676h-2.82v10.23h-4.189v-10.23h-1.99v-3.62h1.99v-2.34
		c-0.184-2.184,1.438-4.103,3.622-4.286c0.202-0.017,0.405-0.019,0.607-0.004l3.101,0.01v3.51h-2.25
		c-0.477-0.02-0.879,0.35-0.899,0.826c-0.003,0.055,0.001,0.109,0.009,0.164v2.12h3.189L61.124,361.676z M127.024,363.976
		c-0.111-0.08-0.221-0.159-0.34-0.239c-0.359-0.112-0.734-0.169-1.111-0.17h-0.049c-1.761,0-3.301,1.08-3.301,2.31
		c0,1.34,1.32,2.39,3.01,2.39c2.221,0,3.35-0.779,3.35-2.31c0-0.151-0.018-0.302-0.049-0.45
		C128.227,364.833,127.692,364.291,127.024,363.976z M125.784,359.296L125.784,359.296c0.406,0.006,0.793-0.175,1.051-0.49
		c0.461-0.63,0.645-1.421,0.51-2.189c-0.201-1.55-1.291-2.84-2.432-2.88h-0.049c-0.402,0.001-0.783,0.181-1.041,0.49
		c-0.451,0.615-0.629,1.39-0.49,2.14c0.201,1.55,1.32,2.89,2.432,2.93H125.784z M129.354,343.406
		c-9.746-0.158-17.773,7.612-17.932,17.357c-0.159,9.745,7.611,17.773,17.357,17.932c9.744,0.159,17.773-7.612,17.932-17.357
		c0.002-0.098,0.002-0.194,0.002-0.292C146.776,351.387,139.012,343.498,129.354,343.406L129.354,343.406z M127.354,369.646
		c-0.688,0.194-1.396,0.292-2.111,0.29c-0.799,0.002-1.595-0.095-2.369-0.29c-1.225-0.226-2.307-0.936-3-1.971
		c-0.209-0.379-0.32-0.806-0.32-1.239c0.002-0.461,0.108-0.916,0.311-1.33c1.041-1.856,3.043-2.965,5.17-2.86h0.061
		c-0.186-0.315-0.281-0.675-0.281-1.04c0.004-0.189,0.029-0.378,0.08-0.561c-2.303,0.028-4.191-1.816-4.22-4.119
		c-0.001-0.033-0.001-0.067,0-0.101c0.142-1.853,1.409-3.427,3.19-3.96c0.547-0.191,1.121-0.293,1.699-0.3h5.17
		c0.178,0.004,0.33,0.121,0.381,0.29c0.061,0.17,0,0.359-0.15,0.46l-1.15,0.85c-0.068,0.052-0.152,0.08-0.24,0.08h-0.41
		c0.572,0.752,0.869,1.677,0.842,2.62c-0.037,1.214-0.631,2.344-1.611,3.061c-0.799,0.64-0.83,0.81-0.83,1.17
		c0.271,0.529,0.68,0.979,1.18,1.3c1.309,0.778,2.072,2.222,1.98,3.74C130.606,367.648,129.227,369.248,127.354,369.646
		L127.354,369.646z M139.014,360.646c0.002,0.224-0.178,0.407-0.402,0.409c-0.004,0-0.006,0-0.008,0h-2.93v2.98
		c0.002,0.224-0.18,0.407-0.402,0.41c-0.004,0-0.006,0-0.008,0h-0.83c-0.225,0.002-0.408-0.178-0.41-0.402c0-0.003,0-0.005,0-0.008
		v-2.98h-2.93c-0.225,0.003-0.408-0.178-0.41-0.401c0-0.003,0-0.006,0-0.008v-0.851c-0.004-0.224,0.178-0.407,0.4-0.41
		c0.004,0,0.006,0,0.01,0h2.93v-2.979c-0.004-0.229,0.18-0.417,0.408-0.42c0,0,0,0,0.002,0h0.83c0.229,0.002,0.412,0.188,0.41,0.418
		v0.002v2.979h2.93c0.225-0.002,0.408,0.178,0.41,0.402c0,0.002,0,0.005,0,0.008V360.646L139.014,360.646z M276.243,359.246
		c-1.043-0.039-2.02,0.51-2.529,1.42v-1.21h-2.789c0.029,0.8,0,8.55,0,8.55h2.789v-4.779c-0.012-0.234,0.023-0.469,0.1-0.69
		c0.207-0.615,0.781-1.032,1.43-1.04c1.021,0,1.42,0.78,1.42,1.93v4.58h2.801v-4.909
		C279.463,360.476,278.084,359.246,276.243,359.246L276.243,359.246z M273.713,360.696h-0.01c0-0.01,0.01-0.021,0.01-0.03V360.696z
		 M266.573,359.456h2.801v8.55h-2.801V359.456z M273.073,344.116c-9.742-0.156-17.766,7.615-17.922,17.357
		c-0.154,9.742,7.617,17.767,17.359,17.922c9.742,0.156,17.766-7.615,17.922-17.357c0-0.094,0.002-0.188,0.002-0.282
		C290.499,352.096,282.733,344.204,273.073,344.116L273.073,344.116z M282.284,369.736c-0.002,0.753-0.615,1.362-1.369,1.36
		c0,0,0,0-0.002,0h-15.789c-0.754,0.003-1.367-0.605-1.371-1.358c0-0.001,0-0.001,0-0.002v-16.23
		c0.004-0.753,0.615-1.362,1.369-1.36h0.002h15.789c0.754-0.003,1.367,0.605,1.371,1.358c0,0.001,0,0.001,0,0.002V369.736
		L282.284,369.736z M267.993,355.326c-0.816-0.062-1.529,0.55-1.59,1.366c-0.063,0.817,0.549,1.529,1.365,1.592
		c0.063,0.004,0.123,0.005,0.186,0.002h0.02c0.816,0.056,1.525-0.563,1.58-1.38c0.055-0.816-0.563-1.524-1.381-1.579
		C268.114,355.323,268.053,355.322,267.993,355.326L267.993,355.326z"/>
	<path id="Forma_1_13_" d="M50.099,191.993l9.209-9.209c0.413-0.411,0.414-1.079,0.002-1.492c-0.411-0.413-1.079-0.414-1.491-0.002
		l-9.21,9.209l-9.21-9.208c-0.425-0.402-1.095-0.384-1.497,0.041c-0.386,0.407-0.387,1.044-0.003,1.453l9.21,9.209l-9.2,9.208
		c-0.413,0.402-0.421,1.063-0.019,1.476c0.006,0.007,0.013,0.013,0.019,0.019c0.195,0.199,0.462,0.311,0.74,0.311
		c0.281,0,0.55-0.111,0.75-0.311l9.21-9.209l9.21,9.209c0.194,0.199,0.462,0.311,0.739,0.311c0.584-0.001,1.057-0.475,1.056-1.059
		c-0.001-0.277-0.11-0.544-0.306-0.741L50.099,191.993z"/>
	<path id="Forma_1_14_" d="M259.613,182.875c-0.175-0.239-0.454-0.38-0.75-0.378h-17.99c-0.509-0.002-0.923,0.408-0.926,0.917
		c-0.002,0.509,0.408,0.923,0.917,0.926c0.003,0,0.006,0,0.009,0h16.72l-0.67,2.071h-14.01c-0.509-0.017-0.935,0.382-0.951,0.89
		s0.382,0.934,0.891,0.951c0.021,0.001,0.04,0.001,0.061,0h13.409l-0.77,2.379h-11.55c-0.509-0.017-0.935,0.382-0.951,0.89
		c-0.017,0.509,0.382,0.935,0.891,0.95c0.021,0.001,0.04,0.001,0.061,0h10.95l-0.641,2h-12.31l-5.061-14.418
		c-0.092-0.254-0.288-0.457-0.54-0.555l-4.34-1.688c-0.478-0.186-1.016,0.045-1.21,0.52c-0.186,0.471,0.046,1.004,0.518,1.189
		c0.004,0.002,0.009,0.003,0.013,0.005l3.939,1.533l4.83,13.768c-0.219,0.076-0.395,0.244-0.479,0.461l-1.39,3.836
		c-0.087,0.234-0.054,0.496,0.09,0.7c0.149,0.204,0.387,0.325,0.64,0.325h0.71c-0.457,0.506-0.71,1.162-0.71,1.843
		c0.006,1.54,1.26,2.784,2.801,2.778c1.532-0.006,2.772-1.246,2.779-2.778c0.001-0.683-0.257-1.341-0.72-1.843h6.09
		c-0.457,0.506-0.71,1.162-0.711,1.843c0.007,1.54,1.261,2.784,2.802,2.778c1.532-0.006,2.772-1.246,2.778-2.778
		c0.002-0.683-0.256-1.341-0.72-1.843h0.87c0.424,0.002,0.768-0.342,0.769-0.765c0.001-0.424-0.342-0.768-0.765-0.769
		c-0.002,0-0.003,0-0.004,0h-14.87l0.87-2.376c0.111,0.048,0.229,0.072,0.35,0.073h13.65c0.404,0.005,0.765-0.254,0.891-0.639
		l3.879-11.969C259.846,183.42,259.793,183.111,259.613,182.875z M241.803,203.211c-0.678-0.007-1.223-0.562-1.216-1.239
		c0.007-0.679,0.562-1.223,1.239-1.217c0.675,0.007,1.217,0.555,1.217,1.229C243.037,202.666,242.483,203.213,241.803,203.211
		L241.803,203.211z M252.043,203.211c-0.678-0.007-1.223-0.562-1.216-1.239c0.007-0.679,0.562-1.223,1.239-1.217
		c0.674,0.007,1.217,0.555,1.217,1.229c-0.002,0.681-0.556,1.23-1.235,1.228C252.047,203.211,252.045,203.211,252.043,203.211
		L252.043,203.211z"/>
	<path fill="#808285" d="M423.27,202.748v-1.328c0.004-1.348-0.594-2.625-1.632-3.484c-1.765-1.4-3.654-2.637-5.646-3.691v-1.518
		c0.18-0.42,0.322-0.855,0.424-1.3c0.631-0.236,0.977-1.2,1.209-2.046c0.337-0.759,0.305-1.631-0.09-2.362
		c0.385-2.173,0.213-3.774-0.508-4.761c-0.275-0.389-0.667-0.681-1.119-0.833c-0.357-0.509-0.824-0.932-1.365-1.238
		c-0.759-0.462-1.632-0.701-2.52-0.69c-0.168,0-0.335,0.01-0.482,0.02c-0.419,0.022-0.832,0.104-1.229,0.241c0,0-0.01,0-0.016,0
		c-0.462,0.167-0.899,0.398-1.299,0.685c-0.479,0.316-0.916,0.69-1.301,1.115c-0.714,0.733-1.215,1.647-1.449,2.643
		c-0.201,0.776-0.219,1.589-0.05,2.373c-0.089,0.066-0.169,0.146-0.237,0.235c-0.357,0.723-0.378,1.567-0.054,2.306
		c0.122,0.714,0.453,1.375,0.952,1.9c0.127,0.697,0.355,1.371,0.68,2v1.232c-1.992,1.053-3.881,2.289-5.645,3.691
		c-1.036,0.861-1.633,2.141-1.625,3.486v1.33c-0.016,0.941,0.733,1.72,1.676,1.738h19.648
		C422.537,204.471,423.285,203.691,423.27,202.748z M401.47,202.748v-1.328c-0.005-0.963,0.423-1.878,1.164-2.492
		c1.767-1.404,3.665-2.633,5.669-3.67c0.279-0.145,0.453-0.434,0.449-0.748v-1.662c-0.001-0.111-0.029-0.22-0.084-0.316
		c-0.348-0.633-0.572-1.325-0.666-2.04c-0.035-0.244-0.211-0.444-0.448-0.511c-0.234-0.368-0.396-0.778-0.478-1.207
		c-0.129-0.369-0.184-0.76-0.158-1.151c0.197,0.008,0.388-0.082,0.508-0.24c0.128-0.17,0.162-0.392,0.093-0.593
		c-0.255-0.734-0.286-1.529-0.088-2.281c0.188-0.783,0.584-1.501,1.147-2.076c0.321-0.355,0.686-0.668,1.086-0.931
		c0,0,0.015-0.01,0.02-0.015c0.311-0.228,0.652-0.41,1.016-0.542c0.002,0.001,0.006,0.001,0.01,0
		c0.293-0.102,0.598-0.16,0.908-0.174c0.809-0.088,1.623,0.089,2.321,0.506c0.431,0.236,0.794,0.577,1.056,0.992
		c0.082,0.193,0.268,0.322,0.478,0.333c0.257,0.062,0.478,0.227,0.61,0.455c0.291,0.429,0.701,1.534,0.188,4.111
		c-0.062,0.282,0.077,0.57,0.335,0.7c0.045,0.4-0.006,0.804-0.148,1.181c-0.088,0.396-0.232,0.779-0.428,1.135
		c-0.115-0.021-0.234-0.007-0.341,0.041c-0.189,0.086-0.324,0.26-0.36,0.465c-0.09,0.565-0.254,1.115-0.487,1.637
		c-0.039,0.085-0.06,0.178-0.06,0.271v1.922c-0.004,0.313,0.17,0.603,0.449,0.746c2.002,1.039,3.898,2.27,5.664,3.672
		c0.742,0.613,1.169,1.527,1.164,2.49v1.33c0.004,0.262-0.205,0.479-0.468,0.485h-19.646c-0.262,0.001-0.476-0.212-0.477-0.474
		C401.469,202.763,401.469,202.756,401.47,202.748z"/>
	<path id="Shape_1_copy_2" fill="#808285" d="M457.34,193.884c-0.402-0.447-0.972-0.707-1.572-0.719
		c-0.605,0.014-1.179,0.271-1.59,0.715l-1.471,1.462c-0.121-0.063-0.24-0.125-0.357-0.185c-0.167-0.084-0.325-0.164-0.46-0.248
		c-1.457-0.943-2.749-2.12-3.827-3.481c-0.499-0.604-0.921-1.268-1.256-1.977c0.382-0.349,0.734-0.711,1.078-1.059
		c0.131-0.13,0.262-0.265,0.392-0.395c0.888-0.772,0.981-2.117,0.21-3.004c-0.065-0.075-0.135-0.145-0.21-0.209l-1.271-1.268
		c-0.144-0.145-0.293-0.292-0.432-0.441c-0.279-0.288-0.572-0.585-0.874-0.863c-0.407-0.427-0.968-0.673-1.558-0.683
		c-0.596,0.012-1.164,0.257-1.581,0.683l-0.009,0.009l-1.581,1.592c-0.587,0.574-0.945,1.341-1.011,2.159
		c-0.052,1.179,0.153,2.354,0.601,3.446c0.832,2.167,2.036,4.171,3.557,5.924c1.995,2.397,4.479,4.341,7.287,5.7
		c1.275,0.656,2.664,1.066,4.093,1.207c0.1,0,0.199,0.009,0.293,0.009c1.019,0.024,1.998-0.396,2.683-1.151
		c0-0.009,0.014-0.014,0.018-0.022c0.256-0.296,0.527-0.576,0.814-0.841c0.2-0.19,0.405-0.391,0.604-0.6
		c0.436-0.424,0.687-1,0.7-1.607c-0.013-0.605-0.271-1.18-0.716-1.592L457.34,193.884z M459.004,198.774L459.004,198.774
		c-0.182,0.194-0.367,0.371-0.567,0.565c-0.316,0.294-0.616,0.604-0.899,0.929c-0.445,0.493-1.086,0.764-1.75,0.738
		c-0.068,0-0.144,0-0.213,0c-1.267-0.131-2.498-0.5-3.628-1.087c-2.644-1.28-4.983-3.11-6.862-5.367
		c-1.431-1.647-2.563-3.532-3.349-5.568c-0.391-0.917-0.568-1.91-0.521-2.906c0.037-0.523,0.266-1.014,0.642-1.379l1.585-1.584
		c0.186-0.195,0.438-0.313,0.707-0.33c0.26,0.016,0.504,0.133,0.68,0.326c0.004,0.004,0.009,0.009,0.014,0.014
		c0.283,0.264,0.553,0.538,0.836,0.831c0.145,0.148,0.294,0.3,0.443,0.45l1.269,1.268c0.397,0.285,0.488,0.837,0.204,1.235
		c-0.057,0.079-0.125,0.148-0.204,0.204c-0.136,0.135-0.265,0.269-0.4,0.4c-0.39,0.4-0.762,0.771-1.167,1.133
		c-0.009,0.006-0.017,0.015-0.023,0.024c-0.293,0.266-0.39,0.687-0.241,1.054c0,0.013,0.01,0.027,0.014,0.041
		c0.382,0.883,0.887,1.707,1.5,2.447l0,0c1.161,1.469,2.556,2.736,4.129,3.752c0.186,0.113,0.376,0.218,0.572,0.312
		c0.167,0.084,0.326,0.162,0.46,0.246c0.02,0.008,0.038,0.022,0.057,0.031c0.142,0.074,0.3,0.115,0.461,0.116
		c0.269-0.007,0.523-0.122,0.705-0.319l1.592-1.589c0.18-0.202,0.43-0.326,0.699-0.349c0.261,0.017,0.502,0.139,0.67,0.34
		l0.01,0.009l2.562,2.56c0.404,0.305,0.483,0.88,0.179,1.284c-0.048,0.063-0.104,0.12-0.166,0.169H459.004z M451.834,185.49
		c2.488,0.429,4.439,2.377,4.873,4.866c0.051,0.301,0.313,0.521,0.618,0.52c0.036-0.001,0.071-0.004,0.107-0.01
		c0.341-0.056,0.572-0.377,0.517-0.719c0-0.001,0-0.003-0.001-0.005c-0.523-3.013-2.886-5.371-5.899-5.888
		c-0.342-0.056-0.664,0.171-0.727,0.511c-0.063,0.337,0.16,0.661,0.498,0.724c0.003,0,0.006,0.001,0.01,0.001H451.834z
		 M461.934,189.961c-0.862-4.959-4.749-8.84-9.709-9.695c-0.339-0.068-0.67,0.151-0.737,0.49c-0.068,0.339,0.151,0.669,0.489,0.737
		c0.016,0.003,0.031,0.006,0.048,0.008c4.434,0.762,7.908,4.231,8.677,8.664c0.051,0.302,0.313,0.522,0.619,0.52
		c0.036-0.001,0.072-0.004,0.107-0.009c0.334-0.057,0.561-0.374,0.504-0.709c-0.001-0.003-0.002-0.006-0.002-0.01L461.934,189.961z"
		/>
	<path id="Forma_1_15_" fill="#808285" d="M485.833,177.755c-4.948-0.069-9.021,3.879-9.104,8.827c0,1.956,1.188,4.931,3.737,9.363
		c1.739,3.024,3.468,5.578,3.544,5.686l1.253,1.84c0.219,0.315,0.65,0.393,0.966,0.174c0.067-0.047,0.126-0.107,0.174-0.174
		l1.25-1.84c0.073-0.107,1.793-2.639,3.546-5.686c2.55-4.43,3.738-7.405,3.738-9.363
		C494.854,181.634,490.782,177.686,485.833,177.755z M490.008,195.3c-1.729,3.004-3.421,5.495-3.492,5.6l-0.683,1.004l-0.683-1.004
		c-0.071-0.105-1.776-2.62-3.491-5.6c-2.366-4.111-3.565-7.043-3.565-8.717c0.135-4.274,3.71-7.629,7.985-7.494
		c4.083,0.129,7.364,3.41,7.493,7.494c0,1.673-1.199,4.605-3.564,8.716V195.3z M485.833,181.632
		c-2.702,0.083-4.827,2.342-4.743,5.045c0.083,2.703,2.342,4.828,5.045,4.744c2.646-0.082,4.746-2.249,4.746-4.895
		C490.835,183.783,488.576,181.594,485.833,181.632z M485.833,190.099c-1.973-0.061-3.522-1.708-3.461-3.682
		c0.061-1.972,1.709-3.522,3.682-3.461c1.929,0.06,3.463,1.641,3.463,3.571C489.482,188.529,487.836,190.126,485.833,190.099z"/>
	<path id="Forma_1_copy_29" fill="#808285" d="M336.79,187.776c-3.117-2.36-7.423-2.36-10.54,0
		c-2.425,1.757-2.966,5.147-1.208,7.572c0.336,0.464,0.744,0.871,1.208,1.208c1.502,1.175,3.362,1.8,5.27,1.77
		c0.2,0,0.41,0,0.61-0.02l1.28,2.109c0.088,0.148,0.247,0.239,0.42,0.24h0.01c0.168,0.002,0.326-0.081,0.42-0.22l2.71-4.03
		c1.278-1.04,2.032-2.592,2.061-4.24C338.994,190.438,338.169,188.82,336.79,187.776z M336.229,195.716l-2.37,3.5l-1.029-1.699
		c-0.092-0.15-0.255-0.241-0.431-0.24h-0.05c-0.275,0.028-0.553,0.042-0.83,0.04c-3.58,0-6.49-2.311-6.49-5.15
		s2.91-5.149,6.49-5.149s6.49,2.31,6.49,5.149C337.979,193.557,337.325,194.859,336.229,195.716L336.229,195.716z"/>
	<g>
		<path fill="#939598" d="M159.471,587.112H50.704l45.92-39.555h39.359l25.035,21.564c0.946-2.155,2.154-4.167,3.585-5.999
			l-25.339-22.157l52.479-46.149v42.853v15.085c2.296,0.412,4.495,1.103,6.561,2.036v-66.569l-19.68-17.137v-22.415
			c-0.004-7.255-5.865-13.146-13.12-13.185h-26.9l-22.3-19.778l-22.3,19.778h-26.9c-7.255,0.039-13.116,5.93-13.12,13.185v22.415
			l-19.68,17.141v92.3c0.005,7.254,5.866,13.143,13.12,13.182h114.583C160.897,591.649,160.041,589.438,159.471,587.112z
			 M178.624,479.654l9.84,8.57l-9.84,8.57V479.654z M129.423,540.966v0.004h-26.24l-14.432-13.186h54.452L129.423,540.966z
			 M116.303,424.275l12.464,11.209h-25.584L116.303,424.275z M66.354,442.078c0.249-0.016,0.5-0.017,0.749-0.002h98.4
			c3.527,0.248,6.329,3.064,6.56,6.593v53.399l-20.992,19.118H81.536l-20.992-18.458v-54.06
			C60.328,445.244,62.929,442.293,66.354,442.078z M53.983,479.658v17.8l-9.84-9.229L53.983,479.658z M42.831,585.136
			c-1.298-1.177-2.017-2.863-1.967-4.615v-85.7l52.479,46.149L42.831,585.136z"/>
		<rect x="73.663" y="461.854" fill="#939598" width="85.281" height="6.594"/>
		<rect x="73.663" y="501.406" fill="#939598" width="85.281" height="6.6"/>
		<rect x="73.663" y="481.633" fill="#939598" width="85.281" height="6.592"/>
	</g>
	<circle fill="#F9ED32" cx="192.75" cy="585.896" r="28.094"/>
	<path fill="#FFFFFF" d="M209.317,573.946l-20.595,20.3l-10.755-10.601l-1.825,1.801l12.58,12.4l22.42-22.101L209.317,573.946z"/>
	<g>
		<path fill="#939598" d="M412.471,587.112H303.703l45.92-39.555h39.359l25.035,21.564c0.945-2.155,2.154-4.167,3.585-5.999
			l-25.339-22.157l52.479-46.149v42.853v15.085c2.297,0.412,4.495,1.103,6.561,2.036v-66.569l-19.68-17.137v-22.415
			c-0.004-7.255-5.865-13.146-13.119-13.185h-26.9l-22.301-19.778l-22.299,19.778h-26.9c-7.256,0.039-13.117,5.93-13.121,13.185
			v22.415l-19.679,17.141v92.3c0.005,7.254,5.866,13.143,13.121,13.182h114.582C413.896,591.649,413.041,589.438,412.471,587.112z
			 M431.623,479.654l9.84,8.57l-9.84,8.57V479.654z M382.424,540.966v0.004h-26.24l-14.432-13.186h54.451L382.424,540.966z
			 M369.303,424.275l12.465,11.209h-25.584L369.303,424.275z M319.354,442.078c0.25-0.016,0.5-0.017,0.75-0.002h98.4
			c3.527,0.248,6.328,3.064,6.559,6.593v53.399l-20.992,19.118h-69.535l-20.992-18.458v-54.06
			C313.328,445.244,315.93,442.293,319.354,442.078z M306.982,479.658v17.8l-9.839-9.229L306.982,479.658z M295.831,585.136
			c-1.298-1.177-2.017-2.863-1.967-4.615v-85.7l52.48,46.149L295.831,585.136z"/>
		<rect x="326.662" y="461.854" fill="#939598" width="85.281" height="6.594"/>
		<rect x="326.662" y="501.406" fill="#939598" width="85.281" height="6.6"/>
		<rect x="326.662" y="481.633" fill="#939598" width="85.281" height="6.592"/>
	</g>
	<circle fill="#F9ED32" cx="446.026" cy="585.896" r="28.094"/>
	<path id="Rectangle_27_copy" d="M434.026,584.896h24v2h-24V584.896z M447.026,573.896v24h-2v-24H447.026z"/>
	<path fill="#FFFFFF" d="M400.72,337.501L400.72,337.501c-16.376,0-34.2-0.521-52.985-1.53c-11.1-0.61-19.699-9.16-20.927-20.8
		c-2.05-19.396-2.05-38.954,0-58.351c1.222-11.55,9.818-20.1,20.9-20.79c33.005-2.04,66.105-2.04,99.11,0
		c11.215,0.68,19.617,9.03,20.914,20.78c2.046,19.396,2.046,38.954,0,58.35c-1.18,11.63-9.574,19.99-20.886,20.811
		C432.617,336.98,417.095,337.501,400.72,337.501z M396.89,240.021c-16.323,0-32.754,0.521-48.836,1.53
		c-8.472,0.53-14.8,6.899-15.748,15.85c-2.008,19.011-2.008,38.18,0,57.19c0.948,9.02,7.269,15.39,15.726,15.86
		c18.682,1,36.41,1.52,52.684,1.52c16.245,0,31.633-0.51,45.738-1.52c8.535-0.61,14.877-6.98,15.775-15.851
		c2.008-19.011,2.008-38.18,0-57.189c-0.986-8.98-7.316-15.351-15.746-15.86C429.902,240.541,413.215,240.021,396.89,240.021z
		 M383.183,266.41v37.95l36.451-18.85L383.183,266.41z"/>
	<path id="Forma_1_16_" fill="#808285" d="M535.588,191.466c-0.199-0.26-4.988-6.46-11.088-6.46s-10.889,6.2-11.089,6.46
		l-0.411,0.54l0.41,0.54c0.199,0.261,4.99,6.46,11.089,6.46s10.887-6.199,11.088-6.46l0.413-0.54L535.588,191.466z M524.5,197.256
		c-4.289,0-8.033-3.811-9.292-5.25c1.26-1.44,5-5.25,9.292-5.25s8.033,3.81,9.292,5.25
		C532.532,193.445,528.789,197.256,524.5,197.256z M524.5,187.216c-2.645-0.065-4.842,2.026-4.908,4.671
		c-0.064,2.646,2.027,4.843,4.672,4.908c2.646,0.064,4.843-2.026,4.908-4.671c0-0.039,0.001-0.079,0.001-0.118
		C529.201,189.394,527.111,187.252,524.5,187.216z M524.5,195.046c-1.679,0.042-3.074-1.285-3.116-2.964
		c-0.042-1.679,1.285-3.074,2.964-3.116c1.68-0.042,3.074,1.285,3.116,2.964c0.001,0.025,0.001,0.05,0.001,0.076
		c0.022,1.656-1.303,3.018-2.959,3.04C524.504,195.046,524.502,195.046,524.5,195.046z"/>
	<path fill="none" stroke="#808285" stroke-width="2" stroke-miterlimit="10" d="M146.41,755.217
		c-3.913-3.168-8.15-5.912-12.641-8.189c-0.137-0.063-0.227-0.199-0.229-0.35v-8.66c1.127-0.746,1.804-2.01,1.8-3.361v-8.969
		c0.015-4.438-3.563-8.051-8-8.08h-1.92c-4.439,0.022-8.021,3.639-8,8.08v8.969c-0.003,1.35,0.669,2.611,1.79,3.361v8.66
		c0,0.059-0.021,0.1-0.021,0.139c1.701,1.182,3.451,2.48,5.171,3.9c2.016,1.674,3.175,4.16,3.159,6.781v7.219H148v-6.141
		C147.988,757.277,147.407,756.049,146.41,755.217z M122.03,753.547c-4.59-3.738-9.573-6.969-14.86-9.631
		c-0.166-0.082-0.271-0.252-0.27-0.439v-10.16c1.316-0.887,2.105-2.371,2.1-3.959v-10.53c0.027-5.225-4.186-9.482-9.41-9.51l0,0
		h-2.22c-5.227,0.026-9.443,4.283-9.42,9.51v10.53c-0.002,1.59,0.79,3.074,2.11,3.959v10.16c0.001,0.188-0.104,0.357-0.27,0.439
		c-5.288,2.662-10.271,5.893-14.86,9.631c-1.17,0.977-1.845,2.426-1.84,3.949v7.221h50.801v-7.221
		C123.896,755.967,123.213,754.516,122.03,753.547z M77.77,746.656v-8.66c1.121-0.75,1.793-2.01,1.79-3.359v-8.971
		c0.021-4.439-3.56-8.057-8-8.078h-1.92c-4.437,0.029-8.015,3.643-8,8.078v8.971c-0.003,1.35,0.669,2.609,1.79,3.359v8.66
		c0.001,0.15-0.085,0.287-0.22,0.352c-4.493,2.268-8.73,5.01-12.64,8.18c-0.998,0.834-1.574,2.068-1.57,3.369v6.141h20.48v-7.221
		c-0.006-2.617,1.152-5.102,3.16-6.779c1.72-1.42,3.47-2.74,5.17-3.9C77.788,746.754,77.774,746.705,77.77,746.656z M129.67,685.178
		c3.313-0.028,6.022,2.636,6.05,5.949c0.028,3.313-2.636,6.022-5.95,6.05c-3.313,0.028-6.021-2.636-6.049-5.95
		c0-0.016,0-0.033,0-0.049c-0.016-3.299,2.646-5.985,5.945-6C129.668,685.178,129.669,685.178,129.67,685.178z M116.13,703.588
		c-0.743,1.818-2.073,3.336-3.78,4.31c-0.357,0.175-0.504,0.607-0.329,0.965c0.104,0.212,0.306,0.359,0.54,0.396
		c2.781,0.369,5.596-0.402,7.799-2.141l0.041,0.04c7.19,4.257,16.355,3.073,22.229-2.87c7.15-7.254,7.15-18.905,0-26.16
		c-7.06-7.154-18.583-7.231-25.738-0.172c-0.058,0.057-0.114,0.114-0.172,0.172c-6.841,6.947-7.176,17.99-0.77,25.34L116.13,703.588
		z M116.03,689.997c0.009-0.633,0.528-1.139,1.161-1.13c0.006,0,0.013,0,0.019,0l1.72,0.04c0.313-1.483,0.93-2.886,1.811-4.12
		l-1.18-1.26c-0.445-0.461-0.433-1.194,0.027-1.639c0.004-0.004,0.008-0.008,0.012-0.012l1.291-1.24
		c0.447-0.438,1.166-0.432,1.605,0.016c0.008,0.008,0.017,0.017,0.023,0.025l1.201,1.26c1.263-0.824,2.682-1.379,4.17-1.63
		l0.039-1.771c0.009-0.633,0.529-1.139,1.162-1.13c0.006,0,0.012,0,0.019,0l1.78,0.04c0.633,0.015,1.135,0.539,1.12,1.173
		c0,0.006,0,0.012-0.001,0.017l-0.039,1.781c1.468,0.313,2.854,0.929,4.069,1.81l1.261-1.24c0.442-0.437,1.156-0.432,1.594,0.012
		c0.012,0.013,0.023,0.025,0.035,0.038l1.23,1.291c0.445,0.46,0.432,1.193-0.028,1.639c-0.004,0.004-0.008,0.007-0.012,0.011
		l-1.271,1.24c0.82,1.271,1.371,2.697,1.621,4.189l1.75,0.04c0.633,0.015,1.135,0.54,1.12,1.173
		c-0.001,0.006-0.001,0.012-0.001,0.018l-0.04,1.8c-0.009,0.633-0.528,1.139-1.161,1.131c-0.006,0-0.013,0-0.019-0.001l-1.761-0.04
		c-0.303,1.48-0.904,2.882-1.77,4.12l1.2,1.26c0.444,0.46,0.433,1.194-0.028,1.64c-0.004,0.003-0.008,0.007-0.012,0.011l-1.28,1.239
		c-0.454,0.442-1.18,0.434-1.622-0.021c-0.006-0.007-0.012-0.013-0.018-0.019l-1.18-1.26c-1.265,0.826-2.684,1.388-4.171,1.649
		l-0.04,1.729c-0.008,0.633-0.528,1.14-1.161,1.131c-0.007,0-0.013,0-0.019,0l-1.78-0.041c-0.634-0.014-1.135-0.539-1.12-1.172
		c0-0.006,0-0.012,0-0.018l0.04-1.72c-1.485-0.306-2.89-0.923-4.12-1.81l-1.229,1.18c-0.443,0.437-1.157,0.432-1.594-0.012
		c-0.013-0.013-0.024-0.025-0.036-0.039l-1.23-1.289c-0.444-0.461-0.432-1.194,0.028-1.639c0.004-0.004,0.008-0.008,0.012-0.012
		l1.23-1.18c-0.829-1.283-1.388-2.724-1.64-4.23l-1.69-0.04c-0.634-0.015-1.136-0.54-1.12-1.173c0-0.006,0-0.012,0-0.018
		L116.03,689.997z"/>
	<path fill="none" stroke="#808285" stroke-width="2" stroke-miterlimit="10" d="M231.187,745.484l-4.343-2.109l-4.346,2.109
		c-5.438,2.654-11.999,0.938-15.441-4.039v22.73c0.002,1.404,0.733,2.705,1.931,3.439c0.645,0.393,1.386,0.602,2.141,0.6
		c0.632,0.002,1.255-0.146,1.82-0.43l13.895-6.891l13.894,6.891c1.262,0.627,2.758,0.563,3.961-0.17
		c1.197-0.734,1.929-2.037,1.932-3.439v-22.73C243.187,746.422,236.626,748.139,231.187,745.484z M191.358,704.596
		c-0.098,1.16,0.314,2.307,1.13,3.14l6.133,6.29l0,0l-1.236,8.67c-0.019,0.141-0.031,0.27-0.037,0.41
		c-0.076,2.029,1.364,3.801,3.366,4.141l8.688,1.51l4.134,7.729c1.039,1.93,3.414,2.697,5.385,1.74l7.923-3.84l7.922,3.84
		c1.97,0.953,4.34,0.191,5.386-1.729l4.135-7.74l8.688-1.51c2.162-0.359,3.642-2.381,3.328-4.551l-1.236-8.67l0,0l6.133-6.29
		c1.528-1.562,1.528-4.058,0-5.62l-6.132-6.29l0,0l1.235-8.67c0.02-0.133,0.032-0.267,0.038-0.399
		c0.075-2.031-1.364-3.805-3.366-4.15l-8.688-1.51l-4.135-7.73c-0.058-0.109-0.121-0.21-0.188-0.311
		c-0.016-0.027-0.033-0.055-0.053-0.08c-0.057-0.08-0.115-0.159-0.177-0.239c-0.014-0.021-0.026-0.03-0.041-0.05
		c-0.074-0.091-0.153-0.178-0.237-0.26c-0.014-0.02-0.032-0.037-0.053-0.051c-0.068-0.07-0.139-0.13-0.212-0.199
		c-0.024-0.014-0.046-0.031-0.065-0.051c-0.09-0.07-0.184-0.14-0.279-0.21c-0.007,0.001-0.013-0.003-0.014-0.01
		c-0.092-0.06-0.187-0.12-0.282-0.17c-0.025-0.011-0.05-0.03-0.075-0.04c-0.09-0.049-0.182-0.092-0.275-0.131
		c-0.01-0.01-0.023-0.018-0.037-0.02c-0.105-0.049-0.214-0.089-0.325-0.12c-0.022-0.011-0.046-0.018-0.07-0.02
		c-0.091-0.032-0.185-0.059-0.278-0.08c-0.023-0.011-0.047-0.011-0.07-0.021l-0.344-0.06h-0.037
		c-0.101-0.011-0.207-0.021-0.312-0.021c-0.027-0.008-0.056-0.012-0.085-0.01h-0.09c-0.037-0.002-0.073,0.002-0.109,0.01
		c-0.084-0.002-0.169,0.002-0.253,0.01c-0.059,0.011-0.118,0.011-0.176,0.021c-0.085,0.011-0.168,0.03-0.253,0.04
		c-0.059,0.009-0.115,0.021-0.171,0.04c-0.089,0.021-0.177,0.05-0.267,0.07c-0.05,0.02-0.1,0.03-0.151,0.05l-0.365,0.15
		c-0.013,0.01-0.026,0.01-0.04,0.02l-7.923,3.84l-7.923-3.84c-0.014-0.01-0.028-0.01-0.042-0.02l-0.363-0.15
		c-0.052-0.02-0.105-0.03-0.157-0.05c-0.086-0.021-0.172-0.05-0.259-0.07c-0.058-0.018-0.118-0.031-0.178-0.04
		c-0.082-0.01-0.163-0.029-0.244-0.04c-0.061-0.012-0.123-0.019-0.185-0.021c-0.08-0.008-0.161-0.012-0.241-0.01
		c-0.039-0.008-0.078-0.012-0.117-0.01h-0.1c-0.024-0.002-0.047,0.002-0.07,0.01c-0.113,0-0.226,0.01-0.337,0.021h-0.013
		c-0.12,0.021-0.239,0.04-0.356,0.069c-0.018-0.001-0.037,0.002-0.053,0.011c-0.1,0.02-0.2,0.05-0.3,0.079
		c-0.016,0.011-0.033,0.011-0.05,0.021c-0.116,0.03-0.229,0.071-0.338,0.12c0,0-0.008,0.01-0.012,0.01
		c-0.104,0.041-0.205,0.092-0.3,0.15l-0.058,0.029c-0.208,0.111-0.406,0.242-0.59,0.391c-0.017,0.02-0.034,0.03-0.051,0.05
		c-0.083,0.063-0.16,0.134-0.23,0.21l-0.04,0.03c-0.085,0.09-0.167,0.181-0.243,0.271c-0.008,0.015-0.019,0.028-0.032,0.039
		c-0.065,0.08-0.127,0.17-0.186,0.25c-0.014,0.025-0.031,0.049-0.049,0.07c-0.066,0.11-0.13,0.21-0.189,0.32l-4.133,7.729
		l-8.688,1.511c-2.002,0.346-3.44,2.119-3.366,4.149c0.006,0.13,0.018,0.271,0.037,0.4l1.236,8.67l-6.134,6.29
		C191.835,702.785,191.435,703.662,191.358,704.596z M226.844,690.075c8.182,0.064,14.763,6.749,14.698,14.931
		s-6.748,14.763-14.93,14.699c-8.138-0.064-14.702-6.682-14.699-14.82C211.954,696.676,218.635,690.049,226.844,690.075
		L226.844,690.075z"/>
	<path id="Forma_1_17_" fill="none" stroke="#808285" stroke-width="2" stroke-miterlimit="10" d="M392.96,760.416
		c2.86,0.012,5.171,2.34,5.16,5.201s-2.339,5.17-5.2,5.16c-2.853-0.012-5.16-2.328-5.16-5.18
		C387.768,762.73,390.094,760.412,392.96,760.416z M392.96,718.997c2.86,0.011,5.171,2.339,5.16,5.2s-2.339,5.17-5.2,5.16
		c-2.853-0.012-5.16-2.328-5.16-5.18C387.768,721.312,390.095,718.993,392.96,718.997L392.96,718.997z M392.96,682.758
		c2.858,0.014,5.164,2.342,5.149,5.199c-0.014,2.858-2.342,5.164-5.199,5.15c-2.846-0.014-5.147-2.324-5.15-5.17
		C387.768,685.072,390.095,682.754,392.96,682.758L392.96,682.758z M372.146,685.268c-1.477-0.006-2.676,1.188-2.682,2.662
		c0,0.003,0,0.006,0,0.008v33.57h-2.523c-1.475-0.006-2.674,1.186-2.679,2.66s1.186,2.674,2.66,2.68c0.007,0,0.013,0,0.019,0h2.519
		v38.75c0.005,1.477,1.204,2.67,2.681,2.67h11.58c-0.512-1.744-0.512-3.598,0-5.34h-8.9v-36.08h8.9c-0.512-1.744-0.512-3.597,0-5.34
		h-8.9v-30.91h8.9c-0.512-1.74-0.512-3.59,0-5.33h-11.578H372.146z M337.355,701.957c5.865-0.029,10.597-4.808,10.567-10.673
		s-4.808-10.597-10.673-10.567c-5.844,0.029-10.566,4.775-10.566,10.62c0.022,5.875,4.794,10.624,10.668,10.62H337.355z
		 M349.079,707.107l-0.019-0.01l-3.045-0.931c-0.482-0.147-0.994,0.107-1.168,0.58l-6.399,17.479
		c-0.222,0.601-0.888,0.908-1.487,0.687c-0.318-0.117-0.568-0.368-0.686-0.687l-6.406-17.479c-0.137-0.372-0.491-0.62-0.889-0.62
		c-0.094-0.001-0.187,0.012-0.276,0.04l-3.044,0.931c-3.869,1.264-6.487,4.869-6.491,8.939v18.5c0.001,0.182,0.054,0.359,0.155,0.51
		l6.684,10.119v25.611c0.002,0.52,0.424,0.941,0.944,0.939c0.001,0,0.001,0,0.002,0h20.806c0.521,0.002,0.944-0.418,0.946-0.938
		c0-0.002,0-0.002,0-0.002v-25.611l6.685-10.119c0.101-0.15,0.154-0.328,0.154-0.51v-18.55c-0.004-4.05-2.616-7.636-6.47-8.88
		H349.079z M339.645,705.678c-0.25-0.256-0.596-0.397-0.953-0.391h-2.67c-0.358-0.007-0.703,0.135-0.954,0.391
		c-0.368,0.395-0.434,0.982-0.163,1.449l1.427,2.15l-0.668,5.6l1.315,3.48c0.072,0.208,0.301,0.318,0.51,0.245
		c0.114-0.04,0.205-0.131,0.245-0.245l1.315-3.48l-0.669-5.6l1.427-2.15c0.271-0.467,0.203-1.056-0.166-1.449H339.645z"/>
	<path id="Forma_1_18_" fill="none" stroke="#808285" stroke-width="2" stroke-miterlimit="10" d="M509.874,687.924h0.233
		c2.281,1.827,5.525,1.827,7.807,0h0.232c1.346-1.187,2.117-2.896,2.115-4.69c0-0.029,0-0.06,0-0.1s0-0.061,0-0.09
		c0.088-3.451-2.64-6.32-6.092-6.408c-3.451-0.088-6.32,2.641-6.408,6.092c-0.002,0.105-0.002,0.211,0,0.316c0,0.03,0,0.061,0,0.09
		c0,0.03,0,0.07,0,0.1C507.76,685.028,508.529,686.736,509.874,687.924z M529.221,698.584c-0.027-3.925-3.213-7.095-7.139-7.101
		H507.29c2.673,2.215,4.228,5.5,4.246,8.971l0.122,24.35c0.02,3.422-2.363,6.391-5.71,7.109v17.42c0.003,2,1.626,3.617,3.626,3.615
		c1.994-0.004,3.61-1.619,3.613-3.615v-28.159c0.016-0.432,0.379-0.769,0.811-0.753c0.409,0.014,0.738,0.344,0.753,0.753v28.159
		c0.003,2,1.626,3.617,3.626,3.615c1.994-0.004,3.611-1.619,3.614-3.615l-0.066-51.819h0.157c0.607-0.003,1.102,0.487,1.105,1.095
		c0,0.002,0,0.004,0,0.006l0.111,22.17c0.008,1.658,1.356,3,3.016,3h0.02c1.664-0.012,3.005-1.367,3-3.03L529.221,698.584z
		 M507.748,724.823l-0.122-24.35c-0.028-4.314-3.529-7.8-7.844-7.81h-17.8c-1.175-0.001-2.334,0.266-3.39,0.78
		c2.448,2.311,3.843,5.523,3.859,8.89l0.132,26.249c0.002,0.959-0.18,1.91-0.535,2.801v1.391c0.78,0.957,1.207,2.154,1.207,3.389
		v14.221c0,1.234-0.427,2.432-1.207,3.391v2.459c-0.035,2.197,1.717,4.006,3.914,4.041s4.006-1.717,4.041-3.914
		c0.001-0.043,0.001-0.084,0-0.127v-30.939c-0.002-0.475,0.381-0.861,0.855-0.863s0.861,0.383,0.863,0.855c0,0.004,0,0.006,0,0.008
		v30.939c-0.035,2.197,1.717,4.006,3.913,4.041s4.007-1.717,4.041-3.914c0.001-0.043,0.001-0.084,0-0.127l-0.071-55.699
		c-0.008-0.383,0.296-0.7,0.679-0.708c0.382-0.009,0.699,0.295,0.708,0.678l0,0l0.123,24.36c0.011,1.83,1.504,3.307,3.336,3.295
		C506.283,728.149,507.759,726.655,507.748,724.823L507.748,724.823z M486.367,688.754c2.845,2.51,7.186,2.237,9.695-0.607
		s2.237-7.186-0.607-9.695c-2.846-2.509-7.186-2.237-9.695,0.607c-1.107,1.255-1.719,2.872-1.718,4.546
		C484.039,685.575,484.887,687.452,486.367,688.754L486.367,688.754z M477.878,734.694h-0.623v-3.23
		c0.899-0.676,1.427-1.736,1.423-2.859l-0.132-26.25c-0.032-4.648-3.805-8.402-8.453-8.41h-3.759
		c-0.468,1.22-3.825,10.26-4.327,11.569l1.044-4.92c0.074-0.347,0.021-0.709-0.15-1.021l-1.434-2.6l1.275-2.26
		c0.088-0.163,0.085-0.359-0.008-0.52c-0.094-0.158-0.264-0.254-0.447-0.25h-3.5c-0.184-0.003-0.354,0.092-0.447,0.25
		c-0.093,0.16-0.096,0.356-0.008,0.52l1.275,2.26l-1.439,2.61c-0.167,0.305-0.221,0.659-0.154,1l0.913,4.93
		c-0.456-1.17-3.692-10.3-4.187-11.569h-3.822c-4.648,0.008-8.421,3.762-8.453,8.41l-0.131,26.25
		c-0.009,1.971,1.582,3.578,3.555,3.59h0.018c1.967-0.004,3.563-1.594,3.572-3.561l0.131-26.25c0.003-0.378,0.311-0.682,0.688-0.68
		c0.001,0,0.001,0,0.001,0l0,0c0.381,0,0.688,0.309,0.688,0.689v60.051c-0.035,2.367,1.854,4.314,4.222,4.352
		c2.367,0.035,4.315-1.854,4.353-4.221c0-0.045,0-0.088,0-0.131v-33.342c0-0.51,0.414-0.924,0.924-0.924
		c0.512,0,0.926,0.414,0.926,0.924v33.342c-0.036,2.367,1.854,4.314,4.221,4.352c2.367,0.035,4.316-1.854,4.352-4.221
		c0.002-0.045,0.002-0.088,0-0.131v-7.301c-1.768-0.93-2.875-2.764-2.877-4.76v-14.221c0.002-1.998,1.109-3.83,2.877-4.76
		c0-6.699-0.074,0.15-0.076-29c0.002-0.409,0.33-0.742,0.74-0.75h0.008c0.408,0.003,0.74,0.332,0.746,0.74l0.132,26.24
		c0.009,1.172,0.591,2.266,1.559,2.93v3.131h-0.6c-0.812,0-1.471,0.656-1.472,1.469v14.221c0.001,0.811,0.66,1.469,1.472,1.469
		h5.389c0.813,0,1.472-0.656,1.472-1.469v-14.221C479.351,735.351,478.691,734.692,477.878,734.694L477.878,734.694z
		 M460.534,676.733c4.111-0.002,7.446,3.33,7.448,7.441c0.003,4.111-3.328,7.447-7.44,7.449s-7.446-3.329-7.449-7.441
		c0-0.003,0-0.006,0-0.009C453.093,680.065,456.424,676.733,460.534,676.733C460.533,676.733,460.533,676.733,460.534,676.733z"/>
	<path id="Forma_1_19_" fill="none" stroke="#808285" stroke-width="2" stroke-miterlimit="10" d="M146.99,824.164v31.279
		c0,0-6.7,1.32-8.09,1.49c-1.37,0.182-5.7,1.57-8.83-1.439c-4.84-4.629-22.021-21.689-22.021-21.689s-2.96-2.9-7.72-0.391
		c-4.37,2.291-10.84,5.66-13.54,6.971c-2.964,1.738-6.776,0.744-8.515-2.219c-0.475-0.811-0.761-1.717-0.835-2.652
		c0-2.549,1.59-4.279,3.869-5.549c6.16-3.73,19.16-11.01,24.57-13.891c3.29-1.74,5.66-1.891,10.17,1.91
		c5.561,4.67,10.51,8.93,10.51,8.93c1.217,0.857,2.744,1.148,4.19,0.801C137.07,826.385,146.99,824.164,146.99,824.164z
		 M78.61,877.174c1.287-2.734,0.114-5.994-2.62-7.283c-1.236-0.582-2.646-0.68-3.95-0.277c0.641-1.932,0.185-4.059-1.19-5.559
		c-1.463-1.41-3.562-1.941-5.52-1.4c0.639-1.932,0.184-4.059-1.19-5.561c-2.488-2.309-6.365-2.205-8.729,0.23
		c-2.55,2.449-4.19,6.879-1.91,9.49c2.271,2.59,4.89,1.01,6.88,0.561c-0.56,1.969-2.22,3.809-0.17,6.389s4.88,1.02,6.88,0.57
		c-0.56,1.971-2.149,3.99-0.18,6.381c1.97,2.389,5.229,1.119,7.38,0.459c-0.83,2.131-2.6,4.42-0.32,6.99
		c2.28,2.57,7.53,1.391,10.09-1.061c2.54-2.219,2.8-6.078,0.579-8.619c-0.006-0.006-0.013-0.014-0.019-0.02
		C83.023,876.93,80.696,876.43,78.61,877.174z M125.45,860.895c-18.561-18.531-9.83-9.811-19.82-19.811
		c-1.869-1.746-4.589-2.234-6.95-1.25c-2.779,1.221-6.359,2.871-9.05,4.141c-1.857,1.104-3.932,1.793-6.08,2.02
		c-5.691,0.023-10.325-4.57-10.35-10.262c-0.015-3.594,1.842-6.934,4.899-8.818c4.12-2.85,13.61-7.891,13.61-7.891
		s-2.89-3.66-9.22-3.66s-19.561,8.66-19.561,8.66c-2.837,1.48-6.198,1.57-9.109,0.24l-10.311-3.59v35.801c0,0,2.95,0.85,5.59,1.93
		c0.6-1.727,1.593-3.291,2.9-4.57c4.39-4.18,11.66-4.219,15.66-0.109c1.188,1.223,2.038,2.73,2.47,4.379
		c1.606,0.494,3.063,1.381,4.24,2.58c1.188,1.223,2.038,2.732,2.47,4.381c2.739,4.338,6.65,7.811,11.28,10.02
		c2.301,2.4,3.315,5.758,2.729,9.031h0.021c0.04,0.049,1.49,1.67,2.39,2.58c1.795,1.756,4.674,1.725,6.431-0.07
		c1.729-1.768,1.729-4.594,0-6.361c-0.061-0.059-6.381-6.66-5.87-7.18c0.5-0.5,8.55,7.859,8.699,8.02
		c1.773,1.777,4.649,1.779,6.426,0.006c1.775-1.773,1.777-4.65,0.005-6.426l0,0c-0.08-0.09-0.45-0.43-0.58-0.568
		c0,0-7.98-7.102-7.38-7.711c0.62-0.609,10.54,8.631,10.55,8.631c1.815,1.688,4.655,1.584,6.343-0.232
		c1.552-1.668,1.606-4.234,0.127-5.969c-0.029-0.09-7.56-7.949-6.97-8.539s8.04,7.059,8.061,7.08c1.794,1.756,4.673,1.725,6.43-0.07
		c1.729-1.768,1.729-4.594,0-6.361C125.502,860.93,125.476,860.914,125.45,860.895L125.45,860.895z"/>
	<path id="Forma_1_20_" fill="none" stroke="#808285" stroke-width="2" stroke-miterlimit="10" d="M237.951,829.983v-12.9h47.15
		v34.041h-42.47c-6.448,4.02-6.007,3.76-6.554,4.02h51.029c1.106-0.004,2-0.903,2-2.01v-38.061c0-1.106-0.894-2.006-2-2.01h-51.162
		c-1.108,0.001-2.006,0.9-2.006,2.01l0,0v10.03C233.939,825.104,237.536,827.014,237.951,829.983z M260.092,835.563l-3.271,2.59
		l1.322,3.21c0.431,1.024,1.609,1.505,2.633,1.075c0.048-0.02,0.095-0.041,0.141-0.065l8.686-4.51l8.734,6.84
		c0.354,0.271,0.786,0.419,1.232,0.42c0.618,0.003,1.203-0.281,1.582-0.77c0.681-0.88,0.525-2.143-0.349-2.83l-9.749-7.63
		c-0.617-0.481-1.458-0.56-2.154-0.2l-7.888,4.101L260.092,835.563z M255.831,825.263c-0.358-0.878-1.286-1.384-2.22-1.209
		l-6.832,1.279l-2.936-4.67c-0.591-0.937-1.829-1.217-2.766-0.626c-0.938,0.591-1.217,1.829-0.626,2.767l3.659,5.83
		c0.436,0.699,1.255,1.061,2.064,0.91l6.146-1.15l3.619-2.87L255.831,825.263z M251.96,836.753c0.162,0.26,0.306,0.531,0.431,0.811
		l8.846-7c0.869-0.691,1.018-1.955,0.332-2.83c-0.682-0.868-1.939-1.019-2.808-0.336c-0.003,0.002-0.005,0.004-0.008,0.006
		l-8.979,7.1C250.656,835.087,251.402,835.854,251.96,836.753L251.96,836.753z M217.293,862.483c0-0.518,0.42-0.938,0.938-0.938
		c0.519,0,0.938,0.42,0.938,0.938v19.17c1.9-1.105,4.058-1.691,6.255-1.699c-2.953-4.896-1.923-11.209,2.434-14.91
		c0,0-0.076-2.42-0.078-29.711c-0.02-0.418,0.303-0.772,0.721-0.793c0.418-0.02,0.773,0.304,0.793,0.723
		c0.001,0.017,0.002,0.033,0.001,0.051l0,0c0.019,3.51,0.056,11.12,0.067,13.29c0.004,2.001,1.63,3.618,3.631,3.613
		c0.671-0.002,1.328-0.19,1.898-0.544l12.83-8c1.703-1.054,2.229-3.29,1.175-4.994c-1.055-1.703-3.29-2.23-4.995-1.176l0,0
		l-7.332,4.57c-0.012-2.4-0.021-4.29-0.033-6.8c-0.028-4.719-3.85-8.536-8.568-8.56h-3.633l-2.721,7.27l-1.854,4.83l1.086-5.141
		c0.075-0.354,0.021-0.723-0.152-1.039l-1.473-2.69l1.271-2.431c0.091-0.165,0.087-0.367-0.009-0.529
		c-0.092-0.167-0.268-0.271-0.459-0.271h-3.588c-0.189,0.001-0.365,0.104-0.457,0.271c-0.097,0.162-0.1,0.364-0.008,0.529
		l1.344,2.431l-1.475,2.7c-0.172,0.311-0.228,0.672-0.158,1.02l0.941,5.15l-1.705-4.83l-2.791-7.27h-3.634
		c-4.721,0.018-8.545,3.838-8.567,8.56l-0.133,26.7c-0.016,2,1.593,3.635,3.594,3.65c0.002,0,0.004,0,0.006,0h0.018
		c1.995-0.002,3.613-1.617,3.62-3.611l0.134-26.699c0-0.396,0.321-0.718,0.718-0.718s0.718,0.321,0.718,0.718v61.09
		c-0.005,2.332,1.829,4.254,4.159,4.359l0.041-8.139c0.019-3.715,1.658-7.236,4.488-9.641v-20.5H217.293z M218.23,809.253
		c4.158-0.016,7.543,3.342,7.56,7.5c0.017,4.159-3.341,7.544-7.5,7.561c-4.159,0.017-7.543-3.342-7.56-7.5c0-0.01,0-0.02,0-0.03
		c-0.008-4.149,3.349-7.521,7.499-7.53H218.23z M272.277,866.394c4.209-0.016,7.633,3.385,7.647,7.592
		c0.015,4.209-3.384,7.633-7.593,7.648c-4.209,0.014-7.633-3.385-7.646-7.594c0-0.01,0-0.018,0-0.027
		c-0.009-4.199,3.389-7.611,7.59-7.619l0,0H272.277z M290.752,892.724c-0.027-4.775-3.895-8.639-8.67-8.66h-19.671
		c-4.46,0.016-8.186,3.402-8.626,7.84c-0.405-4.471-4.145-7.9-8.633-7.92h-19.67c-4.777,0.016-8.647,3.883-8.67,8.66l-0.043,8.609
		h7.328l0.043-8.58c0.017-0.391,0.348-0.693,0.738-0.676c0.37,0.016,0.665,0.316,0.676,0.686v8.57h19.406v-8.59
		c-0.001-0.424,0.342-0.768,0.766-0.77c0.424,0,0.768,0.342,0.769,0.766c0,0.002,0,0.002,0,0.004v0.01l0.042,8.58h14.488l0.043-8.49
		c0-0.391,0.317-0.707,0.707-0.707c0.391,0,0.707,0.316,0.707,0.707v8.49h19.41v-8.42c-0.01-0.424,0.327-0.775,0.751-0.785
		c0.41-0.01,0.755,0.307,0.783,0.715l0,0l0.042,8.49h7.324L290.752,892.724z M235.352,866.304c-4.213,0.02-7.611,3.449-7.593,7.662
		c0.011,2.342,1.097,4.549,2.946,5.986l0,0c3.336,2.559,8.112,1.926,10.67-1.41c2.557-3.336,1.924-8.111-1.411-10.668
		c-1.325-1.016-2.946-1.568-4.616-1.57H235.352z"/>
</g>
</svg>
