<?xml version="1.0" encoding="utf-8"?>
<!-- Generator: Adobe Illustrator 16.0.2, SVG Export Plug-In . SVG Version: 6.00 Build 0)  -->
<!DOCTYPE svg PUBLIC "-//W3C//DTD SVG 1.1//EN" "http://www.w3.org/Graphics/SVG/1.1/DTD/svg11.dtd">
<svg version="1.1" id="Слой_1" xmlns="http://www.w3.org/2000/svg" xmlns:xlink="http://www.w3.org/1999/xlink" x="0px" y="0px"
	 width="595.279px" height="1500px" viewBox="0 0 595.279 1500" enable-background="new 0 0 595.279 1500" xml:space="preserve">
<g id="Layer_1" display="none">
	
		<rect x="0" y="2.561" display="inline" fill="#BCBEC0" stroke="#231F20" stroke-miterlimit="10" width="595.279" height="1497.439"/>
</g>
<g id="Layer_2">
	<path fill="#FFFFFF" d="M62.771,66.791l-5.145-14.377v-5.508h0.153c0.257,0.012,0.474-0.187,0.484-0.441s-0.186-0.472-0.441-0.484
		c-0.014-0.001-0.028-0.001-0.043,0h-7.126c-0.256-0.012-0.472,0.185-0.483,0.44c-0.012,0.256,0.186,0.473,0.439,0.484
		c0.016,0,0.029,0,0.044,0h0.159v5.508L45.668,66.79c-0.424,0.945-0.002,2.055,0.941,2.479c0.285,0.127,0.6,0.182,0.909,0.158
		h13.394c1.03,0.082,1.934-0.689,2.016-1.721C62.954,67.393,62.899,67.078,62.771,66.791z M61.836,68.105
		c-0.224,0.277-0.567,0.428-0.923,0.4H47.521c-0.522,0.078-1.01-0.283-1.088-0.807c-0.029-0.204,0.006-0.412,0.104-0.594
		l5.17-14.454c0.018-0.05,0.026-0.103,0.026-0.156v-5.588H56.7v5.588c0,0.053,0.009,0.106,0.026,0.156l5.17,14.454
		C62.042,67.429,62.02,67.802,61.836,68.105L61.836,68.105z M44.269,68.346c-4.258,0.866-8.412-1.885-9.277-6.144
		c-0.735-3.615,1.141-7.256,4.511-8.756c0.167-0.075,0.273-0.24,0.272-0.423V41.352h5.863v11.675
		c-0.001,0.183,0.106,0.348,0.273,0.423c0.854,0.382,1.637,0.915,2.305,1.572c0.178,0.184,0.471,0.19,0.654,0.013
		c0.186-0.177,0.19-0.47,0.014-0.655c-0.006-0.006-0.012-0.013-0.019-0.019c-0.676-0.663-1.451-1.213-2.301-1.629v-11.38h0.147
		c0.256,0.012,0.472-0.185,0.483-0.441c0.013-0.255-0.186-0.472-0.439-0.484c-0.015,0-0.029,0-0.044,0H38.69
		c-0.255-0.012-0.472,0.186-0.482,0.441c-0.014,0.255,0.186,0.472,0.439,0.484c0.016,0.001,0.029,0.001,0.043,0h0.154v11.375
		c-4.362,2.136-6.168,7.403-4.033,11.767c1.758,3.59,5.715,5.543,9.634,4.756c0.243-0.078,0.378-0.338,0.303-0.582
		C44.682,68.462,44.483,68.33,44.269,68.346L44.269,68.346z"/>
	<g>
		<path fill="none" stroke="#FFFFFF" stroke-miterlimit="10" d="M100.527,54.056v14.377V54.056z"/>
		<path fill="none" stroke="#FFFFFF" stroke-miterlimit="10" d="M105.804,68.433H95.25H105.804z"/>
		<path fill="none" stroke="#FFFFFF" stroke-miterlimit="10" d="M111.239,46.358c0,0-4.524,7.698-10.72,7.698
			c-6.194,0-11.216-7.698-11.216-7.698l11.216,0.12L111.239,46.358z"/>
		<path fill="none" stroke="#FFFFFF" stroke-miterlimit="10" d="M94.283,64.869l12.763-0.563c0,0,1.668-0.604,2.116-1.111
			c0.368-0.419,1.024-1.739,1.086-2.293c0.045-0.415-0.322-1.309-0.588-1.631c-0.432-0.521-1.594-0.936-2.259-1.064
			c-1.848-0.356-4.438-0.727-6.31-0.922c-1.438-0.149-5.063-0.128-6.461-0.488c-0.696-0.179-2.671-1.001-3.098-1.143
			c-0.428-0.142-2.302-1.544-2.917-2.222c-0.487-0.536-1.389-1.709-1.638-2.388c-0.24-0.653-0.321-2.071-0.285-2.766
			c0.036-0.688,0.315-2.055,0.569-2.695c0.252-0.637,0.967-1.829,1.423-2.34c0.54-0.604,1.887-1.537,2.563-1.986
			c0.63-0.419,1.93-1.212,2.634-1.489c0.562-0.222,1.977-0.567,2.58-0.567"/>
		<ellipse fill="none" stroke="#FFFFFF" stroke-miterlimit="10" cx="100.719" cy="39.413" rx="4.217" ry="2.48"/>
	</g>
	<path fill="#FFFFFF" d="M143.678,55.124l5.234-5.101c2.626-2.535,2.699-6.719,0.165-9.345c-0.056-0.056-0.109-0.111-0.165-0.165
		c-2.727-2.623-7.035-2.623-9.761,0l-5.232,5.1l0,0l-4.525,4.408c-2.626,2.538-2.698,6.725-0.159,9.351
		c0.053,0.055,0.105,0.107,0.159,0.16c2.726,2.621,7.034,2.621,9.759,0L143.678,55.124L143.678,55.124L143.678,55.124z
		 M139.855,41.2c2.333-2.243,6.021-2.243,8.354,0c2.248,2.167,2.313,5.747,0.145,7.995c-0.047,0.049-0.096,0.097-0.145,0.144
		l-4.882,4.758l-8.354-8.14L139.855,41.2z M138.455,58.848c-2.333,2.243-6.021,2.243-8.354,0c-2.248-2.173-2.309-5.756-0.137-8.003
		c0.044-0.046,0.09-0.092,0.137-0.137l4.173-4.065l8.354,8.139L138.455,58.848z M151.166,55.497
		c-3.886,0.097-6.955,3.324-6.858,7.209c0.098,3.885,3.326,6.955,7.211,6.857c3.816-0.095,6.859-3.217,6.859-7.034
		c-0.058-3.933-3.285-7.079-7.218-7.032H151.166z M144.942,62.529c0.05-3.392,2.832-6.104,6.225-6.063
		c1.513-0.002,2.975,0.541,4.119,1.531c-0.032,0.016-0.063,0.035-0.09,0.057l-8.699,8.475c-1-1.092-1.557-2.518-1.561-3.999h0.006
		V62.529z M151.166,68.595c-1.438,0.003-2.835-0.486-3.956-1.387l8.688-8.469c0.021-0.023,0.039-0.051,0.055-0.078
		c0.925,1.076,1.435,2.449,1.436,3.868c-0.048,3.394-2.835,6.107-6.229,6.065L151.166,68.595L151.166,68.595z"/>
	<path id="Forma_1" fill="#FFFFFF" d="M202.566,70.055h-26.282c-0.197,0-0.357-0.16-0.357-0.356c0-0.094,0.036-0.183,0.101-0.25
		c2.891-2.963,3.175-2.752,3.424-2.564c0.371,0.21,0.8,0.302,1.226,0.263c0.119-0.011,0.227-0.075,0.292-0.175
		c0.421-0.688,1.715-1.794,2.484-1.464c0.588-0.069,1.147-0.291,1.625-0.644c0.199-0.381,0.536-0.673,0.942-0.816
		c0.045-0.025,0.095-0.04,0.146-0.043c0.325-0.009,0.645-0.082,0.939-0.218c0.399-0.409,0.835-0.782,1.301-1.114
		c0.19-0.146,0.457-0.134,0.637,0.025c0.019,0.017,0.037,0.032,0.058,0.046v-9.357c0.006-2.049-0.794-4.018-2.227-5.482
		c-0.722,0.641-1.639,1.015-2.602,1.062c-1.589,0.069-3.242-0.742-4.915-2.413c-2.722-2.665-4.128-6.396-3.843-10.194
		c0.021-0.16,0.147-0.287,0.31-0.308c3.799-0.284,7.53,1.12,10.198,3.84c1.672,1.671,2.485,3.324,2.414,4.912
		c-0.044,0.962-0.417,1.88-1.057,2.6c0.972,0.988,1.688,2.198,2.086,3.525c0.396-1.329,1.112-2.54,2.084-3.53
		c-0.636-0.719-1.007-1.633-1.053-2.591c-0.07-1.588,0.742-3.241,2.415-4.912c2.668-2.721,6.399-4.125,10.199-3.84
		c0.16,0.021,0.286,0.146,0.309,0.307c0.284,3.799-1.122,7.53-3.844,10.195c-1.673,1.671-3.324,2.484-4.915,2.412
		c-0.967-0.046-1.889-0.422-2.609-1.065c-1.435,1.466-2.236,3.437-2.23,5.487v9.3c0.18-0.145,0.434-0.149,0.616-0.01
		c0.472,0.334,0.909,0.71,1.313,1.123c0.295,0.128,0.611,0.199,0.935,0.209c0.051,0.004,0.102,0.019,0.146,0.043
		c0.405,0.144,0.743,0.436,0.942,0.817c0.479,0.352,1.038,0.572,1.627,0.642c0.77-0.329,2.063,0.777,2.482,1.465
		c0.064,0.101,0.174,0.165,0.293,0.175c0.426,0.039,0.853-0.053,1.225-0.263c0.25-0.187,0.533-0.4,3.424,2.564
		c0.133,0.146,0.121,0.372-0.024,0.505C202.735,70.02,202.653,70.053,202.566,70.055z M177.145,69.341h24.563
		c-0.625-0.651-1.303-1.251-2.023-1.794c-0.504,0.267-1.078,0.371-1.644,0.3c-0.316-0.048-0.598-0.23-0.77-0.5
		c-0.352-0.59-0.925-1.016-1.592-1.18c-0.624,0.267-1.879-0.422-2.181-0.62c-0.191-0.097-0.339-0.262-0.415-0.461
		c-0.163-0.144-0.342-0.269-0.532-0.372c-0.5,0-0.985-0.173-1.374-0.487c-0.323-0.321-0.671-0.616-1.041-0.882
		c-0.431,0.289-0.992,0.289-1.423,0c-0.369,0.266-0.718,0.561-1.04,0.882c-0.389,0.314-0.874,0.486-1.374,0.487
		c-0.19,0.104-0.369,0.229-0.532,0.372c-0.076,0.199-0.224,0.364-0.415,0.461c-0.3,0.2-1.557,0.887-2.181,0.62
		c-0.667,0.164-1.241,0.589-1.592,1.18c-0.172,0.27-0.453,0.452-0.771,0.5c-0.564,0.071-1.139-0.033-1.643-0.3
		c-0.724,0.542-1.4,1.143-2.027,1.794H177.145z M176.205,36.735c-0.128,3.479,1.198,6.854,3.663,9.313
		c1.522,1.522,3,2.263,4.378,2.2c0.896-0.042,1.74-0.428,2.358-1.078c0.015-0.017,0.029-0.031,0.045-0.044
		c0.65-0.624,1.037-1.473,1.079-2.372c0.058-1.376-0.687-2.845-2.206-4.362c-2.462-2.464-5.841-3.789-9.32-3.656L176.205,36.735
		L176.205,36.735z M202.233,36.724c-3.308,0.015-6.477,1.335-8.816,3.673c-1.521,1.519-2.264,2.986-2.206,4.362
		c0.043,0.899,0.43,1.749,1.08,2.372c0.016,0.013,0.029,0.027,0.044,0.043c0.623,0.65,1.473,1.036,2.373,1.079
		c1.379,0.056,2.846-0.687,4.364-2.205c2.468-2.456,3.796-5.832,3.663-9.312c-0.132-0.009-0.301-0.009-0.505-0.009L202.233,36.724z
		 M192.949,46.595c-0.063,0-0.127-0.017-0.182-0.049c-0.17-0.1-0.227-0.318-0.128-0.488c0.022-0.037,0.273-0.464,0.715-1.1
		l-0.226-1.84c-0.024-0.195,0.115-0.373,0.311-0.397c0.196-0.024,0.374,0.115,0.398,0.311l0,0l0.132,1.076
		c0.488-0.646,1.01-1.269,1.563-1.862c0.17-0.183,0.354-0.37,0.552-0.56l-0.322-1.912c-0.054-0.189,0.058-0.387,0.247-0.44
		c0.188-0.053,0.387,0.058,0.44,0.247c0.007,0.024,0.011,0.05,0.013,0.075l0.244,1.45c1.313-1.144,2.684-2.221,4.104-3.227
		c0.162-0.113,0.385-0.075,0.498,0.087c0.114,0.161,0.075,0.385-0.087,0.498l0,0c-0.021,0.014-1.274,0.899-2.641,2l1.369,0.443
		c0.188,0.062,0.289,0.263,0.229,0.45c-0.061,0.188-0.263,0.29-0.45,0.229l0,0l-1.8-0.585c-0.422,0.353-0.837,0.717-1.214,1.071
		l-0.009,0.01c-0.236,0.223-0.456,0.441-0.653,0.653c-0.3,0.318-0.575,0.638-0.832,0.948l2.724,0.732
		c0.192,0.043,0.313,0.234,0.271,0.427c-0.044,0.192-0.235,0.313-0.428,0.27c-0.01-0.002-0.019-0.005-0.027-0.008l-3.025-0.813
		c-0.532,0.681-1.025,1.393-1.478,2.131c-0.065,0.108-0.186,0.173-0.312,0.171h0.004V46.595z M185.991,46.595
		c-0.129,0-0.245-0.067-0.311-0.177c-0.451-0.738-0.944-1.45-1.478-2.132l-3.025,0.814c-0.188,0.057-0.388-0.05-0.445-0.238
		c-0.057-0.188,0.051-0.388,0.239-0.445c0.007-0.002,0.014-0.004,0.021-0.006l2.724-0.732c-0.257-0.311-0.535-0.629-0.832-0.948
		c-0.2-0.211-0.417-0.43-0.653-0.653l-0.01-0.01c-0.377-0.354-0.792-0.719-1.214-1.072l-1.8,0.586
		c-0.188,0.061-0.391-0.042-0.45-0.229c-0.063-0.188,0.041-0.389,0.229-0.45l0,0l1.369-0.443c-1.364-1.101-2.62-1.98-2.641-2
		c-0.161-0.114-0.2-0.337-0.087-0.498c0.114-0.161,0.337-0.2,0.498-0.086c1.422,1.005,2.792,2.082,4.104,3.226l0.244-1.45
		c0.054-0.189,0.251-0.3,0.44-0.247c0.162,0.046,0.27,0.197,0.26,0.365l-0.322,1.912c0.2,0.189,0.383,0.377,0.553,0.559
		c0.553,0.595,1.072,1.217,1.562,1.864l0.131-1.075c0.024-0.195,0.202-0.335,0.398-0.312c0.194,0.023,0.335,0.202,0.311,0.397l0,0
		l-0.226,1.838c0.44,0.638,0.692,1.064,0.715,1.101c0.102,0.17,0.047,0.39-0.123,0.491c-0.056,0.033-0.12,0.051-0.186,0.051h0.004
		V46.595z"/>
	<path id="Forma_1_1_" fill="#FFFFFF" d="M231.084,67.006c-8.562,0-15.5-6.939-15.5-15.5s6.938-15.5,15.5-15.5
		c8.561,0,15.5,6.939,15.5,15.5l0,0C246.574,60.063,239.641,66.996,231.084,67.006z M231.084,37.006c-8.008,0-14.5,6.492-14.5,14.5
		c0,8.008,6.492,14.5,14.5,14.5s14.5-6.492,14.5-14.5l0,0C245.575,43.501,239.088,37.015,231.084,37.006z M228.218,58.117
		l-5.541-5.541l0.708-0.708l4.833,4.834l10.521-10.521l0.707,0.707L228.218,58.117z"/>
	<path id="Forma_1_2_" fill="#FFFFFF" d="M283.054,69.862c-1.436-0.021-2.583-1.201-2.563-2.637l0.737-15.973
		c-2.151-0.831-3.426-3.241-3.426-6.542c0-3.788,2.355-6.87,5.25-6.87s5.251,3.082,5.251,6.87c0,3.3-1.271,5.71-3.426,6.542
		l0.739,15.95c0.026,1.44-1.118,2.631-2.561,2.659C283.058,69.861,283.056,69.862,283.054,69.862z M283.054,38.862
		c-2.348,0-4.259,2.624-4.259,5.852c0,3.007,1.15,5.134,3.081,5.688c0.225,0.068,0.374,0.28,0.36,0.514l-0.758,16.335
		c0.007,0.869,0.717,1.568,1.586,1.562s1.569-0.716,1.563-1.586l-0.757-16.313c-0.014-0.234,0.138-0.446,0.361-0.514
		c1.931-0.554,3.08-2.681,3.08-5.688c0-3.229-1.91-5.853-4.26-5.853L283.054,38.862L283.054,38.862z M269.536,69.862
		c-1.437-0.021-2.584-1.2-2.564-2.637l0,0l0.74-15.983c-2.069-0.791-3.434-2.778-3.426-4.993v-7.9
		c-0.006-0.276,0.215-0.504,0.49-0.509c0.003,0,0.007,0,0.01,0h2.211c0.275,0,0.5,0.224,0.5,0.5c0,0.003,0,0.006,0,0.009v6.83h0.55
		V38.35c-0.005-0.276,0.215-0.504,0.491-0.509c0.003,0,0.006,0,0.009,0h2c0.275,0,0.5,0.224,0.5,0.5c0,0.003,0,0.006,0,0.009v6.83
		h0.55v-6.83c-0.005-0.276,0.215-0.504,0.491-0.509c0.003,0,0.006,0,0.009,0h2.217c0.276,0,0.5,0.224,0.5,0.5
		c0,0.003,0,0.006,0,0.009v7.9c0.006,2.215-1.356,4.203-3.426,4.993l0.74,15.958c0.026,1.441-1.119,2.632-2.562,2.659
		C269.556,69.861,269.546,69.861,269.536,69.862z M265.275,38.862v7.389c-0.006,1.91,1.249,3.596,3.081,4.137
		c0.226,0.067,0.375,0.279,0.362,0.514l-0.756,16.349c-0.016,0.869,0.678,1.586,1.547,1.6c0.869,0.015,1.585-0.678,1.6-1.547
		c0-0.025,0-0.051,0-0.077l-0.757-16.325c-0.013-0.234,0.137-0.447,0.362-0.514c1.833-0.541,3.088-2.227,3.082-4.137V38.86h-1.228
		v6.83c0.006,0.276-0.215,0.504-0.49,0.509c-0.003,0-0.007,0-0.01,0h-1.54c-0.275,0-0.5-0.224-0.5-0.5c0-0.003,0-0.006,0-0.009
		v-6.83h-1.006v6.83c0.005,0.276-0.215,0.504-0.491,0.509c-0.003,0-0.006,0-0.009,0h-1.526c-0.276,0-0.5-0.224-0.5-0.5
		c0-0.003,0-0.006,0-0.009v-6.83h-1.229L265.275,38.862z"/>
	<path id="Forma_1_3_" fill="#FFFFFF" d="M311.881,43.017c0.455,0.003,0.825-0.363,0.83-0.818c0.002-0.341,0.063-0.679,0.18-1
		c0.437-1.122,1.516-1.861,2.72-1.862c2.5,0.012,4.538-2,4.561-4.5c0-0.458-0.371-0.83-0.83-0.83c-0.458,0-0.83,0.372-0.83,0.83
		c-0.001,0.342-0.065,0.681-0.189,1c-0.295,0.78-0.916,1.392-1.699,1.677c-0.322,0.123-0.665,0.186-1.011,0.185
		c-2.501-0.015-4.542,1.999-4.56,4.5C311.054,42.654,311.426,43.021,311.881,43.017z M329.65,69.004l-0.01-16.312l-7.142,5.661
		V52.68l-6.979,5.626l-0.58-9.67h-0.021v-1.378c0-1.243-1.007-2.252-2.25-2.255h-3.209c-1.244,0.003-2.25,1.012-2.25,2.255v1.4
		L305.65,68.99L329.65,69.004z M321.48,54.814v5.649l7.14-5.662l0.012,13.175H306.75l1.439-18.784h5.771l0.658,11.151L321.48,54.814
		z M308.23,47.258c-0.001-0.681,0.549-1.233,1.23-1.234h3.209c0.681,0.001,1.23,0.553,1.229,1.234v0.913h-5.67L308.23,47.258
		L308.23,47.258z"/>
	<path id="Forma_1_copy_3_копия_2" fill="#FFFFFF" d="M371.269,54.062l1.506,14.37h2.506v-3.757
		c0.001-0.175,0.144-0.316,0.317-0.315l0,0h1.508v-7.567c0.01-0.176,0.159-0.309,0.335-0.299c0.16,0.009,0.289,0.137,0.299,0.299
		v7.569h0.787c0.175-0.001,0.316,0.141,0.317,0.315l0,0v3.755h0.876c0.174-0.001,0.313,0.14,0.314,0.314
		c0,0.174-0.141,0.315-0.313,0.315c-0.001,0-0.001,0-0.001,0h-29.451c-0.175,0-1.014,0.045-1-0.314
		c0.063-0.449,0.479-0.762,0.928-0.699c0.023,0.004,0.049,0.008,0.072,0.014h2v-13c0-0.174,0.236-0.117,0.412-0.117
		c0.175,0,0.588-0.057,0.588,0.117v13h7l3-18 M375.912,68.432h2.302V64.99h-2.302V68.432z M364.269,51.062l-3,17h10l-1-14
		 M378.76,56.407c-0.037,0-0.073-0.006-0.108-0.019l-23.391-8.433l-2.283,6.278c-0.061,0.165-0.242,0.249-0.407,0.188
		c-0.081-0.03-0.146-0.092-0.181-0.171l-3.096-7.145c-0.031-0.074-0.033-0.157-0.007-0.232l2.771-7.612
		c0.045-0.131,0.17-0.217,0.309-0.212l5.625,0.183c0.174,0.005,0.312,0.15,0.306,0.324c0,0.033-0.008,0.066-0.019,0.098l-1.61,4.435
		l23.393,8.434c0.162,0.059,0.247,0.237,0.188,0.4l-1.191,3.275c-0.028,0.078-0.087,0.143-0.163,0.178
		C378.853,56.396,378.807,56.407,378.76,56.407z M355.477,47.361l23.092,8.328l0.979-2.682l-23.095-8.327L355.477,47.361z
		 M349.927,46.968l2.729,6.3l2.095-5.756c0.004-0.024,0.01-0.048,0.02-0.07l1.189-3.274c0.007-0.02,0.016-0.038,0.025-0.056
		l1.552-4.264l-4.959-0.162L349.927,46.968z"/>
	<path fill="#808285" d="M62.771,133.842l-5.145-14.377v-5.508h0.153c0.257,0.012,0.474-0.186,0.484-0.441
		c0.011-0.255-0.186-0.472-0.441-0.484c-0.014-0.001-0.028-0.001-0.043,0h-7.126c-0.256-0.012-0.472,0.185-0.483,0.44
		c-0.012,0.256,0.186,0.473,0.439,0.484c0.016,0,0.029,0,0.044,0h0.159v5.508l-5.145,14.377c-0.424,0.945-0.002,2.055,0.941,2.479
		c0.285,0.127,0.6,0.182,0.909,0.158h13.394c1.03,0.082,1.934-0.689,2.016-1.721C62.954,134.445,62.899,134.129,62.771,133.842z
		 M61.836,135.157c-0.224,0.277-0.567,0.428-0.923,0.4H47.521c-0.522,0.078-1.01-0.283-1.088-0.807
		c-0.029-0.204,0.006-0.412,0.104-0.594l5.17-14.454c0.018-0.05,0.026-0.103,0.026-0.156v-5.588H56.7v5.588
		c0,0.053,0.009,0.106,0.026,0.156l5.17,14.454C62.042,134.481,62.02,134.854,61.836,135.157L61.836,135.157z M44.269,135.398
		c-4.258,0.866-8.412-1.885-9.277-6.144c-0.735-3.615,1.141-7.256,4.511-8.756c0.167-0.075,0.273-0.24,0.272-0.423v-11.671h5.863
		v11.675c-0.001,0.183,0.106,0.348,0.273,0.423c0.854,0.382,1.637,0.915,2.305,1.572c0.178,0.184,0.471,0.19,0.654,0.013
		c0.186-0.177,0.19-0.47,0.014-0.655c-0.006-0.006-0.012-0.013-0.019-0.019c-0.676-0.663-1.451-1.213-2.301-1.629v-11.381h0.147
		c0.256,0.012,0.472-0.185,0.483-0.441c0.013-0.255-0.186-0.472-0.439-0.484c-0.015,0-0.029,0-0.044,0H38.69
		c-0.255-0.012-0.472,0.186-0.482,0.441c-0.014,0.255,0.186,0.472,0.439,0.484c0.016,0.001,0.029,0.001,0.043,0h0.154v11.375
		c-4.362,2.136-6.168,7.403-4.033,11.767c1.758,3.59,5.715,5.543,9.634,4.756c0.243-0.078,0.378-0.338,0.303-0.582
		C44.682,135.514,44.483,135.381,44.269,135.398L44.269,135.398z"/>
	<g>
		<path fill="none" stroke="#939598" stroke-miterlimit="10" d="M102.527,121.108v14.377V121.108z"/>
		<path fill="none" stroke="#939598" stroke-miterlimit="10" d="M107.804,135.485H97.25H107.804z"/>
		<path fill="none" stroke="#939598" stroke-miterlimit="10" d="M113.239,113.41c0,0-4.524,7.698-10.72,7.698
			c-6.194,0-11.216-7.698-11.216-7.698l11.216,0.119L113.239,113.41z"/>
		<path fill="none" stroke="#939598" stroke-miterlimit="10" d="M96.283,131.92l12.763-0.563c0,0,1.668-0.604,2.116-1.111
			c0.368-0.419,1.024-1.739,1.086-2.293c0.045-0.415-0.322-1.309-0.588-1.631c-0.432-0.521-1.594-0.937-2.259-1.064
			c-1.848-0.356-4.438-0.727-6.31-0.922c-1.438-0.149-5.063-0.128-6.461-0.488c-0.696-0.179-2.671-1.001-3.098-1.143
			c-0.428-0.142-2.302-1.544-2.917-2.222c-0.487-0.536-1.389-1.709-1.638-2.388c-0.24-0.653-0.321-2.071-0.285-2.766
			c0.036-0.688,0.315-2.055,0.569-2.695c0.252-0.637,0.967-1.829,1.423-2.34c0.54-0.604,1.887-1.537,2.563-1.986
			c0.63-0.419,1.93-1.212,2.634-1.489c0.562-0.222,1.977-0.567,2.58-0.567"/>
		<ellipse fill="none" stroke="#939598" stroke-miterlimit="10" cx="102.719" cy="106.465" rx="4.217" ry="2.48"/>
	</g>
	<path fill="#808285" d="M154.678,122.176l5.234-5.101c2.626-2.535,2.699-6.719,0.165-9.345c-0.056-0.056-0.109-0.111-0.165-0.165
		c-2.727-2.623-7.035-2.623-9.761,0l-5.232,5.1l0,0l-4.525,4.408c-2.626,2.538-2.698,6.725-0.159,9.351
		c0.053,0.055,0.105,0.107,0.159,0.16c2.726,2.621,7.034,2.621,9.759,0L154.678,122.176L154.678,122.176L154.678,122.176z
		 M150.855,108.251c2.333-2.243,6.021-2.243,8.354,0c2.248,2.167,2.313,5.747,0.145,7.995c-0.047,0.049-0.096,0.097-0.145,0.144
		l-4.882,4.758l-8.354-8.14L150.855,108.251z M149.455,125.899c-2.333,2.243-6.021,2.243-8.354,0
		c-2.248-2.173-2.309-5.756-0.137-8.003c0.044-0.046,0.09-0.092,0.137-0.137l4.173-4.065l8.354,8.139L149.455,125.899z
		 M162.166,122.549c-3.886,0.097-6.955,3.324-6.858,7.209c0.098,3.885,3.326,6.955,7.211,6.857c3.816-0.095,6.859-3.217,6.859-7.034
		c-0.058-3.933-3.285-7.079-7.218-7.032H162.166z M155.942,129.581c0.05-3.392,2.832-6.104,6.225-6.063
		c1.513-0.002,2.975,0.541,4.119,1.531c-0.032,0.016-0.063,0.035-0.09,0.057l-8.699,8.475c-1-1.092-1.557-2.518-1.561-3.999
		L155.942,129.581L155.942,129.581z M162.166,135.646c-1.438,0.003-2.835-0.486-3.956-1.387l8.688-8.469
		c0.021-0.023,0.039-0.051,0.055-0.078c0.925,1.076,1.435,2.449,1.436,3.868c-0.048,3.394-2.835,6.107-6.229,6.065L162.166,135.646
		L162.166,135.646z"/>
	<path id="Forma_1_12_" fill="#808285" d="M216.566,137.106h-26.282c-0.197,0-0.357-0.16-0.357-0.356
		c0-0.094,0.036-0.183,0.101-0.25c2.891-2.963,3.175-2.752,3.424-2.564c0.371,0.21,0.8,0.302,1.226,0.263
		c0.119-0.011,0.227-0.075,0.292-0.175c0.421-0.688,1.715-1.794,2.484-1.464c0.588-0.069,1.147-0.291,1.625-0.644
		c0.199-0.381,0.536-0.673,0.942-0.816c0.045-0.025,0.095-0.04,0.146-0.043c0.325-0.009,0.645-0.082,0.939-0.218
		c0.399-0.409,0.835-0.782,1.301-1.114c0.19-0.146,0.457-0.134,0.637,0.025c0.019,0.017,0.037,0.032,0.058,0.046v-9.357
		c0.006-2.049-0.794-4.018-2.227-5.482c-0.722,0.641-1.639,1.015-2.602,1.062c-1.589,0.069-3.242-0.742-4.915-2.413
		c-2.722-2.665-4.128-6.396-3.843-10.194c0.021-0.16,0.147-0.287,0.31-0.308c3.799-0.284,7.53,1.12,10.198,3.84
		c1.672,1.671,2.485,3.324,2.414,4.912c-0.044,0.962-0.417,1.88-1.057,2.6c0.972,0.988,1.688,2.198,2.086,3.525
		c0.396-1.329,1.112-2.54,2.084-3.53c-0.636-0.719-1.007-1.633-1.053-2.591c-0.07-1.588,0.742-3.241,2.415-4.912
		c2.668-2.721,6.399-4.125,10.199-3.84c0.16,0.021,0.286,0.146,0.309,0.307c0.284,3.799-1.122,7.53-3.844,10.195
		c-1.673,1.671-3.324,2.484-4.915,2.412c-0.967-0.046-1.889-0.422-2.609-1.065c-1.435,1.466-2.236,3.437-2.23,5.487v9.3
		c0.18-0.145,0.434-0.149,0.616-0.01c0.472,0.334,0.909,0.71,1.313,1.123c0.295,0.128,0.611,0.199,0.935,0.209
		c0.051,0.004,0.102,0.019,0.146,0.043c0.405,0.144,0.743,0.436,0.942,0.817c0.479,0.352,1.038,0.572,1.627,0.642
		c0.77-0.329,2.063,0.777,2.482,1.465c0.064,0.101,0.174,0.165,0.293,0.175c0.426,0.039,0.853-0.053,1.225-0.263
		c0.25-0.187,0.533-0.4,3.424,2.564c0.133,0.146,0.121,0.372-0.024,0.505C216.735,137.071,216.653,137.104,216.566,137.106z
		 M191.145,136.393h24.563c-0.625-0.651-1.303-1.251-2.023-1.794c-0.504,0.267-1.078,0.371-1.644,0.3
		c-0.316-0.048-0.598-0.23-0.77-0.5c-0.352-0.59-0.925-1.016-1.592-1.18c-0.624,0.267-1.879-0.422-2.181-0.62
		c-0.191-0.097-0.339-0.262-0.415-0.461c-0.163-0.144-0.342-0.269-0.532-0.372c-0.5,0-0.985-0.173-1.374-0.487
		c-0.323-0.321-0.671-0.616-1.041-0.882c-0.431,0.289-0.992,0.289-1.423,0c-0.369,0.266-0.718,0.561-1.04,0.882
		c-0.389,0.313-0.874,0.486-1.374,0.487c-0.19,0.104-0.369,0.229-0.532,0.372c-0.076,0.199-0.224,0.364-0.415,0.461
		c-0.3,0.2-1.557,0.887-2.181,0.62c-0.667,0.164-1.241,0.589-1.592,1.18c-0.172,0.27-0.453,0.452-0.771,0.5
		c-0.564,0.071-1.139-0.033-1.643-0.3c-0.724,0.542-1.4,1.143-2.027,1.794H191.145z M190.205,103.787
		c-0.128,3.479,1.198,6.854,3.663,9.313c1.522,1.522,3,2.263,4.378,2.2c0.896-0.042,1.74-0.428,2.358-1.078
		c0.015-0.017,0.029-0.031,0.045-0.044c0.65-0.624,1.037-1.473,1.079-2.372c0.058-1.376-0.687-2.845-2.206-4.362
		c-2.462-2.464-5.841-3.789-9.32-3.656L190.205,103.787L190.205,103.787z M216.233,103.775c-3.308,0.015-6.477,1.335-8.816,3.673
		c-1.521,1.519-2.264,2.986-2.206,4.362c0.043,0.899,0.43,1.749,1.08,2.372c0.016,0.013,0.029,0.027,0.044,0.043
		c0.623,0.65,1.473,1.036,2.373,1.079c1.379,0.056,2.846-0.687,4.364-2.205c2.468-2.456,3.796-5.832,3.663-9.312
		c-0.132-0.009-0.301-0.009-0.505-0.009L216.233,103.775z M206.949,113.646c-0.063,0-0.127-0.017-0.182-0.049
		c-0.17-0.1-0.227-0.318-0.128-0.488c0.022-0.037,0.273-0.464,0.715-1.1l-0.226-1.84c-0.024-0.195,0.115-0.373,0.311-0.397
		c0.196-0.024,0.374,0.115,0.398,0.311l0,0l0.132,1.076c0.488-0.646,1.01-1.269,1.563-1.862c0.17-0.183,0.354-0.37,0.552-0.56
		l-0.322-1.912c-0.054-0.189,0.058-0.387,0.247-0.44c0.188-0.053,0.387,0.058,0.44,0.247c0.007,0.024,0.011,0.05,0.013,0.075
		l0.244,1.45c1.313-1.144,2.684-2.221,4.104-3.227c0.162-0.113,0.385-0.075,0.498,0.087c0.114,0.161,0.075,0.385-0.087,0.498l0,0
		c-0.021,0.014-1.274,0.899-2.641,2l1.369,0.443c0.188,0.062,0.289,0.263,0.229,0.45c-0.061,0.188-0.263,0.29-0.45,0.229l0,0
		l-1.8-0.585c-0.422,0.353-0.837,0.717-1.214,1.071l-0.009,0.01c-0.236,0.223-0.456,0.441-0.653,0.653
		c-0.3,0.318-0.575,0.638-0.832,0.948l2.724,0.732c0.192,0.043,0.313,0.234,0.271,0.427c-0.044,0.192-0.235,0.313-0.428,0.27
		c-0.01-0.002-0.019-0.005-0.027-0.008l-3.025-0.813c-0.532,0.681-1.025,1.393-1.478,2.131c-0.065,0.108-0.186,0.173-0.312,0.171
		h0.004V113.646z M199.991,113.646c-0.129,0-0.245-0.067-0.311-0.177c-0.451-0.738-0.944-1.45-1.478-2.132l-3.025,0.814
		c-0.188,0.057-0.388-0.05-0.445-0.238c-0.057-0.188,0.051-0.388,0.239-0.445c0.007-0.002,0.014-0.004,0.021-0.006l2.724-0.732
		c-0.257-0.311-0.535-0.629-0.832-0.948c-0.2-0.211-0.417-0.43-0.653-0.653l-0.01-0.01c-0.377-0.354-0.792-0.719-1.214-1.072
		l-1.8,0.586c-0.188,0.061-0.391-0.042-0.45-0.229c-0.063-0.188,0.041-0.389,0.229-0.45l0,0l1.369-0.443
		c-1.364-1.101-2.62-1.979-2.641-2c-0.161-0.114-0.2-0.337-0.087-0.498c0.114-0.161,0.337-0.2,0.498-0.086
		c1.422,1.005,2.792,2.082,4.104,3.226l0.244-1.45c0.054-0.189,0.251-0.3,0.44-0.247c0.162,0.046,0.27,0.197,0.26,0.365
		l-0.322,1.912c0.2,0.189,0.383,0.377,0.553,0.559c0.553,0.595,1.072,1.217,1.562,1.864l0.131-1.075
		c0.024-0.195,0.202-0.335,0.398-0.311c0.194,0.023,0.335,0.202,0.311,0.397l0,0l-0.226,1.838c0.44,0.638,0.692,1.064,0.715,1.101
		c0.102,0.17,0.047,0.39-0.123,0.491c-0.056,0.033-0.12,0.051-0.186,0.051h0.004V113.646z"/>
	<path id="Forma_1_11_" fill="#808285" d="M249.084,134.058c-8.562,0-15.5-6.939-15.5-15.5s6.938-15.5,15.5-15.5
		c8.561,0,15.5,6.939,15.5,15.5l0,0C264.574,127.114,257.641,134.048,249.084,134.058z M249.084,104.058
		c-8.008,0-14.5,6.492-14.5,14.5c0,8.008,6.492,14.5,14.5,14.5s14.5-6.492,14.5-14.5l0,0
		C263.575,110.553,257.088,104.066,249.084,104.058z M246.218,125.169l-5.541-5.541l0.708-0.708l4.833,4.834l10.521-10.521
		l0.707,0.707L246.218,125.169z"/>
	<path id="Forma_1_10_" fill="#808285" d="M303.055,136.914c-1.437-0.021-2.584-1.201-2.563-2.637l0.738-15.973
		c-2.152-0.831-3.426-3.241-3.426-6.542c0-3.788,2.355-6.87,5.25-6.87c2.894,0,5.25,3.082,5.25,6.87c0,3.3-1.271,5.71-3.426,6.542
		l0.739,15.95c0.027,1.44-1.119,2.631-2.561,2.659C303.059,136.913,303.057,136.914,303.055,136.914z M303.055,105.914
		c-2.349,0-4.259,2.624-4.259,5.852c0,3.007,1.151,5.134,3.082,5.688c0.225,0.068,0.372,0.28,0.36,0.514l-0.758,16.335
		c0.006,0.869,0.717,1.568,1.586,1.563c0.869-0.006,1.568-0.716,1.563-1.586l-0.759-16.313c-0.012-0.234,0.14-0.446,0.363-0.514
		c1.93-0.554,3.08-2.681,3.08-5.688c0-3.229-1.91-5.853-4.26-5.853V105.914L303.055,105.914z M289.536,136.914
		c-1.437-0.021-2.584-1.2-2.564-2.637l0,0l0.74-15.983c-2.069-0.791-3.434-2.778-3.426-4.993v-7.9
		c-0.006-0.276,0.215-0.504,0.49-0.509c0.003,0,0.007,0,0.01,0h2.211c0.275,0,0.5,0.224,0.5,0.5c0,0.003,0,0.006,0,0.009v6.83h0.55
		v-6.829c-0.005-0.276,0.215-0.504,0.491-0.509c0.003,0,0.006,0,0.009,0h2c0.275,0,0.5,0.224,0.5,0.5c0,0.003,0,0.006,0,0.009v6.83
		h0.55v-6.83c-0.005-0.276,0.215-0.504,0.491-0.509c0.003,0,0.006,0,0.009,0h2.217c0.276,0,0.5,0.224,0.5,0.5
		c0,0.003,0,0.006,0,0.009v7.9c0.006,2.215-1.356,4.203-3.426,4.993l0.74,15.958c0.026,1.441-1.119,2.632-2.562,2.659
		C289.556,136.913,289.546,136.913,289.536,136.914z M285.275,105.914v7.389c-0.006,1.91,1.249,3.596,3.081,4.137
		c0.226,0.067,0.375,0.279,0.362,0.514l-0.756,16.349c-0.016,0.869,0.678,1.586,1.547,1.6c0.869,0.015,1.585-0.678,1.6-1.547
		c0-0.025,0-0.051,0-0.077l-0.757-16.325c-0.013-0.234,0.137-0.447,0.362-0.514c1.833-0.541,3.088-2.227,3.082-4.137v-7.391h-1.228
		v6.83c0.006,0.276-0.215,0.504-0.49,0.509c-0.003,0-0.007,0-0.01,0h-1.54c-0.275,0-0.5-0.224-0.5-0.5c0-0.003,0-0.006,0-0.009
		v-6.83h-1.006v6.83c0.005,0.276-0.215,0.504-0.491,0.509c-0.003,0-0.006,0-0.009,0h-1.526c-0.276,0-0.5-0.224-0.5-0.5
		c0-0.003,0-0.006,0-0.009v-6.83h-1.229L285.275,105.914z"/>
	<path id="Forma_1_9_" fill="#808285" d="M336.881,110.069c0.455,0.003,0.825-0.363,0.83-0.818c0.002-0.341,0.063-0.679,0.18-1
		c0.437-1.122,1.516-1.861,2.72-1.862c2.5,0.012,4.538-2,4.561-4.5c0-0.458-0.371-0.83-0.83-0.83c-0.458,0-0.83,0.372-0.83,0.83
		c-0.001,0.342-0.065,0.681-0.189,1c-0.295,0.78-0.916,1.392-1.699,1.677c-0.322,0.123-0.665,0.186-1.011,0.185
		c-2.501-0.015-4.542,1.999-4.56,4.5C336.054,109.706,336.426,110.072,336.881,110.069z M354.65,136.056l-0.01-16.312l-7.142,5.661
		v-5.674l-6.979,5.626l-0.58-9.67h-0.021v-1.378c0-1.243-1.007-2.252-2.25-2.255h-3.209c-1.244,0.003-2.25,1.012-2.25,2.255v1.4
		l-1.562,20.332L354.65,136.056z M346.48,121.866v5.649l7.14-5.662l0.012,13.175H331.75l1.439-18.784h5.771l0.658,11.151
		L346.48,121.866z M333.23,114.31c-0.001-0.681,0.549-1.233,1.23-1.234h3.209c0.681,0.001,1.23,0.553,1.229,1.234v0.913h-5.67
		L333.23,114.31L333.23,114.31z"/>
	<path id="Forma_1_copy_3_копия_2_1_" fill="#808285" d="M400.269,121.113l1.506,14.37h2.506v-3.757
		c0.001-0.175,0.144-0.316,0.317-0.315l0,0h1.508v-7.567c0.01-0.176,0.159-0.309,0.335-0.299c0.16,0.009,0.289,0.137,0.299,0.299
		v7.569h0.787c0.175-0.001,0.316,0.141,0.317,0.315l0,0v3.755h0.876c0.174-0.001,0.313,0.14,0.314,0.314
		c0,0.174-0.141,0.315-0.313,0.315c-0.001,0-0.001,0-0.001,0h-29.451c-0.175,0-1.014,0.045-1-0.314
		c0.063-0.449,0.479-0.762,0.928-0.699c0.023,0.004,0.049,0.008,0.072,0.014h2v-13c0-0.174,0.236-0.117,0.412-0.117
		c0.175,0,0.588-0.057,0.588,0.117v13h7l3-18 M404.912,135.483h2.302v-3.442h-2.302V135.483z M393.269,118.113l-3,17h10l-1-14
		 M407.76,123.459c-0.037,0-0.073-0.006-0.108-0.019l-23.391-8.433l-2.283,6.278c-0.061,0.165-0.242,0.249-0.407,0.188
		c-0.081-0.03-0.146-0.092-0.181-0.171l-3.096-7.145c-0.031-0.074-0.033-0.157-0.007-0.232l2.771-7.612
		c0.045-0.131,0.17-0.217,0.309-0.212l5.625,0.183c0.174,0.005,0.312,0.15,0.306,0.324c0,0.033-0.008,0.066-0.019,0.098l-1.61,4.435
		l23.393,8.434c0.162,0.059,0.247,0.237,0.188,0.4l-1.191,3.275c-0.028,0.078-0.087,0.143-0.163,0.178
		C407.853,123.447,407.807,123.459,407.76,123.459z M384.477,114.413l23.092,8.328l0.979-2.682l-23.095-8.327L384.477,114.413z
		 M378.927,114.02l2.729,6.3l2.095-5.756c0.004-0.024,0.01-0.048,0.02-0.07l1.189-3.274c0.007-0.02,0.016-0.038,0.025-0.056
		l1.552-4.264l-4.959-0.162L378.927,114.02z"/>
	<path d="M133.688,193.885c-0.401-0.447-0.971-0.708-1.571-0.72c-0.605,0.014-1.179,0.271-1.591,0.715l-1.471,1.462
		c-0.119-0.065-0.24-0.126-0.356-0.187c-0.168-0.084-0.325-0.162-0.461-0.246c-1.457-0.945-2.749-2.121-3.826-3.482
		c-0.5-0.604-0.921-1.269-1.256-1.978c0.382-0.348,0.734-0.71,1.078-1.059c0.132-0.13,0.262-0.264,0.392-0.395
		c0.887-0.77,0.981-2.113,0.212-3c-0.065-0.076-0.137-0.146-0.212-0.212l-1.271-1.268c-0.144-0.144-0.292-0.292-0.432-0.441
		c-0.279-0.288-0.572-0.585-0.874-0.864c-0.407-0.427-0.968-0.673-1.558-0.682c-0.597,0.012-1.164,0.257-1.581,0.682l-0.01,0.009
		l-1.581,1.593c-0.587,0.574-0.944,1.341-1.009,2.159c-0.052,1.179,0.152,2.354,0.601,3.446c0.833,2.167,2.035,4.171,3.557,5.925
		c1.995,2.398,4.479,4.342,7.287,5.7c1.274,0.657,2.664,1.066,4.092,1.207c0.101,0,0.2,0.009,0.293,0.009
		c1.021,0.024,1.999-0.396,2.685-1.15c0-0.011,0.014-0.015,0.019-0.024c0.255-0.296,0.526-0.575,0.813-0.841
		c0.199-0.189,0.404-0.389,0.604-0.6c0.435-0.423,0.687-1,0.7-1.607c-0.012-0.605-0.271-1.181-0.716-1.592L133.688,193.885z
		 M135.353,198.775L135.353,198.775c-0.182,0.199-0.367,0.371-0.566,0.566c-0.316,0.293-0.616,0.604-0.899,0.93
		c-0.445,0.492-1.086,0.762-1.748,0.737c-0.07,0-0.146,0-0.215,0c-1.267-0.13-2.497-0.499-3.627-1.086
		c-2.645-1.28-4.983-3.11-6.864-5.367c-1.43-1.647-2.563-3.531-3.348-5.567c-0.391-0.917-0.568-1.91-0.521-2.906
		c0.037-0.523,0.267-1.014,0.643-1.379l1.586-1.584c0.185-0.195,0.438-0.313,0.706-0.329c0.26,0.016,0.504,0.132,0.679,0.325
		l0.014,0.014c0.284,0.265,0.555,0.539,0.837,0.831c0.145,0.149,0.293,0.3,0.442,0.45l1.269,1.268
		c0.397,0.285,0.488,0.837,0.204,1.235c-0.057,0.079-0.125,0.148-0.204,0.204c-0.134,0.135-0.265,0.27-0.399,0.4
		c-0.392,0.4-0.763,0.77-1.168,1.133c-0.009,0.006-0.018,0.014-0.023,0.023c-0.293,0.266-0.39,0.687-0.242,1.054
		c0,0.013,0.011,0.028,0.015,0.042c0.382,0.882,0.887,1.706,1.5,2.447l0,0c1.161,1.469,2.556,2.736,4.129,3.752
		c0.186,0.113,0.377,0.217,0.572,0.311c0.168,0.084,0.325,0.164,0.46,0.246c0.019,0.01,0.038,0.023,0.056,0.032
		c0.143,0.075,0.301,0.114,0.461,0.116c0.271-0.006,0.524-0.122,0.707-0.32l1.59-1.588c0.182-0.201,0.433-0.326,0.701-0.348
		c0.26,0.016,0.502,0.139,0.67,0.339l0.008,0.009l2.563,2.559c0.402,0.307,0.481,0.882,0.176,1.285
		c-0.047,0.063-0.102,0.117-0.162,0.166H135.353L135.353,198.775z M128.179,185.49c2.488,0.43,4.439,2.377,4.873,4.866
		c0.051,0.301,0.313,0.521,0.618,0.52c0.036-0.001,0.071-0.004,0.106-0.01c0.342-0.056,0.573-0.379,0.518-0.721
		c0-0.001,0-0.002-0.001-0.003c-0.523-3.013-2.887-5.371-5.899-5.888c-0.342-0.057-0.665,0.17-0.727,0.511
		c-0.063,0.337,0.162,0.661,0.499,0.723C128.17,185.489,128.174,185.49,128.179,185.49z M138.278,189.961
		c-0.86-4.959-4.749-8.841-9.709-9.695c-0.34-0.068-0.67,0.151-0.736,0.49c-0.068,0.339,0.15,0.669,0.489,0.737
		c0.016,0.003,0.031,0.006,0.048,0.008c4.435,0.762,7.908,4.232,8.677,8.665c0.052,0.301,0.313,0.521,0.619,0.52
		c0.036-0.001,0.071-0.004,0.106-0.009c0.335-0.054,0.563-0.37,0.508-0.706c0-0.005-0.002-0.01-0.002-0.014V189.961z"/>
	<path id="Forma_1_4_" d="M177.223,183.011v-0.101c-0.01-0.414-0.174-0.81-0.461-1.109l-0.034-0.035
		c-0.019,0-0.032-0.015-0.033-0.033c0,0,0-0.001,0.001-0.002c-0.067-0.068-0.132-0.1-0.2-0.169c-0.033,0-0.033-0.034-0.067-0.034
		c-0.067-0.034-0.164-0.068-0.231-0.1c-0.032,0-0.032-0.034-0.067-0.034c-0.095-0.04-0.196-0.063-0.299-0.069h-0.067
		c-0.101,0-0.23-0.033-0.363-0.033h-21.513c-0.134-0.006-0.269,0.006-0.4,0.033c-0.036-0.006-0.073,0.007-0.1,0.034
		c-0.1,0.034-0.2,0.034-0.262,0.069c-0.034,0-0.034,0.034-0.067,0.034c-0.066,0.035-0.165,0.068-0.231,0.1l-0.034,0.034
		c-0.067,0.035-0.131,0.1-0.2,0.134l-0.1,0.101c-0.227,0.253-0.366,0.571-0.4,0.909v15.135c0.049,0.439,0.275,0.841,0.626,1.11
		c0.319,0.221,0.698,0.339,1.087,0.337h21.689c0.11,0.006,0.223-0.006,0.329-0.034h0.066c0.101-0.035,0.199-0.035,0.263-0.069h0.033
		c0.641-0.225,1.061-0.838,1.038-1.515v-14.661C177.223,183.042,177.223,183.045,177.223,183.011z M175.113,182.54l-10.383,10.343
		l-2.374-2.362l0,0l-8.143-7.987h20.898l0,0L175.113,182.54L175.113,182.54z M153.323,197.399v-14.018l7.68,7.547L153.323,197.399z
		 M164.398,198.104h-9.985l7.482-6.268l2.4,2.393c0.084,0.081,0.187,0.139,0.3,0.168h0.2c0.115-0.021,0.221-0.08,0.3-0.168
		l2.273-2.259l7.515,6.134h-10.48H164.398z M175.998,197.431l-7.711-6.368l7.711-7.682V197.431z"/>
	<path id="Forma_1_5_" d="M200.052,198.899c2.186,0.008,4.303-0.765,5.97-2.179l7.24,7.261c0.315,0.35,0.854,0.378,1.205,0.062
		c0.35-0.315,0.377-0.854,0.062-1.204c-0.019-0.021-0.036-0.039-0.057-0.058l-7.25-7.261c3.284-3.967,2.729-9.846-1.237-13.129
		c-3.968-3.284-9.846-2.73-13.13,1.237c-3.283,3.967-2.729,9.846,1.237,13.129C195.769,198.145,197.876,198.902,200.052,198.899z
		 M200.052,181.887c4.228-0.009,7.662,3.412,7.67,7.64c0.008,4.229-3.412,7.662-7.64,7.67c-4.229,0.009-7.662-3.412-7.67-7.64
		c0-0.005,0-0.01,0-0.014C192.411,185.321,195.83,181.895,200.052,181.887L200.052,181.887z"/>
	<path id="Forma_1_6_" d="M286.896,188.405c-0.12-0.129-0.12-0.329,0-0.458c0.12-0.125,0.318-0.128,0.442-0.008
		c0.003,0.003,0.006,0.005,0.008,0.008l3.96,4.03l3.96-4.03c0.12-0.125,0.318-0.128,0.442-0.008
		c0.002,0.003,0.005,0.005,0.008,0.008c0.119,0.129,0.119,0.329,0,0.458l-4.19,4.261c-0.12,0.124-0.317,0.128-0.441,0.008
		c-0.003-0.003-0.005-0.005-0.007-0.008L286.896,188.405z"/>
	<path id="Forma_1_7_" d="M73.628,183.256h24v2.106h-24V183.256z M73.628,191.137h24v2.105h-24V191.137L73.628,191.137z
		 M73.628,199.146h24v2.109h-24v-2.111V199.146z"/>
	<circle opacity="0.2" fill="#FFFFFF" enable-background="new    " cx="120.843" cy="282.377" r="38.5"/>
	<path id="Forma_1_copy" fill="#0815BC" d="M113.099,300.482c-0.504,0.523-1.336,0.539-1.858,0.035
		c-0.523-0.504-0.539-1.336-0.035-1.859c0.008-0.008,0.016-0.018,0.023-0.025l16.431-16.266l-16.431-16.268
		c-0.511-0.498-0.521-1.315-0.022-1.826c0.007-0.008,0.015-0.016,0.022-0.023c0.52-0.51,1.352-0.51,1.87,0l17.369,17.193
		c0.51,0.511,0.51,1.338,0,1.849L113.099,300.482z"/>
	<path id="Forma_1_copy_1_" fill="#FFFFFF" d="M55.345,264.271c0.503-0.523,1.336-0.539,1.859-0.035
		c0.523,0.504,0.54,1.336,0.036,1.859c-0.009,0.008-0.017,0.019-0.025,0.025l-16.429,16.266l16.43,16.268
		c0.511,0.498,0.521,1.314,0.021,1.826c-0.007,0.008-0.015,0.016-0.021,0.023c-0.52,0.51-1.351,0.51-1.87,0L37.977,283.31
		c-0.51-0.511-0.51-1.338,0-1.849L55.345,264.271z"/>
	<circle opacity="0.2" fill="#FFFFFF" enable-background="new    " cx="446.893" cy="889.605" r="38.5"/>
	<path id="Forma_1_copy_7_" fill="#0815BC" d="M437.268,890.521c-0.51-0.512-0.51-1.338,0-1.85l17.369-17.193
		c0.519-0.51,1.351-0.51,1.87,0c0.008,0.008,0.016,0.016,0.022,0.023c0.498,0.512,0.488,1.328-0.022,1.826l-16.431,16.268
		l16.431,16.266c0.008,0.008,0.016,0.018,0.023,0.025c0.504,0.523,0.488,1.355-0.035,1.859c-0.522,0.504-1.354,0.488-1.858-0.035
		L437.268,890.521z"/>
	<path id="Forma_1_copy_6_" fill="#FFFFFF" d="M529.759,888.689c0.51,0.512,0.51,1.338,0,1.85l-17.369,17.193
		c-0.52,0.51-1.351,0.51-1.87,0c-0.007-0.008-0.015-0.016-0.021-0.023c-0.499-0.512-0.489-1.328,0.021-1.826l16.43-16.268
		l-16.429-16.266c-0.009-0.008-0.017-0.018-0.025-0.025c-0.504-0.523-0.487-1.355,0.036-1.859s1.356-0.488,1.859,0.035
		L529.759,888.689z"/>
	<path id="Forma_1_copy_10" fill="#808285" d="M359.946,189.54c0.408,0,0.74,0.331,0.74,0.739c0,0.408-0.33,0.74-0.738,0.741
		c-0.409,0-0.74-0.331-0.741-0.739c0,0,0,0,0-0.001c0-0.408,0.33-0.739,0.737-0.74H359.946z M352.153,198.91L352.153,198.91
		c0,0.01,0,0.01,0.012,0.01c0.01,0.027,0.021,0.055,0.033,0.08c0,0.01,0.013,0.01,0.013,0.02c0.002,0.011,0.006,0.021,0.01,0.03
		l0.012,0.011c0.012,0.02,0.034,0.029,0.045,0.049l0.012,0.01c0.006,0.012,0.014,0.022,0.022,0.031
		c0.005-0.001,0.011,0.003,0.011,0.008c0,0.001,0,0.002,0,0.002c0.013,0.01,0.021,0.01,0.034,0.02l0.011,0.01
		c0.006,0,0.012,0.005,0.013,0.01c0.017,0.008,0.031,0.018,0.045,0.031c0.008-0.002,0.017,0.002,0.021,0.01l0,0
		c0.008,0,0.017,0.004,0.021,0.01c0.032,0.008,0.065,0.012,0.101,0.01h12.116c0.25,0.003,0.455-0.197,0.459-0.449
		c0-0.004,0-0.007,0-0.01V186.72c0.002-0.251-0.197-0.457-0.449-0.46c-0.004,0-0.008,0-0.01,0h-12.077
		c-0.25-0.003-0.456,0.197-0.459,0.447c0,0.004,0,0.009,0,0.013v12.061c0,0.03,0.011,0.079,0.011,0.11v0.02H352.153z
		 M364.253,198.33H354.14l7.479-4.891l2.644,2.521v2.37H364.253L364.253,198.33z M353.054,187.18h11.199v7.51l-2.273-2.169
		c-0.154-0.147-0.389-0.172-0.57-0.061l-2.139,1.41l-1.489-1.5c-0.15-0.152-0.39-0.177-0.57-0.06l-4.153,2.62v-7.75H353.054z
		 M353.054,196.01l4.333-2.729l1.1,1.11l-5.431,3.55v-1.93H353.054z"/>
	<circle fill="none" stroke="#939598" stroke-miterlimit="10" cx="211.584" cy="283.373" r="22.5"/>
	<path id="Forma_1_copy_2_" fill="#939598" d="M213.612,273.954c0.263-0.272,0.695-0.28,0.968-0.019
		c0.271,0.263,0.28,0.695,0.019,0.968c-0.004,0.004-0.008,0.009-0.013,0.013l-8.546,8.461l8.546,8.462
		c0.266,0.259,0.271,0.685,0.012,0.95c-0.003,0.004-0.008,0.008-0.012,0.012c-0.271,0.266-0.703,0.266-0.974,0l-9.034-8.943
		c-0.267-0.266-0.267-0.695,0-0.961L213.612,273.954z"/>
	<circle fill="none" stroke="#0815BC" stroke-miterlimit="10" cx="267.793" cy="283.373" r="22.5"/>
	<path id="Forma_1_copy_3_" fill="#0815BC" d="M265.765,292.791c-0.262,0.271-0.695,0.28-0.967,0.018
		c-0.272-0.262-0.281-0.695-0.02-0.967c0.005-0.004,0.009-0.009,0.014-0.014l8.546-8.46l-8.546-8.462
		c-0.267-0.259-0.271-0.684-0.013-0.95c0.004-0.004,0.009-0.008,0.013-0.012c0.27-0.266,0.703-0.265,0.973,0l9.035,8.943
		c0.266,0.265,0.266,0.696,0,0.961L265.765,292.791z"/>
	<circle fill="none" stroke="#939598" stroke-miterlimit="10" cx="518.661" cy="369.931" r="22.5"/>
	<path id="Forma_1_copy_5_" fill="#939598" d="M525.669,369.455c0.266,0.266,0.266,0.695,0,0.961l-9.035,8.943
		c-0.27,0.266-0.703,0.266-0.973,0c-0.004-0.004-0.01-0.008-0.012-0.012c-0.26-0.265-0.254-0.691,0.012-0.95l8.545-8.462
		l-8.545-8.461c-0.006-0.004-0.01-0.009-0.014-0.013c-0.262-0.273-0.252-0.705,0.02-0.968c0.271-0.261,0.705-0.253,0.967,0.019
		L525.669,369.455z"/>
	<circle fill="none" stroke="#0815BC" stroke-miterlimit="10" cx="462.452" cy="369.931" r="22.5"/>
	<path id="Forma_1_copy_4_" fill="#0815BC" d="M455.447,370.406c-0.266-0.265-0.266-0.696,0-0.961l9.035-8.943
		c0.27-0.265,0.703-0.266,0.973,0c0.004,0.004,0.008,0.008,0.012,0.012c0.26,0.266,0.254,0.691-0.012,0.95l-8.547,8.462l8.547,8.46
		c0.004,0.005,0.008,0.01,0.014,0.014c0.262,0.272,0.252,0.705-0.02,0.967c-0.271,0.262-0.705,0.253-0.967-0.018L455.447,370.406z"
		/>
	<path id="Forma_1_8_" fill="#939598" d="M191.213,362.246h1.479v7.979h1.392v-7.979h1.51v-1.311h-4.381V362.246z M203.014,363.226
		c-0.522,0.035-1.002,0.313-1.291,0.75v-3.04h-1.26v9.29h1.26v-0.67c0.287,0.444,0.764,0.729,1.291,0.771
		c0.479,0.02,0.902-0.311,1-0.78c0.105-0.455,0.148-0.923,0.129-1.39v-2.76c0.021-0.468-0.021-0.936-0.129-1.391
		C203.917,363.536,203.493,363.206,203.014,363.226L203.014,363.226z M202.893,368.246c0,0.63-0.188,0.939-0.549,0.939
		c-0.242-0.012-0.467-0.124-0.621-0.31v-4.22c0.156-0.184,0.381-0.293,0.621-0.301c0.359,0,0.549,0.32,0.549,0.94V368.246
		L202.893,368.246z M198.124,368.596c-0.154,0.312-0.447,0.531-0.789,0.591c-0.162,0.005-0.295-0.121-0.301-0.282
		c0-0.003,0-0.006,0-0.008c-0.013-0.163-0.017-0.327-0.011-0.49v-5.101h-1.25v5.471c-0.016,0.347,0.021,0.693,0.109,1.029
		c0.117,0.341,0.453,0.556,0.811,0.521c0.576-0.064,1.099-0.374,1.431-0.851v0.75h1.26v-6.92h-1.26V368.596z M199.204,356.916
		c0.409,0,0.6-0.33,0.6-0.97v-2.95c0-0.64-0.188-0.97-0.6-0.97s-0.609,0.33-0.609,0.97v2.95
		C198.594,356.586,198.793,356.916,199.204,356.916L199.204,356.916z M200.043,342.276c-10.271,0.006-18.597,8.337-18.59,18.609
		c0.006,10.273,8.338,18.596,18.608,18.591c10.271-0.006,18.59-8.332,18.59-18.601c0-10.272-8.325-18.6-18.6-18.6
		C200.051,342.276,200.047,342.276,200.043,342.276L200.043,342.276z M202.114,350.977h1.271v5.149
		c-0.006,0.163-0.002,0.327,0.01,0.49c-0.004,0.162,0.125,0.297,0.289,0.3c0.004,0,0.008,0,0.012,0c0.347-0.063,0.644-0.285,0.8-0.6
		v-5.341h1.271v6.99h-1.271v-0.76c-0.336,0.481-0.865,0.795-1.449,0.86c-0.359,0.035-0.699-0.18-0.82-0.521
		c-0.088-0.339-0.125-0.689-0.108-1.04v-5.527H202.114L202.114,350.977z M197.323,353.256c-0.047-0.578,0.095-1.156,0.4-1.649
		c0.641-0.817,1.824-0.96,2.641-0.319c0.119,0.094,0.228,0.2,0.32,0.319c0.297,0.496,0.435,1.072,0.39,1.649v2.45
		c0.045,0.574-0.093,1.147-0.39,1.64c-0.643,0.817-1.824,0.961-2.643,0.319c-0.117-0.093-0.226-0.2-0.318-0.319
		c-0.305-0.489-0.445-1.064-0.399-1.64L197.323,353.256L197.323,353.256z M193.944,348.586l0.99,3.681l0.959-3.681h1.42l-1.688,5.58
		v3.801h-1.4v-3.801c-0.223-1.007-0.51-1.999-0.858-2.97c-0.302-0.87-0.609-1.74-0.9-2.61H193.944z M210.063,370.836
		c-0.24,1.089-1.143,1.907-2.25,2.04c-5.172,0.387-10.367,0.387-15.539,0c-1.106-0.13-2.008-0.95-2.239-2.04
		c-0.48-3.252-0.48-6.558,0-9.81c0.245-1.083,1.139-1.896,2.239-2.04c5.177-0.374,10.373-0.374,15.549,0
		c1.103,0.14,1.998,0.956,2.24,2.04C210.547,364.293,210.698,367.591,210.063,370.836L210.063,370.836z M207.014,363.227
		c-0.59-0.029-1.156,0.237-1.512,0.71c-0.293,0.49-0.426,1.06-0.379,1.63v2.42c-0.047,0.572,0.094,1.144,0.399,1.63
		c0.357,0.473,0.927,0.738,1.521,0.71c0.6,0.029,1.172-0.255,1.51-0.75c0.16-0.222,0.264-0.479,0.301-0.75
		c0.01-0.13,0.021-0.41,0.021-0.811v-0.18h-1.279c0,0.5-0.012,0.78-0.021,0.85c-0.023,0.289-0.271,0.51-0.56,0.5
		c-0.432,0-0.649-0.319-0.649-0.96v-1.229h2.51v-1.43c0.047-0.57-0.086-1.14-0.381-1.63
		C208.151,363.467,207.594,363.2,207.014,363.227L207.014,363.227z M207.624,365.956h-1.25v-0.64c0-0.64,0.209-0.96,0.629-0.96
		c0.41,0,0.621,0.32,0.621,0.96V365.956z M56.803,343.406c-9.744-0.153-17.769,7.622-17.922,17.367
		c-0.152,9.745,7.623,17.77,17.368,17.922c9.745,0.153,17.769-7.623,17.921-17.367c0.002-0.095,0.003-0.188,0.003-0.282
		C74.236,351.383,66.465,343.492,56.803,343.406z M61.124,361.676h-2.82v10.23h-4.188v-10.23h-1.99v-3.62h1.99v-2.34
		c-0.185-2.184,1.438-4.103,3.621-4.286c0.202-0.017,0.405-0.019,0.607-0.004l3.101,0.01v3.51h-2.25
		c-0.477-0.02-0.879,0.35-0.898,0.826c-0.003,0.055,0.001,0.109,0.009,0.164v2.12h3.189L61.124,361.676z M127.024,363.976
		c-0.11-0.08-0.221-0.159-0.34-0.239c-0.358-0.112-0.733-0.169-1.11-0.17h-0.05c-1.761,0-3.301,1.08-3.301,2.31
		c0,1.34,1.32,2.39,3.01,2.39c2.222,0,3.351-0.779,3.351-2.31c0-0.151-0.019-0.302-0.049-0.45
		C128.227,364.833,127.692,364.291,127.024,363.976z M125.784,359.296L125.784,359.296c0.405,0.006,0.793-0.175,1.051-0.49
		c0.461-0.63,0.645-1.421,0.51-2.189c-0.201-1.55-1.291-2.84-2.432-2.88h-0.05c-0.401,0.001-0.782,0.181-1.041,0.49
		c-0.45,0.615-0.629,1.39-0.489,2.14c0.201,1.55,1.319,2.89,2.432,2.93L125.784,359.296L125.784,359.296z M129.354,343.406
		c-9.746-0.158-17.772,7.612-17.932,17.357c-0.159,9.745,7.611,17.773,17.356,17.932c9.744,0.159,17.773-7.612,17.933-17.357
		c0.002-0.098,0.002-0.194,0.002-0.292C146.776,351.387,139.012,343.498,129.354,343.406L129.354,343.406z M127.354,369.646
		c-0.688,0.194-1.396,0.292-2.11,0.29c-0.8,0.002-1.596-0.095-2.369-0.29c-1.226-0.226-2.308-0.936-3-1.971
		c-0.209-0.379-0.32-0.806-0.32-1.239c0.002-0.461,0.108-0.916,0.311-1.33c1.041-1.856,3.044-2.965,5.171-2.86h0.061
		c-0.186-0.315-0.281-0.675-0.281-1.04c0.004-0.189,0.029-0.378,0.08-0.561c-2.303,0.028-4.19-1.816-4.22-4.119
		c-0.001-0.033-0.001-0.067,0-0.101c0.142-1.853,1.409-3.427,3.189-3.96c0.548-0.191,1.121-0.293,1.699-0.3h5.17
		c0.179,0.004,0.33,0.121,0.381,0.29c0.062,0.17,0,0.359-0.149,0.46l-1.15,0.85c-0.067,0.052-0.151,0.08-0.239,0.08h-0.41
		c0.571,0.752,0.869,1.677,0.842,2.62c-0.037,1.214-0.631,2.344-1.611,3.061c-0.799,0.64-0.83,0.81-0.83,1.17
		c0.271,0.529,0.681,0.979,1.181,1.3c1.309,0.778,2.071,2.222,1.979,3.74C130.606,367.648,129.227,369.248,127.354,369.646
		L127.354,369.646z M139.014,360.646c0.002,0.224-0.178,0.407-0.402,0.409c-0.004,0-0.006,0-0.008,0h-2.93v2.98
		c0.002,0.224-0.18,0.407-0.402,0.41c-0.004,0-0.006,0-0.008,0h-0.83c-0.225,0.002-0.408-0.178-0.41-0.402c0-0.003,0-0.005,0-0.008
		v-2.98h-2.93c-0.225,0.003-0.408-0.178-0.41-0.401c0-0.003,0-0.006,0-0.008v-0.851c-0.004-0.224,0.178-0.407,0.4-0.41
		c0.004,0,0.006,0,0.01,0h2.93v-2.979c-0.004-0.229,0.181-0.417,0.408-0.42c0,0,0,0,0.002,0h0.83
		c0.229,0.002,0.412,0.188,0.41,0.418v0.002v2.979h2.93c0.226-0.002,0.408,0.178,0.41,0.402c0,0.002,0,0.005,0,0.008V360.646
		L139.014,360.646z M276.243,359.246c-1.043-0.039-2.021,0.51-2.529,1.42v-1.21h-2.789c0.029,0.8,0,8.55,0,8.55h2.789v-4.779
		c-0.012-0.234,0.022-0.469,0.1-0.69c0.207-0.615,0.781-1.032,1.431-1.04c1.021,0,1.42,0.78,1.42,1.93v4.58h2.801v-4.909
		C279.463,360.476,278.084,359.246,276.243,359.246L276.243,359.246z M273.713,360.696h-0.01c0-0.01,0.01-0.021,0.01-0.03V360.696z
		 M266.573,359.456h2.802v8.55h-2.802V359.456z M273.073,344.116c-9.741-0.156-17.766,7.615-17.922,17.357
		c-0.153,9.742,7.617,17.767,17.359,17.922c9.742,0.156,17.766-7.615,17.922-17.357c0-0.094,0.002-0.188,0.002-0.282
		C290.499,352.096,282.733,344.204,273.073,344.116L273.073,344.116z M282.284,369.736c-0.003,0.753-0.615,1.362-1.369,1.36
		c0,0,0,0-0.002,0h-15.789c-0.754,0.003-1.367-0.605-1.371-1.358c0-0.001,0-0.001,0-0.002v-16.23
		c0.004-0.753,0.615-1.362,1.369-1.36h0.002h15.789c0.754-0.003,1.366,0.605,1.371,1.358c0,0.001,0,0.001,0,0.002V369.736
		L282.284,369.736z M267.993,355.326c-0.816-0.062-1.529,0.55-1.591,1.366c-0.063,0.817,0.55,1.529,1.365,1.592
		c0.063,0.004,0.123,0.005,0.187,0.002h0.02c0.816,0.056,1.525-0.563,1.58-1.38c0.055-0.816-0.563-1.524-1.381-1.579
		C268.114,355.323,268.053,355.322,267.993,355.326L267.993,355.326z"/>
	<path id="Forma_1_13_" d="M50.099,191.993l9.209-9.209c0.413-0.411,0.414-1.079,0.002-1.492c-0.411-0.413-1.079-0.414-1.491-0.002
		l-9.21,9.209l-9.21-9.208c-0.425-0.402-1.095-0.384-1.497,0.041c-0.386,0.407-0.387,1.044-0.003,1.453l9.21,9.209l-9.199,9.208
		c-0.413,0.402-0.422,1.063-0.02,1.476c0.006,0.007,0.013,0.013,0.02,0.02c0.194,0.199,0.462,0.311,0.739,0.311
		c0.281,0,0.551-0.111,0.75-0.311l9.21-9.209l9.21,9.209c0.194,0.199,0.462,0.311,0.739,0.311c0.584-0.001,1.058-0.475,1.056-1.059
		c-0.001-0.277-0.109-0.544-0.306-0.741L50.099,191.993z"/>
	<path id="Forma_1_14_" d="M259.613,182.875c-0.175-0.239-0.453-0.38-0.75-0.378h-17.989c-0.51-0.002-0.923,0.408-0.927,0.917
		c-0.002,0.509,0.408,0.923,0.917,0.926c0.004,0,0.007,0,0.01,0h16.72l-0.67,2.071h-14.01c-0.51-0.017-0.936,0.382-0.951,0.89
		c-0.017,0.508,0.382,0.934,0.891,0.951c0.021,0.001,0.04,0.001,0.062,0h13.409l-0.771,2.379h-11.55
		c-0.509-0.017-0.936,0.382-0.951,0.89c-0.017,0.509,0.382,0.935,0.891,0.95c0.021,0.001,0.04,0.001,0.062,0h10.95l-0.642,2h-12.31
		l-5.062-14.418c-0.092-0.254-0.288-0.457-0.54-0.555l-4.34-1.688c-0.478-0.186-1.016,0.045-1.21,0.52
		c-0.186,0.471,0.046,1.004,0.519,1.189c0.004,0.002,0.009,0.003,0.013,0.005l3.938,1.533l4.83,13.768
		c-0.219,0.076-0.395,0.244-0.479,0.461l-1.39,3.836c-0.088,0.234-0.055,0.496,0.09,0.7c0.148,0.204,0.387,0.325,0.64,0.325h0.71
		c-0.457,0.506-0.71,1.162-0.71,1.843c0.006,1.54,1.26,2.784,2.801,2.778c1.532-0.006,2.772-1.246,2.779-2.778
		c0.001-0.683-0.257-1.341-0.72-1.843h6.09c-0.457,0.506-0.71,1.162-0.711,1.843c0.007,1.54,1.261,2.784,2.802,2.778
		c1.532-0.006,2.772-1.246,2.778-2.778c0.002-0.683-0.256-1.341-0.721-1.843h0.87c0.424,0.002,0.769-0.342,0.77-0.765
		c0.001-0.424-0.342-0.768-0.766-0.769c-0.002,0-0.003,0-0.004,0h-14.87l0.87-2.376c0.111,0.048,0.229,0.072,0.351,0.073h13.649
		c0.404,0.005,0.766-0.254,0.892-0.639l3.879-11.969C259.846,183.42,259.793,183.111,259.613,182.875z M241.803,203.211
		c-0.678-0.007-1.223-0.562-1.216-1.239c0.007-0.679,0.562-1.223,1.239-1.217c0.675,0.007,1.217,0.555,1.217,1.229
		C243.037,202.666,242.483,203.213,241.803,203.211L241.803,203.211z M252.043,203.211c-0.678-0.007-1.224-0.562-1.216-1.239
		c0.007-0.679,0.562-1.223,1.238-1.217c0.674,0.007,1.218,0.555,1.218,1.229c-0.003,0.681-0.557,1.23-1.235,1.228
		C252.047,203.211,252.045,203.211,252.043,203.211L252.043,203.211z"/>
	<path fill="#808285" d="M423.27,202.748v-1.328c0.004-1.348-0.594-2.625-1.632-3.484c-1.766-1.4-3.654-2.637-5.646-3.691v-1.518
		c0.181-0.42,0.322-0.855,0.425-1.3c0.631-0.236,0.977-1.2,1.209-2.046c0.337-0.759,0.305-1.631-0.091-2.362
		c0.386-2.173,0.214-3.774-0.508-4.761c-0.274-0.389-0.667-0.681-1.119-0.833c-0.356-0.509-0.823-0.932-1.364-1.238
		c-0.76-0.462-1.633-0.701-2.521-0.69c-0.168,0-0.335,0.01-0.481,0.02c-0.42,0.022-0.832,0.104-1.229,0.241c0,0-0.01,0-0.016,0
		c-0.462,0.167-0.899,0.398-1.3,0.685c-0.479,0.316-0.915,0.69-1.301,1.115c-0.714,0.733-1.215,1.647-1.449,2.643
		c-0.2,0.776-0.219,1.589-0.05,2.373c-0.089,0.066-0.169,0.146-0.236,0.235c-0.357,0.723-0.378,1.567-0.055,2.306
		c0.122,0.714,0.453,1.375,0.952,1.9c0.127,0.697,0.355,1.371,0.68,2v1.232c-1.991,1.053-3.881,2.289-5.645,3.691
		c-1.036,0.861-1.633,2.141-1.625,3.486v1.33c-0.016,0.941,0.733,1.72,1.676,1.738h19.648
		C422.536,204.471,423.284,203.691,423.27,202.748z M401.47,202.748v-1.328c-0.005-0.963,0.423-1.878,1.164-2.492
		c1.767-1.404,3.665-2.633,5.669-3.67c0.278-0.145,0.453-0.434,0.449-0.748v-1.662c-0.001-0.111-0.029-0.22-0.084-0.316
		c-0.349-0.633-0.572-1.325-0.666-2.04c-0.035-0.244-0.211-0.444-0.448-0.511c-0.234-0.368-0.396-0.778-0.479-1.207
		c-0.129-0.369-0.184-0.76-0.157-1.151c0.196,0.008,0.388-0.082,0.508-0.24c0.128-0.17,0.162-0.392,0.093-0.593
		c-0.255-0.734-0.286-1.529-0.088-2.281c0.188-0.783,0.584-1.501,1.146-2.076c0.321-0.355,0.687-0.668,1.086-0.931
		c0,0,0.016-0.01,0.021-0.015c0.311-0.228,0.652-0.41,1.016-0.542c0.002,0.001,0.006,0.001,0.011,0
		c0.293-0.102,0.598-0.16,0.907-0.174c0.81-0.088,1.623,0.089,2.321,0.506c0.431,0.236,0.794,0.577,1.056,0.992
		c0.082,0.193,0.269,0.322,0.479,0.333c0.257,0.062,0.478,0.227,0.609,0.455c0.291,0.429,0.701,1.534,0.188,4.111
		c-0.063,0.282,0.077,0.57,0.335,0.7c0.045,0.4-0.006,0.804-0.148,1.181c-0.088,0.396-0.231,0.779-0.428,1.135
		c-0.115-0.021-0.233-0.007-0.341,0.041c-0.189,0.086-0.324,0.26-0.36,0.465c-0.09,0.565-0.254,1.115-0.486,1.637
		c-0.039,0.085-0.061,0.178-0.061,0.271v1.922c-0.004,0.313,0.17,0.603,0.449,0.746c2.002,1.039,3.898,2.27,5.664,3.672
		c0.742,0.613,1.169,1.527,1.164,2.49v1.33c0.004,0.262-0.205,0.479-0.468,0.485h-19.646c-0.262,0.001-0.476-0.212-0.477-0.474
		C401.469,202.763,401.469,202.756,401.47,202.748z"/>
	<path id="Shape_1_copy_2" fill="#808285" d="M457.34,193.884c-0.402-0.447-0.973-0.707-1.572-0.719
		c-0.605,0.014-1.179,0.271-1.59,0.715l-1.472,1.462c-0.12-0.063-0.239-0.125-0.356-0.185c-0.167-0.084-0.325-0.164-0.46-0.248
		c-1.457-0.943-2.749-2.12-3.827-3.481c-0.499-0.604-0.921-1.268-1.256-1.977c0.382-0.349,0.734-0.711,1.078-1.059
		c0.131-0.13,0.262-0.265,0.392-0.395c0.888-0.772,0.981-2.117,0.21-3.004c-0.064-0.075-0.135-0.145-0.21-0.209l-1.271-1.268
		c-0.145-0.145-0.293-0.292-0.433-0.441c-0.278-0.288-0.571-0.585-0.874-0.863c-0.406-0.427-0.968-0.673-1.558-0.683
		c-0.596,0.012-1.164,0.257-1.581,0.683l-0.009,0.009l-1.581,1.592c-0.587,0.574-0.945,1.341-1.011,2.159
		c-0.053,1.179,0.152,2.354,0.601,3.446c0.832,2.167,2.036,4.171,3.557,5.924c1.995,2.397,4.479,4.341,7.287,5.7
		c1.275,0.656,2.664,1.066,4.093,1.207c0.101,0,0.199,0.009,0.294,0.009c1.019,0.024,1.997-0.396,2.683-1.151
		c0-0.009,0.014-0.014,0.018-0.022c0.257-0.296,0.527-0.576,0.814-0.841c0.2-0.19,0.405-0.391,0.604-0.6
		c0.437-0.424,0.688-1,0.7-1.607c-0.013-0.605-0.271-1.18-0.716-1.592L457.34,193.884z M459.004,198.774L459.004,198.774
		c-0.183,0.194-0.367,0.371-0.567,0.565c-0.316,0.294-0.616,0.604-0.899,0.929c-0.444,0.493-1.086,0.764-1.75,0.738
		c-0.067,0-0.144,0-0.213,0c-1.267-0.131-2.498-0.5-3.628-1.087c-2.644-1.28-4.982-3.11-6.861-5.367
		c-1.432-1.646-2.563-3.532-3.35-5.568c-0.391-0.917-0.567-1.91-0.521-2.906c0.037-0.523,0.266-1.014,0.642-1.379l1.585-1.584
		c0.187-0.195,0.438-0.313,0.707-0.33c0.26,0.016,0.504,0.133,0.68,0.326c0.004,0.004,0.01,0.009,0.015,0.014
		c0.283,0.264,0.553,0.538,0.836,0.831c0.145,0.148,0.294,0.3,0.442,0.45l1.27,1.268c0.396,0.285,0.488,0.837,0.204,1.235
		c-0.058,0.079-0.125,0.148-0.204,0.204c-0.136,0.135-0.265,0.269-0.4,0.4c-0.39,0.4-0.762,0.771-1.167,1.133
		c-0.009,0.006-0.017,0.015-0.022,0.024c-0.293,0.266-0.391,0.687-0.241,1.054c0,0.013,0.01,0.027,0.014,0.041
		c0.382,0.883,0.888,1.707,1.5,2.447l0,0c1.161,1.469,2.557,2.736,4.129,3.752c0.187,0.113,0.376,0.218,0.572,0.312
		c0.167,0.084,0.326,0.162,0.46,0.246c0.021,0.008,0.038,0.022,0.058,0.031c0.142,0.074,0.3,0.115,0.461,0.116
		c0.269-0.007,0.522-0.122,0.704-0.319l1.593-1.589c0.18-0.202,0.43-0.326,0.698-0.349c0.262,0.017,0.503,0.139,0.671,0.34
		l0.01,0.009l2.562,2.56c0.404,0.305,0.483,0.88,0.18,1.284C459.121,198.668,459.066,198.725,459.004,198.774L459.004,198.774z
		 M451.834,185.49c2.487,0.429,4.438,2.377,4.872,4.866c0.052,0.301,0.313,0.521,0.618,0.52c0.036-0.001,0.071-0.004,0.107-0.01
		c0.341-0.056,0.572-0.377,0.517-0.719c0-0.001,0-0.003-0.001-0.005c-0.522-3.013-2.886-5.371-5.898-5.888
		c-0.343-0.056-0.664,0.171-0.728,0.511c-0.063,0.337,0.16,0.661,0.498,0.724c0.003,0,0.006,0.001,0.01,0.001H451.834z
		 M461.934,189.961c-0.862-4.959-4.749-8.84-9.709-9.695c-0.339-0.068-0.67,0.151-0.737,0.49s0.151,0.669,0.489,0.737
		c0.016,0.003,0.031,0.006,0.048,0.008c4.435,0.762,7.908,4.231,8.677,8.664c0.052,0.302,0.313,0.522,0.619,0.52
		c0.036-0.001,0.072-0.004,0.107-0.009c0.334-0.057,0.561-0.374,0.504-0.709c-0.001-0.003-0.002-0.006-0.002-0.01L461.934,189.961z"
		/>
	<path id="Forma_1_15_" fill="#808285" d="M485.832,177.755c-4.947-0.069-9.021,3.879-9.104,8.827c0,1.956,1.188,4.931,3.737,9.363
		c1.738,3.024,3.468,5.578,3.544,5.686l1.253,1.84c0.219,0.315,0.649,0.393,0.966,0.174c0.067-0.047,0.126-0.107,0.174-0.174
		l1.25-1.84c0.073-0.107,1.793-2.639,3.546-5.686c2.55-4.43,3.738-7.405,3.738-9.363
		C494.854,181.634,490.781,177.686,485.832,177.755z M490.008,195.3c-1.729,3.004-3.421,5.495-3.492,5.6l-0.684,1.004l-0.683-1.004
		c-0.071-0.105-1.776-2.62-3.491-5.6c-2.365-4.111-3.564-7.043-3.564-8.717c0.135-4.274,3.71-7.629,7.984-7.494
		c4.083,0.129,7.364,3.41,7.493,7.494C493.572,188.256,492.372,191.188,490.008,195.3L490.008,195.3L490.008,195.3z
		 M485.832,181.632c-2.701,0.083-4.826,2.342-4.742,5.045c0.083,2.703,2.342,4.828,5.045,4.744c2.646-0.082,4.746-2.249,4.746-4.895
		C490.835,183.783,488.575,181.594,485.832,181.632z M485.832,190.099c-1.973-0.061-3.521-1.708-3.461-3.682
		c0.062-1.972,1.709-3.522,3.683-3.461c1.929,0.06,3.463,1.641,3.463,3.571C489.482,188.529,487.836,190.126,485.832,190.099z"/>
	<path id="Forma_1_copy_29" fill="#808285" d="M336.789,187.776c-3.116-2.36-7.423-2.36-10.539,0
		c-2.426,1.757-2.967,5.147-1.209,7.572c0.337,0.464,0.744,0.871,1.209,1.208c1.502,1.175,3.361,1.8,5.27,1.77
		c0.2,0,0.41,0,0.61-0.02l1.279,2.109c0.088,0.148,0.247,0.239,0.42,0.24h0.011c0.168,0.002,0.325-0.081,0.42-0.22l2.71-4.03
		c1.277-1.04,2.032-2.592,2.061-4.24C338.993,190.438,338.169,188.82,336.789,187.776z M336.229,195.716l-2.37,3.5l-1.029-1.699
		c-0.092-0.15-0.255-0.241-0.431-0.24h-0.05c-0.275,0.028-0.553,0.042-0.83,0.04c-3.58,0-6.49-2.311-6.49-5.15
		s2.91-5.149,6.49-5.149s6.49,2.31,6.49,5.149C337.979,193.557,337.324,194.859,336.229,195.716L336.229,195.716z"/>
	<g>
		<path fill="#939598" d="M159.471,587.112H50.704l45.92-39.556h39.358l25.035,21.564c0.946-2.155,2.154-4.167,3.585-5.999
			l-25.339-22.157l52.479-46.148v42.853v15.085c2.296,0.412,4.494,1.104,6.561,2.036v-66.569l-19.68-17.137v-22.415
			c-0.004-7.255-5.865-13.146-13.12-13.185h-26.9l-22.3-19.778l-22.3,19.778h-26.9c-7.255,0.039-13.116,5.93-13.12,13.185v22.415
			l-19.68,17.142v92.3c0.005,7.254,5.866,13.143,13.12,13.182h114.583C160.897,591.649,160.041,589.438,159.471,587.112z
			 M178.624,479.654l9.84,8.569l-9.84,8.57V479.654z M129.423,540.966v0.004h-26.24l-14.432-13.186h54.452L129.423,540.966z
			 M116.303,424.275l12.464,11.209h-25.584L116.303,424.275z M66.354,442.078c0.249-0.017,0.5-0.018,0.749-0.002h98.4
			c3.526,0.248,6.329,3.063,6.56,6.593v53.399l-20.992,19.117H81.536l-20.992-18.458v-54.06
			C60.328,445.244,62.929,442.293,66.354,442.078z M53.983,479.658v17.8l-9.84-9.229L53.983,479.658z M42.831,585.136
			c-1.298-1.177-2.018-2.862-1.968-4.615v-85.699l52.479,46.148L42.831,585.136z"/>
		<rect x="73.663" y="461.854" fill="#939598" width="85.28" height="6.594"/>
		<rect x="73.663" y="501.406" fill="#939598" width="85.28" height="6.6"/>
		<rect x="73.663" y="481.633" fill="#939598" width="85.28" height="6.592"/>
	</g>
	<circle fill="#F9ED32" cx="192.75" cy="585.896" r="28.094"/>
	<path fill="#FFFFFF" d="M209.317,573.946l-20.595,20.3l-10.755-10.602l-1.825,1.802l12.58,12.399l22.42-22.101L209.317,573.946z"/>
	<g>
		<path fill="#939598" d="M412.471,587.112H303.702l45.92-39.556h39.359l25.035,21.564c0.945-2.155,2.154-4.167,3.585-5.999
			l-25.339-22.157l52.479-46.148v42.853v15.085c2.297,0.412,4.495,1.104,6.562,2.036v-66.569l-19.681-17.137v-22.415
			c-0.004-7.255-5.864-13.146-13.118-13.185h-26.9l-22.301-19.778l-22.299,19.778h-26.9c-7.256,0.039-13.117,5.93-13.121,13.185
			v22.415l-19.679,17.142v92.3c0.005,7.254,5.866,13.143,13.121,13.182h114.582C413.896,591.649,413.04,589.438,412.471,587.112z
			 M431.622,479.654l9.841,8.569l-9.841,8.57V479.654z M382.424,540.966v0.004h-26.24l-14.432-13.186h54.45L382.424,540.966z
			 M369.303,424.275l12.465,11.209h-25.584L369.303,424.275z M319.354,442.078c0.25-0.017,0.5-0.018,0.75-0.002h98.4
			c3.526,0.248,6.327,3.063,6.559,6.593v53.399l-20.992,19.117h-69.535l-20.991-18.458v-54.06
			C313.327,445.244,315.93,442.293,319.354,442.078z M306.982,479.658v17.8l-9.839-9.229L306.982,479.658z M295.831,585.136
			c-1.298-1.177-2.018-2.862-1.968-4.615v-85.699l52.48,46.148L295.831,585.136z"/>
		<rect x="326.661" y="461.854" fill="#939598" width="85.281" height="6.594"/>
		<rect x="326.661" y="501.406" fill="#939598" width="85.281" height="6.6"/>
		<rect x="326.661" y="481.633" fill="#939598" width="85.281" height="6.592"/>
	</g>
	<circle fill="#F9ED32" cx="446.026" cy="585.896" r="28.094"/>
	<path id="Rectangle_27_copy" d="M434.026,584.896h24v2h-24V584.896z M447.026,573.896v24h-2v-24H447.026z"/>
	<path fill="#FFFFFF" d="M400.72,337.501L400.72,337.501c-16.376,0-34.2-0.521-52.985-1.53c-11.1-0.61-19.699-9.16-20.927-20.8
		c-2.05-19.396-2.05-38.954,0-58.351c1.222-11.55,9.817-20.1,20.899-20.79c33.006-2.04,66.105-2.04,99.11,0
		c11.215,0.68,19.617,9.03,20.914,20.78c2.046,19.396,2.046,38.954,0,58.35c-1.18,11.63-9.574,19.99-20.886,20.811
		C432.616,336.98,417.095,337.501,400.72,337.501z M396.89,240.021c-16.323,0-32.754,0.521-48.836,1.53
		c-8.472,0.53-14.8,6.899-15.748,15.85c-2.008,19.011-2.008,38.18,0,57.19c0.948,9.02,7.269,15.39,15.726,15.86
		c18.683,1,36.41,1.52,52.685,1.52c16.245,0,31.633-0.51,45.737-1.52c8.535-0.61,14.877-6.98,15.775-15.851
		c2.008-19.011,2.008-38.18,0-57.189c-0.986-8.98-7.316-15.351-15.746-15.86C429.902,240.541,413.215,240.021,396.89,240.021z
		 M383.183,266.41v37.95l36.451-18.85L383.183,266.41z"/>
	<path id="Forma_1_16_" fill="#808285" d="M535.588,191.466c-0.199-0.26-4.988-6.46-11.088-6.46c-6.101,0-10.89,6.2-11.09,6.46
		l-0.41,0.54l0.409,0.54c0.199,0.261,4.99,6.46,11.089,6.46c6.1,0,10.888-6.199,11.089-6.46l0.413-0.54L535.588,191.466z
		 M524.5,197.256c-4.289,0-8.033-3.811-9.293-5.25c1.261-1.44,5-5.25,9.293-5.25c4.291,0,8.032,3.81,9.291,5.25
		C532.531,193.445,528.788,197.256,524.5,197.256z M524.5,187.216c-2.646-0.065-4.843,2.026-4.908,4.671
		c-0.064,2.646,2.026,4.843,4.672,4.908c2.646,0.064,4.843-2.026,4.908-4.671c0-0.039,0.001-0.079,0.001-0.118
		C529.2,189.394,527.111,187.252,524.5,187.216z M524.5,195.046c-1.68,0.042-3.074-1.285-3.116-2.964
		c-0.042-1.679,1.284-3.074,2.964-3.116s3.074,1.285,3.116,2.964c0.001,0.025,0.001,0.05,0.001,0.076
		c0.021,1.656-1.304,3.018-2.959,3.04C524.504,195.046,524.502,195.046,524.5,195.046z"/>
	<path fill="none" stroke="#808285" stroke-width="2" stroke-miterlimit="10" d="M146.41,755.217
		c-3.913-3.168-8.15-5.912-12.642-8.188c-0.137-0.063-0.227-0.199-0.229-0.351v-8.66c1.127-0.745,1.804-2.01,1.8-3.36v-8.969
		c0.015-4.438-3.563-8.052-8-8.08h-1.92c-4.439,0.021-8.021,3.639-8,8.08v8.969c-0.003,1.35,0.669,2.61,1.79,3.36v8.66
		c0,0.06-0.021,0.101-0.021,0.14c1.701,1.182,3.451,2.479,5.171,3.899c2.017,1.674,3.176,4.16,3.159,6.781v7.219H148v-6.141
		C147.988,757.277,147.407,756.049,146.41,755.217z M122.03,753.547c-4.59-3.738-9.572-6.969-14.859-9.631
		c-0.166-0.082-0.271-0.252-0.271-0.439v-10.159c1.316-0.888,2.105-2.371,2.101-3.959v-10.53c0.026-5.226-4.187-9.482-9.41-9.51l0,0
		h-2.22c-5.228,0.025-9.443,4.282-9.42,9.51v10.53c-0.003,1.59,0.79,3.073,2.109,3.959v10.159c0.001,0.188-0.104,0.357-0.27,0.439
		c-5.288,2.662-10.271,5.893-14.86,9.631c-1.17,0.978-1.845,2.426-1.84,3.949v7.221h50.801v-7.221
		C123.896,755.967,123.213,754.516,122.03,753.547z M77.77,746.656v-8.66c1.121-0.75,1.793-2.01,1.79-3.359v-8.971
		c0.021-4.439-3.56-8.057-8-8.078h-1.92c-4.437,0.029-8.015,3.644-8,8.078v8.971c-0.003,1.351,0.669,2.609,1.79,3.359v8.66
		c0.001,0.149-0.085,0.287-0.22,0.352c-4.493,2.269-8.73,5.01-12.641,8.181c-0.998,0.834-1.573,2.067-1.569,3.368v6.142H69.48
		v-7.222c-0.006-2.616,1.152-5.102,3.16-6.778c1.72-1.42,3.47-2.74,5.17-3.9C77.788,746.754,77.774,746.705,77.77,746.656z
		 M129.67,685.178c3.313-0.027,6.021,2.636,6.05,5.949s-2.636,6.022-5.95,6.05c-3.313,0.028-6.021-2.636-6.049-5.95
		c0-0.016,0-0.032,0-0.049c-0.016-3.299,2.646-5.984,5.945-6C129.668,685.178,129.669,685.178,129.67,685.178z M116.13,703.588
		c-0.743,1.818-2.073,3.336-3.78,4.311c-0.356,0.175-0.504,0.606-0.329,0.965c0.104,0.212,0.307,0.358,0.54,0.396
		c2.781,0.369,5.597-0.401,7.799-2.141l0.041,0.04c7.19,4.257,16.355,3.073,22.229-2.87c7.149-7.254,7.149-18.905,0-26.16
		c-7.061-7.154-18.583-7.23-25.738-0.172c-0.058,0.057-0.114,0.114-0.172,0.172c-6.841,6.947-7.176,17.99-0.77,25.34L116.13,703.588
		z M116.03,689.997c0.01-0.633,0.528-1.139,1.161-1.13c0.006,0,0.014,0,0.02,0l1.72,0.04c0.313-1.483,0.93-2.887,1.812-4.12
		l-1.181-1.26c-0.444-0.461-0.433-1.194,0.027-1.64c0.004-0.004,0.008-0.008,0.012-0.012l1.291-1.24
		c0.447-0.438,1.166-0.432,1.605,0.017c0.008,0.008,0.017,0.017,0.022,0.024l1.201,1.26c1.263-0.823,2.682-1.379,4.17-1.63
		l0.039-1.771c0.009-0.633,0.529-1.139,1.162-1.13c0.006,0,0.012,0,0.019,0l1.78,0.04c0.633,0.015,1.135,0.539,1.12,1.173
		c0,0.006,0,0.012-0.001,0.017l-0.039,1.781c1.468,0.313,2.854,0.929,4.069,1.81l1.261-1.239c0.442-0.438,1.156-0.433,1.594,0.012
		c0.012,0.013,0.023,0.025,0.035,0.038l1.23,1.291c0.444,0.46,0.432,1.193-0.028,1.639c-0.004,0.004-0.008,0.007-0.012,0.011
		l-1.271,1.24c0.82,1.271,1.371,2.697,1.621,4.189l1.75,0.04c0.633,0.015,1.135,0.54,1.12,1.173
		c-0.001,0.006-0.001,0.012-0.001,0.018l-0.04,1.801c-0.009,0.633-0.528,1.139-1.161,1.131c-0.006,0-0.013,0-0.019-0.001
		l-1.762-0.04c-0.303,1.479-0.903,2.882-1.77,4.12l1.2,1.26c0.443,0.46,0.433,1.193-0.028,1.64
		c-0.004,0.003-0.008,0.007-0.012,0.011l-1.28,1.239c-0.454,0.442-1.18,0.435-1.622-0.021c-0.006-0.007-0.012-0.014-0.018-0.02
		l-1.181-1.26c-1.265,0.826-2.684,1.388-4.171,1.649l-0.04,1.729c-0.008,0.633-0.527,1.14-1.161,1.131c-0.007,0-0.013,0-0.019,0
		l-1.78-0.041c-0.634-0.014-1.135-0.539-1.12-1.172c0-0.006,0-0.012,0-0.018l0.04-1.721c-1.484-0.306-2.89-0.923-4.12-1.81
		l-1.229,1.18c-0.443,0.438-1.157,0.433-1.594-0.012c-0.014-0.013-0.024-0.025-0.036-0.039l-1.23-1.289
		c-0.443-0.461-0.432-1.194,0.028-1.639c0.004-0.004,0.008-0.008,0.012-0.013l1.23-1.18c-0.829-1.283-1.389-2.724-1.641-4.229
		l-1.689-0.04c-0.634-0.016-1.136-0.54-1.12-1.173c0-0.007,0-0.013,0-0.019L116.03,689.997z"/>
	<path fill="none" stroke="#808285" stroke-width="2" stroke-miterlimit="10" d="M231.187,745.484l-4.343-2.109l-4.346,2.109
		c-5.438,2.653-11.999,0.938-15.441-4.039v22.729c0.002,1.404,0.733,2.705,1.931,3.439c0.646,0.393,1.387,0.602,2.142,0.6
		c0.632,0.002,1.255-0.146,1.82-0.43l13.895-6.892l13.894,6.892c1.263,0.627,2.759,0.563,3.962-0.17
		c1.196-0.734,1.929-2.037,1.932-3.439v-22.729C243.187,746.422,236.626,748.139,231.187,745.484z M191.358,704.596
		c-0.098,1.16,0.314,2.308,1.13,3.141l6.134,6.29l0,0l-1.236,8.67c-0.019,0.141-0.031,0.27-0.037,0.41
		c-0.076,2.028,1.364,3.801,3.366,4.141l8.688,1.51l4.135,7.729c1.039,1.93,3.414,2.696,5.385,1.739l7.923-3.84l7.922,3.84
		c1.97,0.953,4.34,0.191,5.386-1.729l4.136-7.74l8.688-1.51c2.162-0.359,3.643-2.381,3.328-4.551l-1.236-8.67l0,0l6.134-6.29
		c1.527-1.563,1.527-4.059,0-5.62l-6.133-6.29l0,0l1.235-8.67c0.02-0.133,0.032-0.268,0.038-0.399
		c0.075-2.031-1.364-3.805-3.366-4.149l-8.688-1.511l-4.136-7.729c-0.058-0.109-0.121-0.21-0.188-0.312
		c-0.017-0.026-0.033-0.055-0.053-0.08c-0.058-0.08-0.115-0.158-0.178-0.238c-0.014-0.021-0.025-0.03-0.041-0.051
		c-0.073-0.091-0.152-0.178-0.236-0.26c-0.015-0.02-0.032-0.037-0.054-0.051c-0.067-0.07-0.139-0.13-0.212-0.199
		c-0.023-0.014-0.046-0.031-0.064-0.051c-0.09-0.07-0.185-0.14-0.279-0.21c-0.007,0.001-0.013-0.003-0.014-0.01
		c-0.092-0.061-0.188-0.12-0.282-0.17c-0.025-0.012-0.05-0.03-0.075-0.04c-0.09-0.049-0.182-0.092-0.274-0.131
		c-0.011-0.011-0.023-0.019-0.037-0.021c-0.105-0.049-0.214-0.089-0.325-0.12c-0.022-0.011-0.046-0.018-0.07-0.02
		c-0.091-0.032-0.185-0.06-0.277-0.08c-0.023-0.012-0.048-0.012-0.07-0.021l-0.344-0.06h-0.037
		c-0.102-0.011-0.207-0.021-0.313-0.021c-0.026-0.008-0.056-0.012-0.085-0.01h-0.09c-0.037-0.002-0.073,0.002-0.109,0.01
		c-0.084-0.002-0.169,0.002-0.253,0.011c-0.059,0.011-0.118,0.011-0.176,0.021c-0.085,0.011-0.168,0.03-0.253,0.04
		c-0.059,0.009-0.115,0.021-0.171,0.04c-0.089,0.021-0.177,0.05-0.267,0.07c-0.051,0.02-0.101,0.029-0.151,0.05l-0.365,0.149
		c-0.013,0.011-0.026,0.011-0.04,0.021l-7.923,3.84l-7.923-3.84c-0.014-0.01-0.028-0.01-0.042-0.021l-0.363-0.149
		c-0.052-0.021-0.104-0.03-0.157-0.05c-0.086-0.021-0.172-0.051-0.259-0.07c-0.058-0.019-0.118-0.031-0.178-0.04
		c-0.082-0.01-0.163-0.029-0.244-0.04c-0.061-0.012-0.123-0.019-0.185-0.021c-0.08-0.009-0.161-0.013-0.241-0.011
		c-0.039-0.008-0.078-0.012-0.117-0.01h-0.1c-0.024-0.002-0.048,0.002-0.07,0.01c-0.113,0-0.227,0.011-0.337,0.021h-0.014
		c-0.119,0.021-0.238,0.04-0.355,0.068c-0.019-0.001-0.037,0.003-0.053,0.012c-0.101,0.02-0.2,0.05-0.301,0.079
		c-0.016,0.011-0.032,0.011-0.05,0.021c-0.116,0.03-0.229,0.071-0.338,0.12c0,0-0.008,0.01-0.012,0.01
		c-0.104,0.041-0.205,0.092-0.3,0.15l-0.059,0.029c-0.208,0.11-0.405,0.241-0.59,0.391c-0.017,0.02-0.034,0.03-0.051,0.05
		c-0.083,0.063-0.16,0.134-0.23,0.21l-0.04,0.03c-0.085,0.09-0.167,0.181-0.242,0.271c-0.009,0.016-0.02,0.028-0.032,0.039
		c-0.065,0.08-0.127,0.17-0.187,0.25c-0.014,0.025-0.03,0.049-0.049,0.07c-0.065,0.11-0.13,0.21-0.188,0.32l-4.134,7.729
		l-8.688,1.511c-2.002,0.347-3.44,2.119-3.366,4.149c0.006,0.13,0.019,0.271,0.037,0.4l1.236,8.67l-6.134,6.29
		C191.835,702.785,191.435,703.662,191.358,704.596z M226.844,690.075c8.182,0.063,14.763,6.749,14.698,14.931
		c-0.065,8.182-6.748,14.763-14.931,14.699c-8.138-0.064-14.701-6.683-14.698-14.82
		C211.954,696.676,218.635,690.049,226.844,690.075L226.844,690.075z"/>
	<path id="Forma_1_17_" fill="none" stroke="#808285" stroke-width="2" stroke-miterlimit="10" d="M392.96,760.416
		c2.859,0.012,5.171,2.34,5.159,5.201c-0.011,2.86-2.339,5.17-5.199,5.16c-2.854-0.013-5.16-2.328-5.16-5.181
		C387.768,762.729,390.094,760.412,392.96,760.416z M392.96,718.997c2.859,0.011,5.171,2.339,5.159,5.2
		c-0.011,2.86-2.339,5.17-5.199,5.16c-2.854-0.013-5.16-2.328-5.16-5.181C387.768,721.312,390.095,718.993,392.96,718.997
		L392.96,718.997z M392.96,682.758c2.857,0.015,5.163,2.342,5.148,5.199c-0.014,2.858-2.342,5.164-5.199,5.15
		c-2.846-0.015-5.146-2.324-5.149-5.171C387.768,685.072,390.095,682.754,392.96,682.758L392.96,682.758z M372.146,685.268
		c-1.477-0.006-2.676,1.188-2.682,2.662c0,0.003,0,0.006,0,0.009v33.569h-2.523c-1.475-0.006-2.674,1.187-2.679,2.66
		s1.186,2.674,2.66,2.68c0.007,0,0.013,0,0.019,0h2.52v38.75c0.005,1.478,1.203,2.67,2.681,2.67h11.58
		c-0.512-1.743-0.512-3.598,0-5.34h-8.9v-36.08h8.9c-0.512-1.744-0.512-3.597,0-5.34h-8.9v-30.91h8.9
		c-0.512-1.739-0.512-3.59,0-5.33h-11.578H372.146L372.146,685.268z M337.355,701.957c5.865-0.029,10.597-4.808,10.567-10.673
		c-0.03-5.865-4.809-10.598-10.674-10.567c-5.844,0.029-10.565,4.775-10.565,10.62c0.021,5.875,4.794,10.624,10.668,10.62H337.355z
		 M349.078,707.107l-0.019-0.011l-3.045-0.931c-0.482-0.147-0.994,0.106-1.168,0.58l-6.399,17.479
		c-0.222,0.602-0.888,0.908-1.486,0.688c-0.318-0.117-0.568-0.368-0.687-0.688l-6.406-17.479c-0.137-0.372-0.49-0.62-0.889-0.62
		c-0.094-0.001-0.187,0.012-0.276,0.04l-3.044,0.931c-3.869,1.265-6.486,4.869-6.49,8.939v18.5c0.001,0.182,0.054,0.359,0.154,0.51
		l6.685,10.119v25.611c0.002,0.52,0.424,0.94,0.943,0.938c0.001,0,0.001,0,0.002,0h20.807c0.521,0.002,0.943-0.418,0.945-0.938
		c0-0.002,0-0.002,0-0.002v-25.611l6.686-10.119c0.101-0.149,0.154-0.328,0.154-0.51v-18.55c-0.005-4.051-2.616-7.637-6.471-8.88
		h0.004V707.107z M339.645,705.678c-0.25-0.256-0.596-0.396-0.953-0.391h-2.67c-0.358-0.007-0.703,0.135-0.954,0.391
		c-0.368,0.396-0.434,0.982-0.163,1.449l1.427,2.15l-0.668,5.6l1.315,3.479c0.072,0.209,0.301,0.318,0.51,0.245
		c0.114-0.04,0.205-0.131,0.245-0.245l1.315-3.479l-0.669-5.6l1.427-2.15c0.271-0.467,0.203-1.056-0.166-1.449H339.645z"/>
	<path id="Forma_1_18_" fill="none" stroke="#808285" stroke-width="2" stroke-miterlimit="10" d="M509.873,687.924h0.233
		c2.281,1.827,5.525,1.827,7.807,0h0.232c1.346-1.187,2.117-2.896,2.115-4.689c0-0.029,0-0.061,0-0.101s0-0.061,0-0.09
		c0.088-3.451-2.641-6.32-6.092-6.408s-6.32,2.642-6.408,6.092c-0.002,0.105-0.002,0.211,0,0.316c0,0.03,0,0.061,0,0.09
		c0,0.03,0,0.07,0,0.101C507.76,685.028,508.529,686.736,509.873,687.924z M529.221,698.584c-0.027-3.925-3.213-7.095-7.139-7.101
		h-14.793c2.674,2.215,4.229,5.5,4.246,8.971l0.122,24.35c0.021,3.422-2.362,6.392-5.71,7.109v17.42
		c0.003,2,1.626,3.617,3.626,3.615c1.994-0.004,3.61-1.619,3.613-3.615v-28.159c0.016-0.432,0.379-0.769,0.811-0.753
		c0.409,0.014,0.738,0.344,0.753,0.753v28.159c0.004,2,1.627,3.617,3.627,3.615c1.993-0.004,3.61-1.619,3.613-3.615l-0.065-51.819
		h0.156c0.607-0.003,1.103,0.487,1.105,1.095c0,0.003,0,0.005,0,0.007l0.111,22.17c0.008,1.657,1.355,3,3.016,3h0.021
		c1.663-0.013,3.005-1.367,3-3.03L529.221,698.584z M507.747,724.823l-0.122-24.351c-0.027-4.313-3.528-7.8-7.844-7.81h-17.8
		c-1.175-0.001-2.334,0.266-3.39,0.78c2.447,2.311,3.843,5.522,3.858,8.89l0.132,26.249c0.003,0.959-0.18,1.91-0.534,2.801v1.392
		c0.779,0.957,1.207,2.153,1.207,3.389v14.221c0,1.234-0.428,2.433-1.207,3.392v2.459c-0.035,2.196,1.717,4.006,3.914,4.041
		c2.196,0.035,4.006-1.718,4.041-3.914c0.001-0.043,0.001-0.084,0-0.127v-30.939c-0.003-0.475,0.381-0.861,0.854-0.863
		s0.861,0.384,0.863,0.855c0,0.004,0,0.006,0,0.008v30.939c-0.035,2.196,1.717,4.006,3.913,4.041
		c2.195,0.035,4.007-1.718,4.041-3.914c0.001-0.043,0.001-0.084,0-0.127l-0.071-55.699c-0.008-0.383,0.296-0.7,0.679-0.708
		c0.382-0.009,0.699,0.295,0.708,0.678l0,0l0.123,24.36c0.011,1.83,1.504,3.307,3.336,3.295
		C506.282,728.149,507.759,726.655,507.747,724.823L507.747,724.823z M486.366,688.754c2.846,2.51,7.187,2.237,9.695-0.606
		c2.509-2.845,2.237-7.187-0.607-9.695c-2.846-2.509-7.186-2.237-9.694,0.606c-1.107,1.256-1.719,2.872-1.718,4.547
		C484.038,685.575,484.887,687.452,486.366,688.754L486.366,688.754z M477.878,734.694h-0.623v-3.23
		c0.898-0.676,1.427-1.736,1.423-2.859l-0.132-26.25c-0.032-4.647-3.806-8.401-8.453-8.409h-3.759
		c-0.469,1.22-3.825,10.26-4.327,11.568l1.044-4.92c0.074-0.347,0.021-0.709-0.15-1.021l-1.434-2.601l1.274-2.26
		c0.088-0.163,0.085-0.358-0.008-0.52c-0.094-0.158-0.264-0.254-0.447-0.25h-3.5c-0.184-0.003-0.354,0.092-0.446,0.25
		c-0.094,0.159-0.097,0.355-0.008,0.52l1.274,2.26l-1.438,2.61c-0.167,0.305-0.222,0.659-0.154,1l0.913,4.93
		c-0.456-1.17-3.692-10.3-4.188-11.568h-3.821c-4.648,0.008-8.422,3.762-8.453,8.41l-0.131,26.25
		c-0.01,1.971,1.582,3.577,3.555,3.59h0.018c1.968-0.004,3.563-1.594,3.572-3.562l0.131-26.25c0.003-0.378,0.312-0.682,0.688-0.68
		c0.001,0,0.001,0,0.001,0l0,0c0.381,0,0.688,0.309,0.688,0.689v60.051c-0.035,2.367,1.854,4.313,4.223,4.352
		c2.366,0.035,4.314-1.854,4.353-4.221c0-0.045,0-0.088,0-0.131v-33.342c0-0.511,0.414-0.925,0.924-0.925
		c0.513,0,0.926,0.414,0.926,0.925v33.342c-0.035,2.367,1.854,4.313,4.222,4.352c2.367,0.035,4.315-1.854,4.352-4.221
		c0.002-0.045,0.002-0.088,0-0.131v-7.301c-1.768-0.931-2.875-2.765-2.877-4.761v-14.221c0.002-1.998,1.109-3.83,2.877-4.76
		c0-6.699-0.074,0.149-0.076-29c0.002-0.409,0.33-0.742,0.74-0.75h0.008c0.408,0.003,0.74,0.332,0.746,0.74l0.132,26.239
		c0.01,1.172,0.592,2.267,1.56,2.931v3.131h-0.601c-0.812,0-1.471,0.655-1.472,1.469v14.221c0.001,0.812,0.66,1.469,1.472,1.469
		h5.39c0.813,0,1.472-0.655,1.472-1.469v-14.221C479.351,735.351,478.691,734.692,477.878,734.694L477.878,734.694z
		 M460.533,676.733c4.111-0.002,7.446,3.33,7.448,7.44c0.003,4.111-3.328,7.447-7.44,7.449c-4.111,0.002-7.445-3.329-7.448-7.441
		c0-0.003,0-0.006,0-0.009C453.093,680.065,456.424,676.733,460.533,676.733C460.532,676.733,460.532,676.733,460.533,676.733z"/>
	<path id="Forma_1_19_" fill="none" stroke="#808285" stroke-width="2" stroke-miterlimit="10" d="M146.99,824.164v31.279
		c0,0-6.7,1.319-8.091,1.489c-1.37,0.183-5.699,1.57-8.83-1.438c-4.84-4.629-22.021-21.689-22.021-21.689s-2.96-2.899-7.72-0.391
		c-4.37,2.291-10.841,5.66-13.54,6.971c-2.964,1.738-6.776,0.744-8.516-2.219c-0.475-0.812-0.761-1.717-0.835-2.652
		c0-2.549,1.59-4.278,3.869-5.549c6.16-3.729,19.16-11.01,24.57-13.891c3.29-1.74,5.66-1.892,10.17,1.91
		c5.561,4.67,10.51,8.93,10.51,8.93c1.217,0.856,2.744,1.147,4.19,0.801C137.07,826.385,146.99,824.164,146.99,824.164z
		 M78.61,877.174c1.287-2.733,0.114-5.994-2.619-7.283c-1.236-0.582-2.646-0.68-3.95-0.276c0.641-1.933,0.185-4.06-1.19-5.56
		c-1.463-1.409-3.562-1.94-5.52-1.399c0.639-1.933,0.184-4.06-1.19-5.562c-2.488-2.309-6.365-2.205-8.729,0.23
		c-2.551,2.448-4.19,6.879-1.91,9.489c2.271,2.591,4.89,1.011,6.88,0.562c-0.561,1.969-2.22,3.809-0.17,6.389s4.88,1.021,6.88,0.57
		c-0.561,1.971-2.149,3.99-0.18,6.381c1.97,2.389,5.229,1.119,7.38,0.459c-0.83,2.131-2.601,4.42-0.32,6.99
		c2.28,2.569,7.53,1.391,10.09-1.062c2.54-2.219,2.8-6.078,0.579-8.619c-0.006-0.006-0.013-0.014-0.019-0.02
		C83.023,876.93,80.696,876.43,78.61,877.174z M125.45,860.896c-18.562-18.531-9.83-9.812-19.82-19.812
		c-1.869-1.746-4.589-2.234-6.95-1.25c-2.779,1.221-6.359,2.871-9.05,4.141c-1.857,1.104-3.933,1.794-6.08,2.021
		c-5.691,0.023-10.325-4.57-10.35-10.262c-0.016-3.595,1.842-6.935,4.898-8.818c4.12-2.85,13.61-7.891,13.61-7.891
		s-2.891-3.66-9.221-3.66c-6.329,0-19.561,8.66-19.561,8.66c-2.837,1.479-6.198,1.569-9.109,0.239l-10.311-3.59v35.801
		c0,0,2.95,0.851,5.59,1.931c0.6-1.728,1.593-3.291,2.9-4.57c4.39-4.18,11.66-4.219,15.66-0.109c1.188,1.224,2.037,2.73,2.47,4.38
		c1.605,0.493,3.063,1.381,4.24,2.579c1.188,1.224,2.037,2.732,2.47,4.382c2.739,4.338,6.649,7.811,11.28,10.02
		c2.301,2.4,3.314,5.758,2.729,9.031h0.021c0.04,0.049,1.489,1.67,2.39,2.58c1.795,1.756,4.674,1.725,6.431-0.07
		c1.729-1.768,1.729-4.594,0-6.361c-0.061-0.059-6.381-6.659-5.87-7.18c0.5-0.5,8.551,7.859,8.699,8.021
		c1.773,1.776,4.649,1.778,6.426,0.006c1.775-1.773,1.777-4.65,0.006-6.426l0,0c-0.08-0.091-0.45-0.431-0.58-0.568
		c0,0-7.98-7.103-7.381-7.711c0.62-0.609,10.54,8.631,10.551,8.631c1.814,1.688,4.654,1.584,6.343-0.232
		c1.552-1.668,1.605-4.233,0.127-5.969c-0.029-0.09-7.56-7.949-6.97-8.539s8.04,7.06,8.061,7.08c1.794,1.756,4.673,1.725,6.43-0.07
		c1.729-1.768,1.729-4.594,0-6.36C125.502,860.93,125.476,860.914,125.45,860.896L125.45,860.896z"/>
	<path id="Forma_1_20_" fill="none" stroke="#808285" stroke-width="2" stroke-miterlimit="10" d="M237.951,829.983v-12.9h47.149
		v34.041h-42.47c-6.448,4.02-6.007,3.76-6.554,4.02h51.028c1.106-0.004,2-0.902,2-2.01v-38.061c0-1.106-0.894-2.006-2-2.01h-51.162
		c-1.107,0-2.006,0.899-2.006,2.01l0,0v10.029C233.939,825.104,237.536,827.014,237.951,829.983z M260.092,835.563l-3.271,2.59
		l1.322,3.21c0.432,1.023,1.609,1.505,2.633,1.075c0.049-0.021,0.096-0.041,0.142-0.065l8.686-4.51l8.734,6.84
		c0.354,0.271,0.786,0.419,1.231,0.42c0.618,0.003,1.203-0.281,1.582-0.771c0.682-0.88,0.525-2.143-0.349-2.829l-9.749-7.631
		c-0.617-0.48-1.458-0.56-2.154-0.199l-7.888,4.101L260.092,835.563z M255.831,825.263c-0.358-0.878-1.286-1.384-2.221-1.209
		l-6.832,1.279l-2.936-4.67c-0.591-0.938-1.829-1.217-2.766-0.626c-0.938,0.591-1.218,1.829-0.626,2.767l3.658,5.83
		c0.437,0.699,1.255,1.062,2.064,0.91l6.146-1.15l3.619-2.869L255.831,825.263z M251.96,836.753c0.162,0.26,0.306,0.531,0.431,0.811
		l8.846-7c0.869-0.69,1.019-1.954,0.332-2.829c-0.682-0.868-1.938-1.02-2.808-0.337c-0.003,0.003-0.005,0.005-0.008,0.007
		l-8.979,7.1C250.656,835.087,251.402,835.854,251.96,836.753L251.96,836.753z M217.293,862.483c0-0.519,0.42-0.938,0.938-0.938
		c0.52,0,0.938,0.42,0.938,0.938v19.17c1.899-1.105,4.058-1.691,6.255-1.699c-2.953-4.896-1.923-11.209,2.434-14.91
		c0,0-0.075-2.42-0.078-29.711c-0.02-0.418,0.304-0.771,0.722-0.793c0.418-0.021,0.772,0.304,0.793,0.723
		c0.001,0.018,0.002,0.033,0.001,0.052l0,0c0.019,3.51,0.056,11.119,0.066,13.29c0.005,2,1.631,3.617,3.632,3.612
		c0.671-0.002,1.327-0.189,1.897-0.544l12.83-8c1.703-1.054,2.229-3.29,1.175-4.994c-1.055-1.703-3.29-2.229-4.995-1.176l0,0
		l-7.332,4.57c-0.012-2.4-0.021-4.29-0.032-6.801c-0.028-4.719-3.851-8.535-8.568-8.56h-3.633l-2.721,7.271l-1.854,4.83l1.086-5.142
		c0.075-0.354,0.021-0.723-0.152-1.039l-1.473-2.689l1.271-2.432c0.091-0.165,0.087-0.367-0.01-0.528
		c-0.092-0.167-0.268-0.271-0.459-0.271h-3.588c-0.188,0.001-0.365,0.104-0.457,0.271c-0.097,0.161-0.1,0.363-0.008,0.528
		l1.344,2.432l-1.475,2.699c-0.172,0.312-0.229,0.673-0.158,1.021l0.941,5.15l-1.705-4.83l-2.791-7.271h-3.634
		c-4.722,0.019-8.546,3.838-8.567,8.561l-0.133,26.699c-0.017,2,1.593,3.636,3.594,3.65c0.002,0,0.004,0,0.006,0h0.019
		c1.994-0.002,3.612-1.617,3.619-3.611l0.135-26.698c0-0.396,0.32-0.719,0.718-0.719c0.396,0,0.718,0.321,0.718,0.719v61.09
		c-0.005,2.332,1.829,4.254,4.159,4.358l0.041-8.139c0.019-3.715,1.658-7.236,4.488-9.641v-20.5L217.293,862.483L217.293,862.483z
		 M218.23,809.253c4.158-0.016,7.543,3.342,7.561,7.5c0.017,4.159-3.341,7.544-7.5,7.561c-4.159,0.018-7.543-3.342-7.561-7.5
		c0-0.01,0-0.02,0-0.029C210.722,812.635,214.079,809.263,218.23,809.253L218.23,809.253L218.23,809.253z M272.277,866.394
		c4.209-0.016,7.634,3.386,7.647,7.593c0.015,4.209-3.384,7.633-7.593,7.647c-4.209,0.014-7.633-3.385-7.646-7.594
		c0-0.01,0-0.018,0-0.027c-0.009-4.198,3.39-7.61,7.59-7.619l0,0H272.277z M290.752,892.724c-0.027-4.774-3.896-8.639-8.67-8.659
		h-19.671c-4.46,0.016-8.187,3.401-8.626,7.84c-0.405-4.472-4.146-7.9-8.634-7.92h-19.67c-4.776,0.016-8.646,3.883-8.67,8.659
		l-0.043,8.609h7.328l0.043-8.58c0.018-0.391,0.348-0.692,0.738-0.676c0.37,0.016,0.665,0.316,0.676,0.686v8.57h19.406v-8.59
		c-0.001-0.424,0.342-0.769,0.766-0.771c0.424,0,0.769,0.343,0.77,0.767c0,0.002,0,0.002,0,0.004v0.01l0.042,8.58h14.487l0.043-8.49
		c0-0.391,0.317-0.707,0.707-0.707c0.392,0,0.707,0.316,0.707,0.707v8.49h19.41v-8.42c-0.01-0.424,0.327-0.775,0.751-0.785
		c0.41-0.01,0.755,0.308,0.783,0.715l0,0l0.042,8.49h7.324L290.752,892.724z M235.352,866.304c-4.213,0.021-7.61,3.449-7.593,7.662
		c0.011,2.342,1.097,4.549,2.946,5.986l0,0c3.336,2.559,8.111,1.926,10.67-1.41c2.557-3.336,1.924-8.111-1.411-10.668
		c-1.325-1.016-2.946-1.568-4.616-1.57H235.352z"/>
</g>
<path d="M487.102,132.734v-1.328c0.004-1.348-0.594-2.625-1.632-3.484c-1.766-1.4-3.654-2.637-5.646-3.691v-1.518
	c0.181-0.42,0.322-0.855,0.425-1.3c0.631-0.236,0.977-1.2,1.209-2.046c0.337-0.759,0.305-1.631-0.091-2.362
	c0.386-2.173,0.214-3.774-0.508-4.761c-0.274-0.389-0.667-0.681-1.119-0.833c-0.356-0.509-0.823-0.932-1.364-1.238
	c-0.76-0.462-1.633-0.701-2.521-0.69c-0.168,0-0.335,0.01-0.481,0.02c-0.42,0.022-0.832,0.104-1.229,0.241c0,0-0.01,0-0.016,0
	c-0.462,0.167-0.899,0.398-1.3,0.685c-0.479,0.316-0.915,0.69-1.301,1.115c-0.714,0.733-1.215,1.647-1.449,2.643
	c-0.2,0.776-0.219,1.589-0.05,2.373c-0.089,0.066-0.169,0.146-0.236,0.235c-0.357,0.723-0.378,1.567-0.055,2.306
	c0.122,0.714,0.453,1.375,0.952,1.9c0.127,0.697,0.355,1.371,0.68,2v1.232c-1.991,1.053-3.881,2.289-5.645,3.691
	c-1.036,0.861-1.633,2.141-1.625,3.486v1.33c-0.016,0.941,0.733,1.72,1.676,1.738h19.648
	C486.368,134.458,487.116,133.677,487.102,132.734z M465.302,132.734v-1.328c-0.005-0.963,0.423-1.878,1.164-2.492
	c1.767-1.404,3.665-2.633,5.669-3.67c0.278-0.145,0.453-0.434,0.449-0.748v-1.662c-0.001-0.111-0.029-0.22-0.084-0.316
	c-0.349-0.633-0.572-1.325-0.666-2.04c-0.035-0.244-0.211-0.444-0.448-0.511c-0.234-0.368-0.396-0.778-0.479-1.207
	c-0.129-0.369-0.184-0.76-0.157-1.151c0.196,0.008,0.388-0.082,0.508-0.24c0.128-0.17,0.162-0.392,0.093-0.593
	c-0.255-0.734-0.286-1.529-0.088-2.281c0.188-0.783,0.584-1.501,1.146-2.076c0.321-0.355,0.687-0.668,1.086-0.931
	c0,0,0.016-0.01,0.021-0.015c0.311-0.228,0.652-0.41,1.016-0.542c0.002,0.001,0.006,0.001,0.011,0
	c0.293-0.102,0.598-0.16,0.907-0.174c0.81-0.088,1.623,0.089,2.321,0.506c0.431,0.236,0.794,0.577,1.056,0.992
	c0.082,0.193,0.269,0.322,0.479,0.333c0.257,0.062,0.478,0.227,0.609,0.455c0.291,0.429,0.701,1.534,0.188,4.111
	c-0.063,0.282,0.077,0.57,0.335,0.7c0.045,0.4-0.006,0.804-0.148,1.181c-0.088,0.396-0.231,0.779-0.428,1.135
	c-0.115-0.021-0.233-0.007-0.341,0.041c-0.189,0.086-0.324,0.26-0.36,0.465c-0.09,0.565-0.254,1.115-0.486,1.637
	c-0.039,0.085-0.061,0.178-0.061,0.271v1.922c-0.004,0.313,0.17,0.603,0.449,0.746c2.002,1.039,3.898,2.27,5.664,3.672
	c0.742,0.613,1.169,1.527,1.164,2.49v1.33c0.004,0.262-0.205,0.479-0.468,0.485h-19.646c-0.262,0.001-0.476-0.212-0.477-0.474
	C465.301,132.75,465.301,132.742,465.302,132.734z"/>
<path id="Forma_1_21_" d="M520.662,108.974c-4.947-0.069-9.021,3.879-9.104,8.827c0,1.956,1.188,4.931,3.737,9.363
	c1.738,3.024,3.468,5.578,3.544,5.686l1.253,1.84c0.219,0.315,0.649,0.393,0.966,0.174c0.067-0.047,0.126-0.107,0.174-0.174
	l1.25-1.84c0.073-0.107,1.793-2.639,3.546-5.686c2.55-4.43,3.738-7.405,3.738-9.363
	C529.684,112.853,525.612,108.905,520.662,108.974z M524.838,126.519c-1.729,3.004-3.421,5.495-3.492,5.6l-0.684,1.004l-0.683-1.004
	c-0.071-0.105-1.776-2.62-3.491-5.6c-2.365-4.111-3.564-7.043-3.564-8.717c0.135-4.274,3.71-7.629,7.984-7.494
	c4.083,0.129,7.364,3.41,7.493,7.494C528.402,119.475,527.202,122.407,524.838,126.519L524.838,126.519L524.838,126.519z
	 M520.662,112.851c-2.701,0.083-4.826,2.342-4.742,5.045c0.083,2.703,2.342,4.828,5.045,4.744c2.646-0.082,4.746-2.249,4.746-4.895
	C525.665,115.002,523.406,112.813,520.662,112.851z M520.662,121.318c-1.973-0.061-3.521-1.708-3.461-3.682
	c0.062-1.972,1.709-3.522,3.683-3.461c1.929,0.06,3.463,1.641,3.463,3.571C524.312,119.748,522.666,121.345,520.662,121.318z"/>
</svg>
