<svg id="SvgjsSvg1008" xmlns="http://www.w3.org/2000/svg" version="1.1" xmlns:xlink="http://www.w3.org/1999/xlink" xmlns:svgjs="http://svgjs.com/svgjs" width="23" height="24"><defs id="SvgjsDefs1009"></defs><path id="SvgjsPath1010" d="M119.491 435.03C113.155 435.03 108 429.864 108 423.51399999999995C108 417.16599999999994 113.155 411.99999999999994 119.491 411.99999999999994C125.827 411.99999999999994 130.982 417.16599999999994 130.982 423.51399999999995C130.982 429.864 125.827 435.03 119.491 435.03ZM119.491 413.315C113.879 413.315 109.314 417.891 109.314 423.514C109.314 429.139 113.87899999999999 433.714 119.49099999999999 433.714C125.10299999999998 433.714 129.66799999999998 429.139 129.66799999999998 423.514C129.66899999999998 417.891 125.10299999999998 413.315 119.49099999999999 413.315ZM123.015 427.704C122.847 427.704 122.679 427.64 122.551 427.511L119.027 423.98C118.903 423.856 118.83500000000001 423.689 118.83500000000001 423.514L118.83500000000001 416.044C118.83500000000001 415.68 119.12800000000001 415.38599999999997 119.492 415.38599999999997C119.854 415.38599999999997 120.14800000000001 415.67999999999995 120.14800000000001 416.044L120.14800000000001 423.24199999999996L123.47900000000001 426.58C123.73600000000002 426.83799999999997 123.73600000000002 427.25399999999996 123.47900000000001 427.51099999999997C123.35000000000001 427.64 123.183 427.70399999999995 123.01500000000001 427.70399999999995Z " fill="#898989" transform="matrix(1,0,0,1,-108,-412)"></path></svg>