<svg id="SvgjsSvg1008" xmlns="http://www.w3.org/2000/svg" version="1.1" xmlns:xlink="http://www.w3.org/1999/xlink" xmlns:svgjs="http://svgjs.com/svgjs" width="28" height="22"><defs id="SvgjsDefs1009"></defs><path id="SvgjsPath1010" d="M982.228 3072.41C981.117 3073.04 979.887 3073.5 978.578 3073.75C977.53 3072.67 976.039 3072 974.386 3072C971.213 3072 968.641 3074.49 968.641 3077.55C968.641 3077.9900000000002 968.692 3078.4100000000003 968.79 3078.82C964.016 3078.59 959.784 3076.38 956.9499999999999 3073.02C956.4559999999999 3073.83 956.174 3074.79 956.174 3075.81C956.174 3077.74 957.189 3079.44 958.728 3080.43C957.7869999999999 3080.3999999999996 956.9019999999999 3080.1499999999996 956.127 3079.73L956.127 3079.8C956.127 3082.4900000000002 958.107 3084.7400000000002 960.7339999999999 3085.25C960.2529999999999 3085.38 959.7449999999999 3085.45 959.2209999999999 3085.45C958.8499999999999 3085.45 958.4909999999999 3085.41 958.1389999999999 3085.3399999999997C958.8699999999999 3087.5499999999997 960.9909999999999 3089.16 963.5039999999999 3089.2C961.5389999999999 3090.6899999999996 959.0609999999999 3091.58 956.3699999999999 3091.58C955.9059999999998 3091.58 955.4489999999998 3091.5499999999997 954.9999999999999 3091.5C957.5429999999999 3093.08 960.5599999999998 3094 963.8049999999998 3094C974.3709999999999 3094 980.1479999999998 3085.53 980.1479999999998 3078.19L980.1289999999998 3077.4700000000003C981.2549999999998 3076.69 982.2309999999998 3075.7200000000003 982.9999999999998 3074.6000000000004C981.9699999999998 3075.0400000000004 980.8639999999998 3075.34 979.7019999999998 3075.4800000000005C980.8879999999998 3074.7900000000004 981.7969999999998 3073.7000000000003 982.2279999999997 3072.4100000000003Z " fill="#ffffff" transform="matrix(1,0,0,1,-955,-3072)"></path></svg>