<?xml version="1.0" encoding="utf-8"?>
<!-- Generator: Adobe Illustrator 19.1.0, SVG Export Plug-In . SVG Version: 6.00 Build 0)  -->
<svg version="1.1" id="Layer_1" xmlns="http://www.w3.org/2000/svg" xmlns:xlink="http://www.w3.org/1999/xlink" x="0px" y="0px"
	 viewBox="-2788 2821.7 92.3 26.6" style="enable-background:new -2788 2821.7 92.3 26.6;" xml:space="preserve">
<style type="text/css">
	.st0{fill:#FFFFFF;}
</style>
<g>
	<g>
		<path class="st0" d="M-2773.7,2840.8c-0.4-1.9-1.5-3.3-2.5-5c-2.1-3.8-2-8.6,0.1-12.3c-5.7,0.6-10.2,5.5-10.2,11.4
			c0,5.9,4.4,10.7,10.1,11.4c0,0,0.1,0,0.1,0c1.1,0,1.9-0.7,2.2-1.6C-2773.4,2843.3-2773.4,2842-2773.7,2840.8z M-2778.1,2842.9
			c-0.9,0-1.7-0.8-1.7-1.7s0.8-1.7,1.7-1.7c0.9,0,1.7,0.8,1.7,1.7S-2777.2,2842.9-2778.1,2842.9z"/>
		<path class="st0" d="M-2733.8,2836.9c-0.9,0-1.6-0.7-1.6-1.6c0-0.9,0.7-1.6,1.6-1.6c0.9,0,1.6,0.7,1.6,1.6
			C-2732.2,2836.2-2732.9,2836.9-2733.8,2836.9L-2733.8,2836.9z"/>
		<path class="st0" d="M-2720.5,2836.9c-0.9,0-1.6-0.7-1.6-1.6c0-0.9,0.7-1.6,1.6-1.6s1.6,0.7,1.6,1.6
			C-2718.9,2836.2-2719.6,2836.9-2720.5,2836.9L-2720.5,2836.9z"/>
	</g>
	<g>
		<g>
			<path class="st0" d="M-2762.2,2834.8c0,6.9-5.6,12.6-12.6,12.6c-6.9,0-12.6-5.6-12.6-12.6c0-6.9,5.7-12.6,12.6-12.6
				C-2767.9,2822.2-2762.2,2827.9-2762.2,2834.8z M-2774.8,2821.7c-7.3,0-13.2,5.9-13.2,13.2c0,7.3,5.9,13.2,13.2,13.2
				c7.3,0,13.2-5.9,13.2-13.2C-2761.7,2827.6-2767.6,2821.7-2774.8,2821.7z"/>
		</g>
		<path class="st0" d="M-2763.3,2834.8c0-6.3-5.1-11.5-11.5-11.5c0,0-0.1,0-0.1,0c-0.8,1.2-1.4,2.7-1.7,4.2c-0.3,1.6-0.4,3.2,0,4.8
			c0.2,1,0.6,1.9,1.1,2.8c0.5,0.8,1,1.6,1.5,2.5c1.4,2.5,1.9,5.5,0.8,8.2c-0.1,0.1-0.1,0.3-0.2,0.4c0.3,0,0.5-0.1,0.8-0.1
			c0.6-0.8,0.8-1.7,1-2.6c0.2-1.1,0.2-2.2,0-3.2c-0.3-1.4-1-2.8-1.5-4.2c-1.3-3.2-1-7.2,0.8-10.2l0,0c0.3-0.5,1,0,0.7,0.5
			c-0.7,1.1-1.1,2.5-1.3,3.8c-0.2,1.3-0.2,2.6,0.1,3.8c0.4,1.5,0.9,2.9,1.4,4.3c0.9,2.3,1.2,5.2,0,7.5c0.3-0.1,0.6-0.2,0.9-0.4
			c0.3-0.5,0.6-1.1,0.7-1.6c0.3-0.9,0.3-1.9,0.2-2.9c-0.2-1.3-0.6-2.4-1-3.7c-0.8-2.9-0.3-6.4,1.6-8.9c0.4-0.5,1.1,0.1,0.7,0.5
			c-0.7,0.9-1.1,1.9-1.4,3c-0.3,1.1-0.5,2.3-0.3,3.5c0.2,1.3,0.6,2.5,1,3.8c0.5,1.8,0.6,3.8-0.1,5.5
			C-2765.5,2842.7-2763.3,2839-2763.3,2834.8z"/>
		<path class="st0" d="M-2745.8,2840.5h-2.5v-11.3h2.5V2840.5z"/>
		<path class="st0" d="M-2736.4,2837.1c0,2.3-1.4,3.5-4.3,3.5c-1.3,0-2.4-0.2-3.3-0.6l0.3-1.8c0.8,0.4,1.7,0.6,2.5,0.6
			c0.7,0,1.1-0.1,1.4-0.2c0.4-0.2,0.7-0.6,0.7-1.2c0-0.5-0.3-0.9-0.8-1.2c-0.3-0.2-0.7-0.4-1.4-0.7c-0.9-0.4-1.5-0.8-1.9-1.3
			c-0.5-0.6-0.7-1.3-0.7-2.2c0-1,0.5-1.8,1.4-2.4c0.8-0.5,1.7-0.7,2.8-0.7c1.2,0,2.1,0.2,2.9,0.5l-0.3,1.6c-0.9-0.2-1.8-0.4-2.5-0.4
			c-1.3,0-1.9,0.4-1.9,1.1c0,0.5,0.3,0.9,0.8,1.2c0.1,0,0.6,0.2,1.5,0.6C-2737.4,2834.4-2736.4,2835.5-2736.4,2837.1z"/>
		<path class="st0" d="M-2705.4,2840.5h-2.5v-11.3h2.5V2840.5z"/>
		<path class="st0" d="M-2696,2837.1c0,2.3-1.4,3.5-4.3,3.5c-1.3,0-2.4-0.2-3.3-0.6l0.3-1.8c0.8,0.4,1.7,0.6,2.5,0.6
			c0.7,0,1.2-0.1,1.4-0.2c0.4-0.2,0.7-0.6,0.7-1.2c0-0.5-0.3-0.9-0.8-1.2c-0.3-0.2-0.7-0.4-1.4-0.7c-0.9-0.4-1.5-0.8-1.9-1.3
			c-0.5-0.6-0.7-1.3-0.7-2.2c0-1,0.5-1.8,1.4-2.4c0.8-0.5,1.7-0.7,2.8-0.7c1.2,0,2.1,0.2,2.9,0.5l-0.3,1.6c-0.9-0.2-1.8-0.4-2.5-0.4
			c-1.3,0-1.9,0.4-1.9,1.1c0,0.5,0.3,0.9,0.8,1.2c0.1,0,0.6,0.2,1.5,0.6C-2696.9,2834.4-2696,2835.5-2696,2837.1z"/>
		<path class="st0" d="M-2711.1,2829.2l-2,6.3h0c-0.1,0.2-0.2,0.3-0.4,0.3c-0.2,0-0.3-0.1-0.4-0.2l-2-6.4h-2.8l3.7,11.3h2.1
			l3.8-11.3H-2711.1L-2711.1,2829.2z"/>
		<path class="st0" d="M-2751.5,2829.2l-2,6.3h0c-0.1,0.2-0.2,0.3-0.4,0.3c-0.2,0-0.3-0.1-0.4-0.3l-2-6.3h-2.8l3.7,11.3h2.1
			l3.8-11.3H-2751.5z"/>
		<path class="st0" d="M-2721.5,2839.3c0-0.2-0.2-0.4-0.4-0.4c0,0,0,0,0,0v0h-0.8l-3.3-9.7h-4.1v1.2h0c0,0,0,0,0,0v0
			c0,0.2,0.2,0.4,0.4,0.4c0,0,0,0,0,0v0h0.8l-3.2,9.7h2.1l0.9-2.7h3.7l0.8,2.7h3.3L-2721.5,2839.3L-2721.5,2839.3
			C-2721.5,2839.3-2721.5,2839.3-2721.5,2839.3L-2721.5,2839.3L-2721.5,2839.3z M-2728.3,2836.2c-0.2,0-0.4-0.2-0.4-0.4
			c0,0,0-0.1,0-0.1l0.8-2.4l0,0c0-0.2,0.2-0.3,0.4-0.3c0.2,0,0.3,0.1,0.4,0.3h0l1,3L-2728.3,2836.2L-2728.3,2836.2z"/>
	</g>
</g>
</svg>
