<svg id="SvgjsSvg1011" xmlns="http://www.w3.org/2000/svg" version="1.1" xmlns:xlink="http://www.w3.org/1999/xlink" xmlns:svgjs="http://svgjs.com/svgjs" width="36" height="21"><defs id="SvgjsDefs1012"></defs><path id="SvgjsPath1013" d="M1128.12 3083.72C1129.28 3084.8599999999997 1130.51 3085.9399999999996 1131.55 3087.2C1132.01 3087.7599999999998 1132.45 3088.3399999999997 1132.78 3088.99C1133.25 3089.91 1132.82 3090.93 1132 3090.9799999999996L1126.9 3090.9799999999996C1125.5900000000001 3091.0899999999997 1124.5400000000002 3090.5499999999997 1123.66 3089.6499999999996C1122.95 3088.9199999999996 1122.3000000000002 3088.1499999999996 1121.6200000000001 3087.3999999999996C1121.3400000000001 3087.0899999999997 1121.0500000000002 3086.7999999999997 1120.7 3086.5699999999997C1120.01 3086.12 1119.4 3086.2599999999998 1119 3086.99C1118.6 3087.74 1118.51 3088.56 1118.47 3089.39C1118.41 3090.6 1118.05 3090.92 1116.84 3090.98C1114.27 3091.1 1111.82 3090.71 1109.55 3089.39C1107.54 3088.24 1105.99 3086.6 1104.6399999999999 3084.75C1102.0099999999998 3081.15 1099.9899999999998 3077.19 1098.1799999999998 3073.12C1097.7699999999998 3072.21 1098.07 3071.72 1099.07 3071.7C1100.73 3071.66 1102.3999999999999 3071.6699999999996 1104.06 3071.7C1104.74 3071.71 1105.1799999999998 3072.1 1105.45 3072.74C1106.3500000000001 3074.9799999999996 1107.45 3077.1 1108.8300000000002 3079.0699999999997C1109.2 3079.6 1109.5700000000002 3080.12 1110.1100000000001 3080.49C1110.7 3080.8999999999996 1111.15 3080.7599999999998 1111.43 3080.1C1111.6000000000001 3079.68 1111.68 3079.22 1111.72 3078.77C1111.8500000000001 3077.22 1111.8700000000001 3075.67 1111.64 3074.12C1111.5 3073.15 1110.96 3072.5299999999997 1110 3072.3399999999997C1109.51 3072.2499999999995 1109.59 3072.0699999999997 1109.82 3071.7799999999997C1110.23 3071.2999999999997 1110.62 3070.9999999999995 1111.3899999999999 3070.9999999999995L1117.1499999999999 3070.9999999999995C1118.06 3071.1799999999994 1118.2599999999998 3071.5899999999997 1118.3799999999999 3072.5099999999998L1118.3899999999999 3078.9799999999996C1118.3799999999999 3079.3299999999995 1118.56 3080.3899999999994 1119.1999999999998 3080.6299999999997C1119.7099999999998 3080.7999999999997 1120.0499999999997 3080.39 1120.35 3080.0599999999995C1121.73 3078.5799999999995 1122.7199999999998 3076.8299999999995 1123.6 3075.0199999999995C1123.99 3074.2299999999996 1124.32 3073.3999999999996 1124.6499999999999 3072.5799999999995C1124.8899999999999 3071.9599999999996 1125.2699999999998 3071.6599999999994 1125.9499999999998 3071.6799999999994L1131.4999999999998 3071.6799999999994C1131.6599999999999 3071.6799999999994 1131.8299999999997 3071.6799999999994 1131.9899999999998 3071.7099999999996C1132.9199999999998 3071.8699999999994 1133.1799999999998 3072.2799999999997 1132.8899999999999 3073.1999999999994C1132.4299999999998 3074.6399999999994 1131.55 3075.8499999999995 1130.6799999999998 3077.0599999999995C1129.7599999999998 3078.3499999999995 1128.7699999999998 3079.5999999999995 1127.85 3080.8999999999996C1127.01 3082.0899999999997 1127.08 3082.6899999999996 1128.12 3083.72Z " fill="#ffffff" transform="matrix(1,0,0,1,-1098,-3071)"></path></svg>